<svg width="410" height="229" viewBox="0 0 410 229" fill="none" xmlns="http://www.w3.org/2000/svg">
<path d="M18.9746 69.3466C20.9274 70.5619 22.7989 71.8581 24.9144 72.9924C27.5995 74.4507 30.7728 75.4229 34.1902 75.909C35.3293 76.071 35.8989 76.4761 35.9803 77.2863C36.7126 82.7144 37.8517 88.2235 38.3399 93.6517C38.8281 99.6469 38.7468 105.723 38.9095 111.718C38.9095 112.448 39.3977 112.772 40.4555 112.772C40.7809 112.772 41.025 112.772 41.3505 112.772C42.9778 112.772 43.1406 112.61 43.2219 111.556C43.3847 105.966 43.3847 100.376 43.7101 94.7859C44.0356 88.8717 45.012 82.9574 46.558 77.1242C46.6393 76.7191 47.2089 76.233 47.6971 76.152C54.2065 75.0178 59.4953 72.6683 63.7264 69.1846C63.4823 69.5086 63.3195 69.7517 63.0754 70.0758C57.868 76.8002 53.1487 83.6866 50.2195 91.0591C49.3244 93.4086 48.7549 95.7581 48.2667 98.1076C47.5344 101.996 49.4872 105.642 51.3586 109.207C51.8468 110.179 52.5791 111.151 53.1487 112.042C53.4742 112.529 53.9623 112.772 54.776 112.772C56.4034 112.772 56.5661 112.934 56.6475 113.987C56.6475 115.445 56.8102 115.526 59.0071 115.526C63.8077 115.526 68.6897 115.526 73.4904 115.526C75.0364 115.526 75.1991 115.688 75.2805 116.741C75.2805 118.443 75.2805 120.225 75.2805 121.927C75.2805 122.899 75.5246 123.061 76.9892 123.061C80.0811 123.061 79.9997 123.061 79.9997 125.086C79.9997 125.653 79.9997 126.301 79.9997 126.869C79.9997 127.841 79.7556 128.084 78.2097 128.084C73.8159 128.084 69.3407 128.084 64.9469 128.084C44.117 128.084 23.2871 128.084 2.45716 128.084C0.341621 128.084 0.260254 128.003 0.260254 126.626C0.260254 125.734 0.260254 124.924 0.260254 124.033C0.260254 123.385 0.748455 123.061 1.64349 123.142C1.72486 123.142 1.72485 123.142 1.80622 123.142C5.63046 123.304 4.97953 122.737 4.97953 120.954C4.97953 119.496 4.97953 118.119 4.97953 116.66C4.97953 115.931 5.46773 115.607 6.5255 115.607C11.6516 115.607 16.7777 115.607 21.9038 115.607C23.6939 115.607 23.938 115.445 23.938 114.23C23.938 112.934 24.1007 112.691 26.1349 112.853C28.2504 113.015 29.2268 112.448 29.9591 111.151C31.7492 107.992 33.5393 104.832 34.0275 101.51C34.6784 97.4595 33.2952 93.5706 31.5865 89.6818C28.6573 83.0385 24.4262 76.7191 19.7883 70.5619C19.5442 70.0758 19.2187 69.6707 18.9746 69.3466Z" fill="white"/>
<path d="M6 44.6155C8.89757 50.0918 12.6 54.4406 17.5098 57.6619C21.2927 60.239 25.4781 61.9302 29.9855 62.8161C30.7099 62.9771 31.1123 62.8966 31.1928 62.0107C31.4342 57.4203 33.6879 53.7158 36.1026 50.0112C37.4709 47.9174 39.0001 45.904 39.2416 43.327C39.2416 42.9243 39.8855 42.4411 40.3684 42.28C43.266 41.1526 45.3587 39.3003 46.0026 36.1595C46.0831 35.9179 46.0831 35.6763 46.0831 35.4347C46.0831 35.3542 46.0026 35.1931 45.8416 34.871C45.6002 35.3542 45.3587 35.5958 45.1977 35.9984C43.427 39.7835 39.5635 41.5552 35.5391 40.4278C35.2172 40.3472 34.8147 40.1862 34.4928 40.2667C31.9172 40.9915 29.3416 41.6358 26.7659 42.4411C26.283 42.6022 25.7196 43.0854 25.3976 43.5686C24.5123 45.0182 23.2245 45.2598 21.7757 45.0182C20.1659 44.7766 19.2805 43.7296 18.9586 42.1995C18.3147 39.0587 19.361 36.5622 21.6952 34.4683C22.822 33.5019 24.1098 32.616 25.3171 31.7302C27.0074 30.5222 28.5367 29.2336 29.1001 26.9787C29.3415 26.0928 30.4684 25.368 31.1928 24.6432C33.044 22.952 33.1245 23.5158 31.5147 21.5024C25.8001 14.5765 20.0854 7.65067 14.2903 0.7248C14.1293 0.563734 13.8878 0.4832 13.7269 0.322133C13.8073 0.2416 13.9683 0.0805334 14.0488 0C22.0976 6.28161 30.1464 12.5632 38.2757 19.0059C38.7587 16.912 39.0806 15.1403 39.4831 13.3685C39.644 13.3685 39.8855 13.288 40.0465 13.288C40.7709 15.2208 41.6562 17.1536 42.3001 19.167C42.5416 19.9723 42.8636 20.2139 43.5879 20.4555C47.5319 21.5024 51.3953 22.7104 55.3392 23.8379C57.3514 24.4016 59.4441 24.8848 61.7783 24.16C61.1344 27.0592 58.4783 26.6566 56.3856 27.623C58.7197 29.1531 60.9734 29.1531 63.388 28.1062C62.8246 30.4416 61.5368 31.5691 59.2831 31.8912C61.1344 32.7771 62.9856 33.3408 63.6295 35.4347C64.1929 37.2064 64.6758 39.0587 65.2393 40.8304C65.1588 40.9915 64.9978 41.072 64.9173 41.2331C63.7905 40.8304 62.6636 40.5083 61.2953 40.0251C62.6636 43.8907 62.9051 47.5952 61.8587 51.3803C74.1734 37.6091 73.2881 13.2075 54.1319 0.805334C68.1368 5.39574 80.532 21.4219 77.5539 40.8304C74.8978 58.4673 59.6051 72.2385 40.7709 71.9969C20.4074 71.6747 8.25367 55.9707 6 44.6155Z" fill="white"/>
<path d="M103.907 36.1392V69.9659C103.907 73.1011 105.364 74.2561 107.915 74.2561C110.284 74.2561 111.924 73.1011 111.924 69.9659V36.1392H119.213V69.6359C119.213 76.7313 115.386 80.6915 107.915 80.6915C100.445 80.6915 96.6182 76.7313 96.6182 69.6359V36.1392H103.907Z" fill="white"/>
<path d="M131.056 48.1848V80.0315H124.132V36.1392H133.607L141.443 62.3756V36.1392H148.184V80.0315H140.349L131.056 48.1848Z" fill="white"/>
<path d="M153.833 36.1392H161.485V80.0315H153.833V36.1392Z" fill="white"/>
<path d="M189.182 63.5309V69.3062C189.182 76.4016 185.355 80.3618 177.885 80.3618C170.414 80.3618 166.587 76.4016 166.587 69.3062V46.5351C166.587 39.4397 170.414 35.4795 177.885 35.4795C185.355 35.4795 189.182 39.4397 189.182 46.5351V50.8253H181.893V46.205C181.893 43.0699 180.436 41.9148 177.885 41.9148C175.516 41.9148 173.876 43.0699 173.876 46.205V69.9663C173.876 73.1014 175.334 74.2565 177.885 74.2565C180.253 74.2565 181.893 73.1014 181.893 69.9663V63.696H189.182V63.5309Z" fill="white"/>
<path d="M193.191 46.5351C193.191 39.4397 197.2 35.4795 204.853 35.4795C212.323 35.4795 216.332 39.4397 216.332 46.5351V69.3062C216.332 76.4016 212.323 80.3618 204.853 80.3618C197.382 80.3618 193.191 76.4016 193.191 69.3062V46.5351ZM200.844 69.8013C200.844 72.9364 202.302 74.0915 204.853 74.0915C207.221 74.0915 208.861 72.9364 208.861 69.8013V46.205C208.861 43.0699 207.404 41.9148 204.853 41.9148C202.484 41.9148 200.844 43.0699 200.844 46.205V69.8013Z" fill="white"/>
<path d="M237.104 80.0319C236.74 78.8768 236.375 78.2168 236.375 74.5866V67.6563C236.375 63.531 234.917 62.046 231.455 62.046H228.904V79.8669H221.251V35.9746H232.731C240.566 35.9746 244.028 39.2748 244.028 46.0401V49.5053C244.028 53.9605 242.388 56.9307 239.108 58.4158C242.935 59.9008 244.21 63.201 244.21 67.8213V74.5866C244.21 76.7317 244.21 78.2168 245.121 79.8669H237.104V80.0319ZM228.904 42.4099V55.9406H231.82C234.735 55.9406 236.375 54.7856 236.375 51.3204V47.0302C236.375 43.895 235.282 42.575 232.549 42.575H228.904V42.4099Z" fill="white"/>
<path d="M255.872 48.1848V80.0315H248.948V36.1392H258.423L266.258 62.3756V36.1392H273V80.0315H265.165L255.872 48.1848Z" fill="white"/>
<path d="M116.042 90.2715H95.974V126H117.028V123.158H99.28V108.774H112.33V105.932H99.28V93.1135H116.042V90.2715ZM138.581 126L151.573 90.2715H148.267L136.841 122.52L125.531 90.2715H122.167L134.985 126H138.581ZM179.763 90.2715H159.695V126H180.749V123.158H163.001V108.774H176.051V105.932H163.001V93.1135H179.763V90.2715ZM212.394 90.2715V120.838L192.964 90.2715H189.658V126H192.964V95.6075L212.394 126H215.7V90.2715H212.394ZM249.587 90.2715H223.603V93.1135H234.971V126H238.277V93.1135H249.587V90.2715ZM254.556 123.39C257.978 125.478 261.458 126.87 265.286 126.87C271.608 126.87 276.944 123.854 276.944 117.3C276.944 106.106 259.37 106.57 259.37 98.1595C259.37 96.0135 260.762 92.3015 266.794 92.3015C269.578 92.3015 272.188 92.9975 275.262 94.6795L276.19 91.8955C273 90.2135 270.622 89.4595 266.91 89.4595C258.268 89.4595 255.948 94.9115 255.948 98.2175C255.948 109.064 273.348 108.426 273.348 117.3C273.348 121.998 269.868 124.028 265.518 124.028C262.154 124.028 258.558 122.578 255.716 120.664L254.556 123.39Z" fill="white"/>
</svg>
