<svg width="16" height="16" viewBox="0 0 16 16" fill="none" xmlns="http://www.w3.org/2000/svg">
<path d="M5.70218 4.85878L7.25028 3.31068V11.5C7.25028 11.6989 7.32929 11.8897 7.46995 12.0304C7.6106 12.171 7.80136 12.25 8.00028 12.25C8.19919 12.25 8.38995 12.171 8.53061 12.0304C8.67126 11.8897 8.75028 11.6989 8.75028 11.5V3.31068L10.2984 4.85878C10.3679 4.92873 10.4506 4.98427 10.5417 5.02221C10.6328 5.06016 10.7305 5.07976 10.8291 5.07989C10.9278 5.08002 11.0255 5.06069 11.1167 5.023C11.2079 4.9853 11.2907 4.92999 11.3605 4.86022C11.4302 4.79046 11.4856 4.70761 11.5232 4.61643C11.5609 4.52525 11.5803 4.42753 11.5801 4.32887C11.58 4.23021 11.5604 4.13254 11.5225 4.04147C11.4845 3.95039 11.429 3.8677 11.359 3.79812L8.53062 0.969684C8.46098 0.900035 8.3783 0.844787 8.2873 0.807094C8.1963 0.769401 8.09877 0.75 8.00028 0.75C7.90178 0.75 7.80425 0.769401 7.71326 0.807094C7.62226 0.844787 7.53958 0.900035 7.46993 0.969684L4.64152 3.79812C4.57157 3.8677 4.51603 3.95039 4.47809 4.04147C4.44015 4.13254 4.42055 4.23021 4.42041 4.32887C4.42028 4.42753 4.43961 4.52525 4.47731 4.61643C4.515 4.70761 4.57032 4.79046 4.64008 4.86022C4.70985 4.92999 4.79269 4.9853 4.88387 5.023C4.97505 5.06069 5.07277 5.08002 5.17143 5.07989C5.27009 5.07976 5.36776 5.06016 5.45884 5.02221C5.54991 4.98427 5.63261 4.92873 5.70218 4.85878Z" fill="white"/>
<path d="M14.5 7.25C14.3011 7.25 14.1103 7.32902 13.9697 7.46967C13.829 7.61032 13.75 7.80109 13.75 8V13.75H2.25V8C2.25 7.80109 2.17098 7.61032 2.03033 7.46967C1.88968 7.32902 1.69891 7.25 1.5 7.25C1.30109 7.25 1.11032 7.32902 0.96967 7.46967C0.829018 7.61032 0.75 7.80109 0.75 8V14C0.75 14.3315 0.881696 14.6495 1.11612 14.8839C1.35054 15.1183 1.66848 15.25 2 15.25H14C14.3315 15.25 14.6495 15.1183 14.8839 14.8839C15.1183 14.6495 15.25 14.3315 15.25 14V8C15.25 7.80109 15.171 7.61032 15.0303 7.46967C14.8897 7.32902 14.6989 7.25 14.5 7.25Z" fill="white"/>
</svg>
