<svg width="36" height="36" viewBox="0 0 36 36" fill="none" xmlns="http://www.w3.org/2000/svg">
<g clip-path="url(#clip0)">
<path d="M13.4996 17.2504C9.36421 17.2504 5.99976 13.8862 5.99976 9.75083C5.99976 5.61543 9.36421 2.25098 13.4996 2.25098C17.635 2.25098 20.9995 5.61543 20.9995 9.75083C20.9995 13.8862 17.635 17.2504 13.4996 17.2504ZM13.4996 4.50091C10.6048 4.50091 8.24968 6.85575 8.24968 9.75083C8.24968 12.6456 10.6048 15.0005 13.4996 15.0005C16.3944 15.0005 18.7495 12.6456 18.7495 9.75083C18.7495 6.85575 16.3944 4.50091 13.4996 4.50091Z" fill="white"/>
<path d="M25.8742 33.7501H1.12496C0.503982 33.7501 0 33.2461 0 32.6251V27.3752C0 23.4469 3.19637 20.2505 7.12469 20.2505H19.8745C23.8028 20.2505 26.9992 23.4469 26.9992 27.3752V32.6251C26.9992 33.2461 26.4952 33.7501 25.8742 33.7501ZM2.24993 31.5001H24.7492V27.3752C24.7492 24.6874 22.5622 22.5004 19.8745 22.5004H7.12469C4.43696 22.5004 2.24993 24.6874 2.24993 27.3752V31.5001Z" fill="white"/>
<path d="M34.8737 17.6259H22.1242C21.5032 17.6259 20.9993 17.1219 20.9993 16.5009C20.9993 15.88 21.5032 15.376 22.1242 15.376H34.8737C35.4947 15.376 35.9987 15.88 35.9987 16.5009C35.9987 17.1219 35.4947 17.6259 34.8737 17.6259Z" fill="white"/>
<path d="M28.874 23.6252C28.5859 23.6252 28.298 23.5156 28.0788 23.2953C27.6394 22.8556 27.6394 22.1432 28.0788 21.7037L33.2837 16.4988L28.0788 11.2939C27.6394 10.8545 27.6394 10.1421 28.0788 9.70263C28.5183 9.26319 29.2307 9.26319 29.6704 9.70263L35.6702 15.7024C36.1096 16.1418 36.1096 16.8545 35.6702 17.294L29.6704 23.2937C29.4499 23.5156 29.1618 23.6252 28.874 23.6252Z" fill="white"/>
</g>
<defs>
<clipPath id="clip0">
<rect width="36" height="36" fill="white"/>
</clipPath>
</defs>
</svg>
