<svg width="663" height="1185" viewBox="0 0 663 1185" fill="none" xmlns="http://www.w3.org/2000/svg">
<g opacity="0.7">
<path fill-rule="evenodd" clip-rule="evenodd" d="M439 846C670.96 846 859 656.616 859 423C859 189.384 670.96 0 439 0C207.04 0 19 189.384 19 423C19 656.616 207.04 846 439 846Z" fill="#223942" style="mix-blend-mode:soft-light"/>
<path fill-rule="evenodd" clip-rule="evenodd" d="M454 960C694.244 960 889 763.901 889 522C889 280.099 694.244 84 454 84C213.756 84 19 280.099 19 522C19 763.901 213.756 960 454 960Z" fill="#223942" style="mix-blend-mode:soft-light"/>
<path fill-rule="evenodd" clip-rule="evenodd" d="M532 1185C825.815 1185 1064 945.248 1064 649.5C1064 353.752 825.815 114 532 114C238.185 114 0 353.752 0 649.5C0 945.248 238.185 1185 532 1185Z" fill="#223942" style="mix-blend-mode:soft-light"/>
</g>
</svg>
