<svg width="28" height="24" viewBox="0 0 28 24" fill="none" xmlns="http://www.w3.org/2000/svg">
<g clip-path="url(#clip0)">
<path d="M0.159119 5.05273H27.8409V24.0001H0.159119V5.05273Z" fill="#FF5023"/>
<path d="M25.4545 3.15771V22.1051H15.4318C14.9255 22.1051 14.4399 22.3047 14.0819 22.66C13.7238 23.0154 13.5227 23.4973 13.5227 23.9998V5.05245C13.5227 4.54994 13.7238 4.068 14.0819 3.71267C14.4399 3.35734 14.9255 3.15771 15.4318 3.15771H25.4545Z" fill="#FFDAAA"/>
<path d="M13.5227 5.05245V23.9998C13.5227 23.4973 13.3216 23.0154 12.9635 22.66C12.6055 22.3047 12.1199 22.1051 11.6136 22.1051H1.59088V3.15771H11.6136C12.1199 3.15771 12.6055 3.35734 12.9635 3.71267C13.3216 4.068 13.5227 4.54994 13.5227 5.05245Z" fill="#FFB655"/>
<path d="M19.7273 2.21045H22.5909V4.10519H19.7273V2.21045Z" fill="#A7ADF0"/>
<path d="M22.5909 1.73697V2.21065H19.7273V1.73697C19.7273 1.36008 19.8781 0.998634 20.1467 0.732135C20.4152 0.465636 20.7794 0.315918 21.1591 0.315918C21.5389 0.315918 21.903 0.465636 22.1716 0.732135C22.4401 0.998634 22.5909 1.36008 22.5909 1.73697Z" fill="#57565C"/>
<path d="M22.4382 15.4736L21.1591 18.3157L19.88 15.4736H22.4382Z" fill="#57565C"/>
<path d="M22.5909 4.10547V15.1376L22.4382 15.4739H19.88L19.7273 15.1376V4.10547H22.5909Z" fill="#D80027"/>
<path d="M20.6818 4.10547H21.6364V15.4739H20.6818V4.10547Z" fill="#E03352"/>
<path d="M3.5 5.52637H12.5682V6.47373H3.5V5.52637Z" fill="white"/>
<path d="M3.5 8.36865H7.31818V9.31602H3.5V8.36865Z" fill="white"/>
<path d="M3.5 11.2104H9.70455V12.1578H3.5V11.2104Z" fill="white"/>
<path d="M3.5 14.0527H5.40909V15.0001H3.5V14.0527Z" fill="white"/>
<path d="M8.27271 8.36865H12.5682V9.31602H8.27271V8.36865Z" fill="white"/>
<path d="M10.6591 11.2104H12.5682V12.1578H10.6591V11.2104Z" fill="white"/>
<path d="M6.36365 14.0527H12.5682V15.0001H6.36365V14.0527Z" fill="white"/>
</g>
<defs>
<clipPath id="clip0">
<rect width="28" height="24" fill="white"/>
</clipPath>
</defs>
</svg>
