<svg width="46" height="46" viewBox="0 0 46 46" fill="none" xmlns="http://www.w3.org/2000/svg">
<path d="M23.8272 27.2062V14.334L14.7017 17.7589V30.6426L23.8272 27.2062Z" fill="#66757C"/>
<path d="M32.9641 17.7589V30.6426L23.8271 27.2062V14.334L32.9641 17.7589Z" fill="#223942"/>
<path d="M23.8271 21.2071V34.0908L32.9641 30.6544V17.7822L23.8271 21.2071Z" fill="#223942"/>
<path d="M14.7017 30.6544V17.7822L23.8272 21.2071V34.0908L14.7017 30.6544Z" fill="#66757C"/>
<path d="M23.8271 21.2076L27.3325 23.5982L36.4695 20.1733L32.9641 17.7827L23.8271 21.2076Z" fill="#9FA9AD"/>
<path d="M11.1964 20.1733L14.7017 17.7827L23.8272 21.2076L20.3333 23.5982L11.1964 20.1733Z" fill="#9FA9AD"/>
<path d="M23.8271 14.3344L27.3325 11.9438L36.4695 15.3688L32.9641 17.7593L23.8271 14.3344Z" fill="#9FA9AD"/>
<path d="M11.1964 15.3688L14.7017 17.7593L23.8272 14.3344L20.3333 11.9438L11.1964 15.3688Z" fill="#9FA9AD"/>
<path d="M27.3441 7.30066L23.31 3.2666L19.2645 7.30066H21.678V11.8404H24.9305V7.30066H27.3441Z" fill="#E0EAF2"/>
<path d="M19.2645 38.32L23.31 42.3541L27.3441 38.32H24.9305V33.7803H21.678V38.32H19.2645Z" fill="#E0EAF2"/>
<path d="M38.8137 26.8501L42.8477 22.8161L38.8137 18.7705V21.184H34.2739V24.4366H38.8137V26.8501Z" fill="#E0EAF2"/>
<path d="M7.79468 18.7705L3.76062 22.8161L7.79468 26.8501V24.4366H12.3344V21.184H7.79468V18.7705Z" fill="#DADADA"/>
</svg>
