<svg width="36" height="36" viewBox="0 0 36 36" fill="none" xmlns="http://www.w3.org/2000/svg">
<g clip-path="url(#clip0)">
<path d="M31.6866 26.7223L27.3689 5.18468C27.3371 5.02598 27.2435 4.88648 27.1089 4.79676C26.9741 4.7069 26.8093 4.67442 26.6507 4.70627L5.11311 9.0241C4.78271 9.09033 4.56854 9.41187 4.63484 9.74227L8.95246 31.2798C9.01061 31.5698 9.26535 31.7702 9.55005 31.7702C9.58978 31.7702 9.63021 31.7663 9.67064 31.7582L31.2082 27.4406C31.5386 27.3743 31.7529 27.0527 31.6866 26.7223Z" fill="#66757C"/>
<path d="M5.11311 9.02415C4.78271 9.09038 4.56854 9.41192 4.63484 9.74232L8.95246 31.2799C9.01061 31.5698 9.26535 31.7703 9.55005 31.7703C9.58978 31.7703 9.63021 31.7663 9.67064 31.7583L11.8611 31.3192L7.22636 8.60059L5.11311 9.02415Z" fill="#F2C127"/>
<path d="M13.0148 17.3971C12.9486 17.0666 12.6266 16.8524 12.2966 16.9188L9.30525 17.5185C8.97485 17.5847 8.76068 17.9063 8.82698 18.2367L9.78647 23.0228C9.85257 23.3528 10.1864 23.5712 10.5153 23.4988C10.836 23.4282 11.0475 23.1053 10.983 22.783L10.6231 20.9882L11.8196 20.7483C12.15 20.6821 12.3642 20.3605 12.2979 20.0301C12.2317 19.6997 11.9098 19.4856 11.5797 19.5519L10.3831 19.7918L10.1432 18.5953L12.5363 18.1155C12.8669 18.0489 13.0811 17.7275 13.0148 17.3971Z" fill="white"/>
<path d="M15.1702 22.5536C14.8855 22.5536 14.6308 22.3531 14.5726 22.0632L13.6132 17.277C13.5478 16.9511 13.7659 16.6242 14.0914 16.5589L17.0828 15.9593C17.4128 15.8932 17.7347 16.107 17.801 16.4375L18.2807 18.8305C18.347 19.1609 18.1328 19.4825 17.8025 19.5487L17.2041 19.6687L18.5689 20.8886C18.8167 21.1101 18.8386 21.5023 18.6171 21.7501C18.3955 21.998 18.0034 22.0201 17.7556 21.7984L15.4811 19.7651C15.3823 19.6769 15.317 19.5609 15.2907 19.4361L15.7692 21.8233C15.8438 22.1957 15.55 22.5536 15.1702 22.5536ZM14.9295 17.6356L15.2881 19.4243C15.2711 19.3349 15.2739 19.2413 15.2988 19.15C15.3595 18.927 15.541 18.7576 15.7676 18.7121L16.9641 18.4721L16.7241 17.2756L14.9295 17.6356Z" fill="white"/>
<path d="M23.5466 20.264C23.4804 19.9335 23.1586 19.7194 22.8285 19.7857L21.0337 20.1456L20.7938 18.9491L21.9903 18.7092C22.3207 18.6429 22.5349 18.3214 22.4686 17.991C22.4024 17.6605 22.0805 17.4463 21.7504 17.5127L20.5538 17.7526L20.3139 16.5561L22.1087 16.1963C22.4391 16.13 22.6533 15.8085 22.587 15.4781C22.5208 15.1476 22.1988 14.9335 21.8688 14.9998L19.4757 15.4796C19.317 15.5114 19.1775 15.6049 19.0878 15.7396C18.998 15.8743 18.9656 16.0391 18.9974 16.1978L19.9569 20.9839C20.0222 21.3098 20.349 21.5277 20.6751 21.4621L23.0682 20.9824C23.3987 20.9159 23.6129 20.5944 23.5466 20.264Z" fill="white"/>
<path d="M27.7344 19.4247C27.6681 19.0943 27.3461 18.8801 27.0162 18.9465L25.2215 19.3063L24.9816 18.1097L26.1781 17.8698C26.5085 17.8036 26.7227 17.4821 26.6563 17.1517C26.5901 16.8212 26.2681 16.607 25.9382 16.6734L24.7416 16.9133L24.5017 15.7168L26.2965 15.3569C26.6269 15.2907 26.841 14.9691 26.7747 14.6387C26.7085 14.3083 26.3865 14.0942 26.0566 14.1605L23.6635 14.6402C23.3331 14.7065 23.1189 15.028 23.1853 15.3584L24.1448 20.1445C24.2101 20.4705 24.5369 20.6883 24.8629 20.6228L27.256 20.1431C27.5864 20.0766 27.8005 19.7551 27.7344 19.4247Z" fill="white"/>
<path d="M22.1058 9.97393L21.866 8.77742C21.8342 8.6188 21.7406 8.47923 21.606 8.38951C21.4712 8.29965 21.3063 8.26723 21.1478 8.29901L11.5755 10.218C11.2451 10.2842 11.0309 10.6058 11.0972 10.9362L11.3372 12.1327C11.4973 12.9318 11.9591 13.6205 12.6374 14.0722C13.1443 14.4098 13.7267 14.5848 14.3222 14.5848C14.5236 14.5848 14.7264 14.5648 14.9282 14.5243L19.7143 13.5648C20.5134 13.4046 21.2022 12.943 21.6538 12.2647C22.1054 11.5866 22.2661 10.773 22.1058 9.97393Z" fill="#606268"/>
<path d="M22.1059 9.97349L21.9614 9.25293C21.997 9.90571 21.8225 10.55 21.4536 11.104C21.0019 11.7823 20.3131 12.244 19.514 12.4041L14.7279 13.3636C14.5261 13.4041 14.3232 13.4241 14.1219 13.4241C13.5264 13.4241 12.944 13.2492 12.4371 12.9116C11.7588 12.4598 11.2971 11.7711 11.1369 10.972L11.0903 10.7399C11.0823 10.8035 11.0839 10.8694 11.0972 10.9358L11.3371 12.1323C11.4972 12.9314 11.959 13.6201 12.6373 14.0719C13.1442 14.4094 13.7266 14.5844 14.3221 14.5844C14.5235 14.5844 14.7263 14.5644 14.9281 14.5239L19.7142 13.5644C20.5133 13.4043 21.2021 12.9426 21.6538 12.2643C22.1054 11.5861 22.2661 10.7725 22.1059 9.97349Z" fill="#4C4E55"/>
<path d="M28.5683 11.1673L27.8351 7.5096C27.7207 7.19278 27.4156 7.0421 27.1306 7.09933L22.9427 7.93893C22.4586 8.03603 22.3017 8.63939 22.6435 8.98096L23.8999 10.2363L23.2259 11.8754C23.1418 12.0799 23.1635 12.3229 23.2997 12.5C23.4388 12.6808 23.6786 12.7701 23.9022 12.725L28.09 11.8854C28.4204 11.8192 28.6346 11.4977 28.5683 11.1673Z" fill="#223942"/>
<path d="M9.78304 13.0663L10.465 11.4078C10.6467 10.9659 10.2494 10.4828 9.7808 10.5774L5.59297 11.417C5.26257 11.4832 5.0484 11.8047 5.1147 12.1351L5.83435 15.7247C5.89967 16.0504 6.22656 16.2684 6.55253 16.203L10.7404 15.3634C11.2085 15.2695 11.3905 14.672 11.0518 14.3335L9.78304 13.0663Z" fill="#223942"/>
<path d="M11.3434 28.2987C11.0587 28.2987 10.804 28.0982 10.7458 27.8082L10.3859 26.0134C10.3196 25.683 10.5338 25.3615 10.8642 25.2952C11.1943 25.2289 11.5162 25.443 11.5824 25.7735L11.9422 27.5683C12.017 27.9408 11.7232 28.2987 11.3434 28.2987Z" fill="#606268"/>
<path d="M13.7365 27.8192C13.4518 27.8192 13.197 27.6187 13.1389 27.3287L12.779 25.5339C12.7127 25.2035 12.9269 24.882 13.2573 24.8158C13.5872 24.7495 13.9092 24.9636 13.9754 25.294L14.3353 27.0888C14.41 27.4613 14.1162 27.8192 13.7365 27.8192Z" fill="#606268"/>
<path d="M16.7279 27.2194C16.4432 27.2194 16.1885 27.019 16.1303 26.729L15.7705 24.9343C15.7042 24.6039 15.9183 24.2823 16.2487 24.2161C16.5788 24.15 16.9007 24.3639 16.9669 24.6944L17.3268 26.4891C17.4015 26.8615 17.1077 27.2194 16.7279 27.2194Z" fill="#606268"/>
<path d="M19.7191 26.6199C19.4344 26.6199 19.1797 26.4194 19.1215 26.1294L18.7617 24.3347C18.6954 24.0043 18.9095 23.6828 19.2399 23.6165C19.5699 23.5502 19.8919 23.7643 19.9581 24.0948L20.318 25.8895C20.3928 26.262 20.0989 26.6199 19.7191 26.6199Z" fill="#606268"/>
<path d="M22.1121 26.1404C21.8273 26.1404 21.5727 25.9399 21.5145 25.65L21.1547 23.8552C21.0885 23.5248 21.3026 23.2033 21.633 23.1371C21.9629 23.0707 22.2849 23.2849 22.3512 23.6153L22.711 25.4101C22.7856 25.7825 22.4919 26.1404 22.1121 26.1404Z" fill="#606268"/>
<path d="M23.907 25.7806C23.6223 25.7806 23.3675 25.5801 23.3094 25.2902L22.9495 23.4954C22.8832 23.165 23.0974 22.8434 23.4278 22.7772C23.7578 22.7109 24.0797 22.925 24.146 23.2554L24.5058 25.0503C24.5807 25.4226 24.2867 25.7806 23.907 25.7806Z" fill="#606268"/>
<path d="M25.7017 25.4208C25.4169 25.4208 25.1623 25.2203 25.1041 24.9303L24.7443 23.1355C24.6781 22.8051 24.8922 22.4836 25.2226 22.4174C25.5526 22.3509 25.8745 22.5652 25.9407 22.8956L26.3005 24.6904C26.3753 25.0628 26.0814 25.4208 25.7017 25.4208Z" fill="#606268"/>
<path d="M28.0949 24.9408C27.8102 24.9408 27.5554 24.7403 27.4973 24.4503L27.1374 22.6555C27.0711 22.3251 27.2853 22.0036 27.6157 21.9373C27.9456 21.871 28.2676 22.0851 28.3338 22.4156L28.6937 24.2104C28.7685 24.5828 28.4746 24.9408 28.0949 24.9408Z" fill="#606268"/>
<path d="M9.55071 31.7699C9.26341 31.7699 9.00888 31.5611 8.95242 31.2796L3.07561 1.96467L0.730196 2.43485C0.400078 2.50108 0.0782568 2.28705 0.0120223 1.95658C-0.0542122 1.62618 0.15989 1.30464 0.490289 1.23841L3.43407 0.648275C3.76412 0.581971 4.08601 0.796073 4.15224 1.12654L10.0291 30.4416L35.1562 25.4042C35.486 25.3379 35.8082 25.552 35.8744 25.8825C35.9407 26.2129 35.7266 26.5344 35.3962 26.6007L9.67066 31.758C9.63086 31.7659 9.59071 31.7699 9.55071 31.7699Z" fill="#4C4E55"/>
<path d="M22.3558 35.9997C24.0407 35.9997 25.4067 34.6338 25.4067 32.9488C25.4067 31.2639 24.0407 29.8979 22.3558 29.8979C20.6709 29.8979 19.3049 31.2639 19.3049 32.9488C19.3049 34.6338 20.6709 35.9997 22.3558 35.9997Z" fill="#74DBC9"/>
<path d="M22.3558 34.7798C23.3672 34.7798 24.1871 33.9599 24.1871 32.9485C24.1871 31.9371 23.3672 31.1172 22.3558 31.1172C21.3444 31.1172 20.5245 31.9371 20.5245 32.9485C20.5245 33.9599 21.3444 34.7798 22.3558 34.7798Z" fill="#6AC8B7"/>
<path d="M22.3558 34.1692C23.0298 34.1692 23.5762 33.6228 23.5762 32.9489C23.5762 32.2749 23.0298 31.7285 22.3558 31.7285C21.6819 31.7285 21.1355 32.2749 21.1355 32.9489C21.1355 33.6228 21.6819 34.1692 22.3558 34.1692Z" fill="#EBEBEC"/>
<path d="M14.0339 2.44118C13.3724 2.44118 12.8136 1.60298 12.8136 0.610661C12.8136 0.273723 12.5403 0.000488281 12.2034 0.000488281C11.8665 0.000488281 11.5932 0.273723 11.5932 0.610661C11.5932 1.60298 11.0344 2.44118 10.3729 2.44118C10.0359 2.44118 9.7627 2.71442 9.7627 3.05135C9.7627 3.38829 10.0359 3.66153 10.3729 3.66153C11.0344 3.66153 11.5932 4.49972 11.5932 5.49205C11.5932 5.82898 11.8665 6.10222 12.2034 6.10222C12.5403 6.10222 12.8136 5.82898 12.8136 5.49205C12.8136 4.49972 13.3724 3.66153 14.0339 3.66153C14.3708 3.66153 14.6441 3.38829 14.6441 3.05135C14.6441 2.71442 14.3709 2.44118 14.0339 2.44118Z" fill="#D7D8D9"/>
<path d="M35.39 14.0344C34.7285 14.0344 34.1696 13.1962 34.1696 12.2039C34.1696 11.867 33.8964 11.5938 33.5595 11.5938C33.2225 11.5938 32.9493 11.867 32.9493 12.2039C32.9493 13.1962 32.3904 14.0344 31.7289 14.0344C31.392 14.0344 31.1188 14.3077 31.1188 14.6446C31.1188 14.9816 31.392 15.2548 31.7289 15.2548C32.3904 15.2548 32.9493 16.093 32.9493 17.0853C32.9493 17.4222 33.2225 17.6955 33.5595 17.6955C33.8964 17.6955 34.1696 17.4222 34.1696 17.0853C34.1696 16.093 34.7285 15.2548 35.39 15.2548C35.7269 15.2548 36.0001 14.9816 36.0001 14.6446C36.0001 14.3077 35.7269 14.0344 35.39 14.0344Z" fill="#D7D8D9"/>
<path d="M4.27121 25.6272C3.60971 25.6272 3.05087 24.789 3.05087 23.7967C3.05087 23.4598 2.77763 23.1865 2.44069 23.1865C2.10375 23.1865 1.83052 23.4598 1.83052 23.7967C1.83052 24.789 1.27167 25.6272 0.610173 25.6272C0.273235 25.6272 0 25.9004 0 26.2374C0 26.5743 0.273235 26.8476 0.610173 26.8476C1.27167 26.8476 1.83052 27.6858 1.83052 28.6781C1.83052 29.015 2.10375 29.2883 2.44069 29.2883C2.77763 29.2883 3.05087 29.015 3.05087 28.6781C3.05087 27.6858 3.60971 26.8476 4.27121 26.8476C4.60815 26.8476 4.88138 26.5743 4.88138 26.2374C4.88138 25.9004 4.60822 25.6272 4.27121 25.6272Z" fill="#D7D8D9"/>
</g>
<defs>
<clipPath id="clip0">
<rect width="36" height="36" fill="white"/>
</clipPath>
</defs>
</svg>
