<svg width="38" height="38" viewBox="0 0 38 38" fill="none" xmlns="http://www.w3.org/2000/svg">
<g clip-path="url(#clip0)">
<path d="M27.0829 9.8679C26.8243 9.44027 26.3123 9.23704 25.831 9.37127C25.3498 9.5055 25.0166 9.94415 25.0166 10.4437C25.0166 11.8025 23.9112 12.9077 22.5526 12.9077C21.1941 12.9077 20.0886 11.8025 20.0886 10.4437V1.11327C20.0886 0.663032 19.8173 0.257149 19.4012 0.0849379C18.9852 -0.0875627 18.5066 0.00753002 18.1882 0.326149C18.063 0.451103 15.0945 3.43725 12.0869 7.94865C10.3132 10.6089 8.89784 13.2477 7.88023 15.7918C6.59126 19.0148 5.9375 22.1001 5.9375 24.9624C5.9375 32.1512 11.7863 38 18.9754 38C26.1641 38 32.0129 32.1512 32.0129 24.9624C32.0132 20.3606 30.3543 15.2821 27.0829 9.8679Z" fill="#66757C"/>
<path d="M27.0829 9.86781C26.8243 9.44019 26.3123 9.23695 25.831 9.37119C25.3497 9.50542 25.0166 9.94406 25.0166 10.4436C25.0166 11.8024 23.9112 12.9076 22.5526 12.9076C21.1941 12.9076 20.0886 11.8024 20.0886 10.4436V1.11319C20.0886 0.662949 19.8173 0.257065 19.4012 0.0848541C19.2635 0.0274506 19.1189 0.000488281 18.9753 0.000488281V37.9999C26.1644 37.9999 32.0132 32.1511 32.0132 24.9621C32.0132 20.3605 30.3543 15.282 27.0829 9.86781Z" fill="#223942"/>
<path d="M25.291 18.79H20.521C19.906 18.79 19.4077 19.2884 19.4077 19.9033C19.4074 20.5182 19.906 21.0166 20.5207 21.0166H22.6031L17.8468 25.773L15.2613 23.1875C14.8267 22.7526 14.1219 22.7526 13.687 23.1875L11.1572 25.7167C10.7223 26.1516 10.7223 26.8564 11.1572 27.2913C11.5918 27.7262 12.2966 27.7262 12.7315 27.2913L14.4742 25.5492L17.0596 28.1346C17.2684 28.3434 17.5516 28.4605 17.8468 28.4605C18.1419 28.4605 18.4251 28.3434 18.6339 28.1346L24.1774 22.5911V24.673C24.1774 25.2879 24.6758 25.7863 25.2907 25.7863C25.9056 25.7863 26.4039 25.2879 26.4039 24.673V19.9033C26.4039 19.2887 25.9056 18.79 25.291 18.79Z" fill="#E7F0EF"/>
<path d="M25.2909 18.79H20.5209C19.906 18.79 19.4076 19.2884 19.4076 19.9033C19.4073 20.5182 19.906 21.0166 20.5206 21.0166H22.6031L18.9753 24.6443V27.7931L24.1776 22.5911V24.673C24.1776 25.2879 24.676 25.7863 25.2909 25.7863C25.9055 25.7863 26.4042 25.2879 26.4042 24.673V19.9033C26.4039 19.2887 25.9055 18.79 25.2909 18.79Z" fill="#C5E1E6"/>
</g>
<defs>
<clipPath id="clip0">
<rect width="38" height="38" fill="white"/>
</clipPath>
</defs>
</svg>
