<svg width="10" height="16" viewBox="0 0 10 16" fill="none" xmlns="http://www.w3.org/2000/svg">
<path d="M8.99914 0.00332907L6.92432 0C4.59333 0 3.08694 1.54552 3.08694 3.93762V5.75313H1.00081C0.820539 5.75313 0.674561 5.89927 0.674561 6.07954V8.71001C0.674561 8.89028 0.820705 9.03625 1.00081 9.03625H3.08694V15.6738C3.08694 15.854 3.23292 16 3.41319 16H6.13501C6.31527 16 6.46125 15.8539 6.46125 15.6738V9.03625H8.90043C9.0807 9.03625 9.22668 8.89028 9.22668 8.71001L9.22768 6.07954C9.22768 5.99299 9.19322 5.91009 9.13213 5.84884C9.07104 5.78758 8.98782 5.75313 8.90126 5.75313H6.46125V4.2141C6.46125 3.47438 6.63752 3.09886 7.60111 3.09886L8.99881 3.09836C9.17891 3.09836 9.32488 2.95222 9.32488 2.77211V0.329578C9.32488 0.149642 9.17907 0.00366197 8.99914 0.00332907Z" fill="#223942"/>
</svg>
