<svg width="32" height="32" viewBox="0 0 32 32" fill="none" xmlns="http://www.w3.org/2000/svg">
<g clip-path="url(#clip0)">
<path d="M6.70944 14.2055L1.12994 10.654L6.00101 5.78493C7.66764 4.10155 10.2851 3.81458 12.2766 5.09694L15.5185 7.15917L14.2482 8.02082C11.7781 9.71454 9.44808 11.6041 7.28042 13.6708L6.70944 14.2055Z" fill="#FE4F17"/>
<path d="M21.3714 30.8964L17.8209 25.3169L18.3615 24.7449C20.4287 22.5775 22.318 20.2473 24.0117 17.7771L24.8734 16.5068L26.9366 19.7487C28.2175 21.7407 27.9303 24.3574 26.2476 26.0243L21.3714 30.8964Z" fill="#FE4F17"/>
<path d="M17.7847 28.2113L3.81366 14.2405L4.52701 13.5271C19.1284 -1.07645 30.5839 0.0123015 31.0662 0.0667392L31.8734 0.156648L31.9624 0.963607C32.0168 1.44492 33.1023 12.9025 18.503 27.4989L17.7847 28.2113Z" fill="#E0EAF2"/>
<path d="M8.78594 21.8124L14.4214 16.1769C14.8155 15.7828 15.4542 15.7828 15.8483 16.1769C16.2422 16.5711 16.2422 17.2098 15.8483 17.6039L10.2129 23.2393C9.81878 23.6332 9.18006 23.6332 8.78594 23.2393C8.39207 22.8452 8.39207 22.2062 8.78594 21.8124Z" fill="#FE4F17"/>
<path d="M24.9288 11.132C24.9288 13.3607 23.122 15.1678 20.893 15.1678C18.6643 15.1678 16.8572 13.3607 16.8572 11.132C16.8572 8.90298 18.6643 7.09619 20.893 7.09619C23.122 7.09619 24.9288 8.90298 24.9288 11.132Z" fill="#F5CD00"/>
<path d="M22.9109 11.1321C22.9109 12.2465 22.0076 13.15 20.893 13.15C19.7786 13.15 18.8751 12.2465 18.8751 11.1321C18.8751 10.0178 19.7786 9.11426 20.893 9.11426C22.0076 9.11426 22.9109 10.0178 22.9109 11.1321Z" fill="#223942"/>
<path d="M0.714352 23.8305L3.32317 21.2214C3.71729 20.8273 4.35601 20.8273 4.75013 21.2214C5.14425 21.6152 5.14425 22.2542 4.75013 22.6481L2.14106 25.2572C1.74719 25.6513 1.10822 25.6513 0.714352 25.2572C0.320232 24.8633 0.320232 24.2243 0.714352 23.8305Z" fill="#FE4F17"/>
<path d="M6.76831 29.8842L9.37738 27.2751C9.77125 26.881 10.4102 26.881 10.8041 27.2751C11.1982 27.669 11.1982 28.3079 10.8041 28.7018L8.19502 31.3109C7.80115 31.705 7.16218 31.705 6.76831 31.3109C6.37419 30.917 6.37419 30.278 6.76831 29.8842Z" fill="#FE4F17"/>
<path d="M0 30.5982L1.41612 29.1821L2.84308 30.6088L1.42696 32.0252L0 30.5982Z" fill="#FE4F17"/>
<path d="M3.55786 27.0409L5.34125 25.2575C5.73537 24.8634 6.37409 24.8634 6.76821 25.2575C7.16232 25.6514 7.16232 26.2903 6.76821 26.6842L4.98457 28.4678C4.5907 28.862 3.95173 28.862 3.55786 28.4678C3.16374 28.0737 3.16374 27.435 3.55786 27.0409Z" fill="#FE4F17"/>
</g>
<defs>
<clipPath id="clip0">
<rect width="32" height="32" fill="white"/>
</clipPath>
</defs>
</svg>
