<svg width="32" height="32" viewBox="0 0 32 32" fill="none" xmlns="http://www.w3.org/2000/svg">
<g clip-path="url(#clip0)">
<path d="M0 0H16V22.4H0V0Z" fill="#979797"/>
<path d="M18.1334 24.5333H2.13336V6.39997H6.40003V2.1333H18.1334V24.5333Z" fill="#E0EAF2"/>
<path d="M2.13336 6.39997L6.40003 2.1333V6.39997H2.13336Z" fill="#999999"/>
<path d="M32 19.7335C32 26.5082 26.5081 32.0001 19.7333 32.0001C12.9586 32.0001 7.46667 26.5082 7.46667 19.7335C7.46667 12.9587 12.9586 7.4668 19.7333 7.4668C26.5081 7.4668 32 12.9587 32 19.7335Z" fill="#FE4F17"/>
<path d="M29.8666 19.7334C29.8666 25.33 25.3299 29.8668 19.7333 29.8668C14.1367 29.8668 9.59998 25.33 9.59998 19.7334C9.59998 14.1368 14.1367 9.6001 19.7333 9.6001C25.3299 9.6001 29.8666 14.1368 29.8666 19.7334Z" fill="white"/>
<path d="M20.2666 9.62666C20.089 9.61781 19.9135 9.6001 19.7333 9.6001C19.5531 9.6001 19.3776 9.61781 19.2 9.62666V12.2668H20.2666V9.62666Z" fill="#BAB8B9"/>
<path d="M19.2 29.8403C19.3776 29.8492 19.5531 29.8669 19.7333 29.8669C19.9135 29.8669 20.089 29.8492 20.2666 29.8403V27.2002H19.2V29.8403Z" fill="#BAB8B9"/>
<path d="M9.62654 20.2669H12.2666V19.2002H9.62654C9.61768 19.3778 9.59998 19.5533 9.59998 19.7335C9.59998 19.9137 9.61768 20.0893 9.62654 20.2669Z" fill="#BAB8B9"/>
<path d="M27.2 20.2669H29.8401C29.8489 20.0893 29.8666 19.9137 29.8666 19.7335C29.8666 19.5533 29.8489 19.3778 29.8401 19.2002H27.2V20.2669Z" fill="#BAB8B9"/>
<path d="M12.2091 12.9636L14.0229 14.7774L14.7771 14.0233L12.9633 12.2095C12.6987 12.4472 12.4469 12.6991 12.2091 12.9636Z" fill="#BAB8B9"/>
<path d="M27.2575 26.5033L25.4437 24.6895L24.6896 25.4436L26.5034 27.2574C26.768 27.0197 27.0198 26.7678 27.2575 26.5033Z" fill="#BAB8B9"/>
<path d="M12.2091 26.5033C12.4474 26.7678 12.6987 27.0191 12.9633 27.2574L14.7771 25.4436L14.0229 24.6895L12.2091 26.5033Z" fill="#BAB8B9"/>
<path d="M26.5034 12.2095L24.6896 14.0233L25.4437 14.7774L27.2575 12.9636C27.0198 12.6991 26.768 12.4472 26.5034 12.2095Z" fill="#BAB8B9"/>
<path d="M19.2 13.3335H20.2666V18.6668H19.2V13.3335Z" fill="#BAB8B9"/>
<path d="M16.1557 22.5565L18.8224 19.8901L19.5765 20.6443L16.9099 23.311L16.1557 22.5565Z" fill="#BAB8B9"/>
<path d="M21.3334 19.7333C21.3334 20.6169 20.617 21.3333 19.7334 21.3333C18.8498 21.3333 18.1334 20.6169 18.1334 19.7333C18.1334 18.8497 18.8498 18.1333 19.7334 18.1333C20.617 18.1333 21.3334 18.8497 21.3334 19.7333Z" fill="#599072"/>
</g>
<defs>
<clipPath id="clip0">
<rect width="32" height="32" fill="white"/>
</clipPath>
</defs>
</svg>
