<svg width="32" height="32" viewBox="0 0 32 32" fill="none" xmlns="http://www.w3.org/2000/svg">
<path d="M10.1333 12.7998H9.06667V7.15397L7.62292 5.71022L8.37709 4.95605L10.1333 6.7123V12.7998Z" fill="#BFBFBF"/>
<path d="M11.2 5.33301H12.2666V12.7997H11.2V5.33301Z" fill="#BFBFBF"/>
<path d="M14.4 12.7998H13.3334V8.84567L14.4 7.779V2.6665H15.4667V8.22067L14.4 9.28734V12.7998Z" fill="#BFBFBF"/>
<path d="M7.4667 5.8665C6.58467 5.8665 5.8667 5.14854 5.8667 4.2665C5.8667 3.38447 6.58467 2.6665 7.4667 2.6665C8.34873 2.6665 9.0667 3.38447 9.0667 4.2665C9.0667 5.14854 8.34873 5.8665 7.4667 5.8665ZM7.4667 3.73317C7.17295 3.73317 6.93337 3.97275 6.93337 4.2665C6.93337 4.56025 7.17295 4.79984 7.4667 4.79984C7.76045 4.79984 8.00003 4.56025 8.00003 4.2665C8.00003 3.97275 7.76045 3.73317 7.4667 3.73317Z" fill="#DF6A66"/>
<path d="M14.9334 3.2C14.0513 3.2 13.3334 2.48203 13.3334 1.6C13.3334 0.717969 14.0513 0 14.9334 0C15.8154 0 16.5334 0.717969 16.5334 1.6C16.5334 2.48203 15.8154 3.2 14.9334 3.2ZM14.9334 1.06667C14.6396 1.06667 14.4 1.30625 14.4 1.6C14.4 1.89375 14.6396 2.13333 14.9334 2.13333C15.2271 2.13333 15.4667 1.89375 15.4667 1.6C15.4667 1.30625 15.2271 1.06667 14.9334 1.06667Z" fill="#74C865"/>
<path d="M11.7333 5.8665C10.8513 5.8665 10.1333 5.14854 10.1333 4.2665C10.1333 3.38447 10.8513 2.6665 11.7333 2.6665C12.6153 2.6665 13.3333 3.38447 13.3333 4.2665C13.3333 5.14854 12.6153 5.8665 11.7333 5.8665ZM11.7333 3.73317C11.4396 3.73317 11.2 3.97275 11.2 4.2665C11.2 4.56025 11.4396 4.79984 11.7333 4.79984C12.0271 4.79984 12.2666 4.56025 12.2666 4.2665C12.2666 3.97275 12.0271 3.73317 11.7333 3.73317Z" fill="#69CFE3"/>
<path d="M16 1.59987C16 2.18893 15.5224 2.66654 14.9334 2.66654C14.3443 2.66654 13.8667 2.18893 13.8667 1.59987C13.8667 1.01081 14.3443 0.533203 14.9334 0.533203C15.5224 0.533203 16 1.01081 16 1.59987Z" fill="#5DA351"/>
<path d="M12.8 4.26686C12.8 4.85592 12.3224 5.33353 11.7333 5.33353C11.1442 5.33353 10.6666 4.85592 10.6666 4.26686C10.6666 3.6778 11.1442 3.2002 11.7333 3.2002C12.3224 3.2002 12.8 3.6778 12.8 4.26686Z" fill="#4A98C5"/>
<path d="M8.53336 4.26686C8.53336 4.85592 8.05575 5.33353 7.46669 5.33353C6.87763 5.33353 6.40002 4.85592 6.40002 4.26686C6.40002 3.6778 6.87763 3.2002 7.46669 3.2002C8.05575 3.2002 8.53336 3.6778 8.53336 4.26686Z" fill="#BD3D47"/>
<path d="M17.0667 32.0002H5.8667L8.53337 29.3335H17.0667" fill="#404040"/>
<path d="M0 12.2666H24.5333V29.3333H0V12.2666Z" fill="#4D4D4D"/>
<path d="M2.1333 14.3999H22.4V27.1999H2.1333V14.3999Z" fill="#E8E8E8"/>
<path d="M25.6 20.2666H32V31.9999H25.6V20.2666Z" fill="#4A98C5"/>
<path d="M25.6 20.2666H29.8666V29.8666H25.6V20.2666Z" fill="#69CFE3"/>
<path d="M21.3334 17.0669H25.6V32.0002H21.3334V17.0669Z" fill="#FE4F17"/>
<path d="M21.3334 17.0669H23.4667V32.0002H21.3334V17.0669Z" fill="#FE4F17"/>
<path d="M17.0667 19.2002H21.3333V32.0002H17.0667V19.2002Z" fill="#5DA351"/>
<path d="M17.0667 19.2002H19.2V32.0002H17.0667V19.2002Z" fill="#74C865"/>
<path d="M9.59998 17.6001V24.0001L14.9333 20.8001L9.59998 17.6001Z" fill="#FE4F17"/>
</svg>
