<svg width="27" height="32" viewBox="0 0 27 32" fill="none" xmlns="http://www.w3.org/2000/svg">
<path d="M13.5 0.0454102C20.9402 0.0454102 26.9954 5.89043 26.9954 13.0971C26.9954 23.2267 13.5 31.9544 13.5 31.9544C13.5 31.9544 0.00463867 23.2267 0.00463867 13.0971C0.00463867 5.89043 6.05978 0.0454102 13.5 0.0454102Z" fill="#FE4F17"/>
<path d="M13.5 3.48926C15.4489 3.48913 17.3541 4.07365 18.9746 5.16892C20.5952 6.26419 21.8582 7.82101 22.6041 9.64248C23.35 11.464 23.5452 13.4683 23.165 15.402C22.7848 17.3357 21.8463 19.1119 20.4682 20.506C19.0901 21.9002 17.3343 22.8496 15.4228 23.2342C13.5114 23.6188 11.5301 23.4213 9.7295 22.6667C7.92895 21.9122 6.39003 20.6344 5.30734 18.9951C4.22466 17.3557 3.64684 15.4284 3.64697 13.4568C3.64697 10.8132 4.68506 8.27795 6.53285 6.40868C8.38065 4.53941 10.8868 3.48926 13.5 3.48926Z" fill="#EDEDED"/>
<path d="M8.34878 12.2756L6.05444 11.3725L13.1294 8.74219L20.2043 11.3725L17.91 12.2756L13.1294 14.1581L8.34878 12.2756Z" fill="#223942"/>
<path d="M17.9099 15.4263V17.7439C14.8262 18.9052 11.4324 18.9052 8.34875 17.7439V15.4263C11.4326 16.5864 14.826 16.5864 17.9099 15.4263Z" fill="#223942"/>
<path d="M17.9099 12.2759V15.4263C14.826 16.5865 11.4326 16.5865 8.34875 15.4263V12.2759L13.1293 14.1584L17.9099 12.2759Z" fill="#FFA606"/>
<path d="M20.2043 14.568C20.099 14.568 19.998 14.5257 19.9235 14.4504C19.8491 14.3751 19.8073 14.2729 19.8073 14.1664V11.431C19.8073 11.3244 19.8491 11.2223 19.9235 11.1469C19.998 11.0716 20.099 11.0293 20.2043 11.0293C20.3096 11.0293 20.4106 11.0716 20.4851 11.1469C20.5595 11.2223 20.6014 11.3244 20.6014 11.431V14.1664C20.6014 14.2729 20.5595 14.3751 20.4851 14.4504C20.4106 14.5257 20.3096 14.568 20.2043 14.568Z" fill="#F4B844"/>
<path d="M20.213 16.3173C19.8783 16.3189 19.5568 16.1861 19.319 15.9479C19.0812 15.7097 18.9467 15.3858 18.9451 15.0473C18.9434 14.7088 19.0748 14.3835 19.3102 14.1429C19.5457 13.9024 19.8659 13.7663 20.2005 13.7646H20.213C20.5476 13.7646 20.8685 13.8991 21.1051 14.1385C21.3417 14.3778 21.4746 14.7025 21.4746 15.041C21.4746 15.3795 21.3417 15.7041 21.1051 15.9435C20.8685 16.1828 20.5476 16.3173 20.213 16.3173Z" fill="#FFA606"/>
</svg>
