<svg width="32" height="32" viewBox="0 0 32 32" fill="none" xmlns="http://www.w3.org/2000/svg">
<path d="M26.3325 0.0102539H20.8459V16.7213H26.3325V0.0102539Z" fill="#FE4F17"/>
<path d="M18.7387 3.9585H13.2522V16.761H18.7387V3.9585Z" fill="#FFA606"/>
<path d="M11.1849 7.86719H5.69836V16.7213H11.1849V7.86719Z" fill="#0D938E"/>
<path d="M28.0023 31.558H0.529907V24.5386H28.042C29.9901 24.5386 31.5406 26.094 31.5406 28.0482C31.5009 30.0026 29.9503 31.558 28.0023 31.558Z" fill="#E0EAF2"/>
<path d="M14.8427 25.8148H30.7059C30.6661 25.735 30.5865 25.6951 30.5071 25.6154H14.8427H30.507C30.4275 25.5356 30.3877 25.4957 30.3082 25.416H14.8427V25.8148Z" fill="#E6E9EE"/>
<path d="M14.8427 26.6126H31.1829C31.1432 26.5329 31.1034 26.493 31.1034 26.4133H14.8427H31.1034C31.0636 26.3335 31.0238 26.2936 30.9841 26.2139H14.8427V26.6126Z" fill="#E6E9EE"/>
<path d="M14.8427 27.4501H31.4613C31.4613 27.3703 31.4215 27.3304 31.4215 27.2507H14.8427H31.3817C31.3817 27.1709 31.3419 27.131 31.3419 27.0513H14.8427V27.4501Z" fill="#E6E9EE"/>
<path d="M14.8427 28.2479H31.501C31.501 28.1681 31.501 28.1282 31.501 28.0485H14.8427H31.501C31.501 27.9687 31.501 27.9288 31.501 27.8491H14.8427V28.2479Z" fill="#E6E9EE"/>
<path d="M14.8427 29.0453H31.3419C31.3419 28.9655 31.3817 28.9256 31.3817 28.8459H14.8427H31.3817C31.3817 28.7661 31.4215 28.7262 31.4215 28.6465H14.8427V29.0453Z" fill="#E6E9EE"/>
<path d="M14.8427 29.8832H30.9842C31.024 29.8034 31.0637 29.7635 31.1035 29.6838H14.8427H31.1034C31.1432 29.604 31.1829 29.5641 31.1829 29.4844H14.8427V29.8832Z" fill="#E6E9EE"/>
<path d="M14.8427 30.6805H30.3082C30.3878 30.6007 30.4672 30.5608 30.507 30.4811H14.8427H30.507C30.5866 30.4013 30.6263 30.3614 30.7058 30.2817H14.8427V30.6805Z" fill="#E6E9EE"/>
<path d="M0.0925293 31.1193H28.0022C29.7117 31.1193 31.1033 29.7234 31.1033 28.0483C31.1033 26.3732 29.7117 24.9774 28.0022 24.9774H0.0925293V24.1797H28.0022C30.1491 24.1797 31.8984 25.8946 31.8984 28.0483C31.8984 30.2021 30.1491 31.917 28.0022 31.917H0.0925293V31.1193Z" fill="#FE4F17"/>
<path d="M31.8984 16.3226C31.8587 16.1631 31.7791 16.0434 31.8984 15.9238H3.90924C2.00085 15.9238 0.450317 17.4793 0.450317 19.3937C0.450317 21.3081 2.00085 22.8636 3.90924 22.8636H31.9382C31.8189 22.7439 31.8587 22.6642 31.9382 22.4648C30.5864 20.63 30.5864 18.1572 31.8984 16.3226Z" fill="#E6E9EE"/>
<path d="M31.8984 22.4646H4.02855C2.31903 22.4646 0.927479 21.0686 0.927479 19.3936C0.927479 17.7184 2.31903 16.3226 4.02855 16.3226H31.9382V15.5249H4.02855C1.88162 15.5249 0.132324 17.2398 0.132324 19.3936C0.132324 21.5473 1.88162 23.2622 4.02855 23.2622H31.9382V22.4646H31.8984Z" fill="#0D938E"/>
<path d="M14.2461 17.1602V18.1173H31.1032C31.1828 17.7982 31.302 17.4791 31.4611 17.1602H14.2461Z" fill="#ACB3BA"/>
<path d="M17.6256 19.8722H30.9443C30.9045 19.5531 30.9045 19.234 30.9443 18.915H17.6256V19.8722Z" fill="#ACB3BA"/>
<path d="M11.3042 21.6271H31.4612C31.3022 21.308 31.2226 20.9889 31.1033 20.6699H11.3042V21.6271Z" fill="#ACB3BA"/>
</svg>
