<svg width="32" height="32" viewBox="0 0 32 32" fill="none" xmlns="http://www.w3.org/2000/svg">
<g clip-path="url(#clip0)">
<path d="M6.40002 19.2002H10.6667V22.4002H6.40002V19.2002Z" fill="#999999"/>
<path d="M6.40002 19.2002H9.06669V22.4002H6.40002V19.2002Z" fill="#BAB8B9"/>
<path d="M16 17.0667L28.8 22.4V0L16 5.33333V17.0667Z" fill="#FE4F17"/>
<path d="M26.6667 0.88916L16 5.33343V17.0668L26.6667 21.511V0.88916Z" fill="#D9D7D8"/>
<path d="M25.0667 1.55566L16 5.33327V17.0666L25.0667 20.8442V1.55566Z" fill="#EFEDEE"/>
<path d="M8.53337 31.9999C10.3008 31.9999 11.7334 30.5674 11.7334 28.7999V22.3999H5.33337V28.7999C5.33337 30.5674 6.76593 31.9999 8.53337 31.9999Z" fill="#66757C"/>
<path d="M5.33337 17.0669V19.2002H11.7334V17.0669" fill="#BC8F6F"/>
<path d="M5.33337 17.0669H9.60004V19.2002H5.33337V17.0669Z" fill="#CB9E78"/>
<path d="M28.7999 14.4C30.5674 14.4 31.9999 12.9674 31.9999 11.2C31.9999 9.43255 30.5674 8 28.7999 8" fill="#BAB8B9"/>
<path d="M9.06665 24H10.1333V25.0667H9.06665V24Z" fill="#BAB8B9"/>
<path d="M9.06665 26.1333H10.1333V27.2H9.06665V26.1333Z" fill="#BAB8B9"/>
<path d="M9.06665 28.2666H10.1333V29.3333H9.06665V28.2666Z" fill="#BAB8B9"/>
<path d="M14.9329 6.96608L20.7998 4.83301L21.1644 5.83561L15.2974 7.96868L14.9329 6.96608Z" fill="#D9D7D8"/>
<path d="M14.9329 15.4338L15.2974 14.4312L21.1641 16.5645L20.7998 17.5668L14.9329 15.4338Z" fill="#D9D7D8"/>
<path d="M16 5.3335H5.86667C2.62656 5.3335 0 7.96006 0 11.2002C0 14.4403 2.62656 17.0668 5.86667 17.0668H16" fill="#FE4F17"/>
<path d="M5.86667 5.3335C2.62656 5.3335 0 7.96006 0 11.2002C0 14.4403 2.62656 17.0668 5.86667 17.0668H13.8667V5.3335H5.86667Z" fill="#FFA606"/>
<path d="M10.6666 7.4668H13.8666V14.9335H10.6666V7.4668Z" fill="#BAB8B9"/>
<path d="M0.0266113 10.6668H4.80005V9.6001H0.226611C0.129215 9.94411 0.0602051 10.2998 0.0266113 10.6668Z" fill="#BAB8B9"/>
<path d="M0.226611 12.8001H4.80005V11.7334H0.0266113C0.0602051 12.1003 0.129215 12.4561 0.226611 12.8001Z" fill="#BAB8B9"/>
</g>
<defs>
<clipPath id="clip0">
<rect width="32" height="32" fill="white"/>
</clipPath>
</defs>
</svg>
