<svg width="36" height="36" viewBox="0 0 36 36" fill="none" xmlns="http://www.w3.org/2000/svg">
<g clip-path="url(#clip0)">
<path d="M16.2003 9.00045C15.9669 9.00045 15.7539 8.86422 15.6554 8.65183L12.5049 1.82519L10.6997 4.53364C10.588 4.70033 10.4008 4.80053 10.2004 4.80053H2.40057V3.60055H9.87935L12.1012 0.267501C12.2219 0.0870351 12.4293 -0.0155022 12.6473 0.0023686C12.8638 0.0193605 13.0545 0.15178 13.1459 0.349238L16.1614 6.88379L18.0434 2.17792C18.1263 1.97108 18.317 1.82695 18.5385 1.80409C18.7594 1.77714 18.9759 1.88232 19.1001 2.06747L20.954 4.84916L23.4764 0.309687C23.5778 0.126585 23.7673 0.00969267 23.9762 0.00119674C24.1898 -0.0125726 24.3837 0.0934803 24.5 0.267501L26.7213 3.60055H33.0001V4.80053H26.4002C26.1998 4.80053 26.0126 4.70033 25.901 4.53364L24.0471 1.75195L21.5247 6.29142C21.4233 6.47452 21.2338 6.59141 21.0249 6.59991C20.8078 6.61983 20.6174 6.50763 20.5011 6.3336L18.7342 3.68287L16.7579 8.62312C16.6691 8.84577 16.4558 8.99401 16.2159 9.00045C16.2106 9.00045 16.205 9.00045 16.2003 9.00045Z" fill="#5B6673"/>
<path d="M36.0001 4.20039C36.0001 5.19443 35.1941 6.00039 34.2 6.00039C33.206 6.00039 32.4 5.19443 32.4 4.20039C32.4 3.20635 33.206 2.40039 34.2 2.40039C35.1941 2.40039 36.0001 3.20635 36.0001 4.20039Z" fill="#EEBC5A"/>
<path d="M3.60055 4.20039C3.60055 5.19443 2.79459 6.00039 1.80055 6.00039C0.806506 6.00039 0.000549316 5.19443 0.000549316 4.20039C0.000549316 3.20635 0.806506 2.40039 1.80055 2.40039C2.79459 2.40039 3.60055 3.20635 3.60055 4.20039Z" fill="#699CE6"/>
<path d="M10.8004 10.8003V24.0001C10.8004 27.9762 14.0242 31.2 18.0003 31.2C21.9764 31.2 25.2002 27.9762 25.2002 24.0001V10.8003H30.0001V24.0001C30.0001 30.6275 24.6277 35.9999 18.0003 35.9999C11.3729 35.9999 6.00049 30.6275 6.00049 24.0001V10.8003H10.8004Z" fill="#223942"/>
<path d="M17.1003 35.9542C23.3059 35.4928 28.2001 30.3234 28.2001 24.0001V10.8003H25.2002V24.0001C25.2002 27.9762 21.9764 31.2 18.0003 31.2C17.695 31.2 17.3956 31.1748 17.1003 31.1376C16.805 31.1748 16.5056 31.2 16.2003 31.2C12.2242 31.2 9.00044 27.9762 9.00044 24.0001V10.8003H6.00049V24.0001C6.00049 30.3234 10.8947 35.4928 17.1003 35.9542Z" fill="#66757C"/>
<path d="M4.80054 6.00049H12.0004V10.8004H4.80054V6.00049Z" fill="#BAB8B9"/>
<path d="M24.0002 6.00049H31.2001V10.8004H24.0002V6.00049Z" fill="#BAB8B9"/>
<path d="M4.80054 6.00049H10.2004V10.8004H4.80054V6.00049Z" fill="#D9D7D8"/>
<path d="M24.0002 6.00049H29.4001V10.8004H24.0002V6.00049Z" fill="#D9D7D8"/>
<path d="M14.4003 25.2002L16.8003 21.0003H13.2003L16.8003 14.4004H22.2002L18.0002 19.2003H22.8002L14.4003 25.2002Z" fill="#E0EAF2"/>
<path d="M15.0003 21.0003H16.8003L15.6416 23.0276L21.0002 19.2003H16.2003L20.4002 14.4004H16.8003L13.2003 21.0003H15.0003Z" fill="white"/>
</g>
<defs>
<clipPath id="clip0">
<rect width="36" height="36" fill="white"/>
</clipPath>
</defs>
</svg>
