<svg width="36" height="36" viewBox="0 0 36 36" fill="none" xmlns="http://www.w3.org/2000/svg">
<path d="M24.6 4.7998V19.7998C24.6 21.4565 25.9432 22.7998 27.6 22.7998C29.2567 22.7998 30.6 21.4565 30.6 19.7998V4.7998" fill="#BAB8B9"/>
<path d="M27 22.7392C28.3693 22.4614 29.4 21.2512 29.4 19.7998V4.7998H24.6V19.7998C24.6 21.2512 25.6306 22.4614 27 22.7392Z" fill="#D9D7D8"/>
<path d="M5.40002 12V27C5.40002 28.6567 6.74329 30 8.40002 30C10.0568 30 11.4 28.6567 11.4 27V12" fill="#BAB8B9"/>
<path d="M7.80002 29.9394C9.16936 29.6616 10.2 28.4514 10.2 27V12H5.40002V27C5.40002 28.4514 6.43069 29.6616 7.80002 29.9394Z" fill="#D9D7D8"/>
<path d="M4.19995 9.6001H12.6V12.0001H4.19995V9.6001Z" fill="#BC8F6F"/>
<path d="M4.19995 9.6001H10.2V12.0001H4.19995V9.6001Z" fill="#CB9E78"/>
<path d="M3 15.6001H13.8V18.0001H3V15.6001Z" fill="#575C61"/>
<path d="M3 15.6001H10.2V18.0001H3V15.6001Z" fill="#5B6673"/>
<path d="M23.4 2.3999H31.8V4.7999H23.4V2.3999Z" fill="#BC8F6F"/>
<path d="M23.4 2.3999H29.4V4.7999H23.4V2.3999Z" fill="#CB9E78"/>
<path d="M22.2 8.3999H33V10.7999H22.2V8.3999Z" fill="#575C61"/>
<path d="M22.2 8.3999H29.4V10.7999H22.2V8.3999Z" fill="#5B6673"/>
<path d="M17.4 0V30H19.8V0" fill="#BC8F6F"/>
<path d="M17.4 0V30H18.6V0" fill="#CB9E78"/>
<path d="M16.2 2.3999H21V4.7999H16.2V2.3999Z" fill="#575C61"/>
<path d="M16.2 2.3999H18.6V4.7999H16.2V2.3999Z" fill="#5B6673"/>
<path d="M16.2 15.6001H21V18.0001H16.2V15.6001Z" fill="#575C61"/>
<path d="M16.2 15.6001H18.6V18.0001H16.2V15.6001Z" fill="#5B6673"/>
<path d="M24.6 15.6001V19.8001C24.6 21.4568 25.9432 22.8001 27.6 22.8001C29.2567 22.8001 30.6 21.4568 30.6 19.8001V15.6001" fill="#223942"/>
<path d="M27 22.7395C28.3693 22.4617 29.4 21.2515 29.4 19.8001V15.6001H24.6V19.8001C24.6 21.2515 25.6306 22.4617 27 22.7395Z" fill="#9FA9AD"/>
<path d="M5.40002 22.7998V26.9998C5.40002 28.6565 6.74329 29.9998 8.40002 29.9998C10.0568 29.9998 11.4 28.6565 11.4 26.9998V22.7998" fill="#223942"/>
<path d="M7.80002 29.9392C9.16936 29.6614 10.2 28.4512 10.2 26.9998V22.7998H5.40002V26.9998C5.40002 28.4512 6.43069 29.6614 7.80002 29.9392Z" fill="#9FA9AD"/>
<path d="M15 30H22.2V32.4H15V30Z" fill="#5B6673"/>
<path d="M10.2 32.3999H27V35.9999H10.2V32.3999Z" fill="#575C61"/>
<path d="M10.2 33.6001H24.6V36.0001H10.2V33.6001Z" fill="#5B6673"/>
<path d="M8.40002 24.6001H9.60003V25.8001H8.40002V24.6001Z" fill="#223942"/>
<path d="M7.19995 27H8.39995V28.2H7.19995V27Z" fill="#223942"/>
<path d="M27.6 17.3999H28.8V18.5999H27.6V17.3999Z" fill="#223942"/>
<path d="M26.4 19.7998H27.6V20.9998H26.4V19.7998Z" fill="#223942"/>
<path d="M13.8 16.2002H16.2V17.4002H13.8V16.2002Z" fill="#BC8F6F"/>
<path d="M13.8 16.7998H16.2V17.3998H13.8V16.7998Z" fill="#CB9E78"/>
<path d="M21 3H23.4V4.2H21V3Z" fill="#BC8F6F"/>
<path d="M21 3.6001H23.4V4.2001H21V3.6001Z" fill="#CB9E78"/>
<path d="M19.8 9H22.2V10.2H19.8V9Z" fill="#BC8F6F"/>
<path d="M19.8 9.6001H22.2V10.2001H19.8V9.6001Z" fill="#CB9E78"/>
</svg>
