<svg width="36" height="36" viewBox="0 0 36 36" fill="none" xmlns="http://www.w3.org/2000/svg">
<path d="M12.6285 7.79021L19.7114 2.48047L20.4191 3.42421L13.3363 8.73396L12.6285 7.79021Z" fill="#BAB8B9"/>
<path d="M23.4441 2.92903L23.7683 1.79395L32.0303 4.1546L31.7058 5.2894L23.4441 2.92903Z" fill="#BAB8B9"/>
<path d="M35.4098 30.0984C35.4098 33.3579 32.7677 36.0001 29.5082 36.0001C26.2488 36.0001 23.6066 33.3579 23.6066 30.0984C23.6066 26.839 26.2488 24.1968 29.5082 24.1968C32.7677 24.1968 35.4098 26.839 35.4098 30.0984Z" fill="#9FA9AD"/>
<path d="M29.5082 30.0984C29.5082 33.3579 26.866 36.0001 23.6066 36.0001C20.3472 36.0001 17.705 33.3579 17.705 30.0984C17.705 26.839 20.3472 24.1968 23.6066 24.1968C26.866 24.1968 29.5082 26.839 29.5082 30.0984Z" fill="#5DA351"/>
<path d="M0 14.7539H15.3443V35.9998H0V14.7539Z" fill="#66757C"/>
<path d="M0 14.7539H15.3443V21.8359H0V14.7539Z" fill="#223942"/>
<path d="M2.36072 17.1147H12.9837V19.4754H2.36072V17.1147Z" fill="white"/>
<path d="M18.8853 14.7539H22.4262V19.4752H18.8853V14.7539Z" fill="#CA5057"/>
<path d="M18.8853 14.7539H20.6557V19.4752H18.8853V14.7539Z" fill="#DC6068"/>
<path d="M30.6885 12.3936H34.2295V19.4755H30.6885V12.3936Z" fill="#5789D6"/>
<path d="M30.6885 12.3936H32.459V19.4755H30.6885V12.3936Z" fill="#699CE6"/>
<path d="M24.7869 8.85254H28.3278V19.4755H24.7869V8.85254Z" fill="#599072"/>
<path d="M24.7869 8.85254H26.5574V19.4755H24.7869V8.85254Z" fill="#70B48F"/>
<path d="M35.4099 4.72118C35.4099 5.69892 34.6171 6.49167 33.6394 6.49167C32.6616 6.49167 31.8689 5.69892 31.8689 4.72118C31.8689 3.74343 32.6616 2.95068 33.6394 2.95068C34.6171 2.95068 35.4099 3.74343 35.4099 4.72118Z" fill="#699CE6"/>
<path d="M12.9836 8.85252C12.9836 9.83027 12.1909 10.623 11.2131 10.623C10.2354 10.623 9.44263 9.83027 9.44263 8.85252C9.44263 7.87478 10.2354 7.08203 11.2131 7.08203C12.1909 7.08203 12.9836 7.87478 12.9836 8.85252Z" fill="#DC6068"/>
<path d="M23.6065 2.36082C23.6065 3.33857 22.8138 4.13131 21.836 4.13131C20.8583 4.13131 20.0656 3.33857 20.0656 2.36082C20.0656 1.38308 20.8583 0.590332 21.836 0.590332C22.8138 0.590332 23.6065 1.38308 23.6065 2.36082Z" fill="#599072"/>
<path d="M3.71387 25.5496L6.07452 23.189L6.90905 24.0235L4.5484 26.3841L3.71387 25.5496Z" fill="white"/>
<path d="M3.71387 24.024L4.5484 23.1895L6.90905 25.5501L6.07452 26.3849L3.71387 24.024Z" fill="white"/>
<path d="M8.43518 25.5496L10.7958 23.189L11.6304 24.0235L9.26971 26.3841L8.43518 25.5496Z" fill="white"/>
<path d="M8.43518 24.024L9.26971 23.1895L11.6304 25.5501L10.7958 26.3849L8.43518 24.024Z" fill="white"/>
<path d="M4.72133 30.0983H2.36067C2.03418 30.0983 1.77051 29.8337 1.77051 29.5081V27.1475H2.95084V28.918H4.72133V30.0983Z" fill="white"/>
<path d="M4.72133 30.0983H2.36067C2.03418 30.0983 1.77051 29.8337 1.77051 29.5081V27.1475H2.95084V28.918H4.72133V30.0983Z" fill="white"/>
<path d="M8.85243 30.0983H6.49178C6.16528 30.0983 5.90161 29.8337 5.90161 29.5081V27.1475H7.08194V28.918H8.85243V30.0983Z" fill="white"/>
<path d="M8.85243 30.0983H6.49178C6.16528 30.0983 5.90161 29.8337 5.90161 29.5081V27.1475H7.08194V28.918H8.85243V30.0983Z" fill="white"/>
<path d="M12.9837 30.0983H10.623C10.2965 30.0983 10.0328 29.8337 10.0328 29.5081V27.1475H11.2132V28.918H12.9837V30.0983Z" fill="white"/>
<path d="M12.9837 30.0983H10.623C10.2965 30.0983 10.0328 29.8337 10.0328 29.5081V27.1475H11.2132V28.918H12.9837V30.0983Z" fill="white"/>
<path d="M4.72133 34.2296H2.36067C2.03418 34.2296 1.77051 33.9651 1.77051 33.6395V31.2788H2.95084V33.0493H4.72133V34.2296Z" fill="white"/>
<path d="M4.72133 34.2296H2.36067C2.03418 34.2296 1.77051 33.9651 1.77051 33.6395V31.2788H2.95084V33.0493H4.72133V34.2296Z" fill="white"/>
<path d="M8.85243 34.2296H6.49178C6.16528 34.2296 5.90161 33.9651 5.90161 33.6395V31.2788H7.08194V33.0493H8.85243V34.2296Z" fill="white"/>
<path d="M8.85243 34.2296H6.49178C6.16528 34.2296 5.90161 33.9651 5.90161 33.6395V31.2788H7.08194V33.0493H8.85243V34.2296Z" fill="white"/>
<path d="M12.9837 34.2296H10.623C10.2965 34.2296 10.0328 33.9651 10.0328 33.6395V31.2788H11.2132V33.0493H12.9837V34.2296Z" fill="white"/>
<path d="M12.9837 34.2296H10.623C10.2965 34.2296 10.0328 33.9651 10.0328 33.6395V31.2788H11.2132V33.0493H12.9837V34.2296Z" fill="white"/>
<path d="M29.5082 30.0981C29.5082 27.2784 28.187 24.9927 26.5574 24.9927C24.9278 24.9927 23.6066 27.2784 23.6066 30.0981C23.6066 32.9178 24.9278 35.2036 26.5574 35.2036C28.187 35.2036 29.5082 32.9178 29.5082 30.0981Z" fill="#CA5057"/>
<path d="M23.8881 28.3278H29.2266C29.0955 27.9134 28.9275 27.5163 28.7125 27.1475H24.4016C24.1872 27.5163 24.0192 27.9134 23.8881 28.3278Z" fill="#DC6068"/>
<path d="M23.6466 29.5083C23.6273 29.7031 23.6066 29.8985 23.6066 30.0985C23.6066 30.2985 23.6273 30.4933 23.6466 30.6886H29.4687C29.4875 30.4933 29.5082 30.2985 29.5082 30.0985C29.5082 29.8985 29.4875 29.7031 29.4682 29.5083H23.6466Z" fill="#DC6068"/>
<path d="M24.4022 33.049H28.7131C28.9275 32.6801 29.0961 32.283 29.2272 31.8687H23.8887C24.0192 32.283 24.1872 32.6801 24.4022 33.049Z" fill="#DC6068"/>
<path d="M17.705 19.4756H35.4099V21.8362H17.705V19.4756Z" fill="#BC8F6F"/>
<path d="M17.705 19.4756H26.5574V21.8362H17.705V19.4756Z" fill="#CB9E78"/>
<path d="M21.8361 4.72131C20.5342 4.72131 19.4755 3.66259 19.4755 2.36066C19.4755 1.05872 20.5342 0 21.8361 0C23.1381 0 24.1968 1.05872 24.1968 2.36066C24.1968 3.66259 23.1381 4.72131 21.8361 4.72131ZM21.8361 1.18033C21.1852 1.18033 20.6558 1.70969 20.6558 2.36066C20.6558 3.01162 21.1852 3.54099 21.8361 3.54099C22.4871 3.54099 23.0164 3.01162 23.0164 2.36066C23.0164 1.70969 22.4871 1.18033 21.8361 1.18033Z" fill="#70B48F"/>
<path d="M11.2131 11.213C9.91114 11.213 8.85242 10.1543 8.85242 8.85235C8.85242 7.55042 9.91114 6.4917 11.2131 6.4917C12.515 6.4917 13.5737 7.55042 13.5737 8.85235C13.5737 10.1543 12.515 11.213 11.2131 11.213ZM11.2131 7.67203C10.5621 7.67203 10.0327 8.20139 10.0327 8.85235C10.0327 9.50332 10.5621 10.0327 11.2131 10.0327C11.864 10.0327 12.3934 9.50332 12.3934 8.85235C12.3934 8.20139 11.864 7.67203 11.2131 7.67203Z" fill="#CA5057"/>
<path d="M33.6393 7.08215C32.3374 7.08215 31.2787 6.02343 31.2787 4.72149C31.2787 3.41956 32.3374 2.36084 33.6393 2.36084C34.9413 2.36084 36 3.41956 36 4.72149C36 6.02343 34.9413 7.08215 33.6393 7.08215ZM33.6393 3.54117C32.9884 3.54117 32.459 4.07053 32.459 4.72149C32.459 5.37246 32.9884 5.90182 33.6393 5.90182C34.2903 5.90182 34.8197 5.37246 34.8197 4.72149C34.8197 4.07053 34.2903 3.54117 33.6393 3.54117Z" fill="#5789D6"/>
</svg>
