<svg width="36" height="36" viewBox="0 0 36 36" fill="none" xmlns="http://www.w3.org/2000/svg">
<g clip-path="url(#clip0)">
<path d="M3 12H33V30H3V12Z" fill="#DADADA"/>
<path d="M5.40002 0H30.6V4.8H5.40002V0Z" fill="#223942"/>
<path d="M5.40002 4.7998H30.6V22.7998H5.40002V4.7998Z" fill="white"/>
<path d="M24.6 15.0002V12.6002H23.2615C23.1305 12.0236 22.9061 11.4837 22.607 10.9933L23.4 10.2002L21.6 8.4002L20.807 9.19326C20.3165 8.89414 19.7766 8.66973 19.2 8.53877V7.2002H16.8V8.53877C16.2235 8.66973 15.6835 8.89414 15.1931 9.19326L14.4 8.4002L12.6 10.2002L13.3931 10.9933C13.094 11.4837 12.8696 12.0236 12.7386 12.6002H11.4V15.0002H12.7386C12.8696 15.5768 13.094 16.1167 13.3931 16.6071L12.6 17.4002L14.4 19.2002L15.1931 18.4071C15.6835 18.7063 16.2235 18.9307 16.8 19.0616V20.4002H19.2V19.0616C19.7766 18.9307 20.3165 18.7063 20.807 18.4071L21.6 19.2002L23.4 17.4002L22.607 16.6071C22.9061 16.1167 23.1305 15.5768 23.2615 15.0002H24.6Z" fill="#FE4F17"/>
<path d="M21 13.7998C21 15.4565 19.6567 16.7998 18 16.7998C16.3433 16.7998 15 15.4565 15 13.7998C15 12.1431 16.3433 10.7998 18 10.7998C19.6567 10.7998 21 12.1431 21 13.7998Z" fill="white"/>
<path d="M23.4 33.6001H12.6C11.2746 33.6001 10.2 34.6747 10.2 36.0001H25.8C25.8 34.6747 24.7253 33.6001 23.4 33.6001Z" fill="#758190"/>
<path d="M15.6 30H20.4V33.6H15.6V30Z" fill="#66757C"/>
<path d="M7.20007 1.7998H8.40007V2.9998H7.20007V1.7998Z" fill="white"/>
<path d="M9.6001 1.7998H10.8001V2.9998H9.6001V1.7998Z" fill="white"/>
<path d="M12 1.7998H13.2V2.9998H12V1.7998Z" fill="white"/>
<path d="M4.80005 24.5996H17.4V25.7996H4.80005V24.5996Z" fill="white"/>
<path d="M4.80005 27H17.4V28.2H4.80005V27Z" fill="white"/>
<path d="M18.6001 24.5996H31.2001V25.7996H18.6001V24.5996Z" fill="white"/>
<path d="M18.6001 27H31.2001V28.2H18.6001V27Z" fill="white"/>
</g>
<defs>
<clipPath id="clip0">
<rect width="36" height="36" fill="white"/>
</clipPath>
</defs>
</svg>
