<svg width="36" height="36" viewBox="0 0 36 36" fill="none" xmlns="http://www.w3.org/2000/svg">
<g clip-path="url(#clip0)">
<path d="M18 4.7998V28.1998C18 32.5079 14.5081 35.9998 10.2 35.9998C5.89192 35.9998 2.40002 32.5079 2.40002 28.1998V4.7998" fill="#BAB8B9"/>
<path d="M9.00002 35.8984C12.7368 35.3195 15.6 32.0986 15.6 28.1998V4.7998H2.40002V28.1998C2.40002 32.0986 5.26321 35.3195 9.00002 35.8984Z" fill="#D9D7D8"/>
<path d="M5.39995 30.6001H4.19995V27.6019C4.19995 23.6822 6.32866 20.0647 9.75522 18.1615L10.062 17.991C13.1083 16.2991 14.9999 13.0832 14.9999 9.59893V6.6001H16.1999V9.59834C16.1999 13.518 14.0712 17.1355 10.6447 19.0387L10.3379 19.2092C7.29165 20.9011 5.39995 24.117 5.39995 27.6013V30.6001Z" fill="#575C61"/>
<path d="M6.6001 21H13.8001V22.2H6.6001V21Z" fill="#5B6673"/>
<path d="M5.40002 23.4004H15V24.6004H5.40002V23.4004Z" fill="#5B6673"/>
<path d="M4.80005 25.8003H15.6V27.0003H4.80005V25.8003Z" fill="#5B6673"/>
<path d="M6.6001 15H13.8001V16.2H6.6001V15Z" fill="#5B6673"/>
<path d="M5.40002 12.6001H15V13.8001H5.40002V12.6001Z" fill="#5B6673"/>
<path d="M4.80005 10.2002H15.6V11.4002H4.80005V10.2002Z" fill="#5B6673"/>
<path d="M30 15.6001H36V18.0001H30V15.6001Z" fill="#BC8F6F"/>
<path d="M30 15.6001H33.6V18.0001H30V15.6001Z" fill="#CB9E78"/>
<path d="M21.6 15.6001H27.6V18.0001H21.6V15.6001Z" fill="#BC8F6F"/>
<path d="M21.6 15.6001H25.2V18.0001H21.6V15.6001Z" fill="#CB9E78"/>
<path d="M31.2 18V34.2C31.2 35.1943 32.0056 36 33 36C33.9943 36 34.7999 35.1943 34.7999 34.2V18" fill="#BAB8B9"/>
<path d="M32.4 35.8895C33.0978 35.6417 33.6 34.9825 33.6 34.2V18H31.2V34.2C31.2 34.9825 31.7021 35.6417 32.4 35.8895Z" fill="#D9D7D8"/>
<path d="M22.8 18V34.2C22.8 35.1943 23.6057 36 24.6 36C25.5944 36 26.4 35.1943 26.4 34.2V18" fill="#BAB8B9"/>
<path d="M24 35.8895C24.6979 35.6417 25.2 34.9825 25.2 34.2V18H22.8V34.2C22.8 34.9825 23.3022 35.6417 24 35.8895Z" fill="#D9D7D8"/>
<path d="M22.8 24V34.2C22.8 35.1943 23.6057 36 24.6 36C25.5944 36 26.4 35.1943 26.4 34.2V24" fill="#599072"/>
<path d="M24 35.8895C24.6979 35.6417 25.2 34.9825 25.2 34.2V24H22.8V34.2C22.8 34.9825 23.3022 35.6417 24 35.8895Z" fill="#70B48F"/>
<path d="M31.2 24V34.2C31.2 35.1943 32.0056 36 33 36C33.9943 36 34.7999 35.1943 34.7999 34.2V24" fill="#223942"/>
<path d="M32.4 35.8895C33.0978 35.6417 33.6 34.9825 33.6 34.2V24H31.2V34.2C31.2 34.9825 31.7021 35.6417 32.4 35.8895Z" fill="#66757C"/>
<path d="M0 0H20.4V4.8H0V0Z" fill="#BC8F6F"/>
<path d="M0 0H15.6V4.8H0V0Z" fill="#CB9E78"/>
<path d="M8.99998 31.8001C8.99998 32.4628 8.46267 33.0001 7.79998 33.0001C7.13728 33.0001 6.59998 32.4628 6.59998 31.8001C6.59998 31.1374 7.13728 30.6001 7.79998 30.6001C8.46267 30.6001 8.99998 31.1374 8.99998 31.8001Z" fill="#70B48F"/>
<path d="M34.2 11.4002C34.2 12.0629 33.6627 12.6002 33 12.6002C32.3374 12.6002 31.8 12.0629 31.8 11.4002C31.8 10.7375 32.3374 10.2002 33 10.2002C33.6627 10.2002 34.2 10.7375 34.2 11.4002Z" fill="#5B6673"/>
<path d="M25.8 6.5999C25.8 7.2626 25.2627 7.7999 24.6 7.7999C23.9373 7.7999 23.4 7.2626 23.4 6.5999C23.4 5.93721 23.9373 5.3999 24.6 5.3999C25.2627 5.3999 25.8 5.93721 25.8 6.5999Z" fill="#699CE6"/>
<path d="M35.4 2.4001C35.4 3.39414 34.5941 4.2001 33.6 4.2001C32.606 4.2001 31.8 3.39414 31.8 2.4001C31.8 1.40605 32.606 0.600098 33.6 0.600098C34.5941 0.600098 35.4 1.40605 35.4 2.4001Z" fill="#599072"/>
<path d="M16.1999 30.6001H14.9999V27.6019C14.9999 24.117 13.1083 20.9017 10.0625 19.2104L9.75464 19.0387C6.32866 17.1361 4.19995 13.518 4.19995 9.59834V6.6001H5.39995V9.59834C5.39995 13.0832 7.29165 16.2985 10.3374 17.9898L10.6453 18.1615C14.0712 20.0641 16.1999 23.6822 16.1999 27.6019V30.6001Z" fill="#575C61"/>
<path d="M4.80005 28.2002H6.60005V29.4002H4.80005V28.2002Z" fill="#575C61"/>
<path d="M13.8 28.2002H15.6V29.4002H13.8V28.2002Z" fill="#575C61"/>
<path d="M13.8 7.7998H15.6V8.99981H13.8V7.7998Z" fill="#575C61"/>
<path d="M4.80005 7.7998H6.60005V8.99981H4.80005V7.7998Z" fill="#575C61"/>
<path d="M11.4 30H12.6V31.2H11.4V30Z" fill="#5B6673"/>
<path d="M33.6 4.8C32.2763 4.8 31.2 3.72363 31.2 2.4C31.2 1.07637 32.2763 0 33.6 0C34.9236 0 36 1.07637 36 2.4C36 3.72363 34.9236 4.8 33.6 4.8ZM33.6 1.2C32.9381 1.2 32.4 1.73818 32.4 2.4C32.4 3.06182 32.9381 3.6 33.6 3.6C34.2618 3.6 34.8 3.06182 34.8 2.4C34.8 1.73818 34.2618 1.2 33.6 1.2Z" fill="#BAB8B9"/>
<path d="M24.6 8.3998C23.6078 8.3998 22.8 7.59209 22.8 6.5998C22.8 5.60752 23.6078 4.7998 24.6 4.7998C25.5923 4.7998 26.4 5.60752 26.4 6.5998C26.4 7.59209 25.5923 8.3998 24.6 8.3998ZM24.6 5.9998C24.269 5.9998 24 6.26875 24 6.5998C24 6.93086 24.269 7.1998 24.6 7.1998C24.9311 7.1998 25.2 6.93086 25.2 6.5998C25.2 6.26875 24.9311 5.9998 24.6 5.9998Z" fill="#BAB8B9"/>
<path d="M33 13.2001C32.0077 13.2001 31.2 12.3924 31.2 11.4001C31.2 10.4078 32.0077 9.6001 33 9.6001C33.9922 9.6001 34.7999 10.4078 34.7999 11.4001C34.7999 12.3924 33.9922 13.2001 33 13.2001ZM33 10.8001C32.6689 10.8001 32.4 11.069 32.4 11.4001C32.4 11.7312 32.6689 12.0001 33 12.0001C33.331 12.0001 33.6 11.7312 33.6 11.4001C33.6 11.069 33.331 10.8001 33 10.8001Z" fill="#BAB8B9"/>
<path d="M25.531 5.46338L31.5304 2.46338L32.0671 3.53682L26.0674 6.53652L25.531 5.46338Z" fill="#BAB8B9"/>
<path d="M25.4915 7.71396L26.1087 6.68506L32.1087 10.2851L31.4915 11.3143L25.4915 7.71396Z" fill="#BAB8B9"/>
</g>
<defs>
<clipPath id="clip0">
<rect width="36" height="36" fill="white"/>
</clipPath>
</defs>
</svg>
