<svg id="Layer_1" data-name="Layer 1" xmlns="http://www.w3.org/2000/svg" viewBox="0 0 192.94 60"><defs><style>.cls-1{fill:#ffa600;}.cls-2{fill:#202023;}.cls-3{fill:#ffc200;}</style></defs><title>desk_school_of_science_logo</title><path class="cls-1" d="M71.48,59.26a2.57,2.57,0,0,1-1.17-2.33v-.3h1.4a.66.66,0,0,1,0,.11,1.25,1.25,0,0,0,0,.21,1.5,1.5,0,0,0,.76,1.37,3.66,3.66,0,0,0,2,.47,4.17,4.17,0,0,0,2.14-.44,1.37,1.37,0,0,0,.75-1.25,1.2,1.2,0,0,0-.39-.92,2.76,2.76,0,0,0-1-.57,15.82,15.82,0,0,0-1.58-.46,17.2,17.2,0,0,1-2-.61,3.37,3.37,0,0,1-1.29-.86,2.12,2.12,0,0,1-.54-1.51,2.24,2.24,0,0,1,1.12-2,5.27,5.27,0,0,1,2.86-.7,5.06,5.06,0,0,1,2.83.71,2.4,2.4,0,0,1,1.08,2.16v.18H77.07v-.22a1.32,1.32,0,0,0-.69-1.19,3.35,3.35,0,0,0-1.8-.44A4.17,4.17,0,0,0,72.7,51,1.16,1.16,0,0,0,72,52.06a1.08,1.08,0,0,0,.38.85,2.85,2.85,0,0,0,.94.53,15.88,15.88,0,0,0,1.56.45,18.52,18.52,0,0,1,2,.62,3.35,3.35,0,0,1,1.33.87,2.08,2.08,0,0,1,.54,1.49,2.64,2.64,0,0,1-1.14,2.39,6.72,6.72,0,0,1-6.13,0Z"/><path class="cls-1" d="M81.16,59a4.81,4.81,0,0,1-.83-3.1,4.74,4.74,0,0,1,.84-3.1,3.21,3.21,0,0,1,2.61-1,3.17,3.17,0,0,1,2.36.77,3.25,3.25,0,0,1,.74,2.31H85.54a2.44,2.44,0,0,0-.38-1.52,1.67,1.67,0,0,0-1.38-.47,1.83,1.83,0,0,0-1.59.7,4,4,0,0,0-.51,2.31V56a4,4,0,0,0,.5,2.27,1.84,1.84,0,0,0,1.6.68,1.73,1.73,0,0,0,1.41-.5,2.26,2.26,0,0,0,.42-1.49h1.27a3.23,3.23,0,0,1-.76,2.21,2.94,2.94,0,0,1-2.34.87A3.24,3.24,0,0,1,81.16,59Z"/><path class="cls-1" d="M88.55,49.06h1.31v3.81H90a2.92,2.92,0,0,1,2.47-1.06c1.63,0,2.45.89,2.45,2.67v5.34H93.57V54.57a1.69,1.69,0,0,0-.42-1.31,1.8,1.8,0,0,0-1.21-.36,2.1,2.1,0,0,0-1,.27,2,2,0,0,0-.76.8,2.5,2.5,0,0,0-.28,1.22v4.63H88.55Z"/><path class="cls-1" d="M97.56,59a4.46,4.46,0,0,1-.91-3.08,4.47,4.47,0,0,1,.91-3.09,4.14,4.14,0,0,1,5.42,0,4.53,4.53,0,0,1,.91,3.09A4.51,4.51,0,0,1,103,59a4.14,4.14,0,0,1-5.42,0Zm4.43-.77a3.7,3.7,0,0,0,.54-2.26v-.11a3.7,3.7,0,0,0-.54-2.26,2,2,0,0,0-1.72-.69,2.05,2.05,0,0,0-1.73.69A3.7,3.7,0,0,0,98,55.85V56a3.7,3.7,0,0,0,.54,2.26,2.05,2.05,0,0,0,1.73.69A2,2,0,0,0,102,58.22Z"/><path class="cls-1" d="M106.13,59a4.51,4.51,0,0,1-.9-3.08,4.53,4.53,0,0,1,.9-3.09,4.14,4.14,0,0,1,5.42,0,4.47,4.47,0,0,1,.91,3.09,4.46,4.46,0,0,1-.91,3.08,4.14,4.14,0,0,1-5.42,0Zm4.44-.77a3.7,3.7,0,0,0,.54-2.26v-.11a3.7,3.7,0,0,0-.54-2.26,2.05,2.05,0,0,0-1.73-.69,2,2,0,0,0-1.72.69,3.7,3.7,0,0,0-.54,2.26V56a3.7,3.7,0,0,0,.54,2.26,2,2,0,0,0,1.72.69A2.05,2.05,0,0,0,110.57,58.22Z"/><path class="cls-1" d="M114.28,49.06h1.31V59.82h-1.31Z"/><path class="cls-1" d="M122.75,59a4.46,4.46,0,0,1-.91-3.08,4.47,4.47,0,0,1,.91-3.09,4.14,4.14,0,0,1,5.42,0,4.47,4.47,0,0,1,.91,3.09,4.46,4.46,0,0,1-.91,3.08,4.14,4.14,0,0,1-5.42,0Zm4.44-.77a3.77,3.77,0,0,0,.53-2.26v-.11a3.77,3.77,0,0,0-.53-2.26,2.51,2.51,0,0,0-3.46,0,3.77,3.77,0,0,0-.53,2.26V56a3.77,3.77,0,0,0,.53,2.26,2.51,2.51,0,0,0,3.46,0Z"/><path class="cls-1" d="M131.18,53.08H130V52h1.15V50.74a2.12,2.12,0,0,1,.38-1.29,1.55,1.55,0,0,1,1.31-.51,3.2,3.2,0,0,1,.61.05,2.69,2.69,0,0,1,.51.13V50h-.77a.64.64,0,0,0-.73.72V52H134v1.09h-1.5v6.74h-1.31Z"/><path class="cls-1" d="M140.68,59.26a2.56,2.56,0,0,1-1.18-2.33l0-.3h1.4l0,.11a1.34,1.34,0,0,0,0,.21,1.52,1.52,0,0,0,.75,1.37,3.68,3.68,0,0,0,2,.47,4.23,4.23,0,0,0,2.15-.44,1.38,1.38,0,0,0,.74-1.25,1.2,1.2,0,0,0-.39-.92,2.8,2.8,0,0,0-1-.57,16.13,16.13,0,0,0-1.59-.46,17,17,0,0,1-2-.61,3.4,3.4,0,0,1-1.3-.86,2.12,2.12,0,0,1-.54-1.51,2.26,2.26,0,0,1,1.12-2,5.29,5.29,0,0,1,2.86-.7,5.06,5.06,0,0,1,2.83.71,2.41,2.41,0,0,1,1.09,2.16v.18h-1.39v-.22a1.32,1.32,0,0,0-.69-1.19,3.33,3.33,0,0,0-1.8-.44,4.17,4.17,0,0,0-1.88.36,1.16,1.16,0,0,0-.71,1.07,1.08,1.08,0,0,0,.38.85,3,3,0,0,0,.94.53,15.88,15.88,0,0,0,1.56.45,18.52,18.52,0,0,1,2,.62,3.28,3.28,0,0,1,1.33.87,2.08,2.08,0,0,1,.54,1.49,2.64,2.64,0,0,1-1.14,2.39,6.7,6.7,0,0,1-6.12,0Z"/><path class="cls-1" d="M150.36,59a4.74,4.74,0,0,1-.84-3.1,4.74,4.74,0,0,1,.84-3.1,3.22,3.22,0,0,1,2.62-1,3.16,3.16,0,0,1,2.35.77,3.21,3.21,0,0,1,.74,2.31h-1.34a2.37,2.37,0,0,0-.38-1.52A1.66,1.66,0,0,0,153,52.9a1.83,1.83,0,0,0-1.6.7,4.06,4.06,0,0,0-.5,2.31V56a4,4,0,0,0,.49,2.27,1.86,1.86,0,0,0,1.61.68,1.72,1.72,0,0,0,1.4-.5,2.21,2.21,0,0,0,.43-1.49h1.26a3.23,3.23,0,0,1-.76,2.21A2.92,2.92,0,0,1,153,60,3.22,3.22,0,0,1,150.36,59Z"/><path class="cls-1" d="M157.74,49.06h1.31v1.46h-1.31Zm0,2.93h1.31v7.83h-1.31Z"/><path class="cls-1" d="M161.85,59a4.41,4.41,0,0,1-.92-3.09,4.42,4.42,0,0,1,.92-3.1,3.64,3.64,0,0,1,2.81-1,3.3,3.3,0,0,1,2.54.9,4.17,4.17,0,0,1,.84,2.9v.65h-5.76a3.28,3.28,0,0,0,.65,2,2.19,2.19,0,0,0,1.73.64,2.45,2.45,0,0,0,1.52-.43,1.54,1.54,0,0,0,.58-1.32H168a2.5,2.5,0,0,1-.94,2.1,3.85,3.85,0,0,1-2.44.74A3.64,3.64,0,0,1,161.85,59Zm4.82-3.82q0-2.28-2-2.28a2.36,2.36,0,0,0-1.67.53,2.75,2.75,0,0,0-.68,1.75Z"/><path class="cls-1" d="M169.92,52h1l.15,1.06h.1a3,3,0,0,1,2.64-1.24,2.44,2.44,0,0,1,1.8.63,2.77,2.77,0,0,1,.64,2v5.34h-1.31V54.57a1.69,1.69,0,0,0-.42-1.31,1.8,1.8,0,0,0-1.21-.36,2.1,2.1,0,0,0-1,.27,2,2,0,0,0-.76.8,2.5,2.5,0,0,0-.28,1.22v4.63h-1.31Z"/><path class="cls-1" d="M178.85,59a4.81,4.81,0,0,1-.83-3.1,4.74,4.74,0,0,1,.84-3.1,3.21,3.21,0,0,1,2.61-1,3.17,3.17,0,0,1,2.36.77,3.25,3.25,0,0,1,.74,2.31h-1.34a2.37,2.37,0,0,0-.38-1.52,1.67,1.67,0,0,0-1.38-.47,1.83,1.83,0,0,0-1.59.7,4.06,4.06,0,0,0-.5,2.31V56a4,4,0,0,0,.49,2.27,1.84,1.84,0,0,0,1.6.68,1.73,1.73,0,0,0,1.41-.5,2.26,2.26,0,0,0,.43-1.49h1.26a3.23,3.23,0,0,1-.76,2.21,2.93,2.93,0,0,1-2.34.87A3.24,3.24,0,0,1,178.85,59Z"/><path class="cls-1" d="M186.75,59a4.41,4.41,0,0,1-.93-3.09,4.42,4.42,0,0,1,.93-3.1,3.62,3.62,0,0,1,2.81-1,3.32,3.32,0,0,1,2.54.9,4.17,4.17,0,0,1,.84,2.9v.65h-5.76a3.22,3.22,0,0,0,.65,2,2.19,2.19,0,0,0,1.73.64,2.47,2.47,0,0,0,1.52-.43,1.54,1.54,0,0,0,.58-1.32h1.28a2.51,2.51,0,0,1-.95,2.1,3.84,3.84,0,0,1-2.43.74A3.62,3.62,0,0,1,186.75,59Zm4.82-3.82q0-2.28-2-2.28a2.4,2.4,0,0,0-1.68.53,2.75,2.75,0,0,0-.67,1.75Z"/><path class="cls-2" d="M98.67,25.32a14.25,14.25,0,0,1-3.11,9,13.91,13.91,0,0,1-2.42,2.43,14.6,14.6,0,0,1-16.3,1.16,14.53,14.53,0,0,1-5.28-5.28A14.6,14.6,0,0,1,72.7,16.35a13.91,13.91,0,0,1,2.42-2.43,14.3,14.3,0,0,1,9-3.13,14,14,0,0,1,8,2.39.57.57,0,0,0,.89-.47V.58A.58.58,0,0,1,93.57,0H98.1a.58.58,0,0,1,.57.58V25.32ZM88.6,33A8.8,8.8,0,0,0,93,25.32v-.05a8.47,8.47,0,0,0-1.21-4.43,9.06,9.06,0,0,0-3.25-3.2,8.72,8.72,0,0,0-4.4-1.18,8.51,8.51,0,0,0-4.52,1.24A9.33,9.33,0,0,0,76.4,21a8.62,8.62,0,0,0,0,8.76A9.17,9.17,0,0,0,79.68,33a8.54,8.54,0,0,0,4.46,1.21A8.73,8.73,0,0,0,88.6,33Z"/><path class="cls-2" d="M111,27.74a.58.58,0,0,0-.55.77,6.45,6.45,0,0,0,.85,1.63,11.34,11.34,0,0,0,2,2.06,8.87,8.87,0,0,0,12-.76.54.54,0,0,1,.4-.17h5.52a.57.57,0,0,1,.52.83,15.88,15.88,0,0,1-1.43,2.19,14.6,14.6,0,0,1-5,4.08,14.09,14.09,0,0,1-6.39,1.48,14.38,14.38,0,0,1-7.57-2,13.86,13.86,0,0,1-5.14-5.31,14.49,14.49,0,0,1-1.82-7.1A15.06,15.06,0,0,1,108.64,15a13.17,13.17,0,0,1,4.6-3.14,14.83,14.83,0,0,1,5.69-1.1,14.28,14.28,0,0,1,6.42,1.49,13.68,13.68,0,0,1,5,4.13,10.54,10.54,0,0,1,2,3.93A17.47,17.47,0,0,1,133,25.1a15,15,0,0,1-.14,2.14.57.57,0,0,1-.57.5H111Zm15-5.61a.58.58,0,0,0,.5-.85,9.1,9.1,0,0,0-3.08-3.39,8.61,8.61,0,0,0-6.1-1.39,6.65,6.65,0,0,0-1.17.28,8,8,0,0,0-5,4.54.58.58,0,0,0,.53.81Z"/><path class="cls-2" d="M141.81,38c-2.07-1.65-3.11-3.15-3.11-5.64a6.54,6.54,0,0,1,0-.8c0-.05,0-.15,0-.27a.57.57,0,0,1,.57-.55h4.42a.57.57,0,0,1,.58.57v.5c0,1.57.64,2.18,1.92,3a9.24,9.24,0,0,0,4.9,1.19,9,9,0,0,0,4.43-1,3.08,3.08,0,0,0,1.79-2.81,3,3,0,0,0-1-2.34A7.15,7.15,0,0,0,154,28.38c-1-.35-2.33-.76-4.13-1.24a44.24,44.24,0,0,1-5.39-1.65A9.1,9.1,0,0,1,140.88,23a6.37,6.37,0,0,1-1.46-4.4,7.08,7.08,0,0,1,3.25-6.19,15,15,0,0,1,8.64-2.23,15.66,15.66,0,0,1,5.86,1A8.78,8.78,0,0,1,161,14a6.66,6.66,0,0,1,1.35,4.07l0,.56a.56.56,0,0,1-.57.54h-4.44a.56.56,0,0,1-.57-.57v-.39a3.4,3.4,0,0,0-1.46-2.37,7.35,7.35,0,0,0-4.49-1.12,7.09,7.09,0,0,0-4.26,1,3,3,0,0,0-1.35,2.4,2.68,2.68,0,0,0,1.65,2.53,25.18,25.18,0,0,0,5.23,1.65A44.8,44.8,0,0,1,157.75,24a9.89,9.89,0,0,1,3.8,2.64,6.9,6.9,0,0,1,1.59,4.76c0,3.09-1.11,5.36-3.33,6.83s-5.2,2.2-8.94,2.2C146.9,40.46,143.89,39.63,141.81,38Z"/><path class="cls-1" d="M83.88,31.7a7.23,7.23,0,0,0,7.17-7.79.38.38,0,0,0-.56-.27c-1.35.77-2.89,2.54-4.85,3.74-2.45,1.5-4.16,2.14-5.89,2.22a.36.36,0,0,0-.2.65A7.15,7.15,0,0,0,83.88,31.7Z"/><rect class="cls-2" x="92.39" width="6.88" height="1.72" rx="0.86" ry="0.86"/><rect class="cls-2" x="168.27" width="6.88" height="1.72" rx="0.86" ry="0.86"/><path class="cls-2" d="M174.54,17V.58A.57.57,0,0,0,174,0h-4.52a.58.58,0,0,0-.58.58v21.7a.58.58,0,0,0,1,.38l4.52-5.32A.56.56,0,0,0,174.54,17Z"/><path class="cls-2" d="M192.86,38.93l-9.68-16.44a.56.56,0,0,1,.06-.67l8.75-10a.57.57,0,0,0-.43-1h-5.3a.57.57,0,0,0-.44.2l-6.44,7.52L168.87,30.92v8.31a.58.58,0,0,0,.58.57H174a.57.57,0,0,0,.57-.57v-8.1a.6.6,0,0,1,.18-.42l4.13-3.94a.58.58,0,0,1,.9.14l6.91,12.59a.58.58,0,0,0,.5.3h5.21A.58.58,0,0,0,192.86,38.93Z"/><path class="cls-3" d="M1.91,51a1.91,1.91,0,0,1-.8-3.65c8.74-4,16.81-5.64,24-4.77a53.42,53.42,0,0,1,7.17,1.54,81.61,81.61,0,0,0,13.36,2.56c2.82.29,5.68.46,8.53.5a1.91,1.91,0,0,1,0,3.82h0c-3,0-6-.22-8.88-.53A84.5,84.5,0,0,1,31.3,47.76a49.09,49.09,0,0,0-6.68-1.43c-6.45-.8-13.82.7-21.91,4.44A1.9,1.9,0,0,1,1.91,51Z"/><path class="cls-2" d="M51.38,36.64a23.28,23.28,0,0,1-1.31,7.68c-1.06-.06-2.13-.13-3.19-.22a20.3,20.3,0,0,0,1.43-7.46A20,20,0,0,0,32,16.73a.5.5,0,0,1-.42-.49V8.51A.51.51,0,0,1,32.11,8h3a.51.51,0,0,0,.51-.51V3.58a.51.51,0,0,0-.51-.51H21a.51.51,0,0,0-.51.51V7.49A.51.51,0,0,0,21,8h3a.51.51,0,0,1,.51.51v7.74a.5.5,0,0,1-.41.5A20.33,20.33,0,0,0,7.73,36.64a20.63,20.63,0,0,0,.58,4.81c-1,.28-1.95.59-2.93.93a23.15,23.15,0,0,1-.72-5.74,23.42,23.42,0,0,1,16.73-22.4V11.07H18.93a1.53,1.53,0,0,1-1.54-1.53v-8A1.54,1.54,0,0,1,18.93,0H37.11a1.54,1.54,0,0,1,1.54,1.54v8a1.53,1.53,0,0,1-1.54,1.53H34.65V14.2A23.08,23.08,0,0,1,51.38,36.64Z"/><path class="cls-2" d="M44.24,53.11c-1.35-.14-2.59-.31-3.76-.48a20.23,20.23,0,0,1-27.86-2.8c-1,.25-2.12.56-3.21.91a23.33,23.33,0,0,0,35.13,2.4Z"/><path class="cls-3" d="M24.65,39.86c.81.1,1.59.23,2.35.37V36.79h2v3.87c1,.25,2.09.52,3.15.8l.45.12V35a1.8,1.8,0,0,0-1.8-1.8H25.2A1.81,1.81,0,0,0,23.4,35v4.74Z"/><path class="cls-3" d="M17,39.76V34.17l11.27-9.46L39,33.66v9.39c1,.18,2,.36,3.08.52V32.94a1.57,1.57,0,0,0-.56-1.18L29.26,21.53a1.53,1.53,0,0,0-2,0L14.49,32.28a1.53,1.53,0,0,0-.55,1.18v6.69C15,40,16,39.85,17,39.76Z"/></svg>