<svg width="792" height="805" viewBox="0 0 792 805" fill="none" xmlns="http://www.w3.org/2000/svg">
<g opacity="0.7">
<path fill-rule="evenodd" clip-rule="evenodd" d="M413.007 466C631.232 466 808.138 276.616 808.138 43C808.138 -190.616 631.232 -380 413.007 -380C194.781 -380 17.875 -190.616 17.875 43C17.875 276.616 194.781 466 413.007 466Z" fill="#223942" style="mix-blend-mode:soft-light"/>
<path fill-rule="evenodd" clip-rule="evenodd" d="M427.118 580C653.137 580 836.362 383.901 836.362 142C836.362 -99.9007 653.137 -296 427.118 -296C201.1 -296 17.875 -99.9007 17.875 142C17.875 383.901 201.1 580 427.118 580Z" fill="#223942" style="mix-blend-mode:soft-light"/>
<path fill-rule="evenodd" clip-rule="evenodd" d="M500.5 805C776.919 805 1001 565.248 1001 269.5C1001 -26.2485 776.919 -266 500.5 -266C224.081 -266 0 -26.2485 0 269.5C0 565.248 224.081 805 500.5 805Z" fill="#223942" style="mix-blend-mode:soft-light"/>
</g>
</svg>
