<svg width="769" height="865" viewBox="0 0 769 865" fill="none" xmlns="http://www.w3.org/2000/svg">
<path opacity="0.05" fill-rule="evenodd" clip-rule="evenodd" d="M508.316 471.579C776.901 471.579 994.632 252.293 994.632 -18.2106C994.632 -288.714 776.901 -508 508.316 -508C239.731 -508 22 -288.714 22 -18.2106C22 252.293 239.731 471.579 508.316 471.579Z" fill="#749BE7"/>
<path opacity="0.05" fill-rule="evenodd" clip-rule="evenodd" d="M525.684 603.579C803.861 603.579 1029.37 376.517 1029.37 96.4211C1029.37 -183.674 803.861 -410.737 525.684 -410.737C247.507 -410.737 22 -183.674 22 96.4211C22 376.517 247.507 603.579 525.684 603.579Z" fill="#749BE7"/>
<path opacity="0.05" fill-rule="evenodd" clip-rule="evenodd" d="M616 864.105C956.207 864.105 1232 586.498 1232 244.053C1232 -98.393 956.207 -376 616 -376C275.793 -376 0 -98.393 0 244.053C0 586.498 275.793 864.105 616 864.105Z" fill="#749BE7"/>
</svg>
