<svg width="10" height="16" viewBox="0 0 10 16" fill="none" xmlns="http://www.w3.org/2000/svg">
<path d="M8.99914 0.00284079L6.92432 -0.000488281C4.59333 -0.000488281 3.08694 1.54503 3.08694 3.93713V5.75264H1.00081C0.820539 5.75264 0.674561 5.89879 0.674561 6.07906V8.70952C0.674561 8.88979 0.820705 9.03577 1.00081 9.03577H3.08694V15.6733C3.08694 15.8535 3.23292 15.9995 3.41319 15.9995H6.13501C6.31527 15.9995 6.46125 15.8534 6.46125 15.6733V9.03577H8.90043C9.0807 9.03577 9.22668 8.88979 9.22668 8.70952L9.22768 6.07906C9.22768 5.9925 9.19322 5.90961 9.13213 5.84835C9.07104 5.7871 8.98782 5.75264 8.90126 5.75264H6.46125V4.21361C6.46125 3.47389 6.63752 3.09837 7.60111 3.09837L8.99881 3.09788C9.17891 3.09788 9.32488 2.95173 9.32488 2.77163V0.329089C9.32488 0.149153 9.17907 0.00317369 8.99914 0.00284079Z" fill="white"/>
</svg>
