<svg width="17" height="28" viewBox="0 0 17 28" fill="none" xmlns="http://www.w3.org/2000/svg">
<g clip-path="url(#clip0)">
<path d="M10.0206 1.36084H6.97852V6.96084H10.0206V1.36084Z" fill="#FFA606"/>
<path d="M13.2421 1.36084H12.5562V6.96084H13.2421V1.36084Z" fill="#FFA606"/>
<path d="M4.44378 1.36084H3.75781V6.96084H4.44378V1.36084Z" fill="#FFA606"/>
<path d="M13.8384 27.9847H3.16122C2.71385 27.9847 2.35596 27.6093 2.35596 27.14V23.3232H14.6437V27.14C14.6437 27.6093 14.2858 27.9847 13.8384 27.9847Z" fill="#FFA606"/>
<path d="M8.49995 5.61572C4.23504 5.61572 0.775391 6.14757 0.775391 10.6213V22.1029C0.775391 26.5766 4.23504 25.9822 8.49995 25.9822C12.7649 25.9822 16.2245 26.5766 16.2245 22.1029V10.6213C16.2245 6.14757 12.7649 5.61572 8.49995 5.61572Z" fill="#FE4F17"/>
<path d="M13.2721 1.92397H3.72823C3.22122 1.92397 2.8335 1.48598 2.8335 0.985422C2.8335 0.453579 3.25104 0.046875 3.72823 0.046875H13.2721C13.7791 0.046875 14.1668 0.484864 14.1668 0.985422C14.1668 1.51727 13.7791 1.92397 13.2721 1.92397Z" fill="#FE4F17"/>
<path d="M16.5228 20.1944H0.477154C0.238557 20.1944 0.0297852 19.9754 0.0297852 19.7251C0.0297852 19.4749 0.238557 19.2559 0.477154 19.2559H16.5526C16.7912 19.2559 17 19.4749 17 19.7251C16.9701 19.9754 16.7912 20.1944 16.5228 20.1944Z" fill="#E6E9EE"/>
<path d="M16.5228 12.0601H0.477154C0.238557 12.0601 0.0297852 11.8411 0.0297852 11.5909C0.0297852 11.3406 0.238557 11.1216 0.477154 11.1216H16.5526C16.7912 11.1216 17 11.3406 17 11.5909C16.9701 11.8411 16.7912 12.0601 16.5228 12.0601Z" fill="#E6E9EE"/>
<path d="M6.11383 15.6582H6.82962V16.847C6.50155 17.2225 6.05418 17.4102 5.51734 17.4102C5.04015 17.4102 4.65243 17.2537 4.32436 16.9096C3.99629 16.5655 3.84717 16.1588 3.84717 15.6582C3.84717 15.1576 3.99629 14.7509 4.32436 14.4068C4.65243 14.0627 5.04015 13.9062 5.51734 13.9062C5.96471 13.9062 6.38226 14.0627 6.71033 14.3755L6.32261 14.9387C6.17348 14.8135 6.05419 14.7197 5.93489 14.6571C5.81559 14.6258 5.69629 14.6258 5.54717 14.6258C5.27875 14.6258 5.04015 14.7197 4.8612 14.9074C4.68225 15.0951 4.59278 15.3454 4.59278 15.6895C4.59278 16.0336 4.68225 16.2526 4.8612 16.4403C5.04015 16.628 5.24892 16.7219 5.51734 16.7219C5.75594 16.7219 5.96471 16.6593 6.14366 16.5655V15.6582H6.11383Z" fill="white"/>
<path d="M9.72283 17.3788L9.42458 16.6592H8.08247L7.78423 17.3788H7.00879L8.41054 14H9.09651L10.4983 17.3788H9.72283ZM8.76844 15.0011L8.35089 15.971H9.15616L8.76844 15.0011Z" fill="white"/>
<path d="M11.6019 14.6572C11.5422 14.7197 11.5124 14.7823 11.5124 14.9074C11.5124 15.0013 11.5422 15.0951 11.6317 15.1264C11.7212 15.189 11.9001 15.2516 12.2282 15.3454C12.5264 15.4393 12.765 15.5331 12.944 15.6896C13.1229 15.846 13.1826 16.065 13.1826 16.3778C13.1826 16.6907 13.0633 16.941 12.8545 17.1287C12.6457 17.3164 12.3475 17.4102 11.9896 17.4102C11.4826 17.4102 11.0352 17.2225 10.6177 16.8158L11.0352 16.2527C11.3931 16.5655 11.6914 16.722 11.9896 16.722C12.1089 16.722 12.2282 16.6907 12.2879 16.6281C12.3773 16.5655 12.4071 16.503 12.4071 16.3778C12.4071 16.284 12.3773 16.1901 12.2879 16.1276C12.1984 16.065 12.0493 16.0024 11.8107 15.9398C11.4229 15.846 11.1545 15.7208 10.9756 15.5644C10.7966 15.408 10.7072 15.189 10.7072 14.8449C10.7072 14.532 10.8264 14.2817 11.0352 14.094C11.244 13.9063 11.5422 13.8438 11.8703 13.8438C12.0791 13.8438 12.2879 13.875 12.5264 13.9689C12.7352 14.0315 12.9142 14.1566 13.0931 14.313L12.7352 14.8762C12.4668 14.6572 12.1686 14.532 11.8703 14.532C11.751 14.5946 11.6615 14.5946 11.6019 14.6572Z" fill="white"/>
</g>
<defs>
<clipPath id="clip0">
<rect width="17" height="28" fill="white"/>
</clipPath>
</defs>
</svg>
