<svg width="16" height="28" viewBox="0 0 16 28" fill="none" xmlns="http://www.w3.org/2000/svg">
<path d="M0.0785456 17.0841V19.119C0.0785456 19.1879 0.106281 19.254 0.155652 19.3027C0.205022 19.3515 0.271983 19.3789 0.341804 19.3789H15.6581C15.7279 19.3789 15.7949 19.3515 15.8443 19.3027C15.8937 19.254 15.9214 19.1879 15.9214 19.119V17.0841C15.9214 17.0152 15.8937 16.9491 15.8443 16.9003C15.7949 16.8516 15.7279 16.8242 15.6581 16.8242H0.341804C0.271983 16.8242 0.205022 16.8516 0.155652 16.9003C0.106281 16.9491 0.0785456 17.0152 0.0785456 17.0841Z" fill="#FE4F17"/>
<path d="M3.81386 23.7595L0.398095 27.9364H15.6025L12.1868 23.7595L12.167 23.6938L7.89501 24.9497L3.83097 23.7042L3.81386 23.7595Z" fill="#6FE3FF"/>
<path d="M1.87113 14.585C1.57073 14.585 1.28263 14.7028 1.07022 14.9125C0.857801 15.1222 0.738468 15.4066 0.738468 15.7031C0.738468 15.9997 0.857801 16.2841 1.07022 16.4938C1.28263 16.7034 1.57073 16.8213 1.87113 16.8213C1.90931 16.8213 1.94682 16.8187 1.98368 16.8154C2.26322 16.7879 2.52243 16.6588 2.71097 16.4532C2.8995 16.2476 3.00391 15.9801 3.00391 15.7028C3.00391 15.4254 2.8995 15.158 2.71097 14.9524C2.52243 14.7468 2.26322 14.6177 1.98368 14.5902C1.94682 14.5869 1.90931 14.585 1.87113 14.585Z" fill="#F8EC7D"/>
<path d="M1.14102 19.3789V21.3644C1.14102 22.7808 2.80086 23.3882 2.80086 23.3882L3.83086 23.704L7.8949 24.9495L12.1669 23.6936L13.2061 23.3882C13.2061 23.3882 14.8594 22.7808 14.8594 21.3644V19.3789H1.14102Z" fill="#F8EC7D"/>
<path d="M1.98421 5.84368V14.59C2.2637 14.6175 2.52287 14.7466 2.71138 14.9521C2.89989 15.1577 3.0043 15.425 3.00434 15.7023V14.5848H5.09855C4.71418 14.1858 4.41851 13.7119 4.23049 13.1935C4.04247 12.6751 3.96624 12.1236 4.00671 11.5745C4.04717 11.0253 4.20342 10.4905 4.46545 10.0044C4.72748 9.51835 5.08951 9.09168 5.52832 8.75176L5.50134 8.71993V3.86597C5.50134 3.85363 5.50134 3.84128 5.50199 3.82959H3.74409C2.77662 3.82959 1.98421 4.73593 1.98421 5.84368Z" fill="#FE4F17"/>
<path d="M3.00377 15.7025V16.8213H13.001V14.585H10.9015C10.5275 14.9734 10.0774 15.2826 9.57857 15.4939C9.07973 15.7052 8.54257 15.8142 7.99974 15.8142C7.45691 15.8142 6.91975 15.7052 6.42092 15.4939C5.92208 15.2826 5.47198 14.9734 5.09798 14.585H3.00377V15.7025Z" fill="#223942"/>
<path d="M5.52836 8.75169C6.21153 8.22065 7.05198 7.92493 7.92137 7.90967C7.9477 7.91162 7.97402 7.91227 8.00035 7.91227C8.02668 7.91227 8.053 7.91162 8.07933 7.90967C9.02256 7.92822 9.92886 8.27503 10.6383 8.8889C11.3478 9.50278 11.8149 10.3443 11.9571 11.265C12.0994 12.1856 11.9077 13.1263 11.4159 13.9211C10.9241 14.7159 10.1638 15.3136 9.26906 15.609C8.37433 15.9043 7.40269 15.8782 6.52554 15.5353C5.6484 15.1924 4.92211 14.5547 4.4748 13.7347C4.02749 12.9147 3.8879 11.9651 4.08066 11.0534C4.27342 10.1418 4.78613 9.32658 5.52836 8.75169ZM6.50307 13.2665C6.83386 13.6104 7.27567 13.8298 7.75254 13.8869C8.22942 13.9441 8.71158 13.8355 9.11612 13.5797C9.52067 13.324 9.82232 12.9371 9.96923 12.4856C10.1161 12.0341 10.0991 11.5462 9.9211 11.1057C9.74308 10.6653 9.41519 10.2998 8.99378 10.0721C8.57238 9.84446 8.0838 9.76884 7.61203 9.85825C7.14026 9.94766 6.71479 10.1965 6.40875 10.5621C6.10271 10.9276 5.93523 11.387 5.9351 11.8612C5.93436 12.3843 6.13777 12.8876 6.50307 13.2665Z" fill="#F8EC7D"/>
<path d="M5.37915 0.0639648V0.765647C5.37915 1.15157 5.88065 1.46733 6.49404 1.46733H9.50571C10.1191 1.46733 10.6206 1.15157 10.6206 0.765647V0.0639648H5.37915Z" fill="#223942"/>
<path d="M5.50091 8.71989L5.52789 8.75172C6.21106 8.22069 7.05151 7.92496 7.9209 7.9097C7.62806 7.8895 7.3546 7.75784 7.15816 7.54248C6.96173 7.32713 6.85766 7.04489 6.86791 6.75527C6.87815 6.46565 7.00189 6.19127 7.21306 5.98996C7.42423 5.78865 7.70632 5.67614 7.99988 5.67614C8.29344 5.67614 8.57554 5.78865 8.7867 5.98996C8.99787 6.19127 9.12162 6.46565 9.13186 6.75527C9.1421 7.04489 9.03803 7.32713 8.8416 7.54248C8.64516 7.75784 8.3717 7.8895 8.07886 7.9097C8.9488 7.92477 9.78979 8.22075 10.4732 8.75237L10.4995 8.71989V3.86593C10.4995 3.85359 10.4995 3.84124 10.4989 3.82955C10.4884 3.56922 10.3766 3.32293 10.1866 3.14207C9.99667 2.96121 9.7433 2.85976 9.47939 2.85889H6.52103C6.25709 2.85966 6.00367 2.96108 5.81369 3.14196C5.62372 3.32284 5.51189 3.56919 5.50157 3.82955C5.50091 3.84124 5.50091 3.85359 5.50091 3.86593V8.71989Z" fill="#F8EC7D"/>
<path d="M5.93475 11.8612C5.93481 12.2645 6.05602 12.6587 6.28304 12.994C6.51007 13.3293 6.83271 13.5906 7.21017 13.7449C7.58763 13.8992 8.00296 13.9395 8.40363 13.8607C8.8043 13.782 9.17232 13.5877 9.46115 13.3025C9.74999 13.0173 9.94665 12.6539 10.0263 12.2584C10.1059 11.8628 10.065 11.4528 9.90856 11.0803C9.75216 10.7077 9.48736 10.3893 9.14764 10.1653C8.80792 9.94124 8.40854 9.82172 8 9.82178C7.72859 9.82128 7.45975 9.87369 7.20891 9.97601C6.95806 10.0783 6.73016 10.2285 6.53827 10.418C6.34638 10.6075 6.19429 10.8325 6.09072 11.0802C5.98716 11.3279 5.93415 11.5933 5.93475 11.8612Z" fill="#223942"/>
<path d="M6.52364 1.46729H9.47607V2.85896H6.52364V1.46729Z" fill="#F8EC7D"/>
<path d="M8.00019 5.67578C7.70663 5.67581 7.42455 5.78834 7.21339 5.98966C7.00223 6.19098 6.87849 6.46537 6.86825 6.75498C6.85801 7.0446 6.96207 7.32684 7.1585 7.5422C7.35492 7.75756 7.62837 7.88924 7.92121 7.90947C7.94754 7.90817 7.97386 7.90817 8.00019 7.90817C8.02651 7.90817 8.05284 7.90817 8.07917 7.90947C8.37201 7.88924 8.64546 7.75756 8.84188 7.5422C9.0383 7.32684 9.14236 7.0446 9.13212 6.75498C9.12188 6.46537 8.99814 6.19098 8.78699 5.98966C8.57583 5.78834 8.29375 5.67581 8.00019 5.67578Z" fill="#E48E66"/>
<path d="M10.4993 8.71993L10.4729 8.75241C10.9115 9.09246 11.2733 9.51919 11.5351 10.0053C11.7969 10.4913 11.953 11.026 11.9933 11.5751C12.0336 12.1242 11.9574 12.6755 11.7693 13.1938C11.5813 13.7121 11.2857 14.1859 10.9014 14.5848H13.0009V15.7023C13.001 15.4251 13.1055 15.1578 13.294 14.9523C13.4825 14.7467 13.7416 14.6176 14.021 14.59V5.84368C14.021 4.73593 13.2292 3.82959 12.2618 3.82959H10.4986C10.4993 3.84128 10.4993 3.85363 10.4993 3.86597V8.71993Z" fill="#FE4F17"/>
<path d="M14.0214 14.5902C13.7418 14.6177 13.4826 14.7468 13.2941 14.9524C13.1056 15.158 13.0012 15.4254 13.0012 15.7028C13.0012 15.9801 13.1056 16.2476 13.2941 16.4532C13.4826 16.6588 13.7418 16.7879 14.0214 16.8154C14.0589 16.8187 14.0958 16.8213 14.1339 16.8213C14.4343 16.8213 14.7224 16.7034 14.9349 16.4938C15.1473 16.2841 15.2666 15.9997 15.2666 15.7031C15.2666 15.4066 15.1473 15.1222 14.9349 14.9125C14.7224 14.7028 14.4343 14.585 14.1339 14.585C14.0958 14.585 14.0589 14.5869 14.0214 14.5902Z" fill="#F8EC7D"/>
</svg>
