<svg width="28" height="21" viewBox="0 0 28 21" fill="none" xmlns="http://www.w3.org/2000/svg">
<g clip-path="url(#clip0)">
<path d="M21.7241 7.12061H23.6552V18.7068H21.7241V7.12061Z" fill="#5A6470"/>
<path d="M19.3106 7.12067V4.22412H9.65541V7.12067L6.75886 9.05171H3.8623V16.7758H6.75886L9.65541 18.7069H21.7244V7.12067H19.3106Z" fill="#FFA606"/>
<path d="M0 6.6377H1.93103V18.7067H0V6.6377Z" fill="#FE4F17"/>
<path d="M1.93115 10.9829H3.86219V14.845H1.93115V10.9829Z" fill="#5A6470"/>
<path d="M27.5175 17.2585H25.5864V8.56885H27.5175L28.0002 10.0171V15.8102L27.5175 17.2585Z" fill="#5A6470"/>
<path d="M23.6553 11.4653H25.5863V14.3619H23.6553V11.4653Z" fill="#FE4F17"/>
<path d="M13.5171 2.29297H15.4481V4.224H13.5171V2.29297Z" fill="#FE4F17"/>
<path d="M6.75879 0.362305H22.2071V2.29334H6.75879V0.362305Z" fill="#5A6470"/>
<path d="M19.3102 7.60321H13.9998C13.7332 7.60321 13.5171 7.38706 13.5171 7.12045C13.5171 6.85385 13.7332 6.6377 13.9998 6.6377H19.3102C19.5768 6.6377 19.793 6.85385 19.793 7.12045C19.793 7.38706 19.5768 7.60321 19.3102 7.60321Z" fill="#223942"/>
<path d="M12.069 7.60321H11.5863C11.3197 7.60321 11.1035 7.38706 11.1035 7.12045C11.1035 6.85385 11.3197 6.6377 11.5863 6.6377H12.069C12.3356 6.6377 12.5518 6.85385 12.5518 7.12045C12.5518 7.38706 12.3356 7.60321 12.069 7.60321Z" fill="#223942"/>
<path d="M6.75864 12.9137C6.49204 12.9137 6.27588 12.6975 6.27588 12.4309V9.05161C6.27588 8.785 6.49204 8.56885 6.75864 8.56885C7.02524 8.56885 7.2414 8.785 7.2414 9.05161V12.4309C7.2414 12.6975 7.02524 12.9137 6.75864 12.9137Z" fill="#223942"/>
<path d="M6.75864 15.3272C6.49204 15.3272 6.27588 15.111 6.27588 14.8444V14.3617C6.27588 14.0951 6.49204 13.8789 6.75864 13.8789C7.02524 13.8789 7.2414 14.0951 7.2414 14.3617V14.8444C7.2414 15.111 7.02524 15.3272 6.75864 15.3272Z" fill="#223942"/>
<path d="M19.7932 10.4997H8.68979C8.42319 10.4997 8.20703 10.2835 8.20703 10.0169C8.20703 9.75034 8.42319 9.53418 8.68979 9.53418H19.7932C20.0598 9.53418 20.276 9.75034 20.276 10.0169C20.276 10.2835 20.0598 10.4997 19.7932 10.4997Z" fill="#223942"/>
<path d="M19.7932 12.4309H8.68979C8.42319 12.4309 8.20703 12.2147 8.20703 11.9481C8.20703 11.6815 8.42319 11.4653 8.68979 11.4653H19.7932C20.0598 11.4653 20.276 11.6815 20.276 11.9481C20.276 12.2147 20.0598 12.4309 19.7932 12.4309Z" fill="#223942"/>
<path d="M19.7932 14.362H8.68979C8.42319 14.362 8.20703 14.1458 8.20703 13.8792C8.20703 13.6126 8.42319 13.3965 8.68979 13.3965H19.7932C20.0598 13.3965 20.276 13.6126 20.276 13.8792C20.276 14.1458 20.0598 14.362 19.7932 14.362Z" fill="#223942"/>
<path d="M19.7932 16.2927H8.68979C8.42319 16.2927 8.20703 16.0765 8.20703 15.8099C8.20703 15.5433 8.42319 15.3271 8.68979 15.3271H19.7932C20.0598 15.3271 20.276 15.5433 20.276 15.8099C20.276 16.0765 20.0598 16.2927 19.7932 16.2927Z" fill="#223942"/>
<path d="M11.1035 18.707H17.8621V20.6381H11.1035V18.707Z" fill="#5A6470"/>
</g>
<defs>
<clipPath id="clip0">
<rect width="28" height="21" fill="white"/>
</clipPath>
</defs>
</svg>
