<svg width="28" height="28" viewBox="0 0 28 28" fill="none" xmlns="http://www.w3.org/2000/svg">
<g clip-path="url(#clip0)">
<path d="M14 28C21.732 28 28 21.732 28 14C28 6.26801 21.732 0 14 0C6.26801 0 0 6.26801 0 14C0 21.732 6.26801 28 14 28Z" fill="#FFA606"/>
<path d="M20.3671 12.1143C20.118 11.6076 19.6121 11.2927 19.0471 11.2927H16.4455L18.6255 6.78253C18.887 6.24074 18.8526 5.61315 18.5328 5.10395C18.2135 4.59432 17.6636 4.29004 17.0616 4.29004H12.721C11.9712 4.29004 11.3088 4.76855 11.0724 5.48059L8.2657 13.9512C8.11749 14.3984 8.19378 14.8937 8.4699 15.2747C8.74509 15.6571 9.19096 15.8851 9.66242 15.8851H12.2711L10.2389 22.3541C10.1092 22.7687 10.1806 23.2053 10.4352 23.5519C10.6896 23.8981 11.0976 24.105 11.5272 24.105C11.9452 24.105 12.3329 23.9127 12.5905 23.5779L20.2137 13.661C20.5577 13.2138 20.6168 12.6211 20.3671 12.1143Z" fill="#FE4F17"/>
<path d="M19.0469 12.4223H14.6455L17.6086 6.2917C17.8037 5.88811 17.5097 5.41943 17.0614 5.41943H12.7209C12.4589 5.41943 12.2263 5.58732 12.144 5.83604L9.33747 14.3065C9.26402 14.5281 9.42907 14.7566 9.66253 14.7566H13.8091L11.3163 22.6929C11.2436 22.9242 11.5476 23.0825 11.6954 22.8901L19.3184 12.9734C19.4915 12.7482 19.331 12.4223 19.0469 12.4223Z" fill="white"/>
<path d="M15.8064 26.1935C8.07445 26.1935 1.80644 19.9255 1.80644 12.1935C1.80644 8.78747 3.02378 5.66645 5.04574 3.23926C1.96301 5.80733 0 9.67401 0 14C0 21.7319 6.26801 27.9999 14 27.9999C18.326 27.9999 22.1927 26.0369 24.7608 22.9541C22.3336 24.9761 19.2125 26.1935 15.8064 26.1935Z" fill="#FE4F17"/>
</g>
<defs>
<clipPath id="clip0">
<rect width="28" height="28" fill="white"/>
</clipPath>
</defs>
</svg>
