<svg width="24" height="27" viewBox="0 0 24 27" fill="none" xmlns="http://www.w3.org/2000/svg">
<path d="M1.44104 11.3101H5.44322V21.7464C5.44322 22.8076 4.54275 23.6761 3.44207 23.6761C2.34139 23.6761 1.44092 22.8078 1.44092 21.7464V11.3101H1.44104Z" fill="#66757C"/>
<path d="M2.04639 15.8408V21.7462C2.04639 22.4853 2.67568 23.0922 3.44215 23.0922C4.20879 23.0922 4.83803 22.4854 4.83803 21.7462V15.8408H2.04639Z" fill="#FE4F17"/>
<path d="M1.24011 10.8252H5.64419C5.92064 10.8252 6.14675 11.0432 6.14675 11.3098V11.3099C6.14675 11.5765 5.92069 11.7944 5.64419 11.7944H1.24011C0.963662 11.7944 0.737549 11.5764 0.737549 11.3099V11.3098C0.737549 11.0432 0.963662 10.8252 1.24011 10.8252Z" fill="#223942"/>
<path d="M6.14675 11.3101V11.3102C6.14675 11.5767 5.92069 11.7947 5.64419 11.7947H1.24011C0.963662 11.7947 0.737549 11.5767 0.737549 11.3102V11.3101H6.14675Z" fill="#223942"/>
<path d="M11.6828 5.37793V13.4458L17.6201 24.0212C18.5094 25.6049 17.4472 26.5446 15.5913 26.5446H9.43612H3.28061C1.42477 26.5446 0.362053 25.6063 1.2518 24.0212L7.1894 13.4458V5.37793H11.6828Z" fill="#66757C"/>
<path d="M23.5822 7.49316V17.398H16.724V7.49316C15.8369 7.49316 24.0592 7.49316 23.5822 7.49316Z" fill="#66757C"/>
<path d="M19.8601 7.49346V2.12676H16.9242C16.8099 2.12676 16.717 2.03721 16.717 1.92692V0.681802H15.9253V4.07673C15.9253 4.18696 15.8326 4.27657 15.7182 4.27657H14.4756C14.3613 4.27657 14.2683 4.18702 14.2683 4.07673V2.30288H9.64319V5.37806H9.22876V2.1032C9.22876 1.99297 9.32163 1.90336 9.43601 1.90336H14.4756C14.59 1.90336 14.6828 1.99291 14.6828 2.1032V3.87705H15.5111V0.482071C15.5111 0.371837 15.6038 0.282227 15.7183 0.282227H16.9244C17.0387 0.282227 17.1316 0.371781 17.1316 0.482071V1.72719H20.0675C20.1818 1.72719 20.2747 1.81663 20.2747 1.92703V7.49358H19.8603L19.8601 7.49346Z" fill="#FE4F17"/>
<path d="M20.2746 8.80207C20.2746 8.9123 20.1817 9.00191 20.0674 9.00191C19.953 9.00191 19.8601 8.91236 19.8601 8.80207V7.49316H20.2745V8.80207H20.2746Z" fill="#C8CACC"/>
<path d="M9.64325 5.37793V8.14739C9.64325 8.25762 9.55038 8.34723 9.43601 8.34723C9.32169 8.34723 9.22876 8.25768 9.22876 8.14739V5.37793H9.64325Z" fill="#C8CACC"/>
<path d="M6.642 16.4462L2.03852 24.3922C1.92796 24.6103 1.74374 25.0509 1.89151 25.2917C2.10427 25.6384 2.92294 25.6997 3.28042 25.6997H15.5913C15.9489 25.6997 16.767 25.6383 16.98 25.2914C17.1277 25.0506 16.944 24.6103 16.8332 24.3922L12.2297 16.4462C9.92858 15.9529 8.94327 17.151 6.64212 16.4462H6.642Z" fill="#FE4F17"/>
<path d="M16.7239 6.71143H16.3108V7.4929H23.9951V6.71143H23.582H16.7238H16.7239Z" fill="#223942"/>
<path d="M17.4409 10.1087C21.2441 9.47748 21.1817 10.9204 22.8651 10.1087V16.8422H17.4409V10.1087Z" fill="#FE4F17"/>
<path d="M17.4409 7.76367H18.1377V7.98905H17.4409V7.76367ZM17.4409 16.6433H17.7893V16.8688H17.4409V16.6433ZM17.4409 16.1211H18.1377V16.3466H17.4409V16.1211ZM17.4409 15.5986H17.7893V15.8241H17.4409V15.5986ZM17.4409 15.0763H18.1377V15.3018H17.4409V15.0763ZM17.4409 14.5539H17.7893V14.7794H17.4409V14.5539ZM17.4409 14.0317H18.1377V14.2571H17.4409V14.0317ZM17.4409 13.5094H17.7893V13.7349H17.4409V13.5094ZM17.4409 12.987H18.1377V13.2125H17.4409V12.987ZM17.4409 12.4646H17.7893V12.6902H17.4409V12.4646ZM17.4409 11.9423H18.1377V12.1678H17.4409V11.9423ZM17.4409 11.42H17.7893V11.6455H17.4409V11.42ZM17.4409 10.8978H18.1377V11.1232H17.4409V10.8978ZM17.4409 10.3754H17.7893V10.6009H17.4409V10.3754ZM17.4409 9.85308H18.1377V10.0786H17.4409V9.85308ZM17.4409 9.33073H17.7893V9.55623H17.4409V9.33073ZM17.4409 8.80838H18.1377V9.03387H17.4409V8.80838ZM17.4409 8.28602H17.7893V8.51152H17.4409V8.28602Z" fill="#666666"/>
<path d="M2.04639 12.7852H2.74324V13.0107H2.04639V12.7852ZM2.04639 21.6648H2.39478V21.8903H2.04639V21.6648ZM2.04639 21.1425H2.74324V21.368H2.04639V21.1425ZM2.04639 20.6201H2.39478V20.8456H2.04639V20.6201ZM2.04639 20.0978H2.74324V20.3232H2.04639V20.0978ZM2.04639 19.5756H2.39478V19.8011H2.04639V19.5756ZM2.04639 19.0533H2.74324V19.2788H2.04639V19.0533ZM2.04639 18.5309H2.39478V18.7564H2.04639V18.5309ZM2.04639 18.0085H2.74324V18.234H2.04639V18.0085ZM2.04639 17.4862H2.39478V17.7117H2.04639V17.4862ZM2.04639 16.9639H2.74324V17.1893H2.04639V16.9639ZM2.04639 16.4416H2.39478V16.6669H2.04639V16.4416ZM2.04639 15.9193H2.74324V16.1448H2.04639V15.9193ZM2.04639 15.3969H2.39478V15.6224H2.04639V15.3969ZM2.04639 14.8746H2.74324V15.1001H2.04639V14.8746ZM2.04639 14.3522H2.39478V14.5777H2.04639V14.3522ZM2.04639 13.8299H2.74324V14.0554H2.04639V13.8299ZM2.04639 13.3076H2.39478V13.5331H2.04639V13.3076Z" fill="#666666"/>
<path d="M0.956738 5.89014C1.37064 5.89014 1.70615 6.21366 1.70615 6.61295C1.70615 7.01208 1.37064 7.33577 0.956738 7.33577C0.542656 7.33577 0.207031 7.01213 0.207031 6.61295C0.207031 6.21366 0.542656 5.89014 0.956738 5.89014Z" fill="#20D0C2"/>
<path d="M2.25631 8.59912C2.52373 8.59912 2.74052 8.80817 2.74052 9.06605C2.74052 9.32392 2.52373 9.53297 2.25631 9.53297C1.98889 9.53297 1.77197 9.32392 1.77197 9.06605C1.77197 8.80817 1.98889 8.59912 2.25631 8.59912Z" fill="#FF5B61"/>
<path d="M2.07302 3.79688C2.36575 3.79688 2.60294 4.02559 2.60294 4.30787C2.60294 4.59015 2.36575 4.81887 2.07302 4.81887C1.7804 4.81887 1.54321 4.59015 1.54321 4.30787C1.54321 4.02559 1.7804 3.79688 2.07302 3.79688Z" fill="white"/>
<path d="M3.71273 9.34521C3.89449 9.34521 4.04168 9.48726 4.04168 9.66252C4.04168 9.83768 3.89455 9.97955 3.71273 9.97955C3.53109 9.97955 3.38379 9.83768 3.38379 9.66252C3.38379 9.4872 3.53109 9.34521 3.71273 9.34521Z" fill="white"/>
<path d="M3.82727 6.70166C4.17209 6.70166 4.45152 6.97111 4.45152 7.30362C4.45152 7.63602 4.17209 7.90547 3.82727 7.90547C3.48256 7.90547 3.20312 7.63602 3.20312 7.30362C3.20318 6.97111 3.48262 6.70166 3.82727 6.70166Z" fill="#FBB429"/>
<path d="M8.376 19.4614C8.74455 19.4614 9.0435 19.7496 9.0435 20.1051C9.0435 20.4605 8.74455 20.7487 8.376 20.7487C8.00727 20.7487 7.7085 20.4605 7.7085 20.1051C7.70844 19.7496 8.00727 19.4614 8.376 19.4614Z" fill="white"/>
<path d="M5.39889 22.4492C5.66631 22.4492 5.88311 22.6583 5.88311 22.9161C5.88311 23.1741 5.66631 23.3832 5.39889 23.3832C5.13135 23.3832 4.91455 23.1741 4.91455 22.9161C4.91455 22.6583 5.13135 22.4492 5.39889 22.4492Z" fill="white"/>
<path d="M12.7505 19.8501C13.021 19.8501 13.2401 20.0615 13.2401 20.3221C13.2401 20.5829 13.021 20.7942 12.7505 20.7942C12.4801 20.7942 12.261 20.5828 12.261 20.3221C12.261 20.0614 12.4802 19.8501 12.7505 19.8501Z" fill="white"/>
<path d="M9.81253 17.1724C10.0094 17.1724 10.1691 17.3263 10.1691 17.5163C10.1691 17.7062 10.0093 17.8602 9.81253 17.8602C9.61554 17.8602 9.45581 17.7061 9.45581 17.5163C9.45587 17.3263 9.61554 17.1724 9.81253 17.1724Z" fill="white"/>
<path d="M13.9493 23.6284C14.1865 23.6284 14.3787 23.8138 14.3787 24.0424C14.3787 24.271 14.1865 24.4564 13.9493 24.4564C13.7123 24.4564 13.52 24.271 13.52 24.0424C13.52 23.8138 13.7123 23.6284 13.9493 23.6284Z" fill="white"/>
<path d="M7.09283 24.6431C7.24734 24.6431 7.37268 24.7639 7.37268 24.9129C7.37268 25.0619 7.24734 25.1828 7.09283 25.1828C6.93832 25.1828 6.81299 25.0619 6.81299 24.9129C6.81299 24.7639 6.93832 24.6431 7.09283 24.6431Z" fill="white"/>
<path d="M10.5199 22.2153C10.9213 22.2153 11.2467 22.5291 11.2467 22.9162C11.2467 23.3032 10.9213 23.6169 10.5199 23.6169C10.1185 23.6169 9.79321 23.3031 9.79321 22.9162C9.79321 22.5291 10.1186 22.2153 10.5199 22.2153Z" fill="white"/>
<path d="M9.38188 8.98438C9.54969 8.98438 9.68575 9.11557 9.68575 9.27739C9.68575 9.4391 9.54969 9.57029 9.38188 9.57029C9.21418 9.57029 9.07812 9.4391 9.07812 9.27739C9.07812 9.11557 9.21418 8.98438 9.38188 8.98438Z" fill="#20D0C2"/>
<path d="M9.12262 10.6641C9.44869 10.6641 9.71312 10.9191 9.71312 11.2335C9.71312 11.5479 9.44869 11.8028 9.12262 11.8028C8.79654 11.8028 8.53223 11.5478 8.53223 11.2335C8.53223 10.9191 8.79654 10.6641 9.12262 10.6641Z" fill="#FF5B61"/>
<path d="M7.18914 4.24463H6.24415C5.47135 4.24463 5.47135 5.37765 6.24415 5.37765H7.18914H11.6826H12.6275C13.4003 5.37765 13.4003 4.24463 12.6275 4.24463H11.6826H7.18914Z" fill="#223942"/>
<path d="M10.2684 12.7485C10.4754 12.7485 10.6431 12.9104 10.6431 13.1098C10.6431 13.3094 10.4753 13.4711 10.2684 13.4711C10.0616 13.4711 9.8938 13.3094 9.8938 13.1098C9.89374 12.9104 10.0616 12.7485 10.2684 12.7485Z" fill="#FBB429"/>
<path d="M8.86126 14.0767C9.31185 14.0767 9.67736 14.4289 9.67736 14.8636C9.67736 15.2981 9.31185 15.6504 8.86126 15.6504C8.41067 15.6504 8.04517 15.2982 8.04517 14.8636C8.04517 14.4291 8.41056 14.0767 8.86126 14.0767Z" fill="#ECF0F1"/>
<path d="M10.7619 15.0747C10.8654 15.0747 10.9494 15.1556 10.9494 15.2553C10.9494 15.3551 10.8654 15.436 10.7619 15.436C10.6584 15.436 10.5747 15.3552 10.5747 15.2553C10.5747 15.1556 10.6584 15.0747 10.7619 15.0747Z" fill="#20D0C2"/>
<path d="M7.00676 19.4404C7.14047 19.4404 7.24887 19.5448 7.24887 19.6738C7.24887 19.8027 7.14047 19.9074 7.00676 19.9074C6.87305 19.9074 6.76465 19.8027 6.76465 19.6738C6.76465 19.5448 6.87305 19.4404 7.00676 19.4404Z" fill="white"/>
<path d="M1.84115 6.90088C2.02279 6.90088 2.1701 7.04275 2.1701 7.21808C2.1701 7.39323 2.02279 7.53527 1.84115 7.53527C1.65939 7.53527 1.51221 7.39323 1.51221 7.21808C1.51227 7.04275 1.65939 6.90088 1.84115 6.90088Z" fill="white"/>
</svg>
