<svg width="28" height="28" viewBox="0 0 28 28" fill="none" xmlns="http://www.w3.org/2000/svg">
<g clip-path="url(#clip0)">
<path d="M3.87573 21.2314H7.2505V25.609H3.87573V21.2314Z" fill="#805333"/>
<path d="M20.7498 21.2314H24.1245V25.609H20.7498V21.2314Z" fill="#805333"/>
<path d="M1.46537 25.1074H26.5351C27.3338 25.1074 27.9814 25.755 27.9814 26.5538V27.518C27.9814 27.7842 27.7655 28.0001 27.4993 28.0001H0.501152C0.234891 28.0001 0.019043 27.7842 0.019043 27.518V26.5538C0.019043 25.755 0.666586 25.1074 1.46537 25.1074Z" fill="#CB8252"/>
<path d="M17.8571 3.4126H27.4993C27.7655 3.4126 27.9814 3.62845 27.9814 3.89471V21.2506C27.9814 21.5169 27.7655 21.7328 27.4993 21.7328H0.501152C0.234891 21.7328 0.019043 21.5169 0.019043 21.2506V3.89471C0.019043 3.62845 0.234891 3.4126 0.501152 3.4126H17.8571Z" fill="#CBB292"/>
<path d="M17.8571 2.41949V4.85896C17.8571 5.12522 17.6412 5.34107 17.3749 5.34107H10.6254C10.3592 5.34107 10.1433 5.12522 10.1433 4.85896V2.41949C10.1421 2.17097 10.3299 1.96223 10.5772 1.93738C11.49 1.8965 12.2708 1.26802 12.5056 0.384987C12.5657 0.170334 12.765 0.0248119 12.9878 0.0330473H15.0801C15.3028 0.0248119 15.5022 0.170334 15.5622 0.384987C15.7787 1.25696 16.5277 1.89341 17.4232 1.96631C17.6597 1.98972 17.8439 2.18211 17.8571 2.41949Z" fill="#805333"/>
<path d="M12.0717 3.89488C12.338 3.89488 12.5538 3.67903 12.5538 3.41277C12.5538 3.14651 12.338 2.93066 12.0717 2.93066C11.8054 2.93066 11.5896 3.14651 11.5896 3.41277C11.5896 3.67903 11.8054 3.89488 12.0717 3.89488Z" fill="#A56A43"/>
<path d="M14.0002 3.89488C14.2664 3.89488 14.4823 3.67903 14.4823 3.41277C14.4823 3.14651 14.2664 2.93066 14.0002 2.93066C13.7339 2.93066 13.5181 3.14651 13.5181 3.41277C13.5181 3.67903 13.7339 3.89488 14.0002 3.89488Z" fill="#A56A43"/>
<path d="M15.9284 3.89488C16.1947 3.89488 16.4105 3.67903 16.4105 3.41277C16.4105 3.14651 16.1947 2.93066 15.9284 2.93066C15.6621 2.93066 15.4463 3.14651 15.4463 3.41277C15.4463 3.67903 15.6621 3.89488 15.9284 3.89488Z" fill="#A56A43"/>
<path d="M23.6426 12.0903H26.0531V14.5009H23.6426V12.0903Z" fill="#7D6599"/>
<path d="M21.2319 12.0903H23.6425V14.5009H21.2319V12.0903Z" fill="#2980BA"/>
<path d="M16.4109 12.0903H18.8214V14.5009H16.4109V12.0903Z" fill="#F0C419"/>
<path d="M14 12.0903H16.4105V14.5009H14V12.0903Z" fill="#F3D55B"/>
<path d="M11.5896 12.0903H14.0001V14.5009H11.5896V12.0903Z" fill="#F0C419"/>
<path d="M6.76855 12.0903H9.1791V14.5009H6.76855V12.0903Z" fill="#E57E25"/>
<path d="M1.94751 12.0903H4.35806V14.5009H1.94751V12.0903Z" fill="#C03A2B"/>
<path d="M9.1792 12.0903H11.5897V14.5009H9.1792V12.0903Z" fill="#F29C1F"/>
<path d="M23.6426 14.5015H26.0531V16.912H23.6426V14.5015Z" fill="#5D4C72"/>
<path d="M21.2319 14.5015H23.6425V16.912H21.2319V14.5015Z" fill="#3B97D3"/>
<path d="M18.8213 14.5015H21.2318V16.912H18.8213V14.5015Z" fill="#14A085"/>
<path d="M16.4109 14.5015H18.8214V16.912H16.4109V14.5015Z" fill="#F3D55B"/>
<path d="M14 14.5015H16.4105V16.912H14V14.5015Z" fill="#F0C419"/>
<path d="M11.5896 14.5015H14.0001V16.912H11.5896V14.5015Z" fill="#F3D55B"/>
<path d="M9.1792 14.5015H11.5897V16.912H9.1792V14.5015Z" fill="#E57E25"/>
<path d="M6.76855 14.5015H9.1791V16.912H6.76855V14.5015Z" fill="#F29C1F"/>
<path d="M1.94751 14.5015H4.35806V16.912H1.94751V14.5015Z" fill="#E64C3C"/>
<path d="M26.0531 16.9116V18.8401C26.0531 19.1063 25.8373 19.3222 25.571 19.3222H23.6426V16.9116H26.0531Z" fill="#7D6599"/>
<path d="M21.2319 16.9116H23.6425V19.3222H21.2319V16.9116Z" fill="#2980BA"/>
<path d="M18.8213 16.9116H21.2318V19.3222H18.8213V16.9116Z" fill="#26B99A"/>
<path d="M16.4109 16.9116H18.8214V19.3222H16.4109V16.9116Z" fill="#F0C419"/>
<path d="M14 16.9116H16.4105V19.3222H14V16.9116Z" fill="#F3D55B"/>
<path d="M11.5896 16.9116H14.0001V19.3222H11.5896V16.9116Z" fill="#F0C419"/>
<path d="M6.76855 16.9116H9.1791V19.3222H6.76855V16.9116Z" fill="#E57E25"/>
<path d="M4.35791 16.9116H6.76846V19.3222H4.35791V16.9116Z" fill="#F29C1F"/>
<path d="M4.35806 16.9116V19.3222H2.42962C2.16336 19.3222 1.94751 19.1063 1.94751 18.8401V16.9116H4.35806Z" fill="#C03A2B"/>
<path d="M9.1792 16.9116H11.5897V19.3222H9.1792V16.9116Z" fill="#F29C1F"/>
<path d="M6.76846 10.1623V12.0907H4.35791V9.68018H6.28635C6.55261 9.68018 6.76846 9.89602 6.76846 10.1623Z" fill="#E57E25"/>
<path d="M1.94751 9.68018H4.35806V12.0907H1.94751V9.68018Z" fill="#E64C3C"/>
<path d="M23.6426 9.68018H26.0531V12.0907H23.6426V9.68018Z" fill="#5D4C72"/>
<path d="M21.2319 9.68018H23.6425V12.0907H21.2319V9.68018Z" fill="#3B97D3"/>
<path d="M21.2318 9.68018V12.0907H18.8213V10.1623C18.8213 9.89602 19.0371 9.68018 19.3034 9.68018H21.2318Z" fill="#14A085"/>
<path d="M26.0531 7.75164V9.68008H23.6426V7.75164C23.6426 7.48538 23.8584 7.26953 24.1247 7.26953H25.571C25.8373 7.26953 26.0531 7.48538 26.0531 7.75164Z" fill="#7D6599"/>
<path d="M4.35806 7.75164V9.68008H1.94751V7.75164C1.94751 7.48538 2.16336 7.26953 2.42962 7.26953H3.87595C4.14221 7.26953 4.35806 7.48538 4.35806 7.75164Z" fill="#C03A2B"/>
<path d="M4.35791 14.5015H6.76846V16.912H4.35791V14.5015Z" fill="#E57E25"/>
<path d="M4.35791 12.0903H6.76846V14.5009H4.35791V12.0903Z" fill="#F29C1F"/>
<path d="M18.8213 12.0903H21.2318V14.5009H18.8213V12.0903Z" fill="#26B99A"/>
<path d="M2.42955 5.8231H1.94744C1.68118 5.8231 1.46533 5.60726 1.46533 5.341C1.46533 5.07473 1.68118 4.85889 1.94744 4.85889H2.42955C2.69581 4.85889 2.91166 5.07473 2.91166 5.341C2.91166 5.60726 2.69581 5.8231 2.42955 5.8231Z" fill="#F5EFCA"/>
<path d="M8.21472 5.8231H4.35784C4.09158 5.8231 3.87573 5.60726 3.87573 5.341C3.87573 5.07473 4.09158 4.85889 4.35784 4.85889H8.21472C8.48098 4.85889 8.69683 5.07473 8.69683 5.341C8.69683 5.60726 8.48098 5.8231 8.21472 5.8231Z" fill="#F5EFCA"/>
</g>
<defs>
<clipPath id="clip0">
<rect width="28" height="28" fill="white"/>
</clipPath>
</defs>
</svg>
