<svg width="28" height="28" viewBox="0 0 28 28" fill="none" xmlns="http://www.w3.org/2000/svg">
<path d="M13.8406 17.7335C15.6447 17.7335 17.1073 16.271 17.1073 14.4668C17.1073 12.6627 15.6447 11.2002 13.8406 11.2002C12.0365 11.2002 10.574 12.6627 10.574 14.4668C10.574 16.271 12.0365 17.7335 13.8406 17.7335Z" fill="#FE4F17"/>
<path d="M12.4405 14.9334C12.1828 14.9334 11.9739 14.7245 11.9739 14.4667C11.9751 13.4363 12.8101 12.6012 13.8405 12.6001C14.0983 12.6001 14.3072 12.8091 14.3072 13.0667C14.3072 13.3245 14.0982 13.5334 13.8405 13.5334C13.3253 13.5339 12.9077 13.9515 12.9072 14.4667C12.9072 14.7244 12.6983 14.9334 12.4405 14.9334Z" fill="#FDD7AD"/>
<path d="M13.8403 28C9.91514 28 6.84033 21.8504 6.84033 14C6.84033 6.14961 9.91514 0 13.8403 0C17.7655 0 20.8403 6.14961 20.8403 14C20.8403 18.2002 19.9263 22.1286 18.3329 24.778C18.2 24.9989 17.9132 25.0702 17.6924 24.9373C17.4715 24.8044 17.4002 24.5176 17.5331 24.2967C19.0418 21.7886 19.907 18.0357 19.907 14C19.907 6.91704 17.1289 0.933352 13.8404 0.933352C10.5519 0.933352 7.77368 6.91704 7.77368 14C7.77368 21.083 10.5518 27.0666 13.8403 27.0666C14.5771 27.0481 15.2854 26.7786 15.8483 26.3028C16.0511 26.1445 16.3438 26.1802 16.5025 26.3826C16.6613 26.585 16.6263 26.8777 16.4243 27.037C15.6982 27.6436 14.7864 27.9834 13.8403 28Z" fill="#66757C"/>
<path d="M7.00159 23.1323C4.33672 23.1323 2.41943 22.2889 1.56363 20.7249C0.633722 19.0298 1.08987 16.7391 2.84878 14.2749C4.53682 11.9099 7.24544 9.63172 10.4754 7.86029C15.9667 4.85247 21.651 4.01187 24.6201 5.76778C24.842 5.89903 24.9154 6.18532 24.7842 6.40719C24.6529 6.62905 24.3666 6.7025 24.1448 6.57125C21.4913 5.00128 16.0549 5.86808 10.9241 8.67874C7.81485 10.3839 5.21648 12.5641 3.60823 14.8172C2.06921 16.9735 1.63374 18.9122 2.3823 20.2764C3.129 21.6413 4.99866 22.319 7.64368 22.1821C10.4097 22.0401 13.6463 21.0241 16.7571 19.3215C22.5221 16.1578 26.3097 11.4679 25.5671 8.41247C25.5277 8.25048 25.5777 8.07975 25.6983 7.96463C25.8188 7.84951 25.9917 7.80746 26.1517 7.85433C26.3117 7.90119 26.4346 8.02987 26.4739 8.19186C27.3266 11.7001 23.4288 16.7249 17.2056 20.1397C13.9738 21.9088 10.595 22.965 7.69153 23.1141C7.45643 23.1261 7.22641 23.1322 7.00159 23.1323Z" fill="#3C5058"/>
<path d="M20.6794 23.132C20.4547 23.132 20.2247 23.1259 19.9894 23.1138C17.0859 22.9648 13.7072 21.9086 10.4758 20.1397C7.24537 18.3683 4.53675 16.0901 2.84871 13.7251C1.08985 11.261 0.633646 8.97023 1.56377 7.2747C1.98968 6.52488 2.64051 5.92791 3.42429 5.56823C3.57408 5.49424 3.75198 5.506 3.89072 5.59896C4.02952 5.69193 4.108 5.852 4.09657 6.01864C4.08514 6.18527 3.9855 6.33314 3.83533 6.40632C3.22518 6.68243 2.71702 7.14301 2.38244 7.72314C1.63366 9.08781 2.06914 11.0265 3.6081 13.1828C5.21635 15.4359 7.81472 17.6161 10.9241 19.3212C14.0345 21.0238 17.2711 22.0398 20.0371 22.1818C22.6812 22.3167 24.5516 21.6408 25.2983 20.2766C26.047 18.9119 25.6116 16.9733 24.0726 14.817C22.4643 12.5639 19.866 10.3837 16.7566 8.67853C13.1215 6.6902 9.34061 5.64474 6.37747 5.81859C6.21068 5.82871 6.05126 5.74892 5.95939 5.60935C5.86751 5.46979 5.85723 5.29178 5.93248 5.1426C6.00768 4.99341 6.15692 4.89579 6.32372 4.88666C9.45069 4.70597 13.4196 5.78944 17.2052 7.85985C20.4356 9.63151 23.1442 11.9097 24.8323 14.2747C26.5911 16.7388 27.0473 19.0296 26.1172 20.7251C25.2615 22.2887 23.3438 23.132 20.6794 23.132Z" fill="#223942"/>
<path d="M25.5072 8.40009C26.2804 8.40009 26.9072 7.77329 26.9072 7.00009C26.9072 6.2269 26.2804 5.6001 25.5072 5.6001C24.734 5.6001 24.1072 6.2269 24.1072 7.00009C24.1072 7.77329 24.734 8.40009 25.5072 8.40009Z" fill="#223942"/>
<path d="M17.1073 27.0666C17.8805 27.0666 18.5073 26.4398 18.5073 25.6666C18.5073 24.8934 17.8805 24.2666 17.1073 24.2666C16.3341 24.2666 15.7073 24.8934 15.7073 25.6666C15.7073 26.4398 16.3341 27.0666 17.1073 27.0666Z" fill="#223942"/>
<path d="M4.97398 7.0002C5.74717 7.0002 6.37398 6.37339 6.37398 5.6002C6.37398 4.827 5.74717 4.2002 4.97398 4.2002C4.20078 4.2002 3.57397 4.827 3.57397 5.6002C3.57397 6.37339 4.20078 7.0002 4.97398 7.0002Z" fill="#3B97D3"/>
</svg>
