<svg width="28" height="28" viewBox="0 0 28 28" fill="none" xmlns="http://www.w3.org/2000/svg">
<path d="M15.4237 3.79661C16.4721 3.79661 17.322 2.94671 17.322 1.89831C17.322 0.8499 16.4721 0 15.4237 0C14.3753 0 13.5254 0.8499 13.5254 1.89831C13.5254 2.94671 14.3753 3.79661 15.4237 3.79661Z" fill="#E64C3C"/>
<path d="M18.0816 4.78862C17.8395 4.78862 17.9534 4.83133 15.5853 2.72896C15.4021 2.55297 15.3899 2.2639 15.5578 2.07318C15.7256 1.88245 16.0139 1.85773 16.2117 2.0171L18.3948 3.95811C18.5427 4.08858 18.5945 4.29696 18.5249 4.48152C18.4553 4.66608 18.2788 4.78834 18.0816 4.78862Z" fill="#E57E25"/>
<path d="M26.1017 3.79665C27.019 3.79665 27.7627 3.05298 27.7627 2.13563C27.7627 1.21827 27.019 0.474609 26.1017 0.474609C25.1843 0.474609 24.4407 1.21827 24.4407 2.13563C24.4407 3.05298 25.1843 3.79665 26.1017 3.79665Z" fill="#E64C3C"/>
<path d="M23.3872 4.96849C23.1885 4.9685 23.0109 4.84472 22.942 4.65833C22.8732 4.47193 22.9277 4.26238 23.0788 4.13323L25.556 2.01188C25.7552 1.84151 26.0548 1.86489 26.2252 2.06408C26.3956 2.26328 26.3722 2.56287 26.173 2.73324C23.4916 5.04916 23.6293 4.96849 23.3872 4.96849Z" fill="#E57E25"/>
<path d="M14.8117 12.5572L13.4686 13.8955C13.3795 13.9853 13.2582 14.0359 13.1317 14.0359C13.0051 14.0359 12.8838 13.9853 12.7947 13.8955L11.4564 12.5572L10.7825 13.2263C10.5974 13.4104 10.2985 13.4104 10.1134 13.2263L9.43947 12.5572C9.34963 12.4681 9.29909 12.3468 9.29909 12.2202C9.29909 12.0937 9.34963 11.9724 9.43947 11.8833L8.30523 10.7491C7.83488 11.2682 7.11686 11.4861 6.43734 11.3159C5.75781 11.1457 5.22724 10.6151 5.05706 9.9356C4.88688 9.25608 5.10477 8.53806 5.62388 8.0677L2.39201 4.83584C2.20801 4.65074 2.20801 4.35179 2.39201 4.16669L2.72896 3.82974L1.05371 2.15448C0.963866 2.06537 0.91333 1.94407 0.91333 1.81753C0.91333 1.69099 0.963866 1.56969 1.05371 1.48058L2.39201 0.137533C2.48174 0.0416923 2.60717 -0.0126953 2.73845 -0.0126953C2.86974 -0.0126953 2.99517 0.0416923 3.0849 0.137533L4.74117 1.81753L5.07812 1.48058C5.16722 1.39074 5.28852 1.34021 5.41506 1.34021C5.5416 1.34021 5.6629 1.39074 5.75201 1.48058L12.7947 8.54228C12.8838 8.45244 13.0051 8.4019 13.1317 8.4019C13.2582 8.4019 13.3795 8.45244 13.4686 8.54228L14.1378 9.21143C14.2276 9.30054 14.2782 9.42184 14.2782 9.54838C14.2782 9.67492 14.2276 9.79622 14.1378 9.88533L13.4686 10.5545L14.8117 11.8643C14.9075 11.954 14.9619 12.0795 14.9619 12.2108C14.9619 12.342 14.9075 12.4675 14.8117 12.5572Z" fill="#7F8C8D"/>
<path d="M4.03377 23.7285H16.3728C17.6833 23.7285 18.7456 24.7909 18.7456 26.1014V27.5251H1.66089V26.1014C1.66089 24.7909 2.72326 23.7285 4.03377 23.7285Z" fill="#66757C"/>
<path d="M14.821 18.9832C13.5442 20.7788 11.3463 21.6768 9.17741 21.289C7.00857 20.9012 5.258 19.2972 4.68255 17.1704C4.1071 15.0437 4.81002 12.7758 6.48742 11.3473L4.98301 9.4917C2.46629 11.6361 1.5127 15.099 2.5769 18.2294C3.6411 21.3598 6.50764 23.5241 9.80984 23.6903C13.112 23.8565 16.1814 21.991 17.5545 18.9832H14.821Z" fill="#9FA9AD"/>
<path d="M8.64616 10.1846H8.64209" stroke="#223942" stroke-width="17.3559" stroke-linecap="round" stroke-linejoin="round"/>
<path d="M8.77985 9.49143C8.77903 10.3648 8.18238 11.125 7.33417 11.3332C6.48597 11.5415 5.60513 11.1441 5.19991 10.3704C4.7947 9.59668 4.96969 8.64632 5.62392 8.0677C6.18347 7.57281 6.98124 7.45209 7.66216 7.75927C8.34308 8.06645 8.78055 8.74443 8.77985 9.49143Z" fill="#35495E"/>
<path d="M12.7946 8.54241L9.43937 11.8644L8.30513 10.7492C8.9847 9.99918 8.95635 8.84792 8.2407 8.13226C7.52504 7.41661 6.37378 7.38826 5.62377 8.06783L2.39191 4.83597C2.20791 4.65086 2.20791 4.35192 2.39191 4.16681L5.07801 1.48071C5.16712 1.39087 5.28842 1.34033 5.41496 1.34033C5.5415 1.34033 5.6628 1.39087 5.75191 1.48071L12.7946 8.54241Z" fill="#9FA9AD"/>
<path d="M14.1377 9.87153C12.2394 11.7698 11.9737 12.0403 10.7825 13.2268C10.5974 13.4108 10.2984 13.4108 10.1133 13.2268L9.43945 12.5576C9.34961 12.4685 9.29907 12.3472 9.29907 12.2207C9.29907 12.0941 9.34961 11.9728 9.43945 11.8837L12.7947 8.54272C12.8838 8.45288 13.0051 8.40234 13.1316 8.40234C13.2582 8.40234 13.3795 8.45288 13.4686 8.54272L14.1377 9.21187C14.3155 9.39582 14.3155 9.68759 14.1377 9.87153Z" fill="#2980BA"/>
<path d="M19.6949 27.9999H0.711881C0.44978 27.9999 0.237305 27.7875 0.237305 27.5254C0.237305 27.2633 0.44978 27.0508 0.711881 27.0508H19.6949C19.957 27.0508 20.1695 27.2633 20.1695 27.5254C20.1695 27.7875 19.957 27.9999 19.6949 27.9999Z" fill="#35495E"/>
<path d="M22.0345 10.6497C20.2558 11.3485 18.2349 10.6162 17.3166 8.94018C16.3984 7.26414 16.8691 5.16684 18.4155 4.04393C19.9619 2.92102 22.1019 3.12255 23.4115 4.51442C24.721 5.90629 24.7919 8.0546 23.5769 9.52974L22.0345 10.6497Z" fill="#F29C1F"/>
<path d="M23.0169 12.0117L21.6738 10.1561C21.4704 9.88058 21.4293 9.51745 21.5662 9.20349C21.7031 8.88953 21.9971 8.67244 22.3374 8.634C22.6777 8.59556 23.0127 8.7416 23.2162 9.01712L24.6399 10.9534L23.0169 12.0117Z" fill="#E57E25"/>
<path d="M18.7458 7.59337C18.4837 7.59337 18.2712 7.38089 18.2712 7.11879C18.2712 5.37236 19.9465 4.79338 20.0177 4.76965C20.2667 4.68578 20.5365 4.81964 20.6204 5.06863C20.7043 5.31763 20.5704 5.58747 20.3214 5.67134C19.6948 5.88581 19.2598 6.45764 19.2204 7.11879C19.2204 7.38089 19.0079 7.59337 18.7458 7.59337Z" fill="#FAC176"/>
<path d="M19.2203 18.9833H13.9999C13.4757 18.9833 13.0508 18.5583 13.0508 18.0341C13.0508 17.5099 13.4757 17.085 13.9999 17.085H19.2203C19.7445 17.085 20.1694 17.5099 20.1694 18.0341C20.1694 18.5583 19.7445 18.9833 19.2203 18.9833Z" fill="#2980BA"/>
<path d="M16.6103 17.0848C17.2655 17.0848 17.7967 16.5536 17.7967 15.8984C17.7967 15.2431 17.2655 14.7119 16.6103 14.7119C15.955 14.7119 15.4238 15.2431 15.4238 15.8984C15.4238 16.5536 15.955 17.0848 16.6103 17.0848Z" fill="#F29C1F"/>
<path d="M25.1524 16.1354C26.5939 16.1354 27.7626 14.9668 27.7626 13.5252C27.7626 12.0836 26.5939 10.915 25.1524 10.915C23.7108 10.915 22.5422 12.0836 22.5422 13.5252C22.5422 14.9668 23.7108 16.1354 25.1524 16.1354Z" fill="#E64C3C"/>
</svg>
