<svg width="28" height="27" viewBox="0 0 28 27" fill="none" xmlns="http://www.w3.org/2000/svg">
<path d="M23.5192 14.0811H4.48085C3.38718 14.0811 2.49707 13.201 2.49707 12.1191V4.12632C2.49707 3.64483 2.89184 3.25439 3.37868 3.25439C3.86552 3.25439 4.26029 3.64483 4.26029 4.12632V12.1191C4.26029 12.2394 4.35924 12.337 4.48065 12.337H23.519C23.6406 12.337 23.7393 12.2392 23.7393 12.1191V4.12632C23.7393 3.64483 24.1341 3.25439 24.6209 3.25439C25.1078 3.25439 25.5025 3.64483 25.5025 4.12632V12.1191C25.5029 13.201 24.613 14.0811 23.5192 14.0811Z" fill="#66757C"/>
<path d="M24.6214 3.25439C24.1345 3.25439 23.7397 3.64483 23.7397 4.12632V12.1191C23.7397 12.2394 23.6408 12.3371 23.5194 12.3371H4.48087C4.35946 12.3371 4.26052 12.2392 4.26052 12.1191V4.12632C4.26052 3.64483 3.86575 3.25439 3.37891 3.25439V12.1193C3.37891 12.7213 3.87222 13.2092 4.48087 13.2092H23.5192C24.1278 13.2092 24.6212 12.7211 24.6212 12.1193L24.6214 3.25439Z" fill="#66757C"/>
<path d="M13.9998 22.8005C13.5129 22.8005 13.1182 22.4101 13.1182 21.9286V4.12632C13.1182 3.64483 13.5129 3.25439 13.9998 3.25439C14.4866 3.25439 14.8814 3.64483 14.8814 4.12632V21.9286C14.8814 22.4101 14.4866 22.8005 13.9998 22.8005Z" fill="#66757C"/>
<path d="M18.1082 26.3775H9.89179C9.58159 26.3775 9.33008 26.1287 9.33008 25.822V17.6959C9.33008 17.3891 9.58159 17.1401 9.89179 17.1401H18.1082C18.4184 17.1401 18.6701 17.3889 18.6701 17.6959V25.822C18.6699 26.1287 18.4184 26.3775 18.1082 26.3775Z" fill="#223942"/>
<path d="M15.0184 20.6998H11.5715C11.1836 20.6998 10.8691 20.3888 10.8691 20.0052C10.8691 19.6215 11.1836 19.3105 11.5715 19.3105H15.0184C15.4063 19.3105 15.7207 19.6215 15.7207 20.0052C15.7205 20.3888 15.4061 20.6998 15.0184 20.6998Z" fill="#FE4F17"/>
<path d="M16.4287 23.6514H11.5715C11.1836 23.6514 10.8691 23.3405 10.8691 22.9568C10.8691 22.5732 11.1836 22.2622 11.5715 22.2622H16.4287C16.8166 22.2622 17.1311 22.5732 17.1311 22.9568C17.1311 23.3405 16.8166 23.6514 16.4287 23.6514Z" fill="#FE4F17"/>
<path d="M5.75016 6.62638H1.00763C0.652109 6.62638 0.36377 6.34121 0.36377 5.9896V1.29938C0.36377 0.947569 0.652109 0.662598 1.00763 0.662598H5.74996C6.10547 0.662598 6.39381 0.947769 6.39381 1.29938V5.9896C6.39402 6.34141 6.10568 6.62638 5.75016 6.62638Z" fill="#223942"/>
<path d="M3.37889 5.51693C2.33297 5.51693 1.48535 4.67843 1.48535 3.64421C1.48535 2.60979 2.33317 1.77148 3.37889 1.77148C4.4246 1.77148 5.27242 2.60999 5.27242 3.64421C5.27242 4.67843 4.4246 5.51693 3.37889 5.51693Z" fill="#FE4F17"/>
<path d="M26.9926 6.62589H22.2503C21.8948 6.62589 21.6064 6.34072 21.6064 5.98911V1.29889C21.6064 0.94708 21.8948 0.662109 22.2503 0.662109H26.9926C27.3482 0.662109 27.6365 0.947281 27.6365 1.29889V5.98911C27.6365 6.34092 27.3482 6.62589 26.9926 6.62589Z" fill="#223942"/>
<path d="M24.6211 5.51693C23.5754 5.51693 22.7275 4.67843 22.7275 3.64421C22.7275 2.60979 23.5754 1.77148 24.6211 1.77148C25.667 1.77148 26.5146 2.60999 26.5146 3.64421C26.5146 4.67843 25.667 5.51693 24.6211 5.51693Z" fill="#FE4F17"/>
<path d="M14 6.62609C12.3347 6.62609 10.9849 5.29109 10.9849 3.6441C10.9849 1.99731 12.3347 0.662109 14 0.662109C15.6651 0.662109 17.0151 1.99711 17.0151 3.6441C17.0151 5.29109 15.6653 6.62609 14 6.62609Z" fill="#223942"/>
<path d="M13.9997 5.56186C12.9538 5.56186 12.106 4.72335 12.106 3.68913C12.106 2.65471 12.9538 1.81641 13.9995 1.81641C15.0452 1.81641 15.893 2.65491 15.893 3.68913C15.8932 4.72335 15.0456 5.56186 13.9997 5.56186Z" fill="white"/>
</svg>
