<svg width="28" height="28" viewBox="0 0 28 28" fill="none" xmlns="http://www.w3.org/2000/svg">
<path d="M27.5625 14C27.5625 21.4903 21.4903 27.5625 14 27.5625C6.50974 27.5625 0.4375 21.4903 0.4375 14C0.4375 6.50974 6.50974 0.4375 14 0.4375C21.4903 0.4375 27.5625 6.50974 27.5625 14Z" fill="white"/>
<path d="M23.59 4.41025C21.9068 2.72562 19.8093 1.51437 17.5088 0.898926L14 14.0002L23.59 4.41025Z" fill="#FE4F17"/>
<path d="M10.4894 0.898926C8.1889 1.51459 6.09155 2.72583 4.4082 4.41025L13.9999 14.0002L10.4894 0.898926Z" fill="#FE4F17"/>
<path d="M27.1013 17.5107C27.7163 15.2108 27.7163 12.7896 27.1013 10.4897L14 14.0002L27.1013 17.5107Z" fill="#FE4F17"/>
<path d="M17.5105 27.1013C19.811 26.4856 21.9083 25.2744 23.5917 23.59L14 14L17.5105 27.1013Z" fill="#FE4F17"/>
<path d="M0.898766 10.4897C0.283745 12.7896 0.283745 15.2108 0.898766 17.5107L14.0001 14.0002L0.898766 10.4897Z" fill="#FE4F17"/>
<path d="M4.41016 23.59C6.09351 25.2744 8.19107 26.4856 10.4914 27.1013L14.0001 14L4.41016 23.59Z" fill="#FE4F17"/>
<path d="M21.4375 14C21.4375 18.1075 18.1075 21.4375 14 21.4375C9.89246 21.4375 6.5625 18.1075 6.5625 14C6.5625 9.89246 9.89246 6.5625 14 6.5625C18.1075 6.5625 21.4375 9.89246 21.4375 14Z" fill="#FFA606"/>
<path d="M12.994 10.0531L13.3033 9.7438C13.9753 9.08242 14.2411 8.11151 13.9997 7.20019C13.7581 6.28866 13.0461 5.57687 12.1348 5.33526C11.2232 5.09365 10.2523 5.3594 9.59094 6.03167L7.11612 8.5065C6.10526 9.53402 6.11188 11.1845 7.13108 12.2037C8.15027 13.2229 9.80072 13.2297 10.8282 12.2188L11.1376 11.9095L15.159 15.931L12.994 18.0965L14.5391 19.6435L16.7048 17.4785L18.2516 19.0249L16.0862 21.1906L17.6313 22.7372L21.6564 18.7151L12.994 10.0531ZM11.7562 8.81582L9.90027 10.6718C9.55869 11.0136 9.00455 11.0136 8.66275 10.672C8.32117 10.3304 8.32096 9.77627 8.66254 9.43447L10.5189 7.57809C10.8607 7.23651 11.4146 7.23672 11.7564 7.5783C12.098 7.9201 12.098 8.47424 11.7562 8.81582Z" fill="#FFE082"/>
<path d="M19.25 13.5625H20.125V14.4375H19.25V13.5625Z" fill="white"/>
<path d="M8.47705 16.6831L9.23499 16.2456L9.67227 17.0033L8.91455 17.4408L8.47705 16.6831Z" fill="white"/>
<path d="M18.3281 10.9959L19.0858 10.5586L19.5233 11.3163L18.7656 11.7538L18.3281 10.9959Z" fill="white"/>
<path d="M10.5581 19.0854L10.9956 18.3276L11.7535 18.7649L11.316 19.5229L10.5581 19.0854Z" fill="white"/>
<path d="M16.2461 9.23477L16.6834 8.47705L17.4413 8.91434L17.0038 9.67227L16.2461 9.23477Z" fill="white"/>
<path d="M7.71484 3.98877L8.47256 3.55127L8.91007 4.3092L8.15213 4.74649L7.71484 3.98877Z" fill="white"/>
<path d="M19.0898 23.6904L19.8478 23.2529L20.2853 24.0109L19.5273 24.4482L19.0898 23.6904Z" fill="white"/>
<path d="M2.1875 13.5625H3.0625V14.4375H2.1875V13.5625Z" fill="white"/>
<path d="M7.85693 14.0963L8.7283 14.02L8.80457 14.8916L7.93298 14.9677L7.85693 14.0963Z" fill="white"/>
<path d="M24.9375 13.5625H25.8125V14.4375H24.9375V13.5625Z" fill="white"/>
<path d="M7.71436 24.0114L8.15164 23.2534L8.90958 23.6909L8.47208 24.4486L7.71436 24.0114Z" fill="white"/>
<path d="M19.0894 4.30899L19.5269 3.55127L20.2848 3.98877L19.8473 4.74649L19.0894 4.30899Z" fill="white"/>
<path d="M12.0641 7.26913C11.5514 6.75665 10.7206 6.75665 10.2081 7.26913L8.35175 9.1253C7.84654 9.63906 7.84995 10.4643 8.35966 10.974C8.86915 11.4835 9.69437 11.4867 10.2081 10.9813L12.0641 9.12487C12.5764 8.61239 12.5764 7.78161 12.0641 7.26913ZM11.4454 8.50664L9.58906 10.363C9.41816 10.5344 9.14066 10.5346 8.96934 10.3637C8.79801 10.1928 8.7978 9.91528 8.9687 9.74395L10.8251 7.88757C10.996 7.71688 11.273 7.71688 11.4439 7.88778C11.6146 8.05889 11.6146 8.33596 11.4437 8.50664H11.4454Z" fill="black"/>
<path d="M14 0C6.26791 0 0 6.26791 0 14C0 21.7321 6.26791 28 14 28C21.7321 28 28 21.7321 28 14C27.9912 6.27155 21.7285 0.00875853 14 0ZM22.9596 4.42178L19.2408 8.14053C18.4342 7.41443 17.4859 6.86328 16.4556 6.52191L17.8177 1.44366C19.7366 2.03027 21.4958 3.04904 22.9596 4.42178ZM18.8698 19.0246L16.7047 16.8596L14.539 19.0246L13.611 18.0966L15.7767 15.9312L11.1362 11.291L10.5175 11.9097C9.96573 12.4662 9.15823 12.6852 8.40094 12.4835C7.64343 12.2816 7.05191 11.6901 6.85025 10.9328C6.64838 10.1753 6.86734 9.3678 7.42404 8.81601L9.89844 6.34119C10.7527 5.48648 12.1381 5.48605 12.993 6.34033C13.8477 7.19461 13.8481 8.57996 12.9938 9.43466L12.3752 10.0533L21.0376 18.7157L17.6312 22.1187L16.7034 21.1903L18.8698 19.0246ZM15.9346 20.7227C13.6153 21.4012 11.1101 20.831 9.31268 19.2156C7.51547 17.6004 6.68213 15.17 7.11023 12.7915C8.32831 13.7249 10.0488 13.6125 11.1353 12.5292L14.5381 15.932L12.3728 18.0977L14.5381 20.2628L16.7038 18.0977L17.6312 19.0246L15.9346 20.7227ZM20.3927 16.8354L13.6114 10.0542C14.4048 9.26035 14.7005 8.09631 14.382 7.02008C16.6799 7.13864 18.7717 8.38235 19.9733 10.3447C21.175 12.307 21.3322 14.7355 20.3931 16.8363L20.3927 16.8354ZM14 0.875C15.0006 0.875641 15.9976 0.990784 16.9719 1.21851L15.6122 6.29333C15.082 6.18204 14.5417 6.12564 14 6.125H13.9466C13.8464 5.98145 13.734 5.84665 13.611 5.72211C13.1752 5.28546 12.6172 4.99173 12.0107 4.87936L11.0289 1.21851C12.0028 0.990784 12.9998 0.875641 14 0.875ZM10.1832 1.44366L11.0962 4.84967C10.409 4.92657 9.76834 5.23526 9.27979 5.72467L7.8107 7.19418L5.04044 4.42392C6.50418 3.05011 8.26358 2.0307 10.1832 1.44366ZM4.42178 5.04044L7.19205 7.8107L6.80539 8.19736C5.95645 9.04373 5.68152 10.3086 6.10236 11.431L1.44366 10.1823C2.03027 8.26337 3.04904 6.50418 4.42178 5.04044ZM0.875 14C0.875641 12.9994 0.990784 12.0024 1.21851 11.0281L6.29333 12.3882C6.06839 13.451 6.06775 14.549 6.2912 15.6122L1.21616 16.9719C0.989288 15.9976 0.875 15.0004 0.875 14ZM1.44366 17.8177L6.52362 16.4567C6.8652 17.4868 7.41635 18.435 8.14224 19.2417L4.42349 22.9604C3.05011 21.4967 2.0307 19.7373 1.44366 17.8177ZM5.04129 23.5782L8.76004 19.8595C9.56668 20.5856 10.515 21.1367 11.5453 21.4781L10.1823 26.5563C8.26337 25.9697 6.50418 24.951 5.04044 23.5782H5.04129ZM14 27.125C12.9994 27.1244 12.0024 27.0092 11.0281 26.7815L12.3878 21.7067C12.918 21.818 13.4583 21.8744 14 21.875C14.5415 21.8739 15.0816 21.8167 15.6114 21.7039L16.9719 26.7815C15.9976 27.0092 15.0006 27.1244 14 27.125ZM17.8177 26.5563L16.7126 22.4368L17.6312 23.3554L20.1835 20.803L22.9583 23.5778C21.495 24.9505 19.7362 25.9693 17.8177 26.5563ZM23.5782 22.9587L20.8035 20.184L22.2732 18.7144L21.0481 17.4895C21.2168 17.1556 21.3606 16.8098 21.4787 16.4547L26.5563 17.8177C25.9697 19.7366 24.951 21.4958 23.5782 22.9596V22.9587ZM27.125 14C27.1244 15.0006 27.0092 15.9976 26.7815 16.9719L21.7067 15.6118C21.9325 14.549 21.9335 13.451 21.7097 12.3878L26.7847 11.0281C27.0111 12.0024 27.1254 12.9996 27.125 14ZM21.4772 11.5433C21.1357 10.5132 20.5845 9.56497 19.8586 8.75833L23.5774 5.03958C24.9505 6.50354 25.9695 8.26294 26.5563 10.1823L21.4772 11.5433Z" fill="black"/>
<path d="M13.5625 2.1875H14.4375V3.0625H13.5625V2.1875Z" fill="black"/>
<path d="M13.5625 24.9375H14.4375V25.8125H13.5625V24.9375Z" fill="black"/>
<path d="M3.55127 8.47305L3.98877 7.71533L4.74649 8.15262L4.30899 8.91055L3.55127 8.47305Z" fill="black"/>
<path d="M23.2529 19.8483L23.6904 19.0903L24.4482 19.5278L24.0109 20.2858L23.2529 19.8483Z" fill="black"/>
<path d="M3.55127 19.5273L4.30899 19.0898L4.74649 19.8478L3.98856 20.2851L3.55127 19.5273Z" fill="black"/>
<path d="M23.2534 8.15234L24.0111 7.71484L24.4486 8.47278L23.6907 8.91007L23.2534 8.15234Z" fill="black"/>
</svg>
