<svg width="29" height="19" viewBox="0 0 29 19" fill="none" xmlns="http://www.w3.org/2000/svg">
<path d="M25.2523 14.7392C25.1742 11.9108 23.9928 9.33656 22.1064 7.45537H22.1062C20.0968 5.45242 17.3787 4.31396 14.4998 4.31396C11.7089 4.31396 8.96121 5.39353 6.89318 7.45537C4.87935 9.4634 3.82133 12.0873 3.74721 14.7399C3.74323 14.8824 3.62486 14.9953 3.48193 14.9953H25.5174C25.3743 14.9951 25.2563 14.8819 25.2523 14.7392Z" fill="#E4EAF8"/>
<path d="M8.87735 7.57626C10.7022 5.68669 13.0566 4.59213 15.5025 4.36095C15.171 4.33007 14.8365 4.31396 14.4998 4.31396C11.7089 4.31396 8.96121 5.39353 6.89318 7.45515C4.87935 9.4634 3.82133 12.0871 3.74721 14.7397C3.74323 14.8822 3.62486 14.9951 3.48193 14.9951H5.7367C5.84378 12.2902 6.89915 9.62487 8.87735 7.57626Z" fill="#D8DCE5"/>
<path d="M24.7554 4.81317C22.0287 2.09573 18.3579 0.577637 14.5 0.577637V4.51008C17.326 4.51008 19.9941 5.62758 21.9665 7.59369L24.7554 4.81317Z" fill="#FECA57"/>
<path d="M4.24414 4.81295L7.03323 7.59369C9.01652 5.61633 11.6908 4.51008 14.4998 4.51008V0.577637C10.8465 0.577637 7.29408 1.88088 4.24414 4.81295Z" fill="#15BA8B"/>
<path d="M4.24414 4.81295L7.03323 7.59369C9.01652 5.61633 11.6908 4.51008 14.4998 4.51008V0.577637C10.8465 0.577637 7.29408 1.88088 4.24414 4.81295Z" fill="#15BA8B"/>
<path d="M5.99817e-05 14.7278C-0.00303753 14.8741 0.114225 14.9949 0.260915 14.9949H3.68477C3.82504 14.9949 3.9412 14.8842 3.94518 14.7443C4.01775 12.1403 5.05652 9.56492 7.0334 7.59373L4.24431 4.81299C1.62249 7.42697 0.080374 10.9526 5.99817e-05 14.7278Z" fill="#54A0FF"/>
<path d="M6.0407 4.70249C8.5114 2.32719 11.3087 1.01027 14.223 0.580566C10.6673 0.644978 7.21709 1.95484 4.24414 4.81279L5.13113 5.69713C5.4181 5.35323 5.72143 5.02102 6.0407 4.70249Z" fill="#11AA7B"/>
<path d="M2.01455 14.9949C1.86609 14.9949 1.7475 14.8727 1.75082 14.7249C1.82206 11.3687 3.03695 8.20807 5.13131 5.69733L4.24431 4.81299C1.62249 7.42697 0.080374 10.9526 5.99817e-05 14.7278C-0.00303753 14.8741 0.114225 14.9949 0.260915 14.9949H3.68477H2.01455Z" fill="#338DEF"/>
<path d="M24.7559 4.81299L21.9668 7.59373C23.8189 9.44051 24.9785 11.9674 25.055 14.7439C25.059 14.884 25.1749 14.9949 25.3154 14.9949H28.7393C28.886 14.9949 29.0032 14.8743 29.0001 14.7278C28.9212 11.0455 27.4397 7.48785 24.7559 4.81299Z" fill="#FF6B6B"/>
<path d="M18.7624 15.5001L20.8806 8.66671C20.9683 8.3837 20.7023 8.11855 20.4187 8.2059L13.5645 10.3178C10.5746 11.2392 9.64022 15.0003 11.8532 17.2064C14.0661 19.4127 17.8382 18.4811 18.7624 15.5001Z" fill="#FF6B6B"/>
<path d="M13.6037 17.2069C11.3908 15.0007 12.3253 11.2397 15.3153 10.3183L20.8944 8.59925C20.9245 8.34381 20.6795 8.12608 20.4187 8.20638L13.5645 10.3183C10.5746 11.2397 9.64022 15.0007 11.8532 17.2069C12.9225 18.273 14.3557 18.6063 15.6558 18.3299C14.9159 18.171 14.2026 17.8042 13.6037 17.2069Z" fill="#EE5253"/>
<path d="M15.9996 13.0726C15.3033 12.3782 14.1743 12.3782 13.4778 13.0726C12.7815 13.7668 12.7815 14.8924 13.4778 15.5868C14.1743 16.281 15.3033 16.281 15.9996 15.5868C16.6961 14.8924 16.6961 13.7668 15.9996 13.0726Z" fill="#EE5253"/>
<path d="M15.6308 12.7896C14.9489 12.3965 14.0619 12.4907 13.4783 13.0724C12.782 13.7666 12.782 14.8924 13.4783 15.5866C14.0617 16.1683 14.9489 16.2623 15.6308 15.8694C14.4385 15.1821 14.4482 13.4714 15.6308 12.7896Z" fill="#D83941"/>
</svg>
