<svg width="28" height="28" viewBox="0 0 28 28" fill="none" xmlns="http://www.w3.org/2000/svg">
<path d="M15.9581 4.78539C15.9581 5.86646 15.0814 6.74274 14.0003 6.74274C12.9201 6.74274 12.0425 5.86646 12.0425 4.78539C12.0424 3.70298 12.92 0 14.0003 0C15.0813 0 15.9581 3.70298 15.9581 4.78539Z" fill="#FFD110"/>
<path d="M14 0C15.0811 0 15.9578 3.70298 15.9578 4.78539C15.9578 5.86646 15.0811 6.74274 14 6.74274" fill="#F7B90B"/>
<path d="M12.042 23.2147C12.042 22.1336 12.9187 21.2573 13.9998 21.2573C15.08 21.2573 15.9576 22.1336 15.9576 23.2147C15.9576 24.2975 15.08 28.0001 13.9998 28.0001C12.9188 28.0001 12.042 24.2971 12.042 23.2147Z" fill="#FFD110"/>
<path d="M14.0003 28.0001C12.9192 28.0001 12.0425 24.2971 12.0425 23.2147C12.0425 22.1336 12.9192 21.2573 14.0003 21.2573" fill="#F7B90B"/>
<path d="M21.9 8.86841C21.1353 9.63272 19.8963 9.63317 19.1324 8.86841C18.3686 8.10454 18.3677 6.86468 19.1315 6.10036C19.8972 5.33472 23.1356 3.33709 23.8994 4.10057C24.6642 4.86483 22.6657 8.10321 21.9 8.86841Z" fill="#FFD110"/>
<path d="M23.8993 4.1001C24.6641 4.86486 22.6656 8.10324 21.8999 8.86799C21.1352 9.63231 19.8962 9.63275 19.1323 8.86799" fill="#F7B90B"/>
<path d="M6.09992 19.1313C6.86379 18.367 8.10365 18.367 8.86752 19.1313C9.63139 19.8952 9.63228 21.1351 8.86841 21.8998C8.10276 22.6646 4.86439 24.6631 4.10052 23.8992C3.33582 23.1349 5.33427 19.897 6.09992 19.1313Z" fill="#FFD110"/>
<path d="M4.10054 23.8997C3.33578 23.135 5.33429 19.897 6.09994 19.1318C6.86381 18.3675 8.10367 18.3675 8.86755 19.1318" fill="#F7B90B"/>
<path d="M23.2142 15.9577C22.1341 15.9586 21.2564 15.0818 21.2573 14.0008C21.2573 12.9197 22.1336 12.043 23.2142 12.043C24.297 12.043 27.9996 12.9197 28.0001 14.0003C28.0001 15.0818 24.2966 15.9586 23.2142 15.9577Z" fill="#FFD110"/>
<path d="M28.0001 14C28.0001 15.0815 24.2966 15.9582 23.2142 15.9573C22.1341 15.9582 21.2564 15.0815 21.2573 14.0004" fill="#F7B90B"/>
<path d="M4.78539 12.0425C5.86646 12.0425 6.74319 12.9192 6.74319 13.9998C6.74319 15.0805 5.86646 15.9572 4.78539 15.9581C3.70254 15.9572 0 15.0805 0 13.9999C0 12.9184 3.70254 12.0425 4.78539 12.0425Z" fill="#FFD110"/>
<path d="M0 14.0003C0 12.9188 3.70254 12.043 4.78539 12.043C5.86646 12.043 6.74319 12.9197 6.74319 14.0003" fill="#F7B90B"/>
<path d="M19.131 21.8994C18.3675 21.1364 18.3666 19.8961 19.1314 19.1326C19.8957 18.3687 21.1351 18.3674 21.8999 19.1317C22.6646 19.8969 24.6631 23.1357 23.8993 23.8996C23.1345 24.6644 19.8962 22.665 19.131 21.8994Z" fill="#FFD110"/>
<path d="M23.8993 23.8998C23.1345 24.6646 19.8962 22.6652 19.131 21.8996C18.3675 21.1366 18.3666 19.8963 19.1314 19.1328" fill="#F7B90B"/>
<path d="M8.86787 6.10019C9.63174 6.8645 9.63263 8.10436 8.86787 8.86823C8.10401 9.63254 6.86414 9.63254 6.10027 8.86823C5.33463 8.10259 3.33656 4.8651 4.10088 4.10034C4.86474 3.33608 8.10267 5.33454 8.86787 6.10019Z" fill="#FFD110"/>
<path d="M4.10059 4.10036C4.8649 3.33605 8.10283 5.33456 8.86758 6.10015C9.63145 6.86447 9.63234 8.10433 8.86758 8.8682" fill="#F7B90B"/>
<path d="M11.088 5.04062C11.6288 5.97689 11.3081 7.17432 10.3718 7.71418C9.43596 8.25405 8.23897 7.9338 7.69732 6.99797C7.15745 6.06042 6.06455 2.4147 7.00038 1.87483C7.93665 1.33496 10.5468 4.10351 11.088 5.04062Z" fill="#FFD110"/>
<path d="M7.00049 1.87592C7.93676 1.3356 10.5468 4.1041 11.0881 5.04126C11.6288 5.97753 11.3081 7.17496 10.3718 7.71482" fill="#F7B90B"/>
<path d="M16.9124 22.9591C16.3721 22.0228 16.6928 20.8254 17.6281 20.2851C18.564 19.7452 19.7631 20.0659 20.3026 21.0021C20.8438 21.9392 21.9349 25.5845 20.9991 26.1244C20.0642 26.6647 17.4531 23.8963 16.9124 22.9591Z" fill="#FFD110"/>
<path d="M20.9991 26.1241C20.0641 26.6648 17.4531 23.8963 16.9124 22.9592C16.3721 22.0229 16.6928 20.8255 17.6281 20.2852" fill="#F7B90B"/>
<path d="M18.2762 5.60665C17.9962 6.65006 16.923 7.27002 15.8791 6.99003C14.8357 6.71005 14.2157 5.63686 14.4945 4.59295C14.7753 3.54643 16.5809 0.197414 17.623 0.476957C18.6682 0.756944 18.5557 4.56102 18.2762 5.60665Z" fill="#FFD110"/>
<path d="M17.6228 0.477051C18.668 0.757038 18.5556 4.56066 18.276 5.60674C17.996 6.65015 16.9228 7.27011 15.8789 6.99012" fill="#F7B90B"/>
<path d="M9.7247 22.3942C10.0047 21.3503 11.0788 20.7304 12.1218 21.0108C13.1661 21.2899 13.7865 22.3631 13.5064 23.4079C13.226 24.4531 11.42 27.803 10.3765 27.523C9.33185 27.2425 9.44383 23.4389 9.7247 22.3942Z" fill="#FFD110"/>
<path d="M10.3766 27.5225C9.33185 27.2421 9.44382 23.4389 9.7247 22.3937C10.0047 21.3498 11.0788 20.7299 12.1218 21.0103" fill="#F7B90B"/>
<path d="M22.9594 11.0883C22.0236 11.6286 20.8257 11.3092 20.285 10.3725C19.7451 9.43579 20.0663 8.2388 21.002 7.69805C21.9396 7.15684 25.5848 6.06528 26.1252 6.99977C26.6651 7.93738 23.8965 10.5475 22.9594 11.0883Z" fill="#FFD110"/>
<path d="M26.125 6.99951C26.6653 7.93706 23.8968 10.5472 22.9596 11.088C22.0238 11.6283 20.8259 11.3089 20.2852 10.3722" fill="#F7B90B"/>
<path d="M5.04157 16.9119C5.97695 16.3715 7.17571 16.6922 7.71469 17.6285C8.25456 18.5643 7.93431 19.7622 6.99848 20.3029C6.06004 20.8432 2.41476 21.9352 1.87534 21.0003C1.33547 20.0636 4.10313 17.4535 5.04157 16.9119Z" fill="#FFD110"/>
<path d="M1.87594 21.0003C1.33562 20.0636 4.10322 17.4535 5.04166 16.9119C5.97704 16.3715 7.1758 16.6922 7.71478 17.6285" fill="#F7B90B"/>
<path d="M22.3943 18.2756C21.3505 17.9961 20.7301 16.9229 21.0109 15.879C21.29 14.8351 22.3637 14.2147 23.4076 14.4943C24.4537 14.7747 27.8031 16.5803 27.5231 17.6233C27.2436 18.6689 23.4395 18.5569 22.3943 18.2756Z" fill="#FFD110"/>
<path d="M27.5226 17.6236C27.2431 18.6688 23.4395 18.5568 22.3938 18.2755C21.35 17.996 20.7296 16.9228 21.0105 15.8789" fill="#F7B90B"/>
<path d="M5.60537 9.72487C6.64967 10.0049 7.27007 11.0785 6.99048 12.122C6.71004 13.1663 5.63731 13.7862 4.59295 13.5062C3.54687 13.2262 0.198249 11.4207 0.477403 10.3768C0.757445 9.33246 4.56063 9.44444 5.60537 9.72487Z" fill="#FFD110"/>
<path d="M0.477051 10.3768C0.757482 9.33247 4.56022 9.44444 5.60541 9.72487C6.64971 10.0049 7.27011 11.0785 6.99051 12.122" fill="#F7B90B"/>
<path d="M7.00028 7.69729C7.93566 8.23716 8.25636 9.43548 7.71604 10.3713C7.17618 11.3062 5.97786 11.6278 5.04076 11.0879C4.10449 10.5467 1.33644 7.93573 1.87631 6.99946C2.41657 6.06363 6.0614 7.15609 7.00028 7.69729Z" fill="#FFD110"/>
<path d="M1.87598 6.99946C2.41673 6.06363 6.06157 7.15609 7.00039 7.69729C7.93578 8.23716 8.25647 9.43548 7.71616 10.3713" fill="#F7B90B"/>
<path d="M21.0024 20.3022C20.0657 19.7623 19.7446 18.5645 20.2845 17.6286C20.8239 16.6933 22.0236 16.3717 22.9589 16.9124C23.8965 17.4527 26.6641 20.0646 26.1229 21.0004C25.5844 21.9363 21.9386 20.8438 21.0024 20.3022Z" fill="#FFD110"/>
<path d="M26.1233 21.0003C25.5843 21.9361 21.9391 20.8436 21.0024 20.302C20.0657 19.7621 19.7446 18.5642 20.2845 17.6284" fill="#F7B90B"/>
<path d="M13.5065 4.59251C13.7865 5.63681 13.167 6.71043 12.1231 6.99003C11.0792 7.26874 10.0052 6.64967 9.72601 5.60665C9.44513 4.55974 9.334 0.756502 10.3766 0.476959C11.4209 0.197361 13.2261 3.54732 13.5065 4.59251Z" fill="#FFD110"/>
<path d="M10.3765 0.47749C11.4212 0.197503 13.2263 3.54785 13.5064 4.5926C13.7864 5.6369 13.1669 6.71053 12.123 6.99012" fill="#F7B90B"/>
<path d="M14.4951 23.4068C14.216 22.3629 14.8359 21.2893 15.8794 21.0097C16.9237 20.7297 17.9969 21.3488 18.2765 22.394C18.5573 23.4396 18.6676 27.2432 17.6233 27.5228C16.5794 27.8024 14.7751 24.4524 14.4951 23.4068Z" fill="#FFD110"/>
<path d="M17.6232 27.5229C16.5789 27.8029 14.7751 24.4525 14.4951 23.4073C14.216 22.3635 14.8359 21.2899 15.8794 21.0103" fill="#F7B90B"/>
<path d="M20.3027 6.99887C19.7633 7.9347 18.5654 8.25668 17.6291 7.71592C16.6937 7.17516 16.373 5.97729 16.9133 5.04146C17.4537 4.10391 20.0651 1.33626 21.0009 1.87573C21.9368 2.41694 20.8443 6.06177 20.3027 6.99887Z" fill="#FFD110"/>
<path d="M21.0007 1.87549C21.9366 2.41713 20.8441 6.06191 20.3025 6.99907C19.7631 7.9349 18.5652 8.25688 17.6289 7.71612" fill="#F7B90B"/>
<path d="M7.69822 21.001C8.23765 20.0652 9.43641 19.7437 10.3718 20.2848C11.3076 20.8247 11.6287 22.0225 11.088 22.9584C10.5473 23.8959 7.93583 26.6644 7.00045 26.1233C6.06417 25.5838 7.1553 21.9386 7.69822 21.001Z" fill="#FFD110"/>
<path d="M7.00045 26.1237C6.06417 25.5838 7.1553 21.939 7.69828 21.001C8.2377 20.0652 9.43647 19.7437 10.3718 20.2848" fill="#F7B90B"/>
<path d="M23.408 13.506C22.3646 13.786 21.2897 13.1665 21.0119 12.1222C20.7314 11.0783 21.3501 10.0047 22.3939 9.72464C23.4395 9.44421 27.2436 9.33307 27.5227 10.3765C27.8036 11.4213 24.4541 13.226 23.408 13.506Z" fill="#FFD110"/>
<path d="M27.5226 10.3765C27.8034 11.4217 24.4535 13.2263 23.4079 13.5059C22.3645 13.7859 21.2895 13.1665 21.0117 12.1221" fill="#F7B90B"/>
<path d="M4.59281 14.4945C5.63622 14.2145 6.71029 14.834 6.99034 15.8779C7.27077 16.9222 6.6517 17.9954 5.60523 18.275C4.56093 18.5563 0.757302 18.6666 0.47687 17.6231C0.198105 16.5783 3.54673 14.7746 4.59281 14.4945Z" fill="#FFD110"/>
<path d="M0.477395 17.6231C0.198296 16.5779 3.54731 14.7741 4.59295 14.4945C5.63636 14.2145 6.71043 14.8341 6.99047 15.8779" fill="#F7B90B"/>
<path d="M13.9998 22.15C18.501 22.15 22.15 18.501 22.15 13.9998C22.15 9.49857 18.501 5.84961 13.9998 5.84961C9.49857 5.84961 5.84961 9.49857 5.84961 13.9998C5.84961 18.501 9.49857 22.15 13.9998 22.15Z" fill="#1A3D5B"/>
<path d="M13.9997 22.654C11.6875 22.654 9.51445 21.7541 7.87996 20.1196C4.50551 16.7447 4.50551 11.2545 7.87996 7.88005C9.51445 6.24556 11.6884 5.34473 13.9997 5.34473C16.311 5.34473 18.484 6.24556 20.119 7.88005C23.4935 11.2545 23.4935 16.7447 20.119 20.1191C18.484 21.7541 16.311 22.654 13.9997 22.654Z" fill="#1A3D5B"/>
<path d="M13.9999 5.84924C16.0854 5.84924 18.1718 6.6446 19.7631 8.23666C22.9455 11.4195 22.9455 16.5798 19.7631 19.763C18.1719 21.3546 16.0855 22.15 13.9999 22.15C11.9139 22.15 9.82743 21.3547 8.23665 19.7635C5.05426 16.5802 5.05426 11.4199 8.23665 8.23666C9.82738 6.64466 11.9147 5.84924 13.9999 5.84924ZM13.9999 4.84082C11.5533 4.84082 9.25385 5.7937 7.52355 7.524C3.95309 11.0945 3.95309 16.9044 7.52355 20.4762C9.25385 22.2056 11.5533 23.1581 13.9999 23.1581C16.4459 23.1581 18.7459 22.2056 20.4757 20.4753C24.047 16.9045 24.047 11.0945 20.4757 7.52361C18.7458 5.7937 16.4463 4.84082 13.9999 4.84082Z" fill="#FE4F17"/>
<path d="M19.7632 8.23682C22.9456 11.4197 22.9456 16.5799 19.7632 19.7632C16.5799 22.946 11.42 22.946 8.23682 19.7636" fill="#082130"/>
<path d="M20.0493 9.58867C20.0493 9.7103 19.9509 9.80917 19.8288 9.80917H8.17114C8.04862 9.80917 7.9502 9.7103 7.9502 9.58867C7.9502 9.46747 8.04862 9.36816 8.17114 9.36816H19.8287C19.9513 9.36816 20.0493 9.46747 20.0493 9.58867Z" fill="#0E2C42"/>
<path d="M20.0493 11.7942C20.0493 11.9159 19.9509 12.0152 19.8288 12.0152H8.17114C8.04862 12.0152 7.9502 11.9159 7.9502 11.7942C7.9502 11.673 8.04862 11.5737 8.17114 11.5737H19.8287C19.9513 11.5737 20.0493 11.673 20.0493 11.7942Z" fill="#0E2C42"/>
<path d="M20.0493 14.0002C20.0493 14.1219 19.9509 14.2208 19.8288 14.2208H8.17114C8.04862 14.2208 7.9502 14.1219 7.9502 14.0002C7.9502 13.8786 8.04862 13.7793 8.17114 13.7793H19.8287C19.9513 13.7793 20.0493 13.8786 20.0493 14.0002Z" fill="#0E2C42"/>
<path d="M20.0493 16.2054C20.0493 16.327 19.9509 16.4263 19.8288 16.4263H8.17114C8.04862 16.4263 7.9502 16.327 7.9502 16.2054C7.9502 16.0837 8.04862 15.9849 8.17114 15.9849H19.8287C19.9513 15.9849 20.0493 16.0837 20.0493 16.2054Z" fill="#0E2C42"/>
<path d="M20.0493 18.4114C20.0493 18.5326 19.9509 18.6319 19.8288 18.6319H8.17114C8.04862 18.6319 7.9502 18.5326 7.9502 18.4114C7.9502 18.2898 8.04862 18.1909 8.17114 18.1909H19.8287C19.9513 18.1909 20.0493 18.2898 20.0493 18.4114Z" fill="#0E2C42"/>
<path d="M18.4109 20.0493C18.2888 20.0493 18.1904 19.9509 18.1904 19.8288V8.17119C18.1904 8.0491 18.2888 7.95068 18.4109 7.95068C18.5321 7.95068 18.6314 8.0491 18.6314 8.17119V19.8288C18.6314 19.9513 18.5321 20.0493 18.4109 20.0493Z" fill="#0E2C42"/>
<path d="M16.2054 20.0493C16.0833 20.0493 15.9849 19.9509 15.9849 19.8288V8.17119C15.9849 8.0491 16.0833 7.95068 16.2054 7.95068C16.3266 7.95068 16.4259 8.0491 16.4259 8.17119V19.8288C16.4259 19.9513 16.3266 20.0493 16.2054 20.0493Z" fill="#0E2C42"/>
<path d="M13.9998 20.0493C13.8777 20.0493 13.7793 19.9509 13.7793 19.8288V8.17119C13.7793 8.0491 13.8777 7.95068 13.9998 7.95068C14.121 7.95068 14.2203 8.0491 14.2203 8.17119V19.8288C14.2203 19.9513 14.1209 20.0493 13.9998 20.0493Z" fill="#0E2C42"/>
<path d="M11.7946 20.0493C11.6726 20.0493 11.5732 19.9509 11.5732 19.8288V8.17119C11.5732 8.0491 11.6726 7.95068 11.7946 7.95068C11.9158 7.95068 12.0151 8.0491 12.0151 8.17119V19.8288C12.0151 19.9513 11.9158 20.0493 11.7946 20.0493Z" fill="#0E2C42"/>
<path d="M9.58867 20.0493C9.46703 20.0493 9.36816 19.9509 9.36816 19.8288V8.17119C9.36816 8.0491 9.46703 7.95068 9.58867 7.95068C9.70986 7.95068 9.80961 8.0491 9.80961 8.17119V19.8288C9.80956 19.9513 9.7098 20.0493 9.58867 20.0493Z" fill="#0E2C42"/>
</svg>
