<svg width="28" height="28" viewBox="0 0 28 28" fill="none" xmlns="http://www.w3.org/2000/svg">
<path d="M17.8555 17.0405C17.8224 17.0078 17.593 16.7944 17.2812 16.4826V25.5227C17.2812 26.4251 16.543 27.1466 15.657 27.1634H15.5586C14.6889 27.114 14 26.4084 14 25.5227V23.0781H4.97656V11.3966L13.1797 19.3537L14 20.1577V13.3164L0 0V8.3125H1.69531V9.95312H0V11.5938H1.69531V13.2344H0V14.875H1.69531V16.5156H0V18.1562H1.69531V19.7969H0V21.4375H1.69531V23.0781H0V28H3.33594V26.3594H4.97656V28H6.61719V26.3594H8.25781V28H9.89844V26.3594H11.5391V28H19.7422C20.1953 28 20.5625 27.6324 20.5625 27.1797V19.6655L17.8555 17.0405Z" fill="#FFDA2D"/>
<path d="M20.5625 19.6654V27.1796C20.5625 27.6323 20.1949 27.9999 19.7422 27.9999H15.6406V27.1633H15.657C16.543 27.147 17.2812 26.425 17.2812 25.5227V16.4829C17.5927 16.7943 17.8224 17.0078 17.8555 17.0408L20.5625 19.6654Z" fill="#DC9E00"/>
<path d="M18.1016 7.2787V7.49213C18.1016 7.95128 17.7408 8.31245 17.2812 8.31245H14C13.5405 8.31245 13.1797 7.95166 13.1797 7.49213V7.29541L15.6406 2.37354L18.1016 7.2787Z" fill="#FED2A4"/>
<path d="M18.1016 7.2787V7.49213C18.1016 7.95128 17.7408 8.31245 17.2812 8.31245H15.6406V2.37354L18.1016 7.2787Z" fill="#F6A96C"/>
<path d="M19.7422 0V3.39062H21.3828V5.03125H19.7422V6.67188H21.3828V8.3125H19.7422V9.95312H21.3828V11.5938H19.7422V13.2344H21.3828V14.875H19.7422V16.5156H21.3828V18.1562H19.7422V19.7969H21.3828V21.4375H19.7422V23.0781H21.3828V24.7188H19.7422V28H28V0H19.7422Z" fill="#EEBF00"/>
<path d="M19.7422 3.39062H23.0234V5.03125H19.7422V3.39062Z" fill="#47568C"/>
<path d="M19.7422 9.95312H23.0234V11.5938H19.7422V9.95312Z" fill="#47568C"/>
<path d="M19.7422 16.5156H23.0234V18.1562H19.7422V16.5156Z" fill="#47568C"/>
<path d="M19.7422 23.0781H23.0234V24.7188H19.7422V23.0781Z" fill="#47568C"/>
<path d="M19.7422 6.67188H24.6641V8.3125H19.7422V6.67188Z" fill="#47568C"/>
<path d="M19.7422 13.2344H24.6641V14.875H19.7422V13.2344Z" fill="#47568C"/>
<path d="M19.7422 19.7969H24.6641V21.4375H19.7422V19.7969Z" fill="#47568C"/>
<path d="M3.33594 24.7188H4.97656V28H3.33594V24.7188Z" fill="#61729B"/>
<path d="M6.61719 24.7188H8.25781V28H6.61719V24.7188Z" fill="#61729B"/>
<path d="M9.89844 24.7188H11.5391V28H9.89844V24.7188Z" fill="#61729B"/>
<path d="M0 21.4375H3.33594V23.0781H0V21.4375Z" fill="#61729B"/>
<path d="M0 18.1562H3.33594V19.7969H0V18.1562Z" fill="#61729B"/>
<path d="M0 14.875H3.33594V16.5156H0V14.875Z" fill="#61729B"/>
<path d="M0 11.5938H3.33594V13.2344H0V11.5938Z" fill="#61729B"/>
<path d="M0 8.3125H3.33594V9.95312H0V8.3125Z" fill="#61729B"/>
<path d="M18.1016 23.0781V25.5391C18.1016 26.8846 17.0025 27.9837 15.657 28H15.6406C14.2788 28 13.1797 26.9009 13.1797 25.5391C13.1797 25.5391 13.1797 24.2228 13.1797 23.0781C13.1797 22.172 13.9142 21.4375 14.8203 21.4375H16.4609C16.7594 21.4375 17.0401 21.5173 17.2812 21.6578C17.7719 21.9411 18.1016 22.4712 18.1016 23.0781Z" fill="#47568C"/>
<path d="M18.1016 23.0781V25.5391C18.1016 26.8846 17.0025 27.9837 15.657 28H15.6406V21.4375H16.4609C16.7594 21.4375 17.0401 21.5173 17.2812 21.6581C17.7719 21.9411 18.1016 22.4712 18.1016 23.0781Z" fill="#2C3B73"/>
<path d="M13.1797 7.29541H18.1016V23.0781H13.1797V7.29541Z" fill="#61D7A8"/>
<path d="M15.6406 7.29541H18.1016V23.0781H15.6406V7.29541Z" fill="#00AB94"/>
</svg>
