<svg width="27" height="28" viewBox="0 0 27 28" fill="none" xmlns="http://www.w3.org/2000/svg">
<path d="M17.9953 3.48768C18.0347 3.07375 17.7351 2.70568 17.3261 2.66584L13.4148 2.28458C13.2912 3.5849 12.1495 4.5377 10.8649 4.41232C9.58026 4.28712 8.63926 3.13139 8.76293 1.83107L4.85163 1.44981C4.44275 1.40996 4.07917 1.71322 4.03981 2.12724L3.59953 6.75478C4.09736 6.35076 4.75717 6.15022 5.44839 6.26665C6.60271 6.46126 7.45161 7.52863 7.39432 8.7119C7.32855 10.0702 6.15814 11.0828 4.83624 10.954C4.20538 10.8924 3.65839 10.5816 3.27872 10.128L2.83844 14.7556C2.79908 15.1695 3.09863 15.5376 3.50761 15.5774L7.4189 15.9587C7.54257 14.6584 8.68421 13.7056 9.96885 13.8309C11.2535 13.9561 12.1945 15.1119 12.0708 16.4122L15.9821 16.7935C16.391 16.8333 16.7546 16.53 16.7939 16.116L17.9953 3.48768Z" fill="#66757C"/>
<path d="M17.3263 2.66593L13.415 2.28467C13.2913 3.58499 12.1497 4.53779 10.865 4.41241C10.8329 4.40922 10.802 4.40267 10.7702 4.39825L9.86279 13.8257C9.89822 13.8276 9.93337 13.8271 9.96897 13.8306C11.2536 13.9558 12.1946 15.1115 12.0709 16.4118L15.9822 16.7931C16.3911 16.8329 16.7547 16.5297 16.7941 16.1157L17.9954 3.48733C18.0347 3.07357 17.7351 2.70577 17.3263 2.66593Z" fill="#223942"/>
<path d="M26.9269 9.48815V5.51015C26.9269 5.09418 26.5938 4.75701 26.1829 4.75701H22.7273C22.2299 4.75701 21.8744 4.27225 22.0152 3.78916C22.1678 3.26544 22.2535 2.76527 22.2535 2.39145C22.2535 1.08501 21.2073 0.0258789 19.9168 0.0258789C18.6263 0.0258789 17.5801 1.08484 17.5801 2.39145C17.5801 2.76527 17.6659 3.26544 17.8184 3.78916C17.9592 4.27225 17.6037 4.75701 17.1063 4.75701H13.6507C13.2398 4.75701 12.9067 5.09418 12.9067 5.51015V9.48815C14.1972 9.48815 15.2435 10.5471 15.2435 11.8537C15.2435 13.1601 14.1972 14.2193 12.9067 14.2193V18.1973C12.9067 18.6133 13.2398 18.9504 13.6507 18.9504H18.2431C17.7981 18.4874 17.5376 17.8418 17.5859 17.1342C17.6666 15.9523 18.6349 14.9946 19.8039 14.939C21.1458 14.875 22.2535 15.9574 22.2535 17.3018C22.2535 17.9433 22.0002 18.5244 21.5907 18.9504H26.1831C26.594 18.9504 26.9271 18.6133 26.9271 18.1973V14.2193C25.6366 14.2193 24.5903 13.1601 24.5903 11.8537C24.5902 10.5472 25.6364 9.48815 26.9269 9.48815Z" fill="#FFC61B"/>
<path d="M26.9268 9.48789V5.50989C26.9268 5.09392 26.5938 4.75675 26.1829 4.75675H22.7273C22.2299 4.75675 21.8744 4.27199 22.0152 3.7889C22.1678 3.26518 22.2535 2.76501 22.2535 2.39118C22.2535 1.09299 21.2202 0.0401367 19.9409 0.0268555V14.939C21.22 14.9525 22.2535 16.003 22.2535 17.3012C22.2535 17.9427 22.0002 18.5238 21.5907 18.9498H26.1831C26.594 18.9498 26.927 18.6126 26.927 18.1967V14.2187C25.6365 14.2187 24.5903 13.1595 24.5903 11.8531C24.5901 10.5469 25.6363 9.48789 26.9268 9.48789Z" fill="#EAA22F"/>
<path d="M11.7847 9.04023C11.5471 8.70094 11.0827 8.6209 10.7477 8.86147L7.54232 11.1625C8.28881 12.2282 8.0405 13.7047 6.98772 14.4604C5.93495 15.2161 4.47652 14.9649 3.73003 13.8991L0.52464 16.2002C0.189486 16.4407 0.110421 16.9109 0.348055 17.25L3.00445 21.0422C3.12007 20.4069 3.48969 19.8184 4.08775 19.449C5.08683 18.8321 6.41843 19.0777 7.13965 20.0105C7.96738 21.0816 7.73596 22.6226 6.65283 23.4002C6.13585 23.7713 5.52125 23.8982 4.94094 23.8065L7.59733 27.5987C7.83497 27.938 8.29939 28.0181 8.63437 27.7775L11.8397 25.4765C11.0932 24.4108 11.3415 22.9343 12.3943 22.1786C13.447 21.4229 14.9055 21.6741 15.652 22.7398L18.8573 20.4388C19.1924 20.1983 19.2715 19.7281 19.0339 19.389L11.7847 9.04023Z" fill="#FF5419"/>
<path d="M19.0337 19.3888L15.2361 13.9673L7.0519 19.9075C7.08146 19.9414 7.11172 19.9745 7.13962 20.0103C7.96736 21.0814 7.73594 22.6224 6.65281 23.4C6.13582 23.7711 5.52123 23.898 4.94092 23.8063L7.59731 27.5985C7.83494 27.9378 8.29937 28.0179 8.63435 27.7773L11.8397 25.4763C11.0933 24.4106 11.3416 22.9341 12.3943 22.1784C13.4471 21.4227 14.9055 21.6739 15.652 22.7396L18.8573 20.4386C19.1923 20.1981 19.2713 19.7281 19.0337 19.3888Z" fill="#C92F00"/>
</svg>
