<svg width="28" height="26" viewBox="0 0 28 26" fill="none" xmlns="http://www.w3.org/2000/svg">
<path d="M1.20623 20.0682H26.7937C27.4249 20.0682 27.9365 19.5764 27.9365 18.9696V4.44381C27.9365 3.83702 27.4249 3.34521 26.7937 3.34521H1.20643C0.575188 3.34521 0.0635681 3.83702 0.0635681 4.44381V18.9696C0.0633793 19.5764 0.575188 20.0682 1.20623 20.0682Z" fill="#223942"/>
<path d="M1.20623 19.3357H26.7937C27.4249 19.3357 27.9365 18.8439 27.9365 18.2371V3.71138C27.9365 3.1046 27.4249 2.61279 26.7937 2.61279H1.20643C0.575188 2.61279 0.0635681 3.1046 0.0635681 3.71138V18.2371C0.0633793 18.8439 0.575188 19.3357 1.20623 19.3357Z" fill="#66757C"/>
<path d="M1.53972 16.3223H26.4921C26.7026 16.3223 26.873 16.1584 26.873 15.9561V3.87157C26.873 3.66924 26.7026 3.50537 26.4921 3.50537H1.53972C1.32943 3.50537 1.15876 3.66924 1.15876 3.87157V15.9561C1.15876 16.1582 1.32943 16.3223 1.53972 16.3223Z" fill="#9FA9AD"/>
<path d="M9.97629 24.1575H18.0239L17.8569 23.8818C17.1533 22.7198 16.7531 21.4114 16.6906 20.0684H11.3096C11.2472 21.4114 10.8468 22.7198 10.1433 23.8818L9.97629 24.1575Z" fill="#9FA9AD"/>
<path d="M9.03211 25.9578H18.9677C19.4849 25.9578 19.9043 25.5548 19.9043 25.0575C19.9043 24.5604 19.4851 24.1572 18.9677 24.1572H9.03211C8.51496 24.1572 8.09553 24.5602 8.09553 25.0575C8.09572 25.5548 8.51496 25.9578 9.03211 25.9578Z" fill="#E6E7E8"/>
<path d="M9.03211 25.0575H18.9677C19.3144 25.0575 19.6171 24.8764 19.779 24.6074C19.8586 24.7398 19.9043 24.8936 19.9043 25.0575C19.9043 25.5546 19.4851 25.9578 18.9677 25.9578H9.03211C8.51496 25.9578 8.09553 25.5548 8.09553 25.0575C8.09553 24.8934 8.14125 24.7398 8.22087 24.6074C8.38296 24.8764 8.68544 25.0575 9.03211 25.0575Z" fill="#223942"/>
<path d="M17.8569 23.8817L18.0239 24.1575H9.97629L10.1433 23.8817C10.4997 23.2932 10.7776 22.6668 10.9738 22.0176H17.0266C17.2228 22.6668 17.5005 23.2932 17.8569 23.8817Z" fill="white"/>
<path d="M6.01558 16.3453H21.9521V5.70652C21.9521 5.30205 21.611 4.97412 21.1902 4.97412H6.77748C6.35672 4.97412 6.01558 5.30205 6.01558 5.70652V16.3453Z" fill="#FEDE3A"/>
<path d="M6.77748 4.97412H21.1902C21.611 4.97412 21.9521 5.30205 21.9521 5.70652V6.33967H6.01558V5.70652C6.01558 5.30187 6.35672 4.97412 6.77748 4.97412Z" fill="#FEDE3A"/>
<path d="M20.5669 5.95799C20.4137 5.95799 20.2896 5.83863 20.2896 5.6914C20.2896 5.54416 20.4137 5.4248 20.5669 5.4248C20.7201 5.4248 20.8442 5.54416 20.8442 5.6914C20.8442 5.83863 20.7201 5.95799 20.5669 5.95799Z" fill="white"/>
<path d="M19.2979 5.6914C19.2979 5.83861 19.4221 5.95799 19.5752 5.95799C19.7283 5.95799 19.8525 5.83861 19.8525 5.6914C19.8525 5.54419 19.7283 5.4248 19.5752 5.4248C19.4221 5.42462 19.2979 5.544 19.2979 5.6914Z" fill="white"/>
<path d="M18.583 5.95799C18.4299 5.95799 18.3057 5.83863 18.3057 5.6914C18.3057 5.54416 18.4299 5.4248 18.583 5.4248C18.7362 5.4248 18.8604 5.54416 18.8604 5.6914C18.8604 5.83863 18.7362 5.95799 18.583 5.95799Z" fill="white"/>
<path d="M21.9521 6.28613H6.01558V10.8788H21.9521V6.28613Z" fill="white"/>
<path d="M21.9521 6.28613H6.01558V7.0795H21.9521V6.28613Z" fill="#F7CB15"/>
<path d="M16.8268 12.5553H20.4464C20.6664 12.5553 20.8447 12.3839 20.8447 12.1724C20.8447 11.9609 20.6664 11.7896 20.4464 11.7896H16.8268C16.6068 11.7896 16.4285 11.9609 16.4285 12.1724C16.4285 12.3837 16.6068 12.5553 16.8268 12.5553Z" fill="white"/>
<path d="M16.8268 14.4991H20.4464C20.6664 14.4991 20.8447 14.3277 20.8447 14.1163C20.8447 13.9048 20.6664 13.7334 20.4464 13.7334H16.8268C16.6068 13.7334 16.4285 13.9048 16.4285 14.1163C16.4285 14.3277 16.6068 14.4991 16.8268 14.4991Z" fill="white"/>
<path d="M13.7158 15.9019H20.4464C20.6664 15.9019 20.8447 15.7306 20.8447 15.5191C20.8447 15.3076 20.6664 15.1362 20.4464 15.1362H13.7158C13.4958 15.1362 13.3175 15.3076 13.3175 15.5191C13.3175 15.7306 13.4958 15.9019 13.7158 15.9019Z" fill="white"/>
<path d="M10.8652 16.3452H6.87323V12.1548C6.87323 11.9526 7.04371 11.7886 7.25418 11.7886H10.4843C10.6948 11.7886 10.8652 11.9526 10.8652 12.1548V16.3452Z" fill="white"/>
<path d="M5.7778 11.3406H22.2224C22.8527 11.3406 23.3652 10.8479 23.3652 10.242V5.35933C23.3652 4.75346 22.8527 4.26074 22.2224 4.26074H5.7778C5.14752 4.26074 4.63494 4.75346 4.63494 5.35933V10.242C4.63494 10.8477 5.14752 11.3406 5.7778 11.3406ZM22.2224 4.99314C22.4325 4.99314 22.6033 5.15738 22.6033 5.35933V10.242C22.6033 10.444 22.4325 10.6082 22.2224 10.6082H5.7778C5.5679 10.6082 5.39685 10.444 5.39685 10.242V5.35933C5.39685 5.15738 5.5679 4.99314 5.7778 4.99314H22.2224Z" fill="#EF5A9D"/>
<path d="M5.77791 4.62695H22.2225C22.6432 4.62695 22.9844 4.95488 22.9844 5.35935V10.242C22.9844 10.6465 22.6432 10.9744 22.2225 10.9744H5.7781C5.35734 10.9744 5.0162 10.6465 5.0162 10.242V5.35935C5.01601 4.95488 5.35715 4.62695 5.77791 4.62695ZM5.39696 10.242C5.39696 10.444 5.568 10.6082 5.77791 10.6082H22.2225C22.4326 10.6082 22.6034 10.444 22.6034 10.242V5.35935C22.6034 5.15739 22.4326 4.99315 22.2225 4.99315H5.77791C5.568 4.99315 5.39696 5.15739 5.39696 5.35935V10.242Z" fill="#E43D91"/>
<path d="M9.04338 8.71645H18.987C19.3329 8.71645 19.6133 8.44693 19.6133 8.11424V1.69187C19.6133 1.35936 19.3329 1.08984 18.987 1.08984H9.04338C8.69747 1.08984 8.41709 1.35936 8.41709 1.69187V8.11442C8.4169 8.44693 8.69747 8.71645 9.04338 8.71645Z" fill="#D1D3D4"/>
<path d="M9.04338 7.98403H18.987C19.3329 7.98403 19.6133 7.71451 19.6133 7.38182V0.95945C19.6133 0.626943 19.3329 0.357422 18.987 0.357422H9.04338C8.69747 0.357422 8.41709 0.626943 8.41709 0.95945V7.382C8.4169 7.71451 8.69747 7.98403 9.04338 7.98403Z" fill="#136DA0"/>
<path d="M9.04338 7.65725H18.987C19.3329 7.65725 19.6133 7.38772 19.6133 7.05522V0.632485C19.6133 0.299978 19.3329 0.0302734 18.987 0.0302734H9.04338C8.69747 0.0302734 8.41709 0.299795 8.41709 0.632485V7.05503C8.4169 7.38754 8.69747 7.65725 9.04338 7.65725Z" fill="#9FA9AD"/>
<path d="M9.04338 0.0302734H18.987C19.3329 0.0302734 19.6133 0.299795 19.6133 0.632302V1.71112H8.4169V0.632302C8.4169 0.299795 8.69747 0.0302734 9.04338 0.0302734Z" fill="#FEDE3A"/>
<path d="M18.5887 0.996563C18.4473 0.996563 18.3327 0.886387 18.3327 0.750479C18.3327 0.61457 18.4473 0.504395 18.5887 0.504395C18.7301 0.504395 18.8447 0.61457 18.8447 0.750479C18.8447 0.886387 18.7301 0.996563 18.5887 0.996563Z" fill="white"/>
<path d="M19.6133 1.36523H8.4169V1.71147H19.6133V1.36523Z" fill="#E7AD27"/>
<path d="M16.0792 6.54266C16.1823 6.54266 16.2853 6.50494 16.3638 6.42932L18.0811 4.77851C18.1567 4.706 18.1992 4.60749 18.1992 4.50477C18.1992 4.40206 18.1567 4.30373 18.0813 4.23104L16.364 2.58023C16.2066 2.42899 15.9518 2.42899 15.7945 2.58023C15.6373 2.73147 15.6373 2.97645 15.7945 3.12769L17.227 4.50477L15.7945 5.88186C15.6371 6.0331 15.6371 6.27808 15.7943 6.42932C15.8731 6.50476 15.9762 6.54266 16.0792 6.54266Z" fill="white"/>
<path d="M17.2274 4.50479L15.7948 3.12771C15.6376 2.97647 15.6376 2.73148 15.7948 2.58024C15.9422 2.43852 16.1754 2.42955 16.3335 2.55351C16.3228 2.56175 16.3127 2.57072 16.3028 2.58024C16.1456 2.73148 16.1456 2.97647 16.3028 3.12771L17.7354 4.50479L16.3028 5.88187C16.1455 6.03311 16.1455 6.2781 16.3026 6.42934C16.3125 6.43886 16.3228 6.44765 16.3333 6.45607C16.2595 6.51393 16.1695 6.54286 16.0794 6.54286C15.9763 6.54286 15.8733 6.50514 15.7946 6.42952C15.6375 6.27828 15.6375 6.0333 15.7948 5.88206L17.2274 4.50479Z" fill="#D1D3D4"/>
<path d="M11.9304 6.54266C12.0335 6.54266 12.1365 6.50494 12.2152 6.42932C12.3723 6.27808 12.3723 6.0331 12.215 5.88186L10.7824 4.50477L12.215 3.12769C12.3721 2.97645 12.3721 2.73147 12.215 2.58023C12.0577 2.42899 11.8028 2.42899 11.6455 2.58023L9.92813 4.23104C9.8527 4.30373 9.81022 4.40206 9.81022 4.50477C9.81022 4.60749 9.8527 4.70582 9.92813 4.77851L11.6455 6.42932C11.7243 6.50476 11.8274 6.54266 11.9304 6.54266Z" fill="white"/>
<path d="M11.7077 6.42886C11.8648 6.27762 11.8648 6.03263 11.7075 5.88139L10.2749 4.5043L11.7075 3.12722C11.8646 2.97598 11.8646 2.73099 11.7075 2.57975C11.6976 2.57023 11.6873 2.56126 11.6766 2.55302C11.8349 2.42906 12.0679 2.43804 12.2155 2.57975C12.3726 2.73099 12.3726 2.97598 12.2155 3.12722L10.7829 4.5043L12.2155 5.88139C12.3728 6.03263 12.3728 6.27762 12.2155 6.42886C12.1368 6.50448 12.0338 6.5422 11.9307 6.5422C11.8406 6.5422 11.7505 6.51327 11.6768 6.45541C11.6875 6.44735 11.6978 6.43838 11.7077 6.42886Z" fill="#D1D3D4"/>
<path d="M14.8778 6.54274C14.9392 6.54274 15.0014 6.52919 15.0599 6.50062C15.2582 6.40376 15.3372 6.17086 15.2365 5.98026L13.4915 2.67862C13.3908 2.48801 13.1483 2.41203 12.95 2.50889C12.7517 2.60575 12.6727 2.83865 12.7734 3.02925L14.5184 6.33089C14.5894 6.46528 14.731 6.54274 14.8778 6.54274Z" fill="white"/>
</svg>
