<svg width="28" height="28" viewBox="0 0 28 28" fill="none" xmlns="http://www.w3.org/2000/svg">
<path d="M14 28C21.3998 28 27.3984 22.0013 27.3984 14.6016C27.3984 7.20181 21.3998 1.20312 14 1.20312C6.60025 1.20312 0.601562 7.20181 0.601562 14.6016C0.601562 22.0013 6.60025 28 14 28Z" fill="#223942"/>
<path d="M15.7461 22.0154C15.7461 21.8947 15.8442 21.7966 15.9649 21.7966H16.2038C16.2259 21.7966 16.2459 21.7833 16.2543 21.7629C16.2628 21.7424 16.2581 21.7189 16.2424 21.7033L13.6441 19.105C13.5002 18.961 13.4209 18.7688 13.4209 18.5636C13.4209 18.3585 13.5002 18.1662 13.6441 18.0223L13.7527 17.9137C13.8966 17.7698 14.0889 17.6905 14.294 17.6905C14.4992 17.6905 14.6914 17.7698 14.8354 17.9137L15.5165 18.5948C15.5269 18.6052 15.5409 18.6108 15.5551 18.6108C15.5622 18.6108 15.5693 18.6095 15.5761 18.6067C15.5965 18.5982 15.6098 18.5782 15.6098 18.5561V13.0016C15.6098 12.5794 15.9532 12.2359 16.3754 12.2359H16.3982C16.629 12.2359 16.8357 12.339 16.9762 12.501V0.546875C16.9762 0.246094 16.7301 0 16.4293 0H4.85059C4.5498 0 4.30371 0.246094 4.30371 0.546875V21.8451C4.30371 22.1459 4.5498 22.392 4.85059 22.392H15.7461V22.0154H15.7461Z" fill="#2E4C89"/>
<path d="M13.4209 18.5637C13.4209 18.3585 13.5002 18.1663 13.6441 18.0223L13.7527 17.9138C13.8966 17.7698 14.0889 17.6905 14.2941 17.6905C14.4992 17.6905 14.6915 17.7698 14.8354 17.9138L15.5165 18.5948C15.5269 18.6053 15.5409 18.6109 15.5551 18.6109C15.5622 18.6109 15.5693 18.6096 15.5761 18.6067C15.5965 18.5983 15.6098 18.5783 15.6098 18.5562V13.0016C15.6098 12.6373 15.8659 12.3321 16.2073 12.2553V2.35988C16.2073 2.20117 16.0774 2.07129 15.9187 2.07129H5.36129C5.20258 2.07129 5.07275 2.20117 5.07275 2.35988V18.5969C5.07275 18.7556 5.20258 18.8853 5.36129 18.8853H13.4918C13.4459 18.786 13.4209 18.677 13.4209 18.5637Z" fill="#C3DDF4"/>
<path d="M6.15786 18.5969V2.35988C6.15786 2.20117 6.28769 2.07129 6.44639 2.07129H5.36129C5.20258 2.07129 5.07275 2.20117 5.07275 2.35988V18.5969C5.07275 18.7556 5.20258 18.8853 5.36129 18.8853H6.44639C6.28769 18.8854 6.15786 18.7556 6.15786 18.5969Z" fill="#AEC1ED"/>
<path d="M10.6401 21.4696C11.2007 21.4696 11.6551 21.0151 11.6551 20.4545C11.6551 19.8939 11.2007 19.4395 10.6401 19.4395C10.0795 19.4395 9.625 19.8939 9.625 20.4545C9.625 21.0151 10.0795 21.4696 10.6401 21.4696Z" fill="#1A2B63"/>
<path d="M12.8448 1.44092H9.70752C9.481 1.44092 9.29736 1.25733 9.29736 1.03076C9.29736 0.804191 9.481 0.620605 9.70752 0.620605H12.8448C13.0713 0.620605 13.255 0.804191 13.255 1.03076C13.255 1.25733 13.0713 1.44092 12.8448 1.44092Z" fill="#1A2B63"/>
<path d="M8.43546 1.49202C8.69026 1.49202 8.89681 1.28547 8.89681 1.03068C8.89681 0.775887 8.69026 0.569336 8.43546 0.569336C8.18067 0.569336 7.97412 0.775887 7.97412 1.03068C7.97412 1.28547 8.18067 1.49202 8.43546 1.49202Z" fill="#1A2B63"/>
<path d="M15.9187 2.07129H5.36129C5.20258 2.07129 5.07275 2.20117 5.07275 2.35988V3.64066H16.2073V2.35988C16.2073 2.20117 16.0774 2.07129 15.9187 2.07129Z" fill="#FF9518"/>
<path d="M6.44639 2.07129H5.36129C5.20258 2.07129 5.07275 2.20117 5.07275 2.35988V3.64066H6.15786V2.35988C6.15786 2.20117 6.28769 2.07129 6.44639 2.07129Z" fill="#EF8318"/>
<path d="M15.3539 12.2058C15.3539 12.5066 15.1078 12.7527 14.807 12.7527H6.47266C6.17188 12.7527 5.92578 12.5066 5.92578 12.2058V9.54834C5.92578 9.24756 6.17188 9.00146 6.47266 9.00146H14.807C15.1078 9.00146 15.3539 9.24756 15.3539 9.54834V12.2058Z" fill="#445EA0"/>
<path d="M13.4209 18.5635C13.4209 18.3583 13.5002 18.166 13.6441 18.0221L13.7527 17.9135C13.8966 17.7696 14.0889 17.6903 14.2941 17.6903C14.4992 17.6903 14.6915 17.7696 14.8354 17.9135L15.5165 18.5946C15.5269 18.6051 15.5409 18.6106 15.5551 18.6106C15.5622 18.6106 15.5693 18.6093 15.5761 18.6065C15.5965 18.5981 15.6098 18.5781 15.6098 18.556V13.5952H5.07275V18.5967C5.07275 18.7554 5.20258 18.8852 5.36129 18.8852H13.4918C13.4459 18.7858 13.4209 18.6768 13.4209 18.5635Z" fill="#EEF6FF"/>
<path d="M6.15786 18.5967V13.5952H5.07275V18.5967C5.07275 18.7554 5.20258 18.8852 5.36129 18.8852H6.44639C6.28769 18.8852 6.15786 18.7554 6.15786 18.5967Z" fill="#D9EAFC"/>
<path d="M11.5086 15.1377H7.14648C6.91997 15.1377 6.73633 14.9541 6.73633 14.7275C6.73633 14.501 6.91997 14.3174 7.14648 14.3174H11.5086C11.7351 14.3174 11.9188 14.501 11.9188 14.7275C11.9187 14.9541 11.7351 15.1377 11.5086 15.1377Z" fill="#5DC1D8"/>
<path d="M11.5086 16.4976H7.14648C6.91997 16.4976 6.73633 16.3139 6.73633 16.0874C6.73633 15.8608 6.91997 15.6772 7.14648 15.6772H11.5086C11.7351 15.6772 11.9188 15.8608 11.9188 16.0874C11.9187 16.3139 11.7351 16.4976 11.5086 16.4976Z" fill="#5DC1D8"/>
<path d="M9.33623 17.8574H7.14648C6.91997 17.8574 6.73633 17.6738 6.73633 17.4473C6.73633 17.2207 6.91997 17.0371 7.14648 17.0371H9.33623C9.56275 17.0371 9.74639 17.2207 9.74639 17.4473C9.74639 17.6738 9.56275 17.8574 9.33623 17.8574Z" fill="#5DC1D8"/>
<path d="M13.6091 17.4757C13.5253 17.4757 13.4408 17.4501 13.3679 17.397C13.1848 17.2637 13.1445 17.0071 13.2779 16.824L13.8147 16.0874L13.278 15.351C13.1446 15.1679 13.1849 14.9113 13.368 14.7779C13.5511 14.6445 13.8076 14.6848 13.941 14.8679L14.6537 15.8459C14.7586 15.9899 14.7586 16.1851 14.6537 16.329L13.9409 17.3071C13.8607 17.4172 13.7357 17.4757 13.6091 17.4757Z" fill="#FF9518"/>
<path d="M16.2461 24.0366V27.8118C18.2498 27.4735 20.1023 26.6909 21.6986 25.5682V24.0366H16.2461Z" fill="#EF8318"/>
<path d="M16.2461 24.0366V27.8118C16.6132 27.7498 16.975 27.6726 17.3313 27.5815V24.0366H16.2461Z" fill="#DB722C"/>
<path d="M21.7935 21.7965V16.1129C21.7935 15.6617 21.4244 15.2925 20.9732 15.2925H20.9505C20.6158 15.2925 20.3266 15.4959 20.1994 15.785C20.0722 15.4959 19.7831 15.2925 19.4484 15.2925H19.4256C19.0909 15.2925 18.8018 15.4959 18.6746 15.785C18.5474 15.4959 18.2582 15.2925 17.9236 15.2925H17.9008C17.6174 15.2925 17.3665 15.4383 17.219 15.6584V13.0015C17.219 12.5503 16.8499 12.1812 16.3987 12.1812H16.376C15.9248 12.1812 15.5556 12.5503 15.5556 13.0015V18.556L14.8746 17.8749C14.5556 17.5559 14.0335 17.5559 13.7145 17.8749L13.606 17.9835C13.2869 18.3024 13.2869 18.8245 13.606 19.1435L16.259 21.7965H21.7935Z" fill="#FFE2B8"/>
<path d="M17.3437 21.7966L14.6907 19.1437C14.3716 18.8247 14.3716 18.3026 14.6907 17.9836L14.7992 17.875C14.8112 17.863 14.824 17.8523 14.8366 17.8412C14.5154 17.5573 14.021 17.5681 13.714 17.875L13.6055 17.9836C13.2864 18.3026 13.2864 18.8247 13.6055 19.1437L16.2585 21.7966H17.3437Z" fill="#FFC987"/>
<path d="M22.2529 23.8178C22.2529 23.9682 22.1299 24.0912 21.9795 24.0912H15.9648C15.8145 24.0912 15.6914 23.9682 15.6914 23.8178V22.0156C15.6914 21.8652 15.8145 21.7422 15.9648 21.7422H21.9795C22.1299 21.7422 22.2529 21.8652 22.2529 22.0156V23.8178Z" fill="#FF9518"/>
<path d="M16.7766 23.8178V22.0156C16.7766 21.8652 16.8996 21.7422 17.05 21.7422H15.9648C15.8145 21.7422 15.6914 21.8652 15.6914 22.0156V23.8178C15.6914 23.9682 15.8145 24.0912 15.9648 24.0912H17.05C16.8996 24.0912 16.7766 23.9682 16.7766 23.8178Z" fill="#EF8318"/>
<path d="M21.0517 23.4252C21.3324 23.4252 21.56 23.1977 21.56 22.917C21.56 22.6362 21.3324 22.4087 21.0517 22.4087C20.771 22.4087 20.5435 22.6362 20.5435 22.917C20.5435 23.1977 20.771 23.4252 21.0517 23.4252Z" fill="#DB722C"/>
<path d="M26.1792 13.1272C26.1792 13.2776 26.0562 13.4007 25.9058 13.4007H18.0425C17.8921 13.4007 17.769 13.2776 17.769 13.1272V7.4541C17.769 7.30371 17.8921 7.18066 18.0425 7.18066H25.9058C26.0562 7.18066 26.1792 7.30371 26.1792 7.4541V13.1272Z" fill="#FE3745"/>
<path d="M20.6006 9.03928C20.6006 8.7385 20.8137 8.61546 21.0742 8.76585L23.2417 10.0173C23.5022 10.1676 23.5022 10.4137 23.2417 10.5641L21.0742 11.8156C20.8137 11.966 20.6006 11.8429 20.6006 11.5422V9.03928Z" fill="white"/>
<path d="M25.5211 4.27667C24.8428 4.27667 24.2909 3.72476 24.2909 3.04642C24.2909 2.93382 24.3063 2.82482 24.3348 2.72119H18.0425C17.8921 2.72119 17.769 2.84424 17.769 2.99463V6.23842C17.769 6.38881 17.8921 6.51186 18.0425 6.51186H25.9058C26.0562 6.51186 26.1792 6.38881 26.1792 6.23842V4.08504C25.9887 4.20618 25.7631 4.27667 25.5211 4.27667Z" fill="#FFAF10"/>
<path d="M18.8542 13.1272V7.4541C18.8542 7.30371 18.9773 7.18066 19.1276 7.18066H18.0425C17.8921 7.18066 17.769 7.30371 17.769 7.4541V13.1272C17.769 13.2776 17.8921 13.4007 18.0425 13.4007H19.1276C18.9773 13.4007 18.8542 13.2776 18.8542 13.1272Z" fill="#B7092B"/>
<path d="M18.8542 6.23842V2.99463C18.8542 2.84424 18.9773 2.72119 19.1276 2.72119H18.0425C17.8921 2.72119 17.769 2.84424 17.769 2.99463V6.23842C17.769 6.38881 17.8921 6.51186 18.0425 6.51186H19.1276C18.9773 6.51186 18.8542 6.38881 18.8542 6.23842Z" fill="#EF9614"/>
<path d="M25.5213 4.33111C26.2309 4.33111 26.8062 3.75582 26.8062 3.04617C26.8062 2.33652 26.2309 1.76123 25.5213 1.76123C24.8116 1.76123 24.2363 2.33652 24.2363 3.04617C24.2363 3.75582 24.8116 4.33111 25.5213 4.33111Z" fill="#B7092B"/>
<path d="M25.56 3.74773C25.4089 3.74773 25.2865 3.62534 25.2865 3.4743V2.87963C25.1739 2.84583 25.0918 2.74132 25.0918 2.61768C25.0918 2.46663 25.2142 2.34424 25.3652 2.34424H25.56C25.711 2.34424 25.8334 2.46663 25.8334 2.61768V3.4743C25.8334 3.62534 25.711 3.74773 25.56 3.74773Z" fill="#EEF6FF"/>
<path d="M23.0082 4.38721H19.0928C18.8662 4.38721 18.6826 4.20357 18.6826 3.97705C18.6826 3.75048 18.8662 3.56689 19.0928 3.56689H23.0082C23.2347 3.56689 23.4183 3.75048 23.4183 3.97705C23.4183 4.20357 23.2347 4.38721 23.0082 4.38721Z" fill="#DB722C"/>
<path d="M24.1919 5.65576H19.0928C18.8662 5.65576 18.6826 5.47218 18.6826 5.24561C18.6826 5.01904 18.8662 4.83545 19.0928 4.83545H24.1919C24.4185 4.83545 24.602 5.01904 24.602 5.24561C24.602 5.47218 24.4185 5.65576 24.1919 5.65576Z" fill="#DB722C"/>
<path d="M10.6401 8.38521C11.7676 8.38521 12.6816 7.47121 12.6816 6.34373C12.6816 5.21625 11.7676 4.30225 10.6401 4.30225C9.51264 4.30225 8.59863 5.21625 8.59863 6.34373C8.59863 7.47121 9.51264 8.38521 10.6401 8.38521Z" fill="#EF8318"/>
<path d="M10.6401 7.98438C11.5462 7.98438 12.2808 7.24984 12.2808 6.34375C12.2808 5.43766 11.5462 4.70312 10.6401 4.70312C9.73404 4.70312 8.99951 5.43766 8.99951 6.34375C8.99951 7.24984 9.73404 7.98438 10.6401 7.98438Z" fill="#FF9518"/>
<path d="M11.283 6.80988H10.9186V6.72216C11.2293 6.60847 11.4514 6.31102 11.4514 5.96108C11.4514 5.51314 11.0882 5.1499 10.6402 5.1499C10.1922 5.1499 9.82905 5.51314 9.82905 5.96108C9.82905 6.31108 10.0512 6.60847 10.3618 6.72216V6.80988H9.99743C9.85191 6.80988 9.73291 6.92899 9.73291 7.07451V7.71069C9.99284 7.88356 10.3047 7.98451 10.6402 7.98451C10.9758 7.98451 11.2877 7.88356 11.5476 7.71069V7.07441C11.5476 6.92894 11.4285 6.80988 11.283 6.80988Z" fill="white"/>
<path d="M8.80469 11.6694C8.80469 11.8198 8.68164 11.9429 8.53125 11.9429H6.94531C6.79492 11.9429 6.67188 11.8198 6.67188 11.6694V10.0835C6.67188 9.93311 6.79492 9.81006 6.94531 9.81006H8.53125C8.68164 9.81006 8.80469 9.93311 8.80469 10.0835V11.6694Z" fill="#FF9518"/>
<path d="M7.35596 11.6694V10.0835C7.35596 9.93311 7.47901 9.81006 7.6294 9.81006H6.94531C6.79492 9.81006 6.67188 9.93311 6.67188 10.0835V11.6694C6.67188 11.8198 6.79492 11.9429 6.94531 11.9429H7.6294C7.47901 11.9429 7.35596 11.8198 7.35596 11.6694Z" fill="#EF8318"/>
<path d="M12.4507 10.8765C12.4507 10.7221 12.5033 10.5801 12.591 10.4663H9.66162C9.43511 10.4663 9.25146 10.6499 9.25146 10.8765C9.25146 11.103 9.43511 11.2866 9.66162 11.2866H12.591C12.5034 11.1728 12.4507 11.0308 12.4507 10.8765Z" fill="#1A2B63"/>
<path d="M14.3281 10.4663H13.6592C13.7468 10.5801 13.7995 10.7221 13.7995 10.8765C13.7995 11.0308 13.7468 11.1728 13.6592 11.2866H14.3281C14.5547 11.2866 14.7383 11.103 14.7383 10.8765C14.7383 10.6499 14.5547 10.4663 14.3281 10.4663Z" fill="#1A2B63"/>
<path d="M13.1251 11.6058C13.5278 11.6058 13.8543 11.2793 13.8543 10.8766C13.8543 10.4739 13.5278 10.1475 13.1251 10.1475C12.7224 10.1475 12.396 10.4739 12.396 10.8766C12.396 11.2793 12.7224 11.6058 13.1251 11.6058Z" fill="#FF9518"/>
</svg>
