<svg width="28" height="28" viewBox="0 0 28 28" fill="none" xmlns="http://www.w3.org/2000/svg">
<path d="M8.77813 12.0049C8.6125 11.8834 8.41244 11.8179 8.20702 11.8179C8.00161 11.8179 7.80154 11.8834 7.63592 12.0049L1.93115 16.4183V26.0691H14.4829V16.4183L8.77813 12.0049Z" fill="#66757C"/>
<path d="M8.77813 12.0049C8.6125 11.8834 8.41244 11.8179 8.20702 11.8179C8.00161 11.8179 7.80154 11.8834 7.63592 12.0049L1.93115 16.4183V17.3838L7.63592 12.9704C7.80154 12.8489 8.00161 12.7834 8.20702 12.7834C8.41244 12.7834 8.6125 12.8489 8.77813 12.9704L14.4829 17.3838V16.4183L8.77813 12.0049Z" fill="#2488FF"/>
<path d="M14.4829 15.4482H26.0691V26.0689H14.4829V15.4482Z" fill="#223942"/>
<path d="M25.1035 15.4482H26.069V26.0689H25.1035V15.4482Z" fill="#9BC9FF"/>
<path d="M26.069 15.4483L20.7586 11.1035H10.1177L15.7713 15.4483H26.069Z" fill="#FFC477"/>
<path d="M27.0345 26.0688H0.965517C0.709446 26.0688 0.463863 26.1706 0.282793 26.3516C0.101724 26.5327 0 26.7783 0 27.0344C0 27.2904 0.101724 27.536 0.282793 27.7171C0.463863 27.8982 0.709446 27.9999 0.965517 27.9999H27.0345C27.2906 27.9999 27.5361 27.8982 27.7172 27.7171C27.8983 27.536 28 27.2904 28 27.0344C28 26.7783 27.8983 26.5327 27.7172 26.3516C27.5361 26.1706 27.2906 26.0688 27.0345 26.0688Z" fill="#9FA9AD"/>
<path d="M1.23683 16.955L7.63579 12.0048C7.80142 11.8833 8.00148 11.8178 8.2069 11.8178C8.41231 11.8178 8.61237 11.8833 8.778 12.0048L15.177 16.955C15.2928 17.0399 15.4299 17.0911 15.573 17.1028C15.7161 17.1145 15.8597 17.0864 15.9878 17.0215C16.1159 16.9566 16.2236 16.8575 16.2987 16.7351C16.3739 16.6128 16.4138 16.472 16.4138 16.3284V16.325C16.414 16.2027 16.3853 16.0822 16.3301 15.9731C16.2749 15.8641 16.1948 15.7696 16.0961 15.6974L15.7712 15.4483L10.1177 11.1035L8.778 10.0737C8.61237 9.95223 8.41231 9.88672 8.2069 9.88672C8.00148 9.88672 7.80142 9.95223 7.63579 10.0737L0.317655 15.6984C0.219169 15.7705 0.139078 15.8648 0.0838846 15.9737C0.0286915 16.0825 -4.79018e-05 16.2029 5.99321e-08 16.325V16.3284C3.41378e-05 16.472 0.0398568 16.6128 0.115049 16.7351C0.190242 16.8575 0.297864 16.9566 0.425973 17.0215C0.554082 17.0864 0.697669 17.1145 0.840801 17.1028C0.983932 17.0911 1.12101 17.0399 1.23683 16.955Z" fill="#91DC5A"/>
<path d="M9.65504 19.3105H6.75849C6.50241 19.3105 6.25683 19.4123 6.07576 19.5933C5.89469 19.7744 5.79297 20.02 5.79297 20.2761V26.0692H10.6206V20.2761C10.6206 20.02 10.5188 19.7744 10.3378 19.5933C10.1567 19.4123 9.91111 19.3105 9.65504 19.3105Z" fill="#C49A6C"/>
<path d="M8.20672 16.8964C8.73996 16.8964 9.17224 16.4641 9.17224 15.9309C9.17224 15.3976 8.73996 14.9653 8.20672 14.9653C7.67349 14.9653 7.24121 15.3976 7.24121 15.9309C7.24121 16.4641 7.67349 16.8964 8.20672 16.8964Z" fill="#FFDAAA"/>
<path d="M26.0688 0H23.1722C22.6601 0 22.1689 0.203448 21.8068 0.565587C21.4447 0.927726 21.2412 1.41889 21.2412 1.93103V6.75862H27.9998V1.93103C27.9998 1.41889 27.7964 0.927726 27.4342 0.565587C27.0721 0.203448 26.5809 0 26.0688 0Z" fill="#FE4F17"/>
<path d="M21.2412 6.75879V7.72431C21.2412 8.23645 21.4447 8.72761 21.8068 9.08975C22.1689 9.45189 22.6601 9.65534 23.1722 9.65534H26.0688C26.5809 9.65534 27.0721 9.45189 27.4342 9.08975C27.7964 8.72761 27.9998 8.23645 27.9998 7.72431V6.75879H21.2412Z" fill="#6D6E71"/>
<path d="M16.4136 19.3105H19.3101V22.2071H16.4136V19.3105Z" fill="#EBBF00"/>
<path d="M21.2412 19.3105H24.1378V22.2071H21.2412V19.3105Z" fill="#FFCD00"/>
<path d="M24.1377 0.965332H25.1032V1.93085H24.1377V0.965332Z" fill="#F1F2F2"/>
<path d="M24.1377 7.72412H25.1032V8.68964H24.1377V7.72412Z" fill="#F1F2F2"/>
<path d="M8.68945 22.6895H9.65497V23.655H8.68945V22.6895Z" fill="#F1F2F2"/>
<path d="M19.3101 3.37939H20.2756V4.34491H19.3101V3.37939Z" fill="#FE4F17"/>
<path d="M16.4136 3.37939H17.3791V4.34491H16.4136V3.37939Z" fill="#FE4F17"/>
<path d="M16.4136 4.82764H17.3791V5.79315H16.4136V4.82764Z" fill="#FE4F17"/>
<path d="M16.4136 6.27588H17.3791V7.24141H16.4136V6.27588Z" fill="#FE4F17"/>
<path d="M16.4136 7.72412H17.3791V8.68964H16.4136V7.72412Z" fill="#FE4F17"/>
<path d="M17.8618 3.37939H18.8273V4.34491H17.8618V3.37939Z" fill="#FE4F17"/>
<path d="M16.4136 9.17236H17.3791V10.1379H16.4136V9.17236Z" fill="#FE4F17"/>
<path d="M24.1379 24.1377H23.6551C23.5271 24.1377 23.4043 24.1886 23.3138 24.2791C23.2232 24.3696 23.1724 24.4924 23.1724 24.6205C23.1724 24.7485 23.2232 24.8713 23.3138 24.9618C23.4043 25.0523 23.5271 25.1032 23.6551 25.1032H24.1379C24.2659 25.1032 24.3887 25.0523 24.4792 24.9618C24.5698 24.8713 24.6206 24.7485 24.6206 24.6205C24.6206 24.4924 24.5698 24.3696 24.4792 24.2791C24.3887 24.1886 24.2659 24.1377 24.1379 24.1377Z" fill="#F1F2F2"/>
<path d="M21.7242 24.1377H17.8622C17.7341 24.1377 17.6113 24.1886 17.5208 24.2791C17.4303 24.3696 17.3794 24.4924 17.3794 24.6205C17.3794 24.7485 17.4303 24.8713 17.5208 24.9618C17.6113 25.0523 17.7341 25.1032 17.8622 25.1032H21.7242C21.8523 25.1032 21.9751 25.0523 22.0656 24.9618C22.1561 24.8713 22.207 24.7485 22.207 24.6205C22.207 24.4924 22.1561 24.3696 22.0656 24.2791C21.9751 24.1886 21.8523 24.1377 21.7242 24.1377Z" fill="#F1F2F2"/>
<path d="M3.94482 5.3927C4.06497 5.39275 4.18081 5.348 4.26972 5.26719L4.38365 5.16243C5.4535 4.26913 6.80236 3.77864 8.19612 3.77608C9.58987 3.77352 10.9405 4.25906 12.0136 5.14843L12.143 5.26622C12.2383 5.34779 12.3617 5.38906 12.4869 5.38127C12.6121 5.37348 12.7294 5.31725 12.8139 5.22449C12.8983 5.13173 12.9434 5.00973 12.9394 4.88434C12.9355 4.75894 12.8829 4.64 12.7928 4.5527L12.648 4.42091C11.3984 3.38016 9.82286 2.81141 8.19659 2.81397C6.57033 2.81653 4.99663 3.39024 3.75027 4.43491L3.61992 4.55319C3.54795 4.6188 3.49751 4.70465 3.47522 4.79946C3.45293 4.89426 3.45983 4.99359 3.49503 5.08441C3.53023 5.17522 3.59206 5.25326 3.67243 5.30828C3.75279 5.3633 3.84791 5.39273 3.9453 5.3927H3.94482Z" fill="#006DF0"/>
<path d="M6.23814 7.38589C6.14328 7.46887 6.08464 7.58566 6.07474 7.7113C6.06483 7.83694 6.10445 7.96147 6.18514 8.05829C6.26582 8.1551 6.38116 8.21653 6.50653 8.22945C6.63189 8.24236 6.75734 8.20574 6.85607 8.12741C7.23546 7.81104 7.7138 7.63776 8.20779 7.63776C8.70178 7.63776 9.18013 7.81104 9.55952 8.12741C9.60796 8.16979 9.6644 8.20206 9.7255 8.22231C9.78661 8.24256 9.85114 8.25039 9.91532 8.24533C9.97949 8.24027 10.042 8.22243 10.0992 8.19286C10.1564 8.16328 10.207 8.12257 10.2482 8.07312C10.2895 8.02367 10.3204 7.96647 10.3391 7.9049C10.3579 7.84333 10.3642 7.77863 10.3576 7.71459C10.351 7.65056 10.3317 7.58849 10.3007 7.53204C10.2698 7.47559 10.2279 7.4259 10.1774 7.38589C9.62477 6.92457 8.9277 6.67188 8.20779 6.67188C7.48788 6.67188 6.79081 6.92457 6.23814 7.38589Z" fill="#006DF0"/>
<path d="M11.4451 5.93463C10.5403 5.1685 9.39322 4.74805 8.20768 4.74805C7.02215 4.74805 5.87503 5.1685 4.97031 5.93463C4.88226 6.02253 4.83154 6.14102 4.82874 6.2654C4.82593 6.38978 4.87125 6.51044 4.95524 6.60222C5.03924 6.69399 5.15542 6.7498 5.27956 6.758C5.4037 6.7662 5.52621 6.72615 5.62155 6.64622C6.34659 6.03876 7.26229 5.70586 8.20817 5.70586C9.15404 5.70586 10.0697 6.03876 10.7948 6.64622C10.8901 6.72615 11.0126 6.7662 11.1368 6.758C11.2609 6.7498 11.3771 6.69399 11.4611 6.60222C11.5451 6.51044 11.5904 6.38978 11.5876 6.2654C11.5848 6.14102 11.5341 6.02253 11.446 5.93463H11.4451Z" fill="#006DF0"/>
</svg>
