<svg width="28" height="28" viewBox="0 0 28 28" fill="none" xmlns="http://www.w3.org/2000/svg">
<path d="M25.7188 6.5V21.9688H2.28125V6.5C2.28125 6.00272 2.47879 5.52581 2.83042 5.17418C3.18206 4.82254 3.65897 4.625 4.15625 4.625H23.8438C24.09 4.62479 24.3339 4.67315 24.5615 4.7673C24.7891 4.86146 24.9959 4.99956 25.17 5.17371C25.3442 5.34786 25.4823 5.55464 25.5764 5.78222C25.6706 6.0098 25.719 6.25371 25.7188 6.5Z" fill="#223942"/>
<path d="M24.3125 4.68418V21.9688H23.375V4.625H23.8438C24.0019 4.62488 24.1594 4.64477 24.3125 4.68418Z" fill="#2D7DBF"/>
<path d="M2.28125 18.6875H4.625V19.625H2.28125V18.6875Z" fill="#2D7DBF"/>
<path d="M23.375 18.6875H25.7188V19.625H23.375V18.6875Z" fill="#2D7DBF"/>
<path d="M21.5 0.40625H6.5C6.25375 0.406181 6.0099 0.454632 5.78239 0.548835C5.55487 0.643038 5.34814 0.781147 5.17402 0.95527C4.9999 1.12939 4.86179 1.33612 4.76758 1.56364C4.67338 1.79115 4.62493 2.035 4.625 2.28125V21.0312H23.375V2.28125C23.3751 2.035 23.3266 1.79115 23.2324 1.56364C23.1382 1.33612 23.0001 1.12939 22.826 0.95527C22.6519 0.781147 22.4451 0.643038 22.2176 0.548835C21.9901 0.454632 21.7462 0.406181 21.5 0.40625Z" fill="#66757C"/>
<path d="M6.5 21.0312H23.375V4.625V4.15625L6.5 21.0312Z" fill="#568741"/>
<path d="M4.625 18.6875H23.375V21.0312H4.625V18.6875Z" fill="#568741"/>
<path d="M26.1875 22.4375H1.8125C1.43954 22.4375 1.08185 22.2893 0.818131 22.0256C0.554408 21.7619 0.40625 21.4042 0.40625 21.0312V19.625H10.856C11.0683 19.625 11.2718 19.7093 11.4219 19.8594C11.5719 20.0094 11.7755 20.0937 11.9877 20.0938H15.9453C16.0504 20.0937 16.1544 20.0731 16.2515 20.0328C16.3486 19.9926 16.4368 19.9337 16.5111 19.8594C16.6612 19.7093 16.8647 19.625 17.0769 19.625H27.5938L27.5921 20.9627C27.6013 21.1529 27.5719 21.343 27.5055 21.5215C27.4391 21.7 27.3371 21.8632 27.2058 22.0011C27.0745 22.139 26.9165 22.2488 26.7414 22.3238C26.5664 22.3988 26.3779 22.4375 26.1875 22.4375Z" fill="#E0E0DE"/>
<path d="M27.5938 19.625H25.7188L25.7171 20.9627C25.7263 21.1529 25.6969 21.343 25.6305 21.5215C25.5641 21.7 25.4621 21.8632 25.3308 22.0011C25.1995 22.139 25.0415 22.2488 24.8664 22.3238C24.6914 22.3988 24.5029 22.4375 24.3125 22.4375H26.1875C26.3779 22.4375 26.5664 22.3988 26.7414 22.3238C26.9165 22.2488 27.0745 22.139 27.2058 22.0011C27.3371 21.8632 27.4391 21.7 27.5055 21.5215C27.5719 21.343 27.6013 21.1529 27.5921 20.9627L27.5938 19.625Z" fill="#D6D6D4"/>
<path d="M27.2054 25.3304L23.8437 21.9688L21.9688 23.8437L25.3304 27.2054C25.5791 27.4541 25.9163 27.5938 26.2679 27.5938C26.6196 27.5938 26.9568 27.4541 27.2054 27.2054C27.4541 26.9568 27.5938 26.6196 27.5938 26.2679C27.5938 25.9163 27.4541 25.5791 27.2054 25.3304Z" fill="#FE4F17"/>
<path d="M24.3734 22.4984L23.8437 21.9688L21.9688 23.8437L22.4984 24.3734C23.2293 23.8641 23.8641 23.2293 24.3734 22.4984Z" fill="#F7A116"/>
<path d="M17.75 25.25C21.8921 25.25 25.25 21.8921 25.25 17.75C25.25 13.6079 21.8921 10.25 17.75 10.25C13.6079 10.25 10.25 13.6079 10.25 17.75C10.25 21.8921 13.6079 25.25 17.75 25.25Z" fill="#FE4F17"/>
<path d="M17.75 23.375C20.8566 23.375 23.375 20.8566 23.375 17.75C23.375 14.6434 20.8566 12.125 17.75 12.125C14.6434 12.125 12.125 14.6434 12.125 17.75C12.125 20.8566 14.6434 23.375 17.75 23.375Z" fill="#69A340"/>
<path d="M17.75 21.9688C20.08 21.9688 21.9688 20.08 21.9688 17.75C21.9688 15.42 20.08 13.5312 17.75 13.5312C15.42 13.5312 13.5312 15.42 13.5312 17.75C13.5312 20.08 15.42 21.9688 17.75 21.9688Z" fill="#9FA9AD"/>
<path d="M15.4062 17.75H20.0938V20.5625H15.4062V17.75Z" fill="#F35244"/>
<path d="M20.0939 17.7498H19.1564V16.8123C19.1566 16.5025 19.0546 16.2013 18.866 15.9554C18.6775 15.7096 18.413 15.5329 18.1138 15.4528C17.8145 15.3727 17.4971 15.3936 17.211 15.5124C16.9249 15.6312 16.6859 15.8411 16.5314 16.1096L15.7202 15.6399C15.9782 15.193 16.3764 14.8437 16.8532 14.6462C17.3299 14.4487 17.8585 14.4141 18.3569 14.5477C18.8554 14.6813 19.2958 14.9757 19.6099 15.3851C19.9239 15.7946 20.0941 16.2963 20.0939 16.8123V17.7498Z" fill="#D6D6D4"/>
<path d="M16.8125 20.5625H20.0938V17.75H19.625L16.8125 20.5625Z" fill="#EA4A3B"/>
<path d="M7.4375 9.78125C7.81033 9.78083 8.16777 9.63254 8.43141 9.36891C8.69504 9.10527 8.84333 8.74783 8.84375 8.375V7.4375C8.84375 7.06454 8.69559 6.70685 8.43187 6.44313C8.16815 6.17941 7.81046 6.03125 7.4375 6.03125C7.06454 6.03125 6.70685 6.17941 6.44313 6.44313C6.17941 6.70685 6.03125 7.06454 6.03125 7.4375V8.375C6.03167 8.74783 6.17996 9.10527 6.44359 9.36891C6.70723 9.63254 7.06467 9.78083 7.4375 9.78125ZM6.96875 7.4375C6.96875 7.31318 7.01814 7.19395 7.10604 7.10604C7.19395 7.01814 7.31318 6.96875 7.4375 6.96875C7.56182 6.96875 7.68105 7.01814 7.76896 7.10604C7.85686 7.19395 7.90625 7.31318 7.90625 7.4375V8.375C7.90625 8.49932 7.85686 8.61855 7.76896 8.70646C7.68105 8.79436 7.56182 8.84375 7.4375 8.84375C7.31318 8.84375 7.19395 8.79436 7.10604 8.70646C7.01814 8.61855 6.96875 8.49932 6.96875 8.375V7.4375Z" fill="#9FA9AD"/>
<path d="M13.0625 6.03125C12.6897 6.03167 12.3322 6.17996 12.0686 6.44359C11.805 6.70723 11.6567 7.06467 11.6562 7.4375V8.375C11.6563 8.74796 11.8044 9.10565 12.0681 9.36937C12.3319 9.63309 12.6895 9.78125 13.0625 9.78125C13.4355 9.78125 13.7931 9.63309 14.0569 9.36937C14.3206 9.10565 14.4688 8.74796 14.4688 8.375V7.4375C14.4683 7.06467 14.32 6.70723 14.0564 6.44359C13.7928 6.17996 13.4353 6.03167 13.0625 6.03125ZM13.5312 8.375C13.5312 8.49932 13.4819 8.61855 13.394 8.70646C13.306 8.79436 13.1868 8.84375 13.0625 8.84375C12.9382 8.84375 12.819 8.79436 12.731 8.70646C12.6431 8.61855 12.5938 8.49932 12.5938 8.375V7.4375C12.5938 7.31318 12.6431 7.19395 12.731 7.10604C12.819 7.01814 12.9382 6.96875 13.0625 6.96875C13.1868 6.96875 13.306 7.01814 13.394 7.10604C13.4819 7.19395 13.5312 7.31318 13.5312 7.4375V8.375Z" fill="#9FA9AD"/>
<path d="M18.6875 6.03125C18.3147 6.03167 17.9572 6.17996 17.6936 6.44359C17.43 6.70723 17.2817 7.06467 17.2812 7.4375V8.375C17.2812 8.74796 17.4294 9.10565 17.6931 9.36937C17.9569 9.63309 18.3145 9.78125 18.6875 9.78125C19.0605 9.78125 19.4181 9.63309 19.6819 9.36937C19.9456 9.10565 20.0938 8.74796 20.0938 8.375V7.4375C20.0933 7.06467 19.945 6.70723 19.6814 6.44359C19.4178 6.17996 19.0603 6.03167 18.6875 6.03125ZM19.1562 8.375C19.1562 8.49932 19.1069 8.61855 19.019 8.70646C18.931 8.79436 18.8118 8.84375 18.6875 8.84375C18.5632 8.84375 18.444 8.79436 18.356 8.70646C18.2681 8.61855 18.2188 8.49932 18.2188 8.375V7.4375C18.2188 7.31318 18.2681 7.19395 18.356 7.10604C18.444 7.01814 18.5632 6.96875 18.6875 6.96875C18.8118 6.96875 18.931 7.01814 19.019 7.10604C19.1069 7.19395 19.1562 7.31318 19.1562 7.4375V8.375Z" fill="#9FA9AD"/>
<path d="M9.78125 6.5H10.7188V9.3125H9.78125V6.5Z" fill="#9FA9AD"/>
<path d="M15.4062 6.5H16.3438V9.3125H15.4062V6.5Z" fill="#9FA9AD"/>
<path d="M6.5 10.7188H7.4375V13.5312H6.5V10.7188Z" fill="#9FA9AD"/>
<path d="M8.375 10.7188H9.3125V13.5312H8.375V10.7188Z" fill="#9FA9AD"/>
<path d="M7.4375 14.4688C7.06467 14.4692 6.70723 14.6175 6.44359 14.8811C6.17996 15.1447 6.03167 15.5022 6.03125 15.875V16.8125C6.03125 17.1855 6.17941 17.5431 6.44313 17.8069C6.70685 18.0706 7.06454 18.2188 7.4375 18.2188C7.81046 18.2188 8.16815 18.0706 8.43187 17.8069C8.69559 17.5431 8.84375 17.1855 8.84375 16.8125V15.875C8.84333 15.5022 8.69504 15.1447 8.43141 14.8811C8.16777 14.6175 7.81033 14.4692 7.4375 14.4688ZM7.90625 16.8125C7.90625 16.9368 7.85686 17.056 7.76896 17.144C7.68105 17.2319 7.56182 17.2812 7.4375 17.2812C7.31318 17.2812 7.19395 17.2319 7.10604 17.144C7.01814 17.056 6.96875 16.9368 6.96875 16.8125V15.875C6.96875 15.7507 7.01814 15.6315 7.10604 15.5435C7.19395 15.4556 7.31318 15.4062 7.4375 15.4062C7.56182 15.4062 7.68105 15.4556 7.76896 15.5435C7.85686 15.6315 7.90625 15.7507 7.90625 15.875V16.8125Z" fill="#9FA9AD"/>
<path d="M21.0312 6.5H21.9688V9.3125H21.0312V6.5Z" fill="#9FA9AD"/>
<path d="M6.03125 1.8125H6.96875V2.75H6.03125V1.8125Z" fill="#9FA9AD"/>
<path d="M7.90625 1.8125H8.84375V2.75H7.90625V1.8125Z" fill="#9FA9AD"/>
<path d="M9.78125 1.8125H10.7188V2.75H9.78125V1.8125Z" fill="#9FA9AD"/>
<path d="M6.03125 3.6875H21.9688V4.625H6.03125V3.6875Z" fill="#9FA9AD"/>
</svg>
