<svg width="28" height="28" viewBox="0 0 28 28" fill="none" xmlns="http://www.w3.org/2000/svg">
<path d="M14 28C21.3998 28 27.3984 22.0013 27.3984 14.6016C27.3984 7.20181 21.3998 1.20312 14 1.20312C6.60025 1.20312 0.601562 7.20181 0.601562 14.6016C0.601562 22.0013 6.60025 28 14 28Z" fill="#223942"/>
<path d="M5.50845 23.0588C5.35805 23.0588 5.23501 22.9358 5.23501 22.7854V3.89648H3.42578C3.27539 3.89648 3.15234 4.01953 3.15234 4.16992V22.4654C3.8833 23.472 4.7502 24.3735 5.72725 25.1415H20.8428C20.9932 25.1415 21.1162 25.0185 21.1162 24.8681V23.0589L5.50845 23.0588Z" fill="#FFAF10"/>
<path d="M4.19141 4.16992C4.19141 4.01953 4.31446 3.89648 4.46485 3.89648H3.42578C3.27539 3.89648 3.15234 4.01953 3.15234 4.16992V22.4654C3.4732 22.9073 3.82035 23.3289 4.19141 23.7279V4.16992Z" fill="#EF9614"/>
<path d="M7.31275 21.0901C7.16236 21.0901 7.03932 20.9671 7.03932 20.8167V1.96875H5.35303C5.20264 1.96875 5.07959 2.0918 5.07959 2.24219V22.9403C5.07959 23.0908 5.20264 23.2137 5.35303 23.2137H22.7701C22.9205 23.2137 23.0436 23.0908 23.0436 22.9403V21.0901H7.31275Z" fill="#FF9518"/>
<path d="M6.06396 22.9403V2.24219C6.06396 2.0918 6.18701 1.96875 6.3374 1.96875H5.35303C5.20264 1.96875 5.07959 2.0918 5.07959 2.24219V22.9403C5.07959 23.0908 5.20264 23.2137 5.35303 23.2137H6.3374C6.18701 23.2137 6.06396 23.0908 6.06396 22.9403Z" fill="#EF8318"/>
<path d="M24.8481 20.9716C24.8481 21.122 24.7251 21.245 24.5747 21.245H7.15771C7.00732 21.245 6.88428 21.122 6.88428 20.9716V0.273438C6.88428 0.123047 7.00732 0 7.15771 0H24.5747C24.7251 0 24.8481 0.123047 24.8481 0.273438V20.9716Z" fill="#D9EAFC"/>
<path d="M7.96955 20.9716V0.273438C7.96955 0.123047 8.0926 0 8.24299 0H7.15771C7.00732 0 6.88428 0.123047 6.88428 0.273438V20.9716C6.88428 21.122 7.00732 21.245 7.15771 21.245H8.24299C8.0926 21.245 7.96955 21.122 7.96955 20.9716Z" fill="#C3DDF4"/>
<path d="M22.7006 2.77783H18.8965C18.6699 2.77783 18.4863 2.59425 18.4863 2.36768C18.4863 2.14116 18.6699 1.95752 18.8965 1.95752H22.7006C22.9272 1.95752 23.1108 2.14116 23.1108 2.36768C23.1108 2.59425 22.9271 2.77783 22.7006 2.77783Z" fill="#DB722C"/>
<path d="M22.7006 4.17236H18.8965C18.6699 4.17236 18.4863 3.98872 18.4863 3.76221C18.4863 3.53564 18.6699 3.35205 18.8965 3.35205H22.7006C22.9272 3.35205 23.1108 3.53564 23.1108 3.76221C23.1108 3.98872 22.9271 4.17236 22.7006 4.17236Z" fill="#DB722C"/>
<path d="M22.7006 5.56689H18.8965C18.6699 5.56689 18.4863 5.38325 18.4863 5.15674C18.4863 4.93022 18.6699 4.74658 18.8965 4.74658H22.7006C22.9272 4.74658 23.1108 4.93022 23.1108 5.15674C23.1108 5.38331 22.9271 5.56689 22.7006 5.56689Z" fill="#DB722C"/>
<path d="M22.7006 6.96094H18.8965C18.6699 6.96094 18.4863 6.7773 18.4863 6.55078C18.4863 6.32421 18.6699 6.14062 18.8965 6.14062H22.7006C22.9272 6.14062 23.1108 6.32421 23.1108 6.55078C23.1108 6.7773 22.9271 6.96094 22.7006 6.96094Z" fill="#DB722C"/>
<path d="M15.6078 16.6948H9.20068C8.97411 16.6948 8.79053 16.5112 8.79053 16.2847C8.79053 16.0582 8.97411 15.8745 9.20068 15.8745H15.6078C15.8343 15.8745 16.0179 16.0582 16.0179 16.2847C16.018 16.5112 15.8343 16.6948 15.6078 16.6948Z" fill="#52BBEF"/>
<path d="M15.6078 18.0894H9.20068C8.97411 18.0894 8.79053 17.9058 8.79053 17.6792C8.79053 17.4527 8.97411 17.269 9.20068 17.269H15.6078C15.8343 17.269 16.0179 17.4527 16.0179 17.6792C16.018 17.9058 15.8343 18.0894 15.6078 18.0894Z" fill="#52BBEF"/>
<path d="M15.6078 19.4839H9.20068C8.97411 19.4839 8.79053 19.3003 8.79053 19.0737C8.79053 18.8472 8.97411 18.6636 9.20068 18.6636H15.6078C15.8343 18.6636 16.0179 18.8472 16.0179 19.0737C16.018 19.3002 15.8343 19.4839 15.6078 19.4839Z" fill="#52BBEF"/>
<path d="M22.7002 9.39453H16.8633C16.6367 9.39453 16.4531 9.21089 16.4531 8.98438C16.4531 8.75786 16.6367 8.57422 16.8633 8.57422H22.7002C22.9268 8.57422 23.1103 8.75786 23.1103 8.98438C23.1103 9.21089 22.9267 9.39453 22.7002 9.39453Z" fill="#FE3745"/>
<path d="M22.7002 10.7891H16.8633C16.6367 10.7891 16.4531 10.6054 16.4531 10.3789C16.4531 10.1524 16.6367 9.96875 16.8633 9.96875H22.7002C22.9268 9.96875 23.1103 10.1524 23.1103 10.3789C23.1103 10.6054 22.9267 10.7891 22.7002 10.7891Z" fill="#FE3745"/>
<path d="M22.7002 12.1836H16.8633C16.6367 12.1836 16.4531 11.9999 16.4531 11.7734C16.4531 11.5469 16.6367 11.3633 16.8633 11.3633H22.7002C22.9268 11.3633 23.1103 11.5469 23.1103 11.7734C23.1103 11.9999 22.9267 12.1836 22.7002 12.1836Z" fill="#FE3745"/>
<path d="M22.7002 13.5776H16.8633C16.6367 13.5776 16.4531 13.394 16.4531 13.1675C16.4531 12.941 16.6367 12.7573 16.8633 12.7573H22.7002C22.9268 12.7573 23.1103 12.941 23.1103 13.1675C23.1103 13.394 22.9267 13.5776 22.7002 13.5776Z" fill="#FE3745"/>
<path d="M8.46387 11.7994H10.063C10.063 10.9162 10.779 10.2001 11.6622 10.2001V8.60107C9.89591 8.60107 8.46387 10.033 8.46387 11.7994Z" fill="#FE3745"/>
<path d="M12.4731 7.79004V9.38916C13.3563 9.38916 14.0723 10.1051 14.0723 10.9883H15.6715C15.6715 9.22187 14.2395 7.79004 12.4731 7.79004Z" fill="#91E0E8"/>
<path d="M13.2613 11.7988C13.2613 12.6819 12.5454 13.3979 11.6622 13.3979C10.779 13.3979 10.0631 12.6819 10.0631 11.7988H8.46387C8.46387 13.5651 9.89592 14.9971 11.6622 14.9971C13.4285 14.9971 14.8605 13.5651 14.8605 11.7988H13.2613Z" fill="#FFAF10"/>
<path d="M10.3005 6.29561V2.47656C10.3005 2.38633 10.2267 2.3125 10.1364 2.3125H9.14209C9.05186 2.3125 8.97803 2.38633 8.97803 2.47656V6.29561H10.3005Z" fill="#FFAF10"/>
<path d="M12.4401 6.29561V3.51562C12.4401 3.42539 12.3662 3.35156 12.276 3.35156H11.2817C11.1915 3.35156 11.1177 3.42539 11.1177 3.51562V6.29561H12.4401Z" fill="#FE3745"/>
<path d="M14.5792 6.29561V4.77344C14.5792 4.6832 14.5054 4.60938 14.4152 4.60938H13.4209C13.3307 4.60938 13.2568 4.6832 13.2568 4.77344V6.29561H14.5792Z" fill="#37C47A"/>
<path d="M16.7184 6.29561V2.47656C16.7184 2.38633 16.6446 2.3125 16.5544 2.3125H15.5601C15.4698 2.3125 15.396 2.38633 15.396 2.47656V6.29561H16.7184Z" fill="#91E0E8"/>
<path d="M20.7587 17.4842C20.7587 17.3938 20.8323 17.3202 20.9227 17.3202H21.6643V15.4849C21.6643 15.3345 21.5413 15.2114 21.3909 15.2114H18.9233C18.7729 15.2114 18.6499 15.3345 18.6499 15.4849V17.9524C18.6499 18.1028 18.7729 18.2259 18.9233 18.2259H20.7587V17.4842Z" fill="#FE3745"/>
<path d="M22.7006 18.9877C22.7006 19.1381 22.5775 19.2611 22.4271 19.2611H20.9233C20.7729 19.2611 20.6499 19.1381 20.6499 18.9877V17.4839C20.6499 17.3335 20.7729 17.2104 20.9233 17.2104H22.4271C22.5775 17.2104 22.7006 17.3335 22.7006 17.4839V18.9877Z" fill="#37C47A"/>
<path d="M17.0012 6.96094H8.6958C8.46923 6.96094 8.28564 6.7773 8.28564 6.55078C8.28564 6.32421 8.46923 6.14062 8.6958 6.14062H17.0012C17.2278 6.14062 17.4114 6.32421 17.4114 6.55078C17.4114 6.7773 17.2278 6.96094 17.0012 6.96094Z" fill="#52BBEF"/>
</svg>
