<svg width="29" height="30" viewBox="0 0 29 30" fill="none" xmlns="http://www.w3.org/2000/svg">
<path d="M11.4658 28.5422C11.4871 28.5422 11.5086 28.541 11.5303 28.5387C11.8226 28.5071 12.0793 28.2675 12.1408 27.969C12.1919 27.7205 12.101 27.4589 11.9149 27.3179C11.807 27.2364 11.6791 27.1934 11.5447 27.1934C11.3955 27.1934 11.2361 27.2471 11.1081 27.3408C10.9155 27.4799 10.7283 27.7594 10.8336 28.0894C10.9175 28.3517 11.1834 28.5422 11.4658 28.5422Z" fill="#288FC9"/>
<path d="M22.5302 18.8962C22.723 19.1528 23.1049 19.4291 23.488 19.4291C23.554 19.4291 23.618 19.4206 23.6784 19.4041C23.8348 19.3611 23.9287 19.2831 23.9572 19.173C24.0087 18.9725 23.8572 18.7216 23.4342 18.3071L23.4045 18.278C22.9867 17.8647 22.8105 17.2277 22.9557 16.6555C22.9779 16.569 23.0073 16.4813 23.0358 16.3966L23.0373 16.3914C23.0934 16.227 23.1513 16.057 23.1612 15.8775C23.1778 15.588 23.0145 15.2513 22.7212 15.2119C22.7038 15.2096 22.6862 15.2085 22.6681 15.2085C22.5268 15.2085 22.3823 15.2781 22.2713 15.4005C22.1582 15.5264 22.0958 15.6841 22.0495 15.8219C21.8301 16.4776 21.8184 17.2037 22.0164 17.8665C22.129 18.2426 22.3065 18.5987 22.5302 18.8962Z" fill="#5BD0FC"/>
<path d="M21.1365 23.0867C21.1638 23.0897 21.1901 23.0913 21.2147 23.0913C21.3651 23.0913 21.4422 23.0288 21.4806 22.9762C21.6016 22.8091 21.5527 22.5196 21.3122 21.9764L21.295 21.938C21.0585 21.3971 21.1286 20.7391 21.4732 20.2621C21.5247 20.1909 21.5835 20.1218 21.6402 20.055L21.6457 20.0486C21.7578 19.9172 21.8736 19.7812 21.9487 19.6173C22.0703 19.3544 22.0421 18.9799 21.7838 18.8336C21.7183 18.7968 21.6405 18.7773 21.5584 18.7773C21.4709 18.7773 21.3804 18.7993 21.2975 18.8403C21.1464 18.9142 21.0304 19.0374 20.9368 19.1481C20.4925 19.6752 20.2153 20.3454 20.1567 21.0346C20.1233 21.4257 20.1576 21.8233 20.2562 22.1845C20.3663 22.5843 20.7121 23.0364 21.1365 23.0867Z" fill="#5BD0FC"/>
<path d="M14.2523 27.7095C14.1736 28.0938 13.8437 28.4021 13.4668 28.4426C13.4392 28.4453 13.4102 28.4472 13.3824 28.4472C13.0206 28.4472 12.6797 28.2023 12.572 27.8647C12.4359 27.4417 12.6774 27.0826 12.9257 26.9031C13.0919 26.7825 13.2972 26.7134 13.4882 26.7134C13.663 26.7134 13.8229 26.7672 13.9635 26.8734C14.2021 27.0537 14.3178 27.3895 14.2523 27.7095Z" fill="white"/>
<path d="M6.11023 12.2065C6.18937 12.2804 6.2866 12.3211 6.38383 12.3211C6.49869 12.3211 6.61853 12.2662 6.71191 12.1707C6.82813 12.0522 6.89099 11.8883 6.88014 11.7336C6.86906 11.5642 6.7698 11.4081 6.62757 11.3356C6.55816 11.3001 6.48761 11.2822 6.41797 11.2822C6.3273 11.2822 6.24025 11.3129 6.16608 11.3708C6.03449 11.4733 5.95264 11.65 5.95264 11.8318C5.95264 11.8721 5.95671 11.9121 5.9653 11.9515C5.9861 12.0471 6.0372 12.1373 6.11023 12.2065Z" fill="white"/>
<path d="M21.2163 10.3797C21.7721 10.6388 22.4063 10.77 23.1014 10.77C23.6454 10.77 24.2107 10.6883 24.781 10.5271C25.54 10.3131 26.5591 9.87254 27.1042 8.9886C27.5567 8.25641 27.6505 7.25688 27.3618 6.24683C26.9819 4.91565 26.0153 3.76895 24.7762 3.17935C24.1234 2.86899 23.3015 2.68359 22.5773 2.68359C21.8058 2.68359 21.1854 2.89394 20.7829 3.29173C19.1067 4.94861 18.9177 6.07722 18.9541 6.96277C19.0136 8.40381 19.9228 9.7771 21.2163 10.3797ZM21.3787 4.13791C21.768 3.75293 22.3365 3.67213 22.7446 3.67213C23.3908 3.67213 24.0248 3.86417 24.4029 4.04407C25.3365 4.4881 26.0648 5.35213 26.3508 6.35555C26.5693 7.12001 26.4976 7.87784 26.1541 8.43471C25.8263 8.96548 25.2189 9.36855 24.3977 9.60017C23.9699 9.72102 23.5457 9.78236 23.1374 9.78236C22.6121 9.78236 22.1337 9.68349 21.7147 9.48802C20.7365 9.03232 20.0494 7.99411 20.0044 6.90463C19.9558 5.71147 20.6719 4.83646 21.3787 4.13791Z" fill="#CBE580"/>
<path d="M11.9563 8.38867C11.5453 8.38867 11.1632 8.5244 10.8206 8.79219C10.209 9.26964 9.8291 10.092 9.8291 10.9382C9.8291 11.1318 9.84877 11.322 9.88744 11.5033C10.0898 12.4527 10.9235 13.1975 11.7856 13.1989H11.7879C12.3077 13.1989 12.8551 12.9455 13.2897 12.5037C13.8317 11.9533 14.1266 11.1904 14.0779 10.4635C14.0259 9.68735 13.5721 8.97072 12.9223 8.63747C12.6008 8.47244 12.2756 8.38867 11.9563 8.38867ZM13.4641 10.5505C13.4989 11.0723 13.2866 11.6207 12.8961 12.0178C12.5854 12.3337 12.1962 12.515 11.827 12.515C11.2088 12.514 10.6327 11.9958 10.4869 11.3097C10.3331 10.5882 10.6087 9.78531 11.157 9.35707C11.3999 9.16756 11.6683 9.0712 11.9545 9.0712C12.1797 9.0712 12.4115 9.13139 12.643 9.24995C13.1048 9.48662 13.427 9.99725 13.4641 10.5505Z" fill="#CBE580"/>
<path d="M9.62199 5.53693C9.55235 5.50122 9.48158 5.48291 9.41171 5.48291C9.32081 5.48291 9.23354 5.51381 9.15937 5.57195C8.99612 5.6992 8.91359 5.93747 8.95881 6.15216C9.00381 6.36205 9.18311 6.52112 9.37689 6.52203H9.37757C9.4913 6.52203 9.61068 6.46733 9.7052 6.37166C9.82097 6.25447 9.88405 6.09105 9.87387 5.93449C9.8628 5.76581 9.76376 5.60971 9.62199 5.53693Z" fill="#CBE580"/>
<path d="M7.44558 7.93065C7.33682 7.87457 7.22716 7.84619 7.11975 7.84619C6.98228 7.84619 6.84842 7.8938 6.73288 7.98375C6.5287 8.14305 6.40186 8.41885 6.40186 8.70358C6.40186 8.7679 6.40819 8.83038 6.42085 8.88875C6.48981 9.21445 6.76657 9.4605 7.06458 9.46141H7.06526C7.24118 9.46141 7.42591 9.37627 7.57288 9.22772C7.75377 9.04301 7.8519 8.78804 7.83517 8.54611C7.81798 8.28427 7.66491 8.0428 7.44558 7.93065Z" fill="#CBE580"/>
<path d="M5.5872 14.5134C5.47821 14.4574 5.36855 14.4292 5.26115 14.4292C5.12413 14.4292 4.99072 14.4763 4.8745 14.5663C4.67032 14.7261 4.5437 15.0019 4.5437 15.2859C4.5437 15.3502 4.55003 15.4127 4.56247 15.4711C4.63166 15.797 4.90819 16.0435 5.20643 16.0442H5.20711C5.38302 16.0442 5.56775 15.9593 5.71473 15.8105C5.89561 15.626 5.99375 15.3708 5.97701 15.1289C5.9596 14.8673 5.80653 14.6256 5.5872 14.5134Z" fill="#CBE580"/>
<path d="M22.0567 14.5708C21.9531 14.5708 21.8491 14.5749 21.7474 14.5836C20.1483 14.7182 18.5429 15.9999 17.6611 17.2103C16.7589 18.4481 16.2823 19.9774 16.3191 21.5167C16.3684 23.5604 17.3622 25.4287 18.9122 26.3923C19.7051 26.8853 20.6532 27.1458 21.654 27.1458C22.4424 27.1458 23.2429 26.9787 23.9693 26.6624C25.7181 25.9007 27.0944 24.2672 27.5611 22.3997C28.0285 20.5316 27.5858 18.432 26.4055 16.9203C25.4926 15.7507 23.7941 14.5708 22.0567 14.5708ZM26.362 21.2956C26.3378 21.4672 26.1554 21.6316 25.9779 21.6419C25.9736 21.6419 25.9688 21.6421 25.9625 21.6423C25.8454 21.6423 25.6984 21.5698 25.6127 21.47C25.5517 21.3983 25.5259 21.3178 25.5404 21.2427C25.5521 21.1805 25.5912 21.1296 25.6566 21.0914C25.7346 21.0456 25.8506 21.0193 25.9749 21.0193C26.0532 21.0193 26.1301 21.0303 26.1857 21.0495C26.2775 21.0809 26.3826 21.1493 26.362 21.2956ZM25.6968 19.261C25.7441 19.261 25.7893 19.2652 25.8309 19.2736C25.9768 19.3029 26.093 19.3872 26.1416 19.4989C26.2316 19.7055 26.0679 19.9649 25.8589 20.077C25.7131 20.1548 25.5485 20.1908 25.3891 20.2256C25.2912 20.2471 25.203 20.267 25.1153 20.2935C24.5177 20.4757 24.0401 20.9914 23.8981 21.608L23.8888 21.649C23.8425 21.8545 23.7195 22.4002 23.5051 22.4652C23.4918 22.4695 23.4782 22.4716 23.4649 22.4716C23.3964 22.4716 23.3252 22.4164 23.2772 22.3702C23.0143 22.1159 23.0002 21.5952 23.1388 21.2388C23.27 20.9026 23.4714 20.5762 23.722 20.2951C24.1633 19.7978 24.7616 19.4444 25.4067 19.3C25.4922 19.2805 25.5935 19.261 25.6968 19.261ZM23.6822 16.9759C23.6939 16.9139 23.7333 16.8631 23.7984 16.8246C23.8766 16.7788 23.9931 16.7525 24.1177 16.7525C24.1959 16.7525 24.2721 16.7635 24.3273 16.7825C24.4191 16.8143 24.5244 16.883 24.5039 17.0288C24.4799 17.1995 24.2992 17.3632 24.1226 17.3748H24.1199L24.112 17.3755H24.1043C23.9872 17.3755 23.84 17.3032 23.755 17.2041C23.7116 17.153 23.6639 17.072 23.6822 16.9759ZM22.1575 15.8585C22.1996 15.7321 22.2559 15.5882 22.3547 15.4781C22.4436 15.3799 22.5573 15.3236 22.6667 15.3236C22.6801 15.3236 22.6936 15.3245 22.707 15.3263C22.9281 15.3552 23.062 15.6312 23.0484 15.8704C23.0389 16.0354 22.9837 16.1972 22.9301 16.3542C22.9007 16.4415 22.8702 16.5319 22.8458 16.6264C22.6905 17.2384 22.8788 17.9191 23.3254 18.3602L23.3557 18.3902C23.5054 18.5369 23.9029 18.9262 23.8472 19.1439C23.8409 19.1693 23.821 19.2462 23.648 19.2938C23.5992 19.3071 23.5463 19.3139 23.4904 19.3139C23.1443 19.3139 22.797 19.0617 22.6208 18.8271C22.4051 18.5401 22.2337 18.1963 22.125 17.8333C21.9339 17.1936 21.9454 16.4925 22.1575 15.8585ZM21.9649 23.3113C21.9766 23.2493 22.0155 23.1985 22.0813 23.1603C22.1593 23.1143 22.2756 23.088 22.3999 23.088C22.4779 23.088 22.5543 23.0989 22.6102 23.1184C22.702 23.15 22.8069 23.2182 22.7863 23.364C22.7621 23.5368 22.5781 23.702 22.3943 23.7107H22.387C22.2699 23.7107 22.1227 23.6384 22.0372 23.5388C21.9762 23.4672 21.9504 23.3866 21.9649 23.3113ZM20.2695 21.0447C20.3267 20.378 20.5944 19.7309 21.0234 19.2228C21.1093 19.121 21.2146 19.0081 21.3465 18.9436C21.4154 18.9099 21.4885 18.8923 21.5579 18.8923C21.6207 18.8923 21.6798 18.907 21.7286 18.9347C21.9233 19.0448 21.9466 19.3515 21.8459 19.5687C21.7774 19.7172 21.6718 19.8413 21.5595 19.9733C21.4966 20.0475 21.4369 20.1175 21.3815 20.1944C21.013 20.7046 20.9383 21.4075 21.1916 21.9852L21.2085 22.0237C21.294 22.2159 21.5203 22.7265 21.3883 22.9085C21.3673 22.9378 21.3266 22.9765 21.2153 22.9765C21.1945 22.9765 21.1724 22.9751 21.1493 22.9724C20.7873 22.9296 20.4664 22.5226 20.3656 22.1537C20.2704 21.8058 20.2372 21.4221 20.2695 21.0447ZM18.4073 19.137C18.4446 18.4691 18.6928 17.8145 19.1066 17.2934C19.1891 17.1892 19.2911 17.0736 19.422 17.0047C19.4939 16.9667 19.5706 16.9466 19.6441 16.9466C19.7022 16.9466 19.7571 16.9594 19.8035 16.9837C20.0013 17.0878 20.0334 17.3936 19.9394 17.6142C19.8749 17.7655 19.7682 17.8985 19.6644 18.0274C19.6072 18.0992 19.5482 18.1732 19.4933 18.2535C19.1396 18.7742 19.0858 19.4789 19.3562 20.0498L19.3741 20.0873C19.465 20.2771 19.7065 20.7811 19.5801 20.9662C19.5586 20.998 19.5159 21.0401 19.3945 21.0401C19.3773 21.0401 19.3596 21.039 19.3429 21.0379C18.98 21.0058 18.6474 20.6085 18.5357 20.2427C18.4303 19.8985 18.3858 19.5163 18.4073 19.137ZM26.4936 23.4207C26.4068 23.9215 26.0916 24.4136 25.5564 24.884C24.7442 25.5979 23.708 26.0584 22.6382 26.1811C22.4293 26.2051 22.2152 26.2175 22.0022 26.2175C21.1443 26.2175 20.336 26.0273 19.7264 25.6821C19.5444 25.5789 19.375 25.434 19.2093 25.2923C19.1168 25.2131 19.0211 25.131 18.9226 25.0566C18.5692 24.789 18.2673 24.466 18.0256 24.0966C17.75 23.6746 17.5591 23.1967 17.4734 22.714C17.4445 22.5524 17.4171 22.3411 17.4621 22.139C17.5069 21.9387 17.6181 21.7799 17.7676 21.703C17.8381 21.6664 17.918 21.6478 18.0048 21.6478C18.1904 21.6478 18.4002 21.7305 18.6112 21.8863C18.9922 22.1685 19.29 22.5572 19.5781 22.9335L19.5824 22.9387C19.9055 23.3594 20.2107 23.7567 20.6338 24.0483C21.0663 24.3468 21.6248 24.5111 22.2064 24.5111C22.4797 24.5111 22.7538 24.4759 23.0215 24.4061C23.7554 24.2147 24.4577 23.7844 25.1096 23.1273L25.1784 23.0568C25.317 22.9151 25.4601 22.7684 25.6304 22.6725C25.7454 22.6078 25.8797 22.5704 25.9989 22.5704C26.0918 22.5704 26.1757 22.5922 26.2476 22.6355C26.5036 22.7879 26.5402 23.1536 26.4936 23.4207Z" fill="#B2EAF9"/>
<path d="M13.0048 27.0148C12.8008 27.1619 12.6792 27.3851 12.6792 27.6117C12.6792 27.6815 12.6905 27.7513 12.7122 27.8168C12.802 28.0978 13.0862 28.3018 13.3876 28.3018C13.4109 28.3018 13.4342 28.3004 13.4586 28.2979C13.7704 28.2631 14.044 28.0076 14.1089 27.6909C14.1641 27.4242 14.0671 27.1436 13.8672 26.9926C13.7514 26.9051 13.6137 26.8589 13.4688 26.8589C13.2524 26.8589 13.0851 26.9568 13.0048 27.0148Z" fill="#B2EAF9"/>
<path d="M12.9757 12.099C12.6447 12.4366 12.2262 12.63 11.8284 12.63H11.8273C11.168 12.6288 10.5301 12.0592 10.3757 11.3338C10.3467 11.1997 10.3323 11.0585 10.3323 10.915C10.3323 10.2622 10.6217 9.63049 11.0875 9.26657C11.3457 9.06516 11.6462 8.9585 11.9569 8.9585C12.2013 8.9585 12.4496 9.02235 12.6944 9.14778C13.1905 9.40253 13.5372 9.94978 13.5772 10.5428C13.6143 11.0972 13.3895 11.679 12.9757 12.099Z" fill="#B2EAF9"/>
<path d="M12.2439 25.6011C12.0949 25.6011 11.9355 25.6549 11.8073 25.7485C11.6149 25.8876 11.4275 26.1671 11.5328 26.4971C11.6169 26.7594 11.8826 26.9499 12.165 26.9499C12.1865 26.9499 12.208 26.9487 12.2295 26.9464C12.5218 26.9146 12.7787 26.6752 12.84 26.3768C12.8911 26.128 12.8004 25.8663 12.6141 25.7256C12.5062 25.6441 12.3783 25.6011 12.2439 25.6011Z" fill="#B2EAF9"/>
<path d="M11.9679 7.63257H11.9685C12.1447 7.63257 12.3296 7.54742 12.4752 7.39911C12.6561 7.21532 12.7545 6.96034 12.7384 6.71727C12.721 6.45566 12.5677 6.21396 12.3477 6.10158C12.239 6.04596 12.1295 6.01758 12.0223 6.01758C11.8842 6.01758 11.7506 6.06519 11.6361 6.15514C11.4315 6.31467 11.3044 6.5907 11.3044 6.87543C11.3044 6.93997 11.311 7.00246 11.3234 7.06036C11.3933 7.38652 11.6703 7.63257 11.9679 7.63257Z" fill="#B2EAF9"/>
<path d="M10.129 7.09076C9.87594 7.34734 9.55645 7.49519 9.25255 7.49519H9.25142C8.74674 7.49451 8.25925 7.05963 8.14167 6.50597C8.11974 6.40343 8.10889 6.29631 8.10889 6.18599C8.10889 5.68932 8.32934 5.20821 8.68411 4.93103C8.88151 4.77631 9.11123 4.69482 9.34933 4.69482C9.53496 4.69482 9.72445 4.74358 9.91189 4.83902C10.2915 5.03426 10.5561 5.45242 10.5862 5.90492C10.6146 6.32721 10.4432 6.77078 10.129 7.09076Z" fill="#B2EAF9"/>
<path d="M7.80605 12.6001L7.81351 12.6035L7.88293 12.438L7.94986 12.2801L7.9424 12.2766C8.02063 12.037 8.05409 11.7891 8.03827 11.5504C7.99847 10.9581 7.65162 10.4108 7.15508 10.1558C6.90998 10.0299 6.66193 9.96631 6.41751 9.96631C6.10728 9.96631 5.80678 10.0727 5.54811 10.2744C5.27339 10.4893 5.05655 10.8017 4.92631 11.1659L4.91953 11.1638L4.87295 11.3348C4.87295 11.3348 4.87272 11.335 4.87272 11.3353L4.82705 11.5028L4.83406 11.5049C4.77934 11.7884 4.77911 12.0748 4.83632 12.3419C4.99053 13.0672 5.62793 13.6364 6.28817 13.6378H6.2893C6.68681 13.6378 7.10511 13.4444 7.43704 13.1073C7.58514 12.9564 7.70837 12.7864 7.80605 12.6001ZM6.32096 13.0665C5.86829 13.0656 5.44614 12.6854 5.33896 12.1823C5.29057 11.9546 5.29939 11.7099 5.36429 11.4751L5.36451 11.4746C5.44682 11.1757 5.61278 10.9166 5.83166 10.7454C6.00983 10.6063 6.20632 10.5358 6.41547 10.5358C6.58053 10.5358 6.75079 10.5802 6.92106 10.6674C7.25977 10.8411 7.49605 11.2155 7.52319 11.6218C7.53675 11.8232 7.4999 12.0345 7.41646 12.2329L7.41624 12.2332C7.34343 12.4064 7.23603 12.5682 7.10511 12.701C6.87674 12.9333 6.59161 13.0665 6.32096 13.0665Z" fill="#B2EAF9"/>
<path d="M4.16218 13.3381L4.14048 13.299C4.06088 13.1578 3.98582 13.0246 3.95597 12.8749C3.92929 12.741 3.93856 12.594 3.98514 12.4118L4.12781 11.855L3.70205 12.2361C3.57181 12.3528 3.46079 12.4979 3.38074 12.6563C3.29844 12.8211 3.25096 12.9939 3.23965 13.1694C3.21704 13.5176 3.34344 13.8861 3.57814 14.1559C3.69346 14.288 3.84563 14.367 3.98559 14.367C4.01657 14.367 4.04687 14.3631 4.07558 14.3553C4.15359 14.334 4.29152 14.2624 4.33968 14.02C4.38581 13.7895 4.28179 13.5588 4.19949 13.4054C4.18728 13.3828 4.17484 13.3603 4.16218 13.3381Z" fill="#B2EAF9"/>
<path d="M2.44739 16.8523C2.67101 17.0491 2.91974 17.2254 3.18677 17.3764L3.21097 17.3899L3.23787 17.3954C3.24149 17.3961 3.24488 17.3973 3.24782 17.3989L3.27202 17.4236L3.2953 17.4359C4.0487 17.8369 4.9432 18.0487 5.88223 18.0487C6.12146 18.0487 6.36543 18.0349 6.60737 18.0077C7.89326 17.863 9.2099 17.3693 10.7502 16.4543C10.9476 16.3373 11.1468 16.2142 11.3419 16.0878L11.3552 16.0794C11.3552 16.0794 11.369 16.0663 11.3699 16.0656L11.3962 16.0528L11.4047 16.0471C12.524 15.3186 13.4201 14.5534 14.1443 13.7075C15.1665 12.5129 15.8216 11.1614 16.0384 9.79884C16.3181 8.04355 15.874 6.14772 14.8199 4.59773C14.069 3.49246 13.0106 2.55794 11.7595 1.89487C11.171 1.5829 10.5048 1.43115 9.72362 1.43115C9.23997 1.43115 8.77667 1.49066 8.47006 1.53575C8.06103 1.59549 7.66172 1.70558 7.28276 1.86282C6.90199 2.02098 6.54677 2.22423 6.22705 2.46707C5.0766 3.33865 4.34627 4.72705 4.27301 6.18091C4.25876 6.46701 4.26916 6.76067 4.27888 7.04471L4.27934 7.05432C4.29788 7.57915 4.3171 8.12183 4.1846 8.63864C3.95645 9.52739 3.31972 10.2182 2.70086 10.8895C2.16453 11.4717 1.6101 12.0737 1.32362 12.807C0.807865 14.1247 1.28044 15.826 2.44739 16.8523ZM2.59504 12.5807C2.83901 11.9329 3.30616 11.4074 3.75838 10.8986C4.29019 10.2994 4.79283 9.73338 4.97915 8.97876C5.08768 8.53816 5.07253 8.0939 5.05648 7.62332C5.04834 7.38689 5.03907 7.11887 5.05105 6.86183C5.11301 5.58696 5.73074 4.36908 6.70346 3.60393C7.24839 3.17455 7.90434 2.89188 8.59985 2.7859C8.85943 2.74677 9.2515 2.69435 9.65873 2.69435C10.3163 2.69435 10.8788 2.82802 11.3785 3.10291C12.4304 3.68152 13.3201 4.49725 13.9517 5.46199C14.8387 6.81651 15.2124 8.47293 14.9771 10.0067C14.7944 11.1975 14.2433 12.3774 13.3841 13.4188C12.6653 14.2904 11.7351 15.0723 10.5399 15.8091C9.24675 16.6058 8.1413 17.0356 7.06117 17.1615C6.85812 17.1855 6.65282 17.1977 6.4509 17.1977C5.32125 17.1977 4.28996 16.8246 3.54742 16.1473C2.55705 15.243 2.15661 13.7429 2.59504 12.5807Z" fill="#F7B36F"/>
<path d="M5.66794 22.3143C5.6754 22.3062 5.68399 22.3046 5.6901 22.3046C5.69552 22.3046 5.70366 22.306 5.71067 22.3129C5.72356 22.3252 5.72424 22.3449 5.71226 22.3577C5.01222 23.1066 4.19506 23.7203 3.28338 24.1815C3.216 24.2158 3.14862 24.2465 3.08372 24.273L3.06744 24.2797L3.05275 24.2895C3.03149 24.3037 3.01386 24.322 3.00029 24.344C2.90261 24.4827 2.93517 24.71 3.07445 24.8402C3.17281 24.932 3.31617 24.9823 3.47783 24.9823C3.52328 24.9823 3.56964 24.9782 3.61599 24.97C3.80818 24.9354 3.9841 24.8413 4.16227 24.7397C4.7947 24.3792 5.40362 23.9627 5.97319 23.501C5.97861 23.4967 5.98495 23.4944 5.99173 23.4944C5.99738 23.4944 6.00823 23.496 6.01615 23.506C6.02655 23.5193 6.02429 23.5395 6.01117 23.55C5.43934 24.0142 4.82749 24.4328 4.1928 24.7944C4.12247 24.8345 4.03881 24.8809 3.9495 24.9228L3.88461 24.9569L3.85747 25.027C3.75075 25.2247 3.81903 25.5028 4.0058 25.6248C4.09512 25.6834 4.20568 25.7118 4.34384 25.7118C4.41597 25.7118 4.49533 25.7042 4.58691 25.6887C5.12392 25.5969 5.63357 25.3689 6.06092 25.029C6.0668 25.0244 6.07313 25.0222 6.08036 25.0222C6.08602 25.0222 6.09687 25.0238 6.10433 25.0334C6.11496 25.0471 6.11292 25.0668 6.09936 25.0778C5.68173 25.4099 5.18429 25.6385 4.66062 25.7388L4.56384 25.7573L4.52993 25.8509C4.44219 26.0938 4.58645 26.3787 4.77684 26.514C5.01516 26.6834 5.32516 26.7051 5.56845 26.7051C5.58609 26.7051 5.6035 26.7049 5.62068 26.7047C6.80821 26.6902 7.98308 26.2819 8.92868 25.555C9.45551 25.1499 9.78676 24.7324 9.9412 24.2787C10.0972 23.8201 10.0418 23.3129 9.79694 22.9554L9.64318 22.7308L9.50503 22.9654C9.45506 23.0506 9.40125 23.1279 9.34065 23.2023C9.14665 23.4392 8.90652 23.6308 8.65621 23.8228C8.65101 23.8269 8.64513 23.829 8.63835 23.829C8.6336 23.829 8.62184 23.8276 8.61325 23.8162C8.60692 23.8077 8.60669 23.799 8.60737 23.7933C8.60828 23.7873 8.61099 23.7791 8.61958 23.7725C8.86604 23.5829 9.10301 23.3937 9.29226 23.162C9.44104 22.9812 9.62261 22.6931 9.64364 22.3463C9.65675 22.1215 9.59208 21.8975 9.46614 21.7313L9.33635 21.5603L9.19707 21.7235C8.91533 22.0533 8.56034 22.3202 8.17098 22.4946C8.16668 22.4964 8.16171 22.4976 8.15741 22.4976C8.14814 22.4976 8.13525 22.493 8.12938 22.4793C8.12237 22.4633 8.12938 22.4445 8.14498 22.4376C8.59607 22.2355 8.99018 21.9162 9.28435 21.5143C9.43403 21.3106 9.49327 21.1449 9.47044 20.9918C9.45393 20.8837 9.38632 20.7846 9.28548 20.7203C9.21629 20.6759 9.13918 20.6526 9.06276 20.6526C9.03223 20.6526 9.00239 20.6562 8.9739 20.6638C8.96915 20.6647 8.9644 20.6656 8.95965 20.6668L8.92031 20.6755L8.88888 20.7011C8.3781 21.1149 7.81305 21.4518 7.20843 21.7025C7.20481 21.7041 7.20119 21.7047 7.19758 21.7047C7.1874 21.7047 7.17451 21.6988 7.16909 21.6857C7.16275 21.6697 7.17044 21.6507 7.18604 21.6443C7.87342 21.3589 8.50653 20.9629 9.06773 20.4679C9.27055 20.288 9.49282 20.0195 9.39831 19.7625C9.34788 19.6224 9.19956 19.5127 9.0198 19.483C8.98 19.4763 8.93749 19.4731 8.89363 19.4731C8.76452 19.4731 8.63496 19.5011 8.51354 19.5297C6.27459 20.0559 4.3461 21.3662 2.75496 22.5786C2.45808 22.8047 2.20076 23.0162 2.0608 23.3129C1.9231 23.6038 1.94277 24.0222 2.21343 24.2183C2.31291 24.2904 2.43434 24.327 2.57452 24.327C2.76513 24.327 2.98808 24.2611 3.25602 24.1254C4.16069 23.6667 4.97197 23.0574 5.66794 22.3143ZM6.81251 23.4319C6.84326 23.4319 6.86564 23.4422 6.88079 23.4637C6.89888 23.4896 6.90341 23.5264 6.90906 23.5726L6.91155 23.5903C6.94501 23.8446 7.06982 24.0689 7.18423 24.2591L7.23669 24.3465C7.33776 24.5127 7.44223 24.6846 7.50147 24.8695C7.55415 25.0329 7.53832 25.4861 7.397 25.6049C7.37485 25.6237 7.34929 25.633 7.32148 25.633C7.29028 25.633 7.25523 25.6223 7.21634 25.6005C7.12024 25.5477 7.11369 25.474 7.14399 25.2918L7.14534 25.2829C7.15167 25.2423 7.15846 25.2002 7.15981 25.1604C7.16795 24.9622 7.11731 24.7484 7.00018 24.487C6.96355 24.406 6.9233 24.3254 6.88464 24.2474L6.8765 24.2311C6.81613 24.1121 6.74807 23.9769 6.69674 23.8411C6.66282 23.7507 6.62348 23.6187 6.67209 23.517C6.69403 23.4708 6.74581 23.4367 6.8012 23.4323C6.80482 23.4319 6.80867 23.4319 6.81251 23.4319ZM5.94289 21.241C5.94967 21.1785 5.98268 21.1259 6.02632 21.1074C6.03966 21.1016 6.05459 21.0989 6.07042 21.0989C6.11225 21.0989 6.15702 21.1181 6.19342 21.1527C6.2461 21.2021 6.28115 21.277 6.31281 21.3445L6.72613 22.2335C6.78854 22.3676 6.79306 22.4724 6.73812 22.507C6.72433 22.5157 6.70737 22.52 6.68747 22.52C6.63094 22.52 6.53372 22.4809 6.44666 22.3701C6.34401 22.2394 6.25085 22.0936 6.17058 21.9368C6.08896 21.7764 6.02248 21.61 5.97274 21.4408C5.95419 21.38 5.9352 21.3092 5.94289 21.241Z" fill="#F7B36F"/>
<path d="M25.4292 21.2204C25.4079 21.3311 25.443 21.4465 25.5273 21.5449C25.6356 21.6715 25.8097 21.7566 25.961 21.7566C25.9678 21.7566 25.9745 21.7564 25.9804 21.7562C26.2402 21.7443 26.4455 21.5163 26.4742 21.3124C26.4993 21.1425 26.4053 21.0034 26.2208 20.9395C26.1516 20.9164 26.0643 20.9038 25.9754 20.9038C25.8911 20.9038 25.7301 20.915 25.5992 20.9919C25.48 21.0622 25.4407 21.156 25.4292 21.2204Z" fill="#ED6D66"/>
<path d="M24.1027 17.4905C24.1097 17.4905 24.1165 17.4905 24.1226 17.49C24.3833 17.4772 24.5884 17.2492 24.616 17.0462C24.6408 16.8757 24.5468 16.7365 24.3643 16.6741C24.2953 16.6503 24.2076 16.6372 24.1172 16.6372C24.0328 16.6372 23.8718 16.6487 23.7409 16.7253C23.6222 16.7954 23.5829 16.8892 23.5711 16.954C23.5496 17.0645 23.5847 17.1799 23.669 17.2783C23.7776 17.4053 23.9519 17.4905 24.1027 17.4905Z" fill="#ED6D66"/>
<path d="M22.3851 23.8255C22.3921 23.8255 22.3989 23.8252 22.4052 23.825C22.6648 23.8122 22.8699 23.5847 22.8986 23.381C22.9232 23.2112 22.8292 23.0722 22.6467 23.009C22.5596 22.9788 22.4642 22.9727 22.3996 22.9727C22.315 22.9727 22.1536 22.9841 22.0235 23.0603C21.9046 23.1304 21.8653 23.2242 21.8535 23.2887C21.8322 23.3995 21.8671 23.5149 21.9512 23.6128C22.0593 23.7399 22.2336 23.8255 22.3851 23.8255Z" fill="#ED6D66"/>
<path d="M26.6061 23.4406C26.5134 23.968 26.1853 24.483 25.6306 24.9705C24.8013 25.6995 23.7431 26.1698 22.6507 26.2953C22.4362 26.32 22.2166 26.3328 21.9984 26.3328C21.1234 26.3328 20.2967 26.1371 19.6711 25.7821C19.4777 25.6725 19.2959 25.5166 19.1356 25.3795L19.1101 25.3578C19.0266 25.2868 18.9405 25.2136 18.8548 25.1492C18.4896 24.8721 18.1787 24.5393 17.9309 24.1596C17.6467 23.7242 17.45 23.2314 17.362 22.7345C17.3313 22.5617 17.3023 22.3349 17.3509 22.1134C17.4025 21.8838 17.5386 21.6922 17.715 21.6007C17.8036 21.5551 17.9015 21.5322 18.0055 21.5322C18.2834 21.5322 18.5462 21.6956 18.6778 21.7936C19.0725 22.0866 19.3751 22.4814 19.6674 22.8629L19.6715 22.8682C19.9749 23.2637 20.2886 23.672 20.6971 23.9533C20.9038 24.0962 21.1412 24.2065 21.397 24.2813C21.6529 24.3564 21.9267 24.3958 22.2069 24.3958C22.4703 24.3958 22.7348 24.3617 22.9924 24.2944C23.706 24.1092 24.3909 23.689 25.0287 23.0456C25.0513 23.0234 25.074 23.0005 25.0963 22.9772C25.2411 22.8288 25.3898 22.6766 25.5752 22.5716C25.6528 22.5276 25.8102 22.4551 25.9965 22.4551C26.1107 22.4551 26.2147 22.4821 26.3051 22.5366C26.6106 22.7188 26.6606 23.123 26.6061 23.4406Z" fill="#ED6D66"/>
<path d="M9.43638 14.3614C9.50557 14.6868 9.78233 14.9329 10.0803 14.9338H10.0808C10.2567 14.9338 10.4417 14.8489 10.5886 14.7001C10.7695 14.5154 10.8677 14.2604 10.8509 14.0185C10.8335 13.7569 10.6804 13.5152 10.4609 13.4028C10.3512 13.3467 10.2418 13.3184 10.1353 13.3184C9.99804 13.3184 9.86441 13.3657 9.74819 13.4559C9.49856 13.6518 9.37036 14.0135 9.43254 14.3417V14.3431L9.43638 14.3614Z" fill="#ED6D66"/>
<path d="M7.76794 6.63533C7.92237 7.36134 8.55978 7.93057 9.21935 7.93126H9.22115C9.61843 7.93126 10.0363 7.73785 10.3678 7.40117C10.5141 7.25308 10.6398 7.07959 10.7377 6.89305L10.7447 6.89626L10.8139 6.73192C10.8141 6.73169 10.8141 6.73169 10.8141 6.73169L10.8808 6.57262L10.8738 6.56941C10.9518 6.33092 10.9853 6.0835 10.9694 5.84454C10.9294 5.25151 10.5828 4.7038 10.0863 4.44928C9.84092 4.32339 9.59288 4.25977 9.34891 4.25977C9.03846 4.25977 8.73796 4.3662 8.47951 4.56761C8.2032 4.78299 7.98568 5.0977 7.8559 5.46552L7.84979 5.46391L7.80389 5.63145C7.80389 5.63168 7.80366 5.63214 7.80366 5.6326L7.75754 5.80289L7.76455 5.80472C7.71096 6.08578 7.71118 6.36983 7.76794 6.63533ZM8.75356 5.02171C8.9349 4.88026 9.13455 4.8084 9.34687 4.8084C9.51465 4.8084 9.68762 4.85326 9.86105 4.94229C10.205 5.11853 10.4451 5.49939 10.4729 5.91229C10.4865 6.11783 10.4487 6.33298 10.3637 6.53462L10.3635 6.53508C10.2898 6.71063 10.1808 6.87497 10.0478 7.00978C9.81605 7.2453 9.52618 7.38057 9.25078 7.38057C8.79019 7.38011 8.36103 6.99376 8.25204 6.48198C8.20275 6.2515 8.21179 6.00293 8.27805 5.76329L8.27827 5.76283C8.36261 5.45819 8.53129 5.19498 8.75356 5.02171Z" fill="#ED6D66"/>
<path d="M7.65939 14.5313C7.72858 14.8568 8.00512 15.1031 8.30336 15.1038H8.30381C8.47995 15.1038 8.66468 15.0188 8.81143 14.8701C8.99186 14.6863 9.09 14.4313 9.07394 14.1885C9.05653 13.9268 8.90345 13.6854 8.6839 13.573C8.57514 13.5172 8.46548 13.4888 8.3583 13.4888C8.22083 13.4888 8.08697 13.5364 7.97165 13.6263C7.76747 13.7854 7.64062 14.0614 7.64062 14.3462C7.64062 14.4105 7.64696 14.473 7.65939 14.5313Z" fill="#ED6D66"/>
<path d="M7.18556 12.7819C6.93684 13.0357 6.62232 13.1811 6.32249 13.1811H6.32136C5.82482 13.1804 5.34434 12.7522 5.22789 12.206C5.20664 12.104 5.19556 11.998 5.19556 11.8909C5.19556 11.4008 5.41262 10.9268 5.76287 10.6538C5.95732 10.5027 6.18366 10.4224 6.41746 10.4224C6.60151 10.4224 6.78806 10.47 6.97211 10.5643C7.34587 10.7563 7.60635 11.1683 7.63665 11.6142C7.66424 12.0296 7.49601 12.4663 7.18556 12.7819Z" fill="#ED6D66"/>
<path d="M18.3588 27.3743C19.2922 27.9543 20.4085 28.261 21.587 28.261H21.5915C22.5172 28.261 23.4585 28.0642 24.3136 27.6918C26.3721 26.7955 27.9927 24.8722 28.5428 22.6726C29.0929 20.4735 28.5713 18.0016 27.1818 16.2211C26.1074 14.8444 24.1072 13.4556 22.0611 13.4556C21.9379 13.4556 21.8153 13.4606 21.6971 13.4707C20.4399 13.5762 18.4253 14.4496 16.8848 16.5633C15.8225 18.0211 15.2617 19.8212 15.3056 21.6324C15.363 24.0386 16.5329 26.2386 18.3588 27.3743ZM17.6113 17.1733C18.0954 16.5082 18.7387 15.8861 19.4224 15.4214C20.195 14.8952 20.997 14.584 21.7421 14.5212C21.8479 14.5125 21.9564 14.508 22.0643 14.508C23.8173 14.508 25.5321 15.6998 26.4538 16.881C27.6456 18.4079 28.0931 20.5282 27.6216 22.4147C27.1493 24.3016 25.7592 25.9511 23.9937 26.7197C23.2602 27.0388 22.4514 27.2075 21.6548 27.2075C20.6411 27.2075 19.6815 26.9443 18.8797 26.446C17.3119 25.4707 16.3071 23.5822 16.2575 21.5177C16.2198 19.9659 16.7005 18.423 17.6113 17.1733Z" fill="#F9D889"/>
<path d="M23.4664 22.5852C23.4915 22.5852 23.5162 22.5815 23.539 22.5744C23.7353 22.5147 23.8687 22.254 24.0001 21.6731L24.0089 21.6326C24.1416 21.0567 24.5886 20.5742 25.1485 20.4032C25.2337 20.3769 25.3242 20.3572 25.4155 20.3373C25.5824 20.3002 25.7547 20.262 25.9111 20.1785C26.1646 20.0425 26.3645 19.7264 26.2456 19.4529C26.1825 19.3067 26.036 19.1975 25.8512 19.1602C25.8017 19.1508 25.7495 19.146 25.6963 19.146C25.5785 19.146 25.4666 19.168 25.3827 19.187C24.7148 19.3367 24.0948 19.7026 23.6374 20.2178C23.378 20.5094 23.1691 20.8477 23.0335 21.1961C22.8831 21.5824 22.8899 22.1542 23.1992 22.4531C23.2914 22.5419 23.3789 22.5852 23.4664 22.5852Z" fill="#F9D889"/>
<path d="M23.9235 5.81023C24.0087 5.82785 24.0969 5.84593 24.1663 5.89194C24.2448 5.94344 24.2941 6.04712 24.3047 6.18445C24.3095 6.24304 24.3074 6.30255 24.3052 6.36549L24.3047 6.3806C24.3022 6.44514 24.3 6.50603 24.304 6.57195C24.3278 6.90909 24.5496 7.21053 24.8431 7.3046C24.9044 7.32451 24.969 7.33435 25.0355 7.33435C25.3102 7.33435 25.5621 7.1691 25.648 6.93221C25.7317 6.70195 25.6747 6.42134 25.4785 6.09816C25.3521 5.88965 24.6902 4.84961 24.0854 4.84961H24.07C23.7957 4.85762 23.5298 5.14143 23.5332 5.42296C23.5378 5.7308 23.7417 5.77292 23.9235 5.81023Z" fill="#F9D889"/>
<path d="M21.5604 6.03508C21.6942 6.03508 21.8182 5.99022 21.8636 5.97168L21.8977 5.95795C22.0142 5.91011 22.1462 5.85587 22.2609 5.85587C22.3179 5.85587 22.3649 5.86868 22.4085 5.89615C22.5318 5.9742 22.5318 6.13579 22.5261 6.20148L22.5259 6.20216C22.5193 6.27975 22.4956 6.35803 22.4583 6.42372C22.4049 6.51871 22.3305 6.60454 22.2575 6.689C22.1863 6.77208 22.1125 6.85768 22.0544 6.95587C21.924 7.17697 21.9115 7.49397 22.1171 7.64206C22.1822 7.68852 22.2597 7.7121 22.3479 7.7121C22.501 7.7121 22.662 7.64023 22.8008 7.57271C22.9315 7.50908 23.0516 7.47566 23.1484 7.47566C23.2363 7.47566 23.3026 7.50244 23.3503 7.55737C23.4249 7.64366 23.4213 7.76108 23.407 7.93045L23.4066 7.93686C23.4 8.01697 23.3932 8.09982 23.4025 8.17993C23.4201 8.33603 23.5092 8.48389 23.6465 8.58528C23.76 8.66974 23.8968 8.7162 24.0313 8.7162C24.0677 8.7162 24.1039 8.71254 24.1389 8.70567C24.4591 8.64273 24.7083 8.31131 24.6943 7.96684C24.6807 7.64183 24.448 7.33536 24.129 7.22206C24.0652 7.19917 24.0001 7.18407 23.9366 7.16942C23.8624 7.15202 23.7923 7.13554 23.7265 7.10876C23.6266 7.0678 23.5076 6.97624 23.5011 6.85402C23.4979 6.78833 23.5257 6.72195 23.5526 6.65741C23.5716 6.6114 23.5872 6.57295 23.5992 6.53038C23.6313 6.41296 23.5963 6.25298 23.4844 6.1985L23.4489 6.18134H23.4093C23.3062 6.18134 23.2476 6.26007 23.1947 6.33125C23.1601 6.37772 23.1246 6.42578 23.0828 6.44112C23.0735 6.44432 23.0638 6.44592 23.0543 6.44592C23.0362 6.44592 23.0174 6.4402 22.9975 6.4283C22.9564 6.40427 22.9236 6.35689 22.9159 6.30997C22.9121 6.28799 22.9116 6.26556 22.9143 6.24336V6.2429L22.9146 6.24084C22.9236 6.15913 22.9657 6.07948 22.9953 6.02913L23.0272 5.9758C23.0758 5.89638 23.1309 5.80643 23.1515 5.70343C23.235 5.29762 22.7384 4.86961 22.3635 4.72862C22.3079 4.70779 22.2498 4.69727 22.1908 4.69727C21.8442 4.69727 21.5504 5.05478 21.3327 5.36675C21.1645 5.60936 21.185 5.76935 21.2321 5.86113C21.2655 5.9259 21.3526 6.03508 21.5604 6.03508Z" fill="#F9D889"/>
<path d="M19.3327 21.1515C19.3524 21.1533 19.3734 21.1542 19.3947 21.1542C19.5563 21.1542 19.6357 21.0869 19.6735 21.0311C19.7897 20.8603 19.7327 20.5722 19.4765 20.0366L19.4582 19.9986C19.2056 19.4653 19.2561 18.8059 19.5866 18.3186C19.637 18.2447 19.694 18.1728 19.7553 18.0966C19.8627 17.9622 19.9737 17.8233 20.0434 17.6594C20.1573 17.393 20.118 17.0199 19.8559 16.8817C19.7933 16.8487 19.72 16.8315 19.6436 16.8315C19.5516 16.8315 19.4566 16.856 19.3693 16.9023C19.2201 16.9808 19.108 17.1076 19.0184 17.2211C18.5895 17.7608 18.3324 18.4388 18.2937 19.1302C18.2716 19.5232 18.3179 19.9194 18.4274 20.276C18.5486 20.6722 18.9072 21.1139 19.3327 21.1515Z" fill="#F9D889"/>
<path d="M3.58896 16.1009C4.31974 16.7676 5.33566 17.135 6.4497 17.135C6.64913 17.135 6.85241 17.1231 7.0541 17.0993C8.12473 16.9745 9.22204 16.5475 10.5073 15.7553C11.6952 15.0231 12.6207 14.2458 13.3361 13.3788C14.1883 12.3459 14.7346 11.1765 14.9159 9.99663C15.1488 8.47823 14.7785 6.83783 13.8998 5.49612C13.2737 4.54031 12.3917 3.73167 11.3488 3.15764C10.8589 2.88824 10.3042 2.75732 9.65346 2.75732C9.24917 2.75732 8.86366 2.80905 8.60883 2.84773C7.92349 2.9521 7.27727 3.23065 6.74071 3.6534C5.78223 4.40733 5.17354 5.60782 5.11249 6.86507C5.10096 7.11226 5.10932 7.36586 5.11746 7.61122L5.11769 7.62152C5.13352 8.07516 5.1498 8.54391 5.039 8.99367C4.84862 9.76363 4.31771 10.3617 3.8015 10.9433C3.33345 11.4704 2.89141 11.9682 2.65218 12.6029C2.22302 13.7423 2.61691 15.2133 3.58896 16.1009ZM8.7307 14.789C8.60521 14.916 8.44965 14.9888 8.30358 14.9888C8.18804 14.9885 8.07024 14.9405 7.97188 14.854C7.87035 14.7642 7.79845 14.6411 7.76996 14.5072C7.70891 14.2193 7.82242 13.8872 8.04039 13.7171C8.13626 13.6423 8.24298 13.6043 8.35785 13.6043C8.44829 13.6043 8.54054 13.6281 8.63189 13.675C8.8164 13.7697 8.94551 13.9744 8.96043 14.1962C8.97445 14.4065 8.88853 14.6283 8.7307 14.789ZM9.40338 8.57069C9.3758 8.74487 9.24239 8.89319 9.12481 9.02434C8.98757 9.17632 8.85167 9.3418 8.82906 9.54527C8.80464 9.76683 8.91611 9.95909 9.02397 10.1449C9.12323 10.3159 9.21707 10.4773 9.20802 10.6553C9.20237 10.7664 9.15511 10.8714 9.10537 10.9824L9.10266 10.9886C9.05065 11.1053 8.99684 11.226 8.99163 11.3603C8.98802 11.4441 9.02962 11.5631 9.09904 11.7515C9.16958 11.9405 9.27586 12.2266 9.20599 12.3001C9.20056 12.3058 9.18405 12.3228 9.12979 12.3228C9.06603 12.3228 8.99525 12.299 8.9593 12.2868C8.51635 12.136 8.41438 11.7695 8.62873 11.0989C8.70945 10.846 8.77773 10.5981 8.72618 10.3443C8.69317 10.1823 8.61222 10.0358 8.53421 9.89409L8.38249 9.97969L8.53127 9.88882C8.43133 9.70641 8.33682 9.53429 8.34677 9.34409C8.3583 9.12527 8.51115 8.9305 8.63483 8.77257L8.8978 8.43771C8.9939 8.3148 9.07326 8.23744 9.17184 8.23172C9.17524 8.23149 9.17863 8.23126 9.18202 8.23126C9.24804 8.23126 9.29575 8.26949 9.32447 8.30176C9.3871 8.3718 9.41808 8.47754 9.40338 8.57069ZM10.5077 14.6191C10.3822 14.7462 10.2266 14.8189 10.0808 14.8189C9.96504 14.8185 9.84724 14.7706 9.7491 14.6841C9.64736 14.5944 9.57568 14.4713 9.54719 14.3371C9.48591 14.0497 9.59987 13.7173 9.81829 13.547C9.91371 13.4724 10.0204 13.4344 10.1351 13.4344C10.2255 13.4344 10.3178 13.4582 10.4091 13.5052C10.5941 13.6001 10.723 13.8043 10.7374 14.0259C10.7515 14.2364 10.6655 14.4585 10.5077 14.6191ZM11.705 6.24594C11.8004 6.17133 11.9073 6.13356 12.0222 6.13356C12.1129 6.13356 12.2051 6.15736 12.2969 6.20428C12.4812 6.29881 12.6101 6.5032 12.625 6.72499C12.6392 6.93533 12.5531 7.15712 12.395 7.31802C12.2702 7.44482 12.1147 7.51761 11.9675 7.51761C11.7258 7.51715 11.4915 7.30544 11.4343 7.03604C11.3733 6.74811 11.4872 6.41577 11.705 6.24594ZM11.9541 8.5018C12.2546 8.5018 12.563 8.58191 12.871 8.73961C13.486 9.05501 13.9152 9.73479 13.9645 10.4716C14.0111 11.1651 13.7284 11.8945 13.2088 12.4228C12.7959 12.843 12.2779 13.084 11.7855 13.084C11.3972 13.0836 10.9995 12.9192 10.666 12.6214C10.3275 12.32 10.0903 11.9144 9.99805 11.4789C9.79387 10.5196 10.1606 9.45212 10.8901 8.88312C11.2136 8.6302 11.5716 8.5018 11.9541 8.5018ZM8.54914 4.65865C8.79221 4.4689 9.0606 4.373 9.34663 4.373C9.57206 4.373 9.8036 4.4332 10.0351 4.55199C10.4969 4.78865 10.8191 5.29906 10.8561 5.85181C10.891 6.37343 10.6786 6.92229 10.2882 7.31963C9.97748 7.63548 9.58834 7.81653 9.2191 7.81653C8.60092 7.81538 8.02479 7.29742 7.87895 6.61169C7.72519 5.8898 8.00082 5.08665 8.54914 4.65865ZM6.80153 8.07471C6.8974 8.00009 7.00413 7.96233 7.11899 7.96233C7.20943 7.96233 7.30191 7.98613 7.39349 8.03305C7.57845 8.12758 7.7071 8.33174 7.7218 8.55376C7.73582 8.7641 7.64967 8.98589 7.49185 9.14679C7.36681 9.27359 7.21124 9.34637 7.06472 9.34637C6.82301 9.34592 6.58876 9.1342 6.53133 8.86458C6.47005 8.5771 6.58401 8.24477 6.80153 8.07471ZM5.61739 10.3649C5.86023 10.1754 6.1284 10.0793 6.4142 10.0793C6.63986 10.0793 6.87162 10.1395 7.10339 10.2585C7.56488 10.4947 7.88731 11.0049 7.92485 11.5585C7.95967 12.0797 7.74712 12.6283 7.35618 13.0263C7.04596 13.342 6.65705 13.5228 6.28781 13.5228C5.6694 13.5219 5.09282 13.0037 4.94697 12.3175C4.79345 11.5963 5.06907 10.7934 5.61739 10.3649ZM4.94426 14.6573C5.03991 14.5827 5.1464 14.5447 5.26127 14.5447C5.35171 14.5447 5.44374 14.5685 5.53531 14.6152C5.72005 14.7102 5.84915 14.9146 5.86363 15.1359C5.87764 15.347 5.79172 15.5688 5.6339 15.7294C5.50841 15.8565 5.35284 15.9292 5.20655 15.9292C4.96506 15.9288 4.73081 15.7173 4.67315 15.4474C4.6121 15.16 4.72606 14.8279 4.94426 14.6573ZM3.35312 13.1774C3.37822 12.783 3.5989 12.4166 3.92767 12.2083C3.85803 12.4191 3.79743 12.6606 3.84469 12.8977C3.87792 13.0643 3.96068 13.2117 4.04208 13.3566C4.06153 13.3909 4.08052 13.4255 4.09929 13.4608C4.17368 13.5981 4.26774 13.8029 4.22862 13.9973C4.19403 14.1701 4.11037 14.2271 4.04525 14.2444C4.02738 14.2493 4.00794 14.2518 3.98601 14.2518C3.87702 14.2518 3.75628 14.1877 3.66312 14.0799C3.46437 13.8512 3.35041 13.55 3.35041 13.2534C3.35041 13.2275 3.35154 13.2023 3.35312 13.1774Z" fill="#F9D889"/>
<path d="M11.0691 29.4067C11.4348 29.639 11.8777 29.7619 12.3498 29.7619C12.4407 29.7619 12.5328 29.7571 12.6241 29.748C13.3515 29.6743 13.9977 29.3062 14.3525 28.7638C14.6842 28.2568 14.7826 27.5752 14.6227 26.894C14.4165 26.0128 13.7888 25.2777 13.0236 25.0211C12.8229 24.9538 12.613 24.9199 12.3996 24.9199C11.8081 24.9199 11.2333 25.1836 10.9353 25.5917C10.8231 25.7457 10.7173 25.924 10.6239 26.0815C10.5681 26.176 10.4984 26.2937 10.4297 26.3999C10.19 26.7695 10.0636 27.209 10.0738 27.6374C10.0914 28.3392 10.4822 29.0338 11.0691 29.4067ZM12.9915 26.997C13.1439 26.8865 13.314 26.8281 13.4831 26.8281C13.6339 26.8281 13.7766 26.8755 13.8955 26.9652C14.0993 27.1195 14.1981 27.4095 14.1413 27.6869C14.0723 28.0231 13.7836 28.2927 13.453 28.3287C13.4334 28.3309 13.4107 28.3321 13.3841 28.3321C13.0743 28.3321 12.7715 28.1163 12.6797 27.8302C12.5839 27.5308 12.7062 27.2037 12.9915 26.997ZM11.8732 25.8416C11.9872 25.759 12.114 25.7153 12.2399 25.7153C12.3519 25.7153 12.4579 25.7508 12.5461 25.8174C12.6974 25.9318 12.7706 26.1472 12.7283 26.3536C12.6782 26.6004 12.4584 26.8061 12.2149 26.8322C12.1997 26.8341 12.183 26.835 12.1651 26.835C11.9342 26.835 11.7086 26.6743 11.6403 26.4614C11.5691 26.2387 11.6604 25.9957 11.8732 25.8416ZM11.1741 27.4344C11.288 27.3516 11.4149 27.3078 11.541 27.3078C11.653 27.3078 11.7588 27.3431 11.847 27.4099C11.9982 27.5244 12.0715 27.74 12.0292 27.9467C11.979 28.1932 11.7592 28.3985 11.5153 28.4248C11.5003 28.4266 11.4838 28.4275 11.466 28.4275C11.2351 28.4275 11.0095 28.2669 10.9412 28.054C10.8697 27.8313 10.9611 27.5882 11.1741 27.4344Z" fill="#F9D889"/>
<path d="M7.03196 25.2733C7.00912 25.4114 6.97791 25.6004 7.16174 25.7009C7.2185 25.7323 7.2705 25.7476 7.32092 25.7476C7.377 25.7476 7.42742 25.7288 7.46948 25.6929C7.66981 25.524 7.66484 25.0067 7.60944 24.8339C7.5459 24.6355 7.44212 24.4649 7.33178 24.2832L7.3112 24.2493C7.30148 24.2335 7.29198 24.2177 7.28113 24.199C7.1726 24.0184 7.05434 23.8064 7.02382 23.5725L7.02133 23.5556C7.01477 23.4991 7.00618 23.4446 6.97565 23.4013C6.94015 23.3473 6.88001 23.3164 6.81082 23.3164L6.79793 23.3166L6.79002 23.3173C6.69618 23.3258 6.60732 23.3862 6.56978 23.4659C6.50105 23.608 6.54898 23.7712 6.59036 23.8806C6.64214 24.0198 6.70636 24.1468 6.77487 24.2827L6.78798 24.3091C6.82484 24.3828 6.86282 24.459 6.89697 24.5347C6.9657 24.6883 7.05592 24.9197 7.04643 25.1564C7.0453 25.1866 7.0401 25.2209 7.03444 25.2571L7.03196 25.2733Z" fill="#F9D889"/>
<path d="M6.79612 22.6062L6.80449 22.6007C6.90805 22.5288 6.91732 22.3732 6.82914 22.1844L6.41354 21.2915C6.3785 21.2169 6.33915 21.1324 6.27064 21.0683C6.21366 21.0146 6.1404 20.9839 6.07008 20.9839C6.04069 20.9839 6.0122 20.9892 5.98393 21.0008C5.9014 21.0354 5.84239 21.1221 5.82973 21.2295C5.82091 21.3148 5.84149 21.3966 5.86342 21.473L5.9005 21.5996H5.9048C6.01197 21.9106 6.16731 22.1995 6.35815 22.4414C6.45357 22.5629 6.57657 22.6355 6.68736 22.6355C6.72761 22.6355 6.76447 22.6257 6.79612 22.6062Z" fill="#F9D889"/>
<path d="M23.1363 9.71997C23.5395 9.71997 23.9582 9.65955 24.3815 9.5403C24.9436 9.38123 25.6979 9.05438 26.1011 8.40115C26.4353 7.85939 26.5047 7.11987 26.2914 6.37257C26.0097 5.38632 25.2936 4.53694 24.3763 4.10069C23.8922 3.87021 23.2831 3.73242 22.747 3.73242C22.1776 3.73242 21.7193 3.88806 21.421 4.18263C20.1792 5.41058 20.0395 6.246 20.0666 6.90129C20.1096 7.96788 20.7825 8.98434 21.7408 9.43089C22.1518 9.6227 22.6215 9.71997 23.1363 9.71997ZM24.0731 4.96472L24.0855 4.96449C24.5079 4.96449 25.032 5.58133 25.382 6.1588C25.5589 6.45039 25.6124 6.69713 25.5412 6.89259C25.4711 7.08577 25.2649 7.22058 25.0397 7.22058C24.9834 7.22058 24.9287 7.21211 24.8771 7.1954C24.6261 7.11461 24.4371 6.85506 24.4177 6.56277C24.4134 6.50693 24.4154 6.45062 24.4177 6.39111L24.4181 6.37601C24.4204 6.311 24.4229 6.24394 24.4181 6.17368C24.4095 6.07365 24.3736 5.89124 24.2273 5.79488C24.1384 5.73697 24.0346 5.71614 23.9437 5.69783C23.7393 5.65594 23.6494 5.61726 23.6464 5.4218C23.6437 5.20184 23.859 4.97113 24.0731 4.96472ZM21.3335 5.80907C21.3191 5.78069 21.3121 5.75047 21.3121 5.71637C21.3121 5.63718 21.3514 5.53876 21.426 5.43164C21.5443 5.26181 21.8586 4.81091 22.1894 4.81091C22.2348 4.81091 22.2787 4.81892 22.3237 4.83586C22.612 4.94412 23.1121 5.3291 23.0407 5.67952C23.0239 5.76077 22.9774 5.83791 22.9303 5.91595C22.9303 5.91595 22.9066 5.95509 22.8993 5.96768C22.8471 6.05672 22.7804 6.19107 22.8037 6.32771C22.8164 6.40851 22.8688 6.48518 22.943 6.52913C22.9789 6.54996 23.0165 6.56049 23.0538 6.56049C23.0773 6.56049 23.1001 6.55637 23.1214 6.54836C23.1946 6.52135 23.2421 6.45795 23.2858 6.39981C23.3382 6.3284 23.3683 6.29659 23.4045 6.2959C23.4294 6.29613 23.4477 6.30528 23.4628 6.3252C23.494 6.36639 23.5058 6.44147 23.4904 6.49869C23.4809 6.53233 23.4671 6.56621 23.4526 6.60237L23.4477 6.61427C23.416 6.69026 23.3832 6.76877 23.3875 6.86009C23.3979 7.03656 23.5474 7.15901 23.6828 7.2144C23.7601 7.24667 23.8409 7.26498 23.911 7.28101C23.9704 7.29497 24.0319 7.30939 24.0907 7.33022C24.3679 7.42863 24.5692 7.69254 24.5802 7.97177C24.5918 8.2565 24.3795 8.54077 24.1154 8.59273C24.0889 8.59822 24.06 8.60097 24.029 8.60097C23.9196 8.60097 23.8076 8.56252 23.7136 8.49248C23.6016 8.40939 23.5291 8.29083 23.5148 8.16655C23.5067 8.0972 23.5128 8.02281 23.5196 7.93996C23.5334 7.77837 23.5474 7.61128 23.4352 7.48105C23.3877 7.42657 23.2993 7.36134 23.1478 7.36134C22.9957 7.36134 22.8342 7.42863 22.751 7.46915C22.6463 7.51996 22.4883 7.59663 22.3458 7.59663C22.2816 7.59663 22.228 7.58061 22.1821 7.54765C22.0322 7.44031 22.0496 7.18716 22.1514 7.01459C22.2045 6.92509 22.2753 6.84315 22.3442 6.76328L22.349 6.75778C22.4227 6.67195 22.4991 6.58292 22.5568 6.48038C22.6818 6.25859 22.6834 5.93495 22.4682 5.79854C22.4076 5.76054 22.3368 5.74109 22.2581 5.74109C22.1229 5.74109 21.9865 5.79716 21.8547 5.85118L21.8219 5.86446C21.7349 5.89993 21.6431 5.91939 21.5633 5.91939C21.4484 5.91939 21.3708 5.88208 21.3335 5.80907Z" fill="#94C668"/>
<path d="M12.9342 23.2494C12.6634 23.191 12.3834 23.1308 12.224 22.9138C11.9674 22.5652 12.2039 22.0695 12.5318 21.7566C12.5874 21.7037 12.6457 21.6518 12.7041 21.5996C12.9621 21.3682 13.2291 21.1292 13.2852 20.7985C13.3406 20.4707 13.1685 20.1624 13.0012 19.8626C12.8436 19.5806 12.6946 19.3142 12.6891 19.0075C12.6871 18.91 12.6995 18.807 12.7117 18.7074L12.7133 18.6958C12.7436 18.4543 12.7723 18.2261 12.6218 18.0734C12.5603 18.0107 12.4779 17.9775 12.3834 17.9775C12.3581 17.9775 12.3317 17.9801 12.3061 17.9849C12.1408 18.0146 11.9853 18.1332 11.9195 18.2792C11.8173 18.5049 11.8381 18.7919 11.9825 19.1558C12.0054 19.2144 12.0302 19.2723 12.0551 19.3307L12.0621 19.3467C12.1566 19.568 12.2546 19.7969 12.2722 20.0443C12.3045 20.4959 12.0766 20.8754 11.8353 21.2769L11.9837 21.3684L11.8317 21.2831C11.6651 21.5605 11.5075 21.8223 11.4302 22.1157C11.3976 22.24 11.3809 22.3693 11.3809 22.5C11.3809 22.831 11.484 23.156 11.6707 23.4146C11.8966 23.728 12.3226 23.9944 12.84 24.1457C12.9146 24.1674 13 24.1789 13.0869 24.1789C13.1667 24.1789 13.438 24.1667 13.5755 24.0122C13.6359 23.9468 13.691 23.8266 13.6114 23.6273C13.5104 23.3746 13.2307 23.3137 12.9342 23.2494Z" fill="#94C668"/>
<path d="M9.20815 9.10152C9.33659 8.95938 9.48197 8.79825 9.51521 8.58974C9.53579 8.46385 9.49418 8.32057 9.40736 8.22261C9.32664 8.13426 9.23981 8.11572 9.18125 8.11572C9.17537 8.11572 9.16859 8.11595 9.16112 8.11664C9.0085 8.1274 8.89906 8.25076 8.80862 8.36612L8.54633 8.70052C8.3824 8.90971 8.24583 9.10197 8.23407 9.33727C8.22209 9.56203 8.32972 9.75772 8.43599 9.9509C8.51286 10.0912 8.58567 10.2235 8.61529 10.3677C8.66119 10.5936 8.59381 10.8351 8.52055 11.0635C8.37313 11.5261 8.25465 12.1676 8.92326 12.3956C9.00601 12.4235 9.07407 12.4372 9.13128 12.4372C9.15027 12.4372 9.16768 12.4359 9.18419 12.4327H9.25564L9.30742 12.3551C9.37661 12.2509 9.3549 12.1122 9.20567 11.7108C9.15502 11.5739 9.10279 11.4322 9.10527 11.3645C9.1098 11.2521 9.15683 11.1461 9.2077 11.0319C9.25767 10.9218 9.31397 10.7971 9.32121 10.6618C9.33274 10.451 9.22647 10.267 9.12223 10.0862C9.0189 9.90833 8.92167 9.74055 8.9418 9.55814C8.96056 9.38945 9.07882 9.24571 9.20815 9.10152Z" fill="#94C668"/>
<path d="M2.29394 17.0325C2.48251 17.1984 2.68646 17.3479 2.9024 17.4822L2.37421 18.0634C2.29778 18.1476 2.30321 18.2785 2.38642 18.3559C2.42553 18.3925 2.47528 18.4108 2.5248 18.4108C2.57997 18.4108 2.63514 18.3881 2.67539 18.3437L3.2696 17.69C3.63093 17.8736 4.02097 18.016 4.43113 18.116L4.13493 18.6209C4.07727 18.7191 4.10915 18.8464 4.20638 18.9047C4.23916 18.9244 4.27512 18.9338 4.31062 18.9338C4.38048 18.9338 4.44854 18.8976 4.48675 18.8324L4.85577 18.2034C5.18905 18.2588 5.53319 18.2874 5.88434 18.2874C5.98609 18.2874 6.08829 18.2845 6.19095 18.2796L6.03923 18.9844C6.01526 19.0961 6.08513 19.2064 6.1957 19.2309C6.21039 19.2341 6.22509 19.2357 6.23934 19.2357C6.33362 19.2357 6.41819 19.1695 6.43922 19.0727L6.61694 18.2467C6.62259 18.246 6.62847 18.2455 6.63412 18.2449C6.94751 18.2096 7.26248 18.1535 7.58175 18.0773L7.56434 18.7685C7.56163 18.883 7.65072 18.978 7.76377 18.9809C7.76558 18.9809 7.76739 18.9809 7.76897 18.9809C7.87954 18.9809 7.97066 18.8917 7.97337 18.7791L7.99372 17.9672C8.33764 17.8667 8.68766 17.7418 9.04649 17.5916L9.15729 18.2936C9.17334 18.3955 9.2604 18.4682 9.35921 18.4682C9.36983 18.4682 9.38069 18.4673 9.39154 18.4655C9.50324 18.4474 9.57921 18.3412 9.56135 18.2284L9.43427 17.4216C9.64501 17.3245 9.85936 17.2183 10.0776 17.1039L10.3048 17.8741C10.3313 17.964 10.4127 18.0219 10.5008 18.0219C10.5201 18.0219 10.54 18.0192 10.5594 18.0132C10.6677 17.9805 10.7292 17.8651 10.6969 17.7555L10.4457 16.9043C10.5859 16.826 10.7269 16.7455 10.8708 16.6601C11.0157 16.5742 11.1563 16.4875 11.2947 16.4003L11.5011 16.8951C11.5342 16.9741 11.6099 17.0217 11.6897 17.0217C11.7162 17.0217 11.7431 17.0164 11.7691 17.0055C11.8733 16.9608 11.9219 16.8393 11.8781 16.734L11.645 16.1751C11.9387 15.9805 12.2168 15.7825 12.4813 15.5814L12.7986 16.138C12.8363 16.2046 12.9053 16.2417 12.9761 16.2417C13.0107 16.2417 13.0457 16.2328 13.078 16.214C13.1759 16.157 13.2094 16.0304 13.1531 15.9313L12.8083 15.3257C13.1495 15.0494 13.4649 14.7659 13.757 14.4738L14.2683 15.1524C14.3085 15.206 14.3694 15.2341 14.4311 15.2341C14.4743 15.2341 14.5179 15.2202 14.555 15.1916C14.6448 15.1225 14.6622 14.9924 14.5937 14.9014L14.0458 14.174C14.1405 14.0717 14.2335 13.9684 14.323 13.8641C14.4514 13.7139 14.574 13.5612 14.6911 13.4065L15.2788 13.9641C15.3183 14.0016 15.3685 14.0202 15.4187 14.0202C15.4732 14.0202 15.5277 13.9982 15.568 13.9547C15.6453 13.8712 15.641 13.74 15.5587 13.662L14.934 13.0692C15.213 12.6643 15.4536 12.2463 15.653 11.8197L16.315 12.1539C16.3444 12.1687 16.3754 12.1758 16.4062 12.1758C16.4812 12.1758 16.5536 12.1337 16.5895 12.0609C16.6397 11.9586 16.5988 11.8343 16.4977 11.7833L15.8194 11.4407C16.0032 10.9884 16.1414 10.5283 16.2311 10.0658L17.1573 10.3521C17.1772 10.3583 17.1973 10.361 17.217 10.361C17.3047 10.361 17.3857 10.3038 17.4126 10.2145C17.4456 10.1051 17.3848 9.98932 17.2767 9.9559L16.2985 9.65355C16.3476 9.27887 16.365 8.89915 16.3526 8.51807H17.0248C17.1376 8.51807 17.2292 8.42537 17.2292 8.31093C17.2292 8.19672 17.1376 8.10379 17.0248 8.10379H16.3272C16.2886 7.67464 16.2113 7.2464 16.098 6.8248L16.8145 6.55289C16.9203 6.51283 16.9739 6.39336 16.9344 6.28624C16.8948 6.17935 16.7768 6.12488 16.6709 6.16516L15.9797 6.42746C15.8556 6.04774 15.7011 5.67558 15.5182 5.31555L16.1873 4.98642C16.289 4.93629 16.3313 4.81247 16.282 4.7097C16.2327 4.6067 16.1102 4.5639 16.0087 4.6138L15.3213 4.95186C15.2254 4.78569 15.1234 4.62227 15.0149 4.46251C14.9098 4.30779 14.7981 4.15672 14.6816 4.00864L15.513 3.33275C15.6012 3.26111 15.6152 3.13065 15.5445 3.04138C15.4739 2.95235 15.345 2.93816 15.2568 3.00957L14.4184 3.69141C14.1582 3.39317 13.8746 3.11119 13.5707 2.84775L14.2274 2.01439C14.2977 1.9249 14.2832 1.79466 14.1948 1.72325C14.1066 1.65207 13.9777 1.66672 13.9074 1.75621L13.2542 2.58522C13.0046 2.38838 12.7427 2.20413 12.4703 2.03247L13.0656 1.0096C13.123 0.911179 13.0907 0.784149 12.9932 0.726013C12.8958 0.667877 12.7703 0.700836 12.7131 0.799255L12.1184 1.82076C12.0364 1.77383 11.9534 1.72806 11.8697 1.68365C11.626 1.55457 11.379 1.45638 11.1315 1.38268L11.3653 0.470123C11.3937 0.359344 11.3279 0.246277 11.2187 0.217667C11.1093 0.188827 10.9976 0.255432 10.9691 0.365982L10.7337 1.28494C10.4104 1.22131 10.0875 1.19476 9.77073 1.19247V0.207138C9.77073 0.0926971 9.67915 0 9.5661 0C9.45304 0 9.36147 0.0926971 9.36147 0.207138V1.20232C9.04288 1.21948 8.73265 1.25633 8.4369 1.29982C8.31435 1.31767 8.19315 1.34033 8.07286 1.36665L7.90238 0.453644C7.88157 0.341263 7.7744 0.267563 7.66338 0.28862C7.55236 0.309677 7.47932 0.418167 7.50035 0.530548L7.67559 1.47011C7.3319 1.57448 7.0011 1.71387 6.68975 1.88553C6.50931 1.64497 6.37885 1.36551 6.31192 1.07117C6.28659 0.959702 6.1767 0.889893 6.06659 0.915756C5.95647 0.941391 5.88773 1.05263 5.91306 1.16409C5.98971 1.50032 6.13487 1.82076 6.33611 2.0993C6.25109 2.15584 6.16788 2.21466 6.08649 2.27623C5.85201 2.45407 5.63449 2.65251 5.43506 2.86766L4.83632 2.13295C4.76442 2.0446 4.63554 2.03201 4.54826 2.1048C4.4612 2.17758 4.44877 2.30804 4.52067 2.39639L5.1635 3.18558C4.95186 3.45497 4.76668 3.74496 4.61044 4.05029L4.02052 3.61038C3.92962 3.5424 3.80164 3.56209 3.73449 3.6541C3.66756 3.74611 3.687 3.87589 3.7779 3.94363L4.43362 4.43298C4.30225 4.74907 4.2014 5.0782 4.13357 5.41489L3.33879 4.98962C3.23885 4.93629 3.11517 4.97475 3.06226 5.07591C3.00958 5.17708 3.04756 5.30228 3.1475 5.35583L4.06551 5.84702C4.0533 5.9539 4.04403 6.06102 4.0386 6.16859C4.02368 6.46843 4.03431 6.77078 4.04471 7.06329C4.04471 7.06856 4.04494 7.07359 4.04516 7.07863L2.8626 6.80443C2.75226 6.77879 2.64283 6.84837 2.6175 6.95984C2.5924 7.07153 2.66114 7.18254 2.77126 7.20818L4.05692 7.50641C4.06189 7.87628 4.04607 8.23242 3.9572 8.57895C3.93663 8.65929 3.91153 8.73756 3.88417 8.81447L3.03626 8.53638C2.92908 8.50136 2.81354 8.56087 2.77849 8.66959C2.74367 8.77853 2.80269 8.89526 2.91009 8.93051L3.71843 9.19556C3.57056 9.48097 3.38085 9.74716 3.16808 10.0069L2.44362 9.65607C2.34187 9.60663 2.21977 9.65034 2.17093 9.75357C2.12209 9.8568 2.16528 9.98039 2.26703 10.0298L2.88996 10.3315C2.77374 10.462 2.6539 10.5922 2.53271 10.7238C2.41943 10.8465 2.3057 10.9703 2.19354 11.0957L1.5272 10.6474C1.43314 10.584 1.30606 10.6098 1.24365 10.705C1.18102 10.8002 1.20657 10.9289 1.30063 10.9923L1.92153 11.41C1.70356 11.6725 1.50119 11.9472 1.33342 12.2438L0.679962 11.952C0.576404 11.9057 0.455887 11.9531 0.410213 12.0577C0.364538 12.1623 0.411343 12.2848 0.514902 12.3308L1.14914 12.6141C1.13399 12.6492 1.11907 12.6842 1.10505 12.7197C0.987924 13.0188 0.918735 13.3365 0.893636 13.6615L0.214853 13.6301C0.101572 13.6253 0.0063796 13.7135 0.00117906 13.8277C-0.00379536 13.9421 0.0834832 14.0389 0.196312 14.044L0.885496 14.0758C0.896802 14.3921 0.947677 14.7112 1.03609 15.0233L0.185685 15.241C0.0762477 15.2689 0.00977127 15.3815 0.0375828 15.4926C0.0610983 15.5864 0.144307 15.6489 0.235882 15.6489C0.252388 15.6489 0.269346 15.6468 0.286078 15.6425L1.16836 15.4168C1.3038 15.7622 1.48627 16.0931 1.7108 16.3962L0.848867 17.0506C0.758649 17.119 0.740334 17.249 0.807941 17.3403C0.848188 17.3946 0.90969 17.4232 0.97187 17.4232C1.01461 17.4232 1.05757 17.4099 1.09442 17.3817L1.97218 16.7155C2.07325 16.8267 2.1802 16.9327 2.29394 17.0325ZM2.83185 11.0062C3.46248 10.3221 4.11458 9.61464 4.35335 8.68309C4.49241 8.14156 4.47274 7.58606 4.45374 7.04865C4.44357 6.76483 4.43317 6.47141 4.44741 6.18965C4.51773 4.78798 5.22229 3.44902 6.33204 2.60788C6.95407 2.13638 7.70227 1.82556 8.49546 1.70975C9.4804 1.56555 10.6288 1.49345 11.6798 2.05055C12.906 2.70035 13.9425 3.61565 14.6778 4.69711C15.7068 6.21094 16.1407 8.0603 15.8682 9.77097C15.6562 11.1017 15.0149 12.4232 14.0137 13.5926C13.303 14.4225 12.4142 15.1813 11.3117 15.8993C11.3105 15.8997 11.3094 15.9 11.3085 15.9004C11.2857 15.91 11.2662 15.924 11.249 15.94C11.06 16.062 10.8656 16.1831 10.6639 16.3028C9.14463 17.2048 7.84969 17.6912 6.5889 17.8333C5.41426 17.9654 4.28981 17.766 3.37723 17.2806C3.37497 17.2781 3.37316 17.2753 3.37067 17.2728C3.34196 17.2462 3.30782 17.2302 3.27232 17.2229C3.01659 17.078 2.77872 16.91 2.56233 16.7198C1.44919 15.7409 0.99629 14.1227 1.48559 12.8721C1.761 12.1683 2.30547 11.5775 2.83185 11.0062Z" fill="black"/>
<path d="M3.43107 16.2776C4.20934 16.9881 5.2854 17.3735 6.45077 17.3735C6.65834 17.3735 6.86885 17.3612 7.08094 17.3364C8.1873 17.2071 9.31514 16.7695 10.63 15.959C11.8408 15.2126 12.7853 14.4187 13.517 13.5317C14.3968 12.4651 14.9609 11.2555 15.1486 10.0335C15.3905 8.45697 15.0068 6.75523 14.096 5.36455C13.4489 4.37623 12.5377 3.54081 11.4614 2.9487C10.4889 2.41357 9.45601 2.47835 8.57395 2.61201C7.84949 2.7221 7.16574 3.0169 6.59639 3.46483C5.58432 4.26111 4.94171 5.52797 4.8775 6.85342C4.86506 7.11366 4.87388 7.37596 4.88247 7.62956C4.8983 8.08778 4.913 8.52083 4.81034 8.93579C4.6342 9.6483 4.14558 10.1988 3.62824 10.7815C3.16584 11.3024 2.68762 11.8408 2.43234 12.5178C1.96949 13.7455 2.3896 15.3269 3.43107 16.2776ZM2.81469 12.6654C3.04284 12.0605 3.47493 11.5739 3.93258 11.0584C4.46055 10.4638 5.00661 9.8488 5.20739 9.0365C5.32407 8.56477 5.30756 8.08206 5.29151 7.61537C5.28314 7.37024 5.27455 7.11686 5.28631 6.87356C5.34464 5.66713 5.92823 4.51516 6.8476 3.7919C7.36155 3.38746 7.97951 3.12127 8.63478 3.02171C8.95766 2.97273 9.3018 2.93336 9.6534 2.93336C10.1893 2.93336 10.743 3.02469 11.2662 3.31262C12.284 3.87269 13.1448 4.66142 13.7553 5.59366C14.6102 6.89897 14.9706 8.49428 14.7443 9.96988C14.5681 11.1177 14.0352 12.2575 13.2031 13.2662C12.5006 14.1179 11.5891 14.8831 10.4172 15.6054C9.1546 16.3834 8.07967 16.8027 7.03391 16.9249C5.7478 17.0753 4.53471 16.7272 3.70534 15.9702C2.78417 15.1293 2.40973 13.7396 2.81469 12.6654Z" fill="black"/>
<path d="M27.3668 16.0734C26.1567 14.523 23.9284 13.043 21.6774 13.2328C20.7732 13.309 19.8016 13.6848 18.8678 14.32C18.0484 14.8771 17.2771 15.6235 16.6956 16.4216C15.6023 17.9219 15.0248 19.7745 15.0698 21.6382C15.1297 24.1246 16.3428 26.4004 18.2356 27.5773C19.2192 28.1888 20.39 28.499 21.5884 28.4987C22.5371 28.4987 23.5033 28.3042 24.4066 27.911C26.5311 26.9856 28.2037 25.001 28.7712 22.7314C29.3387 20.4618 28.8006 17.9107 27.3668 16.0734ZM28.3746 22.6298C27.8376 24.7771 26.2551 26.6549 24.2449 27.5303C23.392 27.9018 22.4813 28.0854 21.5872 28.0854C20.4646 28.0854 19.3689 27.7956 18.4497 27.2243C16.6736 26.12 15.5354 23.9758 15.4789 21.6282C15.4361 19.8559 15.9851 18.094 17.0248 16.6674C18.5302 14.6013 20.4901 13.7482 21.7114 13.6457C21.8278 13.6358 21.9445 13.631 22.0612 13.631C24.0351 13.631 26.002 14.9931 27.0458 16.3302C28.4024 18.0684 28.9116 20.4822 28.3746 22.6298Z" fill="black"/>
<path d="M21.728 14.3461C20.9543 14.4111 20.1236 14.7324 19.3254 15.2751C18.6263 15.7507 17.9678 16.3877 17.4715 17.0688C16.5384 18.3494 16.0454 19.931 16.0839 21.522C16.135 23.6458 17.1717 25.5897 18.7893 26.5954C19.6302 27.1181 20.6309 27.3834 21.655 27.3834C22.4656 27.3834 23.2909 27.217 24.0624 26.8813C25.8769 26.0909 27.305 24.3961 27.7898 22.4579C28.2746 20.5195 27.8149 18.341 26.5905 16.7722C25.5568 15.4479 23.6529 14.1842 21.728 14.3461ZM27.3932 22.3563C26.939 24.1722 25.6008 25.7602 23.9007 26.5006C22.275 27.2086 20.3983 27.1097 19.0034 26.2424C17.5027 25.3095 16.5406 23.4968 16.4929 21.5119C16.4567 20.0123 16.9214 18.5218 17.801 17.3147C18.6597 16.1362 20.2176 14.8887 21.762 14.7587C23.5254 14.6104 25.3349 15.8315 26.2695 17.0288C27.4167 18.4989 27.8473 20.5401 27.3932 22.3563Z" fill="black"/>
<path d="M21.6423 9.64718C22.0854 9.85363 22.5944 9.95755 23.1371 9.95755C23.5579 9.95755 23.9988 9.89506 24.4445 9.76918C25.308 9.52542 25.9499 9.09604 26.301 8.52727C26.6705 7.92828 26.7496 7.11873 26.5177 6.30597C26.2176 5.25518 25.4547 4.34995 24.4766 3.88463C23.6698 3.50103 22.0823 3.19616 21.2568 4.01189C20.5228 4.73745 19.7794 5.64931 19.8309 6.91113C19.8784 8.0647 20.6062 9.16424 21.6423 9.64718ZM21.5428 4.30806C21.836 4.0183 22.2795 3.90775 22.7468 3.90775C23.3015 3.90775 23.8903 4.06339 24.3027 4.25954C25.1757 4.67473 25.8567 5.48291 26.1245 6.4211C26.3243 7.12079 26.2622 7.80858 25.954 8.308C25.58 8.91362 24.8671 9.21986 24.3346 9.37024C23.4077 9.63185 22.5123 9.5966 21.8134 9.2709C20.9133 8.85136 20.2811 7.89624 20.2399 6.89397C20.2146 6.27713 20.3496 5.48726 21.5428 4.30806Z" fill="black"/>
<path d="M6.28779 13.6986C6.28847 13.6986 6.28892 13.6986 6.2896 13.6986C6.70293 13.6986 7.13683 13.4988 7.47962 13.15C7.90515 12.7171 8.13646 12.1177 8.09803 11.5466C8.05687 10.9328 7.69736 10.3654 7.18228 10.1012C6.59417 9.79958 6.00086 9.84398 5.51179 10.226C4.91237 10.6938 4.61051 11.5693 4.77761 12.3548C4.94041 13.1197 5.58957 13.6974 6.28779 13.6986ZM5.65446 10.4134C6.06847 10.0903 6.57337 10.0543 7.07669 10.3125C7.51986 10.5398 7.82918 11.0305 7.86491 11.5627C7.8986 12.0669 7.69261 12.5979 7.31388 12.9831C7.01451 13.2875 6.64143 13.4619 6.2896 13.4619C6.28915 13.4619 6.28847 13.4619 6.28802 13.4619C5.70714 13.461 5.14413 12.9529 5.0062 12.3049C4.85969 11.6167 5.13237 10.8211 5.65446 10.4134Z" fill="black"/>
<path d="M5.16912 12.2195C5.29303 12.8018 5.78821 13.2417 6.3207 13.2424C6.32138 13.2424 6.32183 13.2424 6.32228 13.2424C6.63748 13.2424 6.9676 13.0906 7.22808 12.8256C7.55051 12.4978 7.72552 12.0435 7.69658 11.6102C7.66515 11.1437 7.39156 10.7121 6.99926 10.5109C6.55133 10.2813 6.09889 10.3152 5.72581 10.6066C5.27133 10.9613 5.0425 11.6246 5.16912 12.2195ZM5.86848 10.794C6.0349 10.6642 6.22167 10.599 6.41748 10.599C6.57259 10.599 6.73313 10.6397 6.89366 10.7221C7.21384 10.8863 7.43746 11.2412 7.46323 11.6262C7.48765 11.9927 7.33797 12.3786 7.06234 12.6587C6.8455 12.8794 6.57575 13.0057 6.32228 13.0057C6.32183 13.0057 6.32161 13.0057 6.32115 13.0057C5.90285 13.005 5.49721 12.6379 5.39772 12.1698C5.291 11.6688 5.48907 11.0904 5.86848 10.794Z" fill="black"/>
<path d="M9.21932 7.9919C9.21999 7.9919 9.22045 7.9919 9.22112 7.9919C9.63468 7.9919 10.0684 7.79209 10.4111 7.44327C10.8367 7.01046 11.068 6.41125 11.0298 5.83996C10.9886 5.2261 10.6291 4.65893 10.1138 4.3948C9.52569 4.09313 8.93238 4.13731 8.44331 4.51931C7.84389 4.98737 7.54203 5.86262 7.70935 6.64814C7.87192 7.41329 8.52131 7.99099 9.21932 7.9919ZM8.58598 4.70676C8.81729 4.52618 9.07687 4.43531 9.34888 4.43531C9.56368 4.43531 9.78617 4.49207 10.008 4.60583C10.4512 4.83311 10.7607 5.32383 10.7962 5.85598C10.8301 6.36021 10.6241 6.89121 10.2454 7.27642C9.94603 7.58083 9.57295 7.75524 9.22112 7.75524C9.22067 7.75524 9.21999 7.75524 9.21954 7.75524C8.63866 7.75455 8.07565 7.24644 7.93772 6.59824C7.7912 5.91 8.06389 5.1144 8.58598 4.70676Z" fill="black"/>
<path d="M8.08245 6.51916C8.20817 7.10991 8.71036 7.55577 9.25076 7.55668C9.25121 7.55668 9.25166 7.55668 9.25212 7.55668C9.57184 7.55668 9.90671 7.40265 10.171 7.13394C10.498 6.80115 10.6757 6.34018 10.6463 5.90073C10.6147 5.42717 10.337 4.98955 9.93927 4.78562C9.48456 4.55262 9.02578 4.58695 8.64727 4.88266C8.18623 5.24246 7.95402 5.91538 8.08245 6.51916ZM8.79017 5.07012C8.9593 4.93782 9.14969 4.87145 9.34889 4.87145C9.50672 4.87145 9.67019 4.9131 9.83345 4.99665C10.1593 5.16373 10.3867 5.5249 10.413 5.91675C10.4381 6.28937 10.2857 6.6819 10.0053 6.96686C9.78461 7.19139 9.51033 7.32002 9.25212 7.32002C9.25189 7.32002 9.25144 7.32002 9.25121 7.32002C8.82545 7.31933 8.41257 6.94557 8.31127 6.46927C8.20274 5.95978 8.4042 5.37132 8.79017 5.07012Z" fill="black"/>
<path d="M10.3169 11.3467C10.4797 12.1119 11.1289 12.6896 11.8269 12.6905C11.8276 12.6905 11.8282 12.6905 11.8287 12.6905C12.2422 12.6905 12.6759 12.4907 13.0189 12.1421C13.4445 11.7092 13.6756 11.1098 13.6373 10.5385C13.5962 9.92489 13.2367 9.35749 12.7214 9.09336C12.1333 8.79192 11.5399 8.8361 11.0509 9.21787C10.4517 9.68593 10.1498 10.5612 10.3169 11.3467ZM11.1938 9.40533C11.6076 9.08214 12.1127 9.04644 12.6158 9.30439C13.059 9.53167 13.3685 10.0224 13.404 10.5545C13.4379 11.0588 13.2319 11.5898 12.8532 11.975C12.5538 12.2794 12.1805 12.4538 11.8289 12.4538C11.8285 12.4538 11.8278 12.4538 11.8273 12.4538C11.2465 12.4529 10.6834 11.9448 10.5455 11.2968V11.297C10.399 10.6086 10.6717 9.81296 11.1938 9.40533Z" fill="black"/>
<path d="M10.7839 8.74377C10.0036 9.35283 9.61088 10.4929 9.82862 11.516C10.0364 12.4926 10.8961 13.2587 11.7854 13.2601C11.7863 13.2601 11.787 13.2601 11.7879 13.2601C12.3238 13.2601 12.8865 13.0003 13.3322 12.5471C13.8866 11.9834 14.1878 11.2031 14.1378 10.4597C14.0845 9.6625 13.618 8.92596 12.9494 8.5831C12.1865 8.19194 11.4175 8.24893 10.7839 8.74377ZM12.8436 8.79413C13.4401 9.10014 13.8566 9.76001 13.9045 10.4757C13.9499 11.1521 13.6741 11.8639 13.1665 12.38C12.7644 12.7888 12.262 13.0232 11.7879 13.0232C11.7872 13.0232 11.7865 13.0232 11.7858 13.0232C11.0021 13.022 10.2426 12.3381 10.0572 11.4661C9.85779 10.5291 10.2153 9.48672 10.9268 8.93123C11.4851 8.49521 12.1659 8.44668 12.8436 8.79413Z" fill="black"/>
<path d="M8.71081 13.5185C8.44219 13.3807 8.15932 13.4023 7.93457 13.5778C7.66188 13.7907 7.52463 14.188 7.60015 14.5439C7.67544 14.8973 7.97753 15.1642 8.3029 15.1646C8.30313 15.1646 8.30358 15.1646 8.30381 15.1646C8.496 15.1646 8.69634 15.0728 8.85349 14.9131C9.04636 14.7169 9.15128 14.4443 9.13387 14.1841C9.11487 13.9019 8.94891 13.6405 8.71081 13.5185ZM8.68775 14.746C8.57424 14.8616 8.43428 14.928 8.30381 14.928C8.30358 14.928 8.30336 14.928 8.30313 14.928C8.089 14.9275 7.88053 14.7371 7.82875 14.4942C7.77222 14.2285 7.87691 13.9218 8.07747 13.7653C8.18533 13.681 8.36463 13.6064 8.60499 13.7296C8.77096 13.8147 8.88695 13.9994 8.90052 14.2004C8.91341 14.3935 8.83382 14.5975 8.68775 14.746Z" fill="black"/>
<path d="M10.4878 13.3484C10.2194 13.2109 9.9365 13.2324 9.71152 13.4079C9.43906 13.6208 9.30159 14.0179 9.37733 14.374C9.4524 14.7274 9.75448 14.9941 10.0801 14.9945C10.0803 14.9945 10.0805 14.9945 10.0808 14.9945C10.273 14.9945 10.4733 14.903 10.6304 14.743C10.8235 14.5468 10.9282 14.2742 10.9108 14.0142C10.892 13.7318 10.7259 13.4704 10.4878 13.3484ZM10.4649 14.5761C10.3512 14.6917 10.2115 14.7579 10.081 14.7579C10.0808 14.7579 10.0805 14.7579 10.0803 14.7579C9.86596 14.7576 9.65771 14.5672 9.60593 14.3241C9.5494 14.0584 9.65387 13.7519 9.85443 13.5951C9.92135 13.543 10.0156 13.4944 10.135 13.4944C10.2081 13.4944 10.2906 13.5128 10.3822 13.5594C10.5481 13.6446 10.6641 13.8295 10.6777 14.0303C10.6906 14.2234 10.611 14.4276 10.4649 14.5761Z" fill="black"/>
<path d="M7.06421 9.52203C7.06444 9.52203 7.06466 9.52203 7.06512 9.52203C7.25731 9.52203 7.45764 9.43025 7.61479 9.27049C7.80766 9.07434 7.91258 8.80174 7.89517 8.5415C7.87617 8.25929 7.70998 7.99791 7.47211 7.87569C7.2035 7.73813 6.92063 7.75987 6.69588 7.93519C6.42319 8.14805 6.28572 8.54539 6.36146 8.9013C6.43676 9.2547 6.73884 9.52157 7.06421 9.52203ZM6.83855 8.12265C6.94663 8.03819 7.12594 7.96358 7.36629 8.08694C7.53226 8.17209 7.64825 8.35679 7.66182 8.55752C7.67471 8.75093 7.59512 8.95486 7.44905 9.10341C7.33554 9.21899 7.19558 9.28537 7.06512 9.28537C7.06489 9.28537 7.06466 9.28537 7.06466 9.28537C6.85031 9.28491 6.64184 9.09448 6.59006 8.85141V8.85164C6.53353 8.58568 6.63799 8.2792 6.83855 8.12265Z" fill="black"/>
<path d="M11.9675 7.69375C11.9678 7.69375 11.968 7.69375 11.9682 7.69375C12.1606 7.69375 12.361 7.6022 12.5181 7.44244C12.711 7.24606 12.8159 6.97369 12.7983 6.71345C12.7795 6.43124 12.6133 6.16986 12.3752 6.04763C12.1068 5.91008 11.8237 5.93159 11.5992 6.10714C11.3265 6.32 11.189 6.71734 11.2648 7.07325C11.3399 7.42665 11.6422 7.69329 11.9675 7.69375ZM11.7419 6.2946C11.85 6.21014 12.0293 6.13552 12.2696 6.25889C12.4356 6.34404 12.5516 6.52874 12.5649 6.72947C12.578 6.92265 12.4984 7.12681 12.3522 7.27536C12.2386 7.39094 12.0987 7.45709 11.9682 7.45709C11.9682 7.45709 11.968 7.45709 11.9678 7.45709C11.7534 7.45686 11.5449 7.26643 11.4934 7.02336C11.4369 6.75763 11.5413 6.45115 11.7419 6.2946Z" fill="black"/>
<path d="M5.20608 16.1049C5.20653 16.1049 5.20676 16.1049 5.20698 16.1049C5.39918 16.1049 5.59951 16.0133 5.75666 15.8536C5.94976 15.6574 6.05445 15.3848 6.03704 15.1246C6.01804 14.8421 5.85208 14.581 5.61398 14.4588C5.34536 14.3212 5.0625 14.3427 4.83774 14.5183C4.56528 14.7311 4.42781 15.1285 4.50355 15.4844C4.57862 15.8378 4.88071 16.1044 5.20608 16.1049ZM4.98065 14.7057C5.08873 14.6213 5.26781 14.5467 5.50839 14.67C5.67435 14.7552 5.79035 14.9399 5.80369 15.1406C5.8168 15.3338 5.73721 15.538 5.59115 15.6865C5.47741 15.8021 5.33745 15.8682 5.20698 15.8682C5.20698 15.8682 5.20676 15.8682 5.20653 15.8682C4.99218 15.868 4.7837 15.6776 4.73215 15.4345C4.67562 15.1688 4.78009 14.8623 4.98065 14.7057Z" fill="black"/>
<path d="M19.3278 21.213C19.3509 21.2151 19.3731 21.216 19.3943 21.216C19.5449 21.216 19.6552 21.1658 19.7231 21.0663C19.8843 20.8294 19.7256 20.419 19.5302 20.0109L19.5123 19.9731C19.2688 19.4591 19.3174 18.8232 19.6362 18.3534C19.6858 18.2803 19.7412 18.2114 19.7997 18.1384C19.9105 18.0002 20.0249 17.8571 20.0986 17.6841C20.223 17.3925 20.176 16.9824 19.8834 16.8283C19.7258 16.7452 19.5232 16.7528 19.3414 16.8489C19.1827 16.9327 19.0651 17.065 18.9713 17.1835C18.5349 17.7331 18.2728 18.4234 18.2335 19.1272C18.2111 19.5266 18.2581 19.9303 18.3696 20.2947C18.4967 20.7101 18.8756 21.1729 19.3278 21.213ZM18.4668 19.1407C18.5037 18.4856 18.7474 17.8432 19.1535 17.3316C19.2322 17.2325 19.3292 17.1224 19.4495 17.0588C19.5619 16.9993 19.6869 16.9915 19.7755 17.0382C19.9435 17.1265 19.9673 17.395 19.8841 17.5903C19.823 17.7333 19.7235 17.8576 19.6182 17.9892C19.5591 18.0627 19.4983 18.1387 19.4436 18.2192C19.0782 18.7578 19.0224 19.4863 19.3014 20.0752L19.3199 20.1141C19.5302 20.5531 19.601 20.8282 19.5304 20.9319C19.4981 20.9798 19.4133 20.983 19.3482 20.977C19.0104 20.9473 18.699 20.5712 18.593 20.2247C18.4896 19.8869 18.446 19.512 18.4668 19.1407Z" fill="black"/>
<path d="M25.8648 19.1015C25.6891 19.0663 25.5155 19.0953 25.3692 19.1281C24.689 19.2807 24.0582 19.6534 23.5924 20.1775C23.3281 20.4748 23.1155 20.8195 22.9771 21.1745C22.8195 21.5792 22.829 22.1802 23.1571 22.4977C23.2602 22.5972 23.3631 22.6474 23.4646 22.6474C23.4952 22.6474 23.5259 22.6428 23.5562 22.6334C23.8285 22.5508 23.9582 22.1303 24.0582 21.6881L24.0674 21.6472C24.1952 21.0921 24.6259 20.6268 25.1652 20.462C25.2489 20.4366 25.3346 20.4176 25.4255 20.3977C25.5973 20.3599 25.775 20.321 25.9394 20.2327C26.2166 20.0839 26.4335 19.7342 26.3005 19.4286C26.2286 19.2638 26.0658 19.1416 25.8648 19.1015ZM25.83 20.0235C25.6939 20.0965 25.5394 20.1303 25.3759 20.1663C25.2846 20.1864 25.1901 20.207 25.0976 20.2354C24.4799 20.4242 23.986 20.9573 23.8395 21.5934L23.83 21.6353C23.7229 22.1111 23.608 22.3707 23.4891 22.4068C23.4341 22.4233 23.3661 22.3723 23.3188 22.3265C23.0737 22.0894 23.0631 21.5989 23.1947 21.2615C23.3229 20.9324 23.5205 20.6124 23.7663 20.3359C24.1995 19.8479 24.7869 19.5011 25.4196 19.3592C25.5053 19.34 25.6007 19.3222 25.6961 19.3222C25.7375 19.3222 25.7789 19.3256 25.8193 19.3336C25.9439 19.3586 26.0461 19.4313 26.0864 19.524C26.1628 19.6994 26.0154 19.9239 25.83 20.0235Z" fill="black"/>
<path d="M22.4823 18.9336C22.703 19.227 23.1055 19.4896 23.4901 19.4896C23.5589 19.4896 23.6271 19.4813 23.6936 19.463C23.8729 19.4143 23.981 19.3216 24.0152 19.1879C24.0864 18.9093 23.7983 18.5791 23.4763 18.2637L23.4465 18.2344C23.0436 17.8361 22.8737 17.222 23.0139 16.6699C23.0359 16.5841 23.0644 16.5001 23.0944 16.4111C23.1516 16.2429 23.2107 16.0687 23.2215 15.8805C23.2394 15.5635 23.056 15.1946 22.729 15.1515C22.5527 15.1282 22.365 15.206 22.2268 15.3591C22.1061 15.493 22.0408 15.6583 21.9926 15.802C21.769 16.4699 21.757 17.2092 21.9587 17.8842C22.0731 18.2671 22.2542 18.6299 22.4823 18.9336ZM22.214 15.8782C22.2544 15.7574 22.308 15.6205 22.3996 15.5189C22.4851 15.4239 22.5999 15.3731 22.6987 15.3864C22.8866 15.4111 22.9999 15.6549 22.9879 15.8673C22.9791 16.0227 22.9278 16.174 22.8735 16.3342C22.843 16.4237 22.8118 16.5161 22.7876 16.6109C22.6271 17.2438 22.8215 17.9473 23.2832 18.4037L23.3138 18.4337C23.6602 18.7732 23.82 19.0068 23.7888 19.1286C23.7746 19.1849 23.6961 19.2172 23.6328 19.2343C23.3058 19.3238 22.8855 19.0787 22.6684 18.7901C22.457 18.5088 22.289 18.1719 22.1825 17.8157C21.9949 17.1877 22.0062 16.4997 22.214 15.8782Z" fill="black"/>
<path d="M20.1984 22.2006C20.3133 22.6195 20.6784 23.0937 21.1293 23.147C21.1594 23.1507 21.1881 23.1525 21.2154 23.1525C21.3561 23.1525 21.4612 23.1056 21.5286 23.0125C21.6968 22.7804 21.5503 22.3656 21.3669 21.9518L21.35 21.9134C21.1218 21.3922 21.1892 20.7582 21.5216 20.2981C21.5731 20.2267 21.6306 20.1594 21.6912 20.0882C21.806 19.9532 21.9245 19.8138 22.0034 19.6431C22.1362 19.3554 22.1013 18.9438 21.8133 18.7811C21.6582 18.6932 21.4553 18.6948 21.2708 18.7854C21.1098 18.8644 20.9884 18.993 20.891 19.1086C20.4387 19.6449 20.1566 20.327 20.0966 21.0294C20.0625 21.4279 20.0978 21.8328 20.1984 22.2006ZM20.3295 21.05C20.3854 20.3963 20.6479 19.7614 21.0687 19.2624C21.1505 19.1656 21.2505 19.0585 21.3728 18.9983C21.487 18.9425 21.612 18.9383 21.6993 18.9878C21.8646 19.0812 21.8804 19.3503 21.7916 19.5428C21.7265 19.684 21.6231 19.8054 21.5139 19.9338C21.4531 20.0054 21.39 20.0793 21.3328 20.1583C20.9518 20.6856 20.8747 21.4121 21.1363 22.0093L21.1535 22.0486C21.3509 22.4938 21.4135 22.771 21.34 22.8724C21.3063 22.9191 21.2215 22.9198 21.1564 22.912C20.8197 22.8721 20.5195 22.4867 20.4238 22.1372C20.3304 21.7966 20.2979 21.4206 20.3295 21.05Z" fill="black"/>
<path d="M26.3357 22.4835C26.0747 22.3277 25.7564 22.3993 25.5456 22.5183C25.3539 22.6266 25.2017 22.7822 25.0545 22.933C25.0319 22.9562 25.0091 22.9793 24.9865 23.0024C24.3572 23.6373 23.6814 24.0523 22.9777 24.2354C22.1757 24.4441 21.3359 24.3198 20.7313 23.9028C20.3288 23.6252 20.0306 23.2365 19.7152 22.825C19.419 22.4389 19.1128 22.0397 18.7133 21.744C18.3456 21.4719 17.9721 21.3995 17.6883 21.5458C17.4927 21.6467 17.3485 21.8486 17.2926 22.0997C17.2411 22.3318 17.2707 22.5664 17.3023 22.7447C17.3919 23.2498 17.592 23.7506 17.8807 24.1928C18.1331 24.5789 18.4485 24.9165 18.8184 25.1967C18.9118 25.2674 19.0016 25.3443 19.097 25.4258C19.2677 25.5718 19.4443 25.7227 19.6417 25.8346C20.2786 26.1958 21.1279 26.3926 22.0018 26.3926C22.22 26.3926 22.4396 26.3802 22.6575 26.3553C23.7614 26.2287 24.8314 25.7531 25.6702 25.0161C26.2359 24.519 26.5704 23.9923 26.6647 23.4508C26.721 23.1287 26.6683 22.6822 26.3357 22.4835ZM26.4345 23.4096C26.3499 23.8964 26.041 24.3768 25.5169 24.8373C24.7133 25.5434 23.6886 25.9989 22.6313 26.1202C21.5855 26.2402 20.5106 26.0561 19.7559 25.6281C19.5779 25.5274 19.4101 25.3839 19.2478 25.245C19.1542 25.1649 19.0574 25.082 18.9584 25.0074C18.6102 24.7435 18.3133 24.4256 18.0759 24.0623C17.8045 23.6467 17.6166 23.1766 17.5325 22.703C17.5047 22.5465 17.4785 22.3425 17.5208 22.1516C17.5608 21.9722 17.663 21.8246 17.7946 21.7568C17.8624 21.7218 17.9339 21.7076 18.0055 21.7076C18.2371 21.7076 18.4691 21.8564 18.5753 21.9351C18.9482 22.2112 19.2442 22.597 19.5304 22.9701C19.8431 23.378 20.1667 23.7998 20.5995 24.0983C21.259 24.5531 22.1698 24.6902 23.0358 24.4645C23.7804 24.2706 24.4922 23.8351 25.1515 23.1699C25.1746 23.1466 25.1977 23.123 25.2207 23.0992C25.3627 22.9541 25.4968 22.8168 25.6596 22.725C25.8136 22.638 26.041 22.5824 26.217 22.6872C26.4465 22.8243 26.4777 23.1622 26.4345 23.4096Z" fill="black"/>
<path d="M24.1047 17.551C24.1117 17.551 24.1188 17.551 24.1255 17.5505C24.3881 17.538 24.6402 17.31 24.6759 17.0532C24.7039 16.8522 24.5947 16.6888 24.3835 16.6163C24.2049 16.5547 23.9046 16.5588 23.7113 16.6723C23.6023 16.7364 23.5333 16.8298 23.5119 16.9424C23.487 17.0715 23.5268 17.2049 23.6238 17.3182C23.7427 17.4574 23.9376 17.551 24.1047 17.551ZM23.7414 16.9875C23.75 16.9426 23.7785 16.9065 23.8284 16.8772C23.9039 16.8328 24.0141 16.8131 24.1172 16.8131C24.1889 16.8131 24.2571 16.8227 24.308 16.8401C24.4622 16.8932 24.4489 16.9886 24.4444 17.02C24.426 17.1523 24.2809 17.3061 24.1145 17.3141C24.0136 17.3194 23.8782 17.2541 23.8004 17.1633C23.7658 17.1228 23.7276 17.0596 23.7414 16.9875Z" fill="black"/>
<path d="M25.5691 20.9392C25.4601 21.003 25.3912 21.0964 25.3697 21.209C25.345 21.3384 25.3846 21.4716 25.4816 21.5849C25.6005 21.724 25.7955 21.8176 25.9623 21.8176C25.9693 21.8176 25.9763 21.8176 25.9833 21.8172C26.2459 21.8046 26.498 21.5766 26.5337 21.3198C26.5617 21.1189 26.4523 20.9554 26.2413 20.8827C26.0629 20.8213 25.7624 20.8254 25.5691 20.9392ZM26.3024 21.2869C26.2838 21.4189 26.1389 21.5727 25.9723 21.581C25.8712 21.586 25.736 21.521 25.6584 21.4299C25.6238 21.3896 25.5854 21.3262 25.5992 21.2541C25.6078 21.2095 25.6363 21.1733 25.6865 21.1438C25.762 21.0996 25.8721 21.0797 25.9752 21.0797C26.0469 21.0797 26.1152 21.0893 26.166 21.107C26.32 21.1601 26.3067 21.2555 26.3024 21.2869Z" fill="black"/>
<path d="M21.9937 23.0078C21.8847 23.0719 21.8157 23.1652 21.7943 23.2779C21.7696 23.4072 21.8092 23.5406 21.9062 23.6537C22.0253 23.7931 22.22 23.8865 22.3871 23.8865C22.3941 23.8865 22.4011 23.8865 22.4079 23.886C22.6704 23.8734 22.9225 23.6454 22.9583 23.3886C22.9863 23.1877 22.8771 23.0245 22.6659 22.9517C22.4873 22.8901 22.1872 22.8943 21.9937 23.0078ZM22.727 23.3554C22.7084 23.4877 22.5635 23.6416 22.3968 23.6496C22.296 23.6551 22.1608 23.5898 22.0828 23.4987C22.0482 23.4584 22.01 23.395 22.0238 23.3229C22.0323 23.2781 22.0608 23.2422 22.1108 23.2126C22.1863 23.1685 22.2964 23.1485 22.3996 23.1485C22.4712 23.1485 22.5395 23.1582 22.5904 23.1758C22.7446 23.2286 22.7313 23.3241 22.727 23.3554Z" fill="black"/>
<path d="M21.887 6.02768L21.92 6.01417C22.0874 5.94551 22.2603 5.87478 22.3763 5.94803C22.4984 6.02493 22.4901 6.24443 22.4062 6.3932C22.3555 6.48292 22.2863 6.56303 22.2131 6.64795C22.1396 6.73332 22.0636 6.82144 22.0028 6.92443C21.8581 7.16957 21.8481 7.52365 22.0819 7.69142C22.3297 7.86926 22.6533 7.71156 22.827 7.6271C22.9102 7.58659 23.1901 7.46505 23.3047 7.59757C23.368 7.67059 23.3581 7.78846 23.3468 7.92488C23.3395 8.01025 23.3321 8.0986 23.3423 8.1874C23.3619 8.35975 23.4601 8.52271 23.6111 8.63464C23.7364 8.72756 23.8838 8.77677 24.0292 8.77677C24.0697 8.77677 24.1101 8.77311 24.1499 8.76533C24.4981 8.69666 24.769 8.33755 24.7539 7.9647C24.7398 7.61543 24.4909 7.2863 24.1486 7.1643C24.0819 7.1405 24.0152 7.12516 23.9505 7.11006C23.8786 7.09335 23.8105 7.07756 23.7486 7.05192C23.6586 7.01484 23.5657 6.93794 23.5609 6.84959C23.5582 6.79969 23.5813 6.74453 23.6079 6.68068C23.6256 6.6381 23.6441 6.59416 23.657 6.54586C23.6875 6.43417 23.6645 6.30211 23.6 6.21765C23.5512 6.15379 23.4813 6.1206 23.4058 6.12015C23.274 6.12198 23.2 6.22177 23.1462 6.29455C23.1173 6.33369 23.0872 6.37397 23.0619 6.38313C23.0506 6.38725 23.0372 6.38153 23.028 6.37603C23.0017 6.36047 22.9798 6.32911 22.9748 6.29982C22.961 6.21856 23.0101 6.12243 23.0483 6.05743C23.0583 6.04049 23.0684 6.02379 23.0786 6.00685C23.1297 5.92285 23.1876 5.82741 23.2104 5.71525C23.3077 5.23964 22.7103 4.79378 22.384 4.67133C21.8759 4.48044 21.4457 5.09819 21.2838 5.33073C21.0974 5.5983 21.1237 5.78209 21.1786 5.88897C21.3041 6.13296 21.6247 6.13434 21.887 6.02768ZM21.4748 5.46715C21.6847 5.16617 21.9987 4.77913 22.3028 4.89334C22.6122 5.00938 23.0409 5.37742 22.9816 5.66742C22.9669 5.73906 22.9244 5.8091 22.8794 5.88302C22.8686 5.90088 22.8577 5.91873 22.8473 5.93681C22.7903 6.03409 22.7177 6.18171 22.7444 6.3401C22.7609 6.4376 22.8245 6.52984 22.9099 6.58043C22.9837 6.62414 23.0653 6.63307 23.1403 6.60629C23.2321 6.5731 23.2882 6.49757 23.3332 6.43646C23.3581 6.40304 23.3922 6.35704 23.4094 6.35658C23.4239 6.36413 23.4472 6.42616 23.4318 6.48315C23.4228 6.51657 23.4081 6.55159 23.3927 6.58867C23.3594 6.66809 23.3219 6.75804 23.3276 6.86241C23.3384 7.06726 23.5069 7.20802 23.6606 7.27119C23.74 7.30392 23.8205 7.32269 23.898 7.34077C23.9591 7.35496 24.0167 7.36824 24.071 7.38769C24.3213 7.47673 24.5103 7.72346 24.5205 7.97431C24.5309 8.23089 24.3408 8.48655 24.1054 8.53301C23.9887 8.5559 23.8555 8.52248 23.7493 8.44375C23.6504 8.37051 23.5869 8.26728 23.5747 8.16017C23.5672 8.09493 23.5733 8.02215 23.5797 7.94479C23.5937 7.77862 23.6095 7.59025 23.4806 7.44148C23.3988 7.34695 23.2855 7.29957 23.1478 7.29957C23.0248 7.29957 22.8824 7.33757 22.7257 7.41378C22.5452 7.50167 22.3422 7.58796 22.2171 7.49824C22.0993 7.41355 22.1149 7.19589 22.2036 7.04574C22.2535 6.96106 22.3196 6.88461 22.3894 6.80359C22.4668 6.71363 22.547 6.62071 22.6092 6.51062C22.7483 6.26434 22.746 5.90225 22.5002 5.74707C22.2832 5.60997 22.0331 5.71251 21.8323 5.7949L21.7997 5.80818C21.6672 5.8622 21.4475 5.89927 21.3864 5.78003C21.3385 5.6871 21.4212 5.54405 21.4748 5.46715Z" fill="black"/>
<path d="M23.9096 5.86962C23.9937 5.88679 24.0733 5.90327 24.1332 5.94264C24.2209 6.00031 24.2404 6.13398 24.2447 6.18868C24.2492 6.24774 24.2469 6.30839 24.2444 6.37293C24.242 6.43862 24.2392 6.50637 24.2442 6.57595C24.2689 6.9369 24.5074 7.26054 24.8244 7.36239C24.8952 7.38528 24.9678 7.39604 25.0397 7.39604C25.3284 7.39604 25.6063 7.22231 25.7042 6.95338C25.7949 6.70481 25.7361 6.40658 25.5299 6.06646C25.3451 5.76205 24.6962 4.76985 24.0681 4.78884C23.7579 4.798 23.4684 5.10653 23.473 5.42376C23.4779 5.78127 23.7377 5.83438 23.9096 5.86962ZM24.0749 5.02528C24.0782 5.02528 24.0816 5.02528 24.0853 5.02528C24.457 5.02528 24.9773 5.60801 25.3307 6.19029C25.4973 6.4654 25.5493 6.69451 25.4849 6.87144C25.4071 7.08453 25.1263 7.2111 24.8954 7.13694C24.6711 7.06462 24.4954 6.82177 24.4773 6.55947C24.4735 6.50271 24.4757 6.44412 24.4782 6.38209C24.4807 6.31365 24.4834 6.24293 24.4778 6.16992C24.4629 5.97766 24.3858 5.82636 24.2607 5.74397C24.1633 5.68011 24.0531 5.65745 23.9559 5.63754C23.7685 5.59908 23.709 5.5794 23.7068 5.42033C23.7043 5.23379 23.8933 5.03077 24.0749 5.02528Z" fill="black"/>
<path d="M9.26185 11.6892C9.21776 11.5705 9.16304 11.4224 9.16508 11.3674C9.16915 11.266 9.2146 11.1642 9.26298 11.0566C9.31748 10.9351 9.37378 10.8094 9.38124 10.6645C9.39322 10.435 9.28152 10.2422 9.17367 10.0557C9.07599 9.88679 8.98351 9.72749 9.0016 9.56499C9.01833 9.41392 9.13003 9.27888 9.25281 9.1427C9.38033 9.00102 9.53906 8.82478 9.57501 8.59842C9.59808 8.45262 9.55127 8.29377 9.45314 8.18345C9.37378 8.09465 9.27044 8.04956 9.16146 8.05574C8.98148 8.06626 8.86051 8.20199 8.76147 8.32856L8.49896 8.66296C8.36759 8.83027 8.18806 9.05916 8.17359 9.33473C8.16092 9.57735 8.2733 9.78128 8.38206 9.97835C8.45735 10.115 8.52858 10.2443 8.55616 10.38C8.59912 10.5911 8.53672 10.8149 8.46346 11.0452C8.37392 11.3258 8.10123 12.1797 8.90392 12.4535C8.94575 12.4677 9.0362 12.4986 9.1298 12.4986C9.20148 12.4986 9.27519 12.4803 9.33036 12.4228C9.47688 12.269 9.36767 11.9744 9.26185 11.6892ZM9.16327 12.2573C9.16282 12.2576 9.12347 12.2784 8.97854 12.2292C8.56928 12.0896 8.48177 11.7572 8.68595 11.1177C8.76599 10.8669 8.83971 10.5993 8.78521 10.3322C8.75017 10.1605 8.66673 10.0092 8.58624 9.86299C8.48946 9.68744 8.39811 9.52173 8.40716 9.34709C8.41665 9.16238 8.53717 8.99461 8.68188 8.81036L8.94439 8.47573C9.01223 8.38945 9.09137 8.29698 9.17503 8.29217C9.17729 8.29194 9.17932 8.29194 9.18136 8.29194C9.22522 8.29194 9.25869 8.31895 9.27949 8.3423C9.32991 8.39883 9.35591 8.48672 9.34416 8.56088C9.31928 8.71766 9.19764 8.8527 9.08006 8.98317C8.93625 9.14293 8.79381 9.31733 8.76916 9.53889C8.7427 9.77945 8.85915 9.98064 8.97198 10.1754C9.06649 10.3388 9.15603 10.4933 9.14767 10.6522C9.14247 10.7524 9.09747 10.8527 9.04999 10.9589C8.99459 11.0825 8.93716 11.2104 8.93151 11.358C8.92744 11.4608 8.9808 11.6052 9.04298 11.7726C9.09046 11.9005 9.20148 12.1999 9.16327 12.2573Z" fill="black"/>
<path d="M4.09101 14.4143C4.18236 14.3896 4.3438 14.3072 4.39897 14.0326C4.44894 13.7826 4.33906 13.5384 4.25223 13.3766C4.23301 13.3407 4.21289 13.3052 4.19299 13.2697C4.11589 13.1324 4.04308 13.0028 4.01504 12.8632C3.96643 12.6194 4.05868 12.3576 4.13985 12.1264C4.15591 12.0816 4.14347 12.0312 4.10842 11.9992C4.0736 11.9669 4.02295 11.9591 3.98022 11.9795C3.52664 12.1944 3.21235 12.6602 3.17979 13.166C3.15605 13.5352 3.28471 13.9108 3.53275 14.1962C3.66095 14.3438 3.82986 14.4278 3.98587 14.4278C4.02182 14.4278 4.0571 14.4235 4.09101 14.4143ZM3.70821 14.0399C3.50403 13.8048 3.39369 13.4839 3.41314 13.1816C3.43303 12.8728 3.58656 12.5739 3.81742 12.3686C3.7731 12.5403 3.74891 12.7252 3.78577 12.9101C3.82126 13.0871 3.90696 13.2395 3.98972 13.3867C4.00894 13.421 4.02815 13.4553 4.0467 13.4897C4.11611 13.6192 4.20452 13.8112 4.1697 13.9854C4.15387 14.0639 4.11702 14.1623 4.03064 14.1857C3.93748 14.2109 3.80476 14.1509 3.70821 14.0399Z" fill="black"/>
<path d="M9.83407 22.6315C9.85781 22.5415 9.87341 22.4509 9.87884 22.3609C9.89828 22.0343 9.78319 21.7141 9.57789 21.4976C9.66381 21.3483 9.7339 21.1623 9.70315 20.9567C9.67692 20.7805 9.57043 20.621 9.41124 20.5189C9.39926 20.5113 9.38705 20.5049 9.37507 20.498C9.69117 20.1515 9.68732 19.8663 9.61949 19.6796C9.53832 19.4569 9.32306 19.2914 9.05738 19.2477C8.84778 19.2136 8.64744 19.2536 8.46022 19.2976C6.18013 19.8334 4.22495 21.1607 2.61324 22.3884C2.30324 22.6246 2.01133 22.8651 1.84853 23.2103C1.67194 23.5843 1.69161 24.1327 2.076 24.4122C2.21596 24.514 2.3808 24.5648 2.56937 24.5648C2.61392 24.5648 2.66027 24.5612 2.70753 24.5554C2.7125 24.7225 2.78327 24.8919 2.91487 25.015C3.05777 25.1485 3.25969 25.2208 3.47743 25.2208C3.50863 25.2208 3.54029 25.219 3.57217 25.216C3.56629 25.4526 3.67709 25.6927 3.87765 25.8246C4.0011 25.9061 4.13835 25.939 4.2704 25.9475C4.24802 26.24 4.4081 26.5435 4.64213 26.7094C4.9268 26.9113 5.28134 26.9436 5.57053 26.9436C5.58862 26.9436 5.60626 26.9436 5.62367 26.9434C6.86117 26.928 8.08533 26.5023 9.07117 25.7452C9.63622 25.311 9.99393 24.8566 10.1642 24.3563C10.379 23.7246 10.2454 23.0421 9.83407 22.6315ZM9.77709 24.2213C9.63396 24.6417 9.32216 25.0322 8.82358 25.4153C7.90716 26.1194 6.76892 26.5149 5.61847 26.5293C5.36681 26.5321 5.08236 26.5158 4.87683 26.37C4.73641 26.2707 4.63873 26.0619 4.69323 25.9111C5.2438 25.806 5.76589 25.5669 6.20681 25.216C6.29567 25.1455 6.31105 25.0153 6.24118 24.9253C6.17154 24.8354 6.04288 24.8198 5.95402 24.8905C5.54883 25.2128 5.06608 25.4288 4.55801 25.5154C4.34117 25.5522 4.19578 25.5401 4.10059 25.4774C3.98935 25.4044 3.94616 25.2247 4.0115 25.108C4.01625 25.0995 4.01942 25.0908 4.02281 25.0821C4.11122 25.0407 4.19601 24.9942 4.27809 24.9475C4.92295 24.5799 5.5425 24.1558 6.11998 23.6873C6.20817 23.6156 6.22218 23.4852 6.15141 23.3959C6.08087 23.3069 5.95198 23.2925 5.86403 23.3641C5.30395 23.8187 4.70272 24.23 4.0773 24.5866C3.91292 24.6804 3.7517 24.7669 3.58574 24.7967C3.42972 24.8248 3.27913 24.7916 3.19253 24.7106C3.11656 24.6397 3.09304 24.5062 3.14505 24.441C3.14641 24.4394 3.14731 24.4373 3.14867 24.4357C3.2174 24.4078 3.28818 24.3755 3.36121 24.3387C4.29052 23.8681 5.12419 23.2421 5.8387 22.4786C5.91626 22.3955 5.91287 22.2643 5.83079 22.1856C5.74871 22.1071 5.61915 22.1105 5.54159 22.1936C4.85987 22.9221 4.06464 23.5193 3.17806 23.9683C2.78259 24.1686 2.49227 24.2048 2.31477 24.0757C2.121 23.9349 2.11353 23.6095 2.21777 23.3888C2.341 23.1279 2.58113 22.9313 2.85925 22.7193C4.43682 21.5177 6.347 20.2193 8.55293 19.7008C8.70668 19.6649 8.85592 19.6345 8.99203 19.6567C9.10848 19.6757 9.20639 19.7425 9.23556 19.8226C9.30113 20.0027 9.05987 20.2415 8.95314 20.3358C8.40709 20.8178 7.79048 21.2035 7.12029 21.4818C7.0156 21.5253 6.96586 21.6463 7.0086 21.7521C7.05156 21.8578 7.17117 21.9086 7.27563 21.8649C7.89676 21.607 8.47469 21.2621 8.99724 20.8382C9.00244 20.837 9.00764 20.8368 9.01284 20.8352C9.06688 20.8187 9.13403 20.8311 9.19214 20.8686C9.25048 20.9059 9.29027 20.962 9.29864 21.0185C9.31402 21.1211 9.26518 21.2453 9.14489 21.4097C8.8688 21.7871 8.49889 22.0869 8.07471 22.2769C7.97137 22.3234 7.92457 22.4456 7.97047 22.5502C8.00416 22.6276 8.079 22.6736 8.15769 22.6736C8.18527 22.6736 8.21331 22.6678 8.24022 22.6557C8.65852 22.4685 9.03047 22.1876 9.32871 21.8381C9.42775 21.9698 9.48134 22.1497 9.47026 22.336C9.45262 22.6335 9.29118 22.8885 9.1589 23.0498C8.98163 23.2664 8.75281 23.449 8.51426 23.6326C8.42427 23.7019 8.40664 23.8317 8.47515 23.9228C8.51539 23.9766 8.57644 24.0047 8.63817 24.0047C8.68136 24.0047 8.72477 23.991 8.76163 23.9626C9.02007 23.7637 9.26902 23.5646 9.4741 23.3142C9.54284 23.2302 9.60231 23.1437 9.65409 23.0558C9.86392 23.3611 9.91728 23.8097 9.77709 24.2213Z" fill="black"/>
<path d="M13.0977 24.7944C12.1198 24.4664 11.1563 24.8871 10.7462 25.4494C10.629 25.6103 10.5241 25.787 10.4226 25.9578C10.3577 26.067 10.2966 26.1702 10.2324 26.2691C9.96676 26.6799 9.82702 27.1679 9.83855 27.643C9.858 28.4345 10.2815 29.1875 10.9438 29.6084C11.3469 29.8646 11.8378 29.9998 12.3504 29.9998C12.4488 29.9998 12.548 29.9948 12.6475 29.9847C13.4448 29.9042 14.1557 29.4965 14.5491 28.8948C14.9163 28.3331 15.0266 27.584 14.8523 26.839C14.6275 25.8788 13.9388 25.0764 13.0977 24.7944ZM14.2079 28.6661C13.8814 29.1653 13.2829 29.5041 12.6068 29.5727C12.0786 29.6261 11.5653 29.5141 11.1615 29.2576C10.6222 28.9147 10.2636 28.277 10.2478 27.6327C10.2381 27.2409 10.3543 26.8372 10.575 26.4959C10.6433 26.3904 10.7093 26.2789 10.7733 26.1711C10.8698 26.0086 10.9698 25.8404 11.0754 25.6955C11.4046 25.2441 12.2032 24.9308 12.969 25.1874C13.6786 25.4254 14.2615 26.1111 14.4541 26.9344C14.6027 27.5684 14.5129 28.1997 14.2079 28.6661Z" fill="black"/>
<path d="M7.38225 24.2503L7.33228 24.1679C7.22714 23.9926 7.11251 23.787 7.08356 23.5673L7.0813 23.5497C7.07452 23.4941 7.06593 23.4247 7.02206 23.3622C6.96983 23.2872 6.88414 23.2487 6.78646 23.257C6.67046 23.2668 6.56397 23.3387 6.51535 23.4403C6.43734 23.6033 6.4889 23.7827 6.53435 23.9033C6.58771 24.0457 6.65577 24.1807 6.72156 24.3114C6.76226 24.3927 6.80477 24.4769 6.84208 24.5602C6.94745 24.795 6.99335 24.9834 6.98656 25.1532C6.98521 25.1855 6.97888 25.2237 6.97232 25.2642C6.94835 25.4112 6.91195 25.6334 7.13308 25.7552C7.20476 25.7948 7.26762 25.8092 7.32143 25.8092C7.40826 25.8092 7.47089 25.7712 7.50775 25.7405C7.73092 25.5529 7.72752 25.0056 7.66647 24.8152C7.60045 24.609 7.48943 24.4265 7.38225 24.2503ZM7.35829 25.5584C7.34721 25.5675 7.32121 25.5893 7.24478 25.5471C7.17966 25.5114 7.1774 25.4602 7.20295 25.3027C7.21041 25.2569 7.21833 25.2098 7.22013 25.1629C7.23121 24.8893 7.13127 24.6318 7.05507 24.462C7.01551 24.3741 6.97187 24.2876 6.92981 24.2038C6.86401 24.0729 6.80183 23.9493 6.75277 23.8191C6.70506 23.6923 6.69647 23.6049 6.72586 23.5435C6.73807 23.5179 6.77312 23.4955 6.80568 23.4929C6.81178 23.4922 6.82648 23.492 6.83123 23.4989C6.84118 23.5131 6.84547 23.5481 6.84932 23.579L6.8518 23.5987C6.88662 23.8637 7.01483 24.0949 7.1324 24.2906C7.14914 24.3185 7.16609 24.3464 7.18305 24.3744C7.28774 24.5465 7.38655 24.709 7.44398 24.8882C7.49147 25.0363 7.47632 25.4593 7.35829 25.5584Z" fill="black"/>
<path d="M6.82952 22.6562C6.8813 22.6237 7.03845 22.4912 6.88356 22.1584L6.47001 21.2698C6.43406 21.1927 6.38951 21.097 6.31173 21.0238C6.20998 20.9281 6.07183 20.8972 5.95968 20.9451C5.8568 20.9888 5.78422 21.0945 5.7702 21.2213C5.7589 21.3211 5.78309 21.4136 5.80661 21.4923V21.4921C5.91514 21.8569 6.08969 22.1984 6.31105 22.4795C6.42027 22.6182 6.56181 22.6958 6.68753 22.6958C6.73863 22.6958 6.78701 22.683 6.82952 22.6562ZM6.49398 22.3321C6.29093 22.0741 6.13062 21.7601 6.03045 21.4239C6.01372 21.3676 5.99631 21.303 6.00242 21.2481C6.00671 21.2087 6.02706 21.1733 6.05012 21.1632C6.056 21.1609 6.06279 21.1595 6.07002 21.1595C6.09535 21.1595 6.12745 21.1737 6.15255 21.1973C6.19732 21.2392 6.2283 21.306 6.25837 21.3708L6.67215 22.2593C6.73117 22.3861 6.71737 22.4481 6.70607 22.4555C6.68414 22.4692 6.58894 22.4527 6.49398 22.3321Z" fill="black"/>
<path d="M12.8987 26.3892C12.9543 26.1173 12.8546 25.8309 12.6504 25.6767C12.3981 25.4862 12.0535 25.4947 11.772 25.6986C11.4968 25.898 11.3806 26.2187 11.4755 26.5155C11.5678 26.8039 11.8619 27.0104 12.1652 27.0104C12.1885 27.0104 12.2122 27.0092 12.2355 27.0067C12.5536 26.9724 12.8324 26.7126 12.8987 26.3892ZM12.6696 26.3411C12.6242 26.5631 12.427 26.7481 12.2108 26.7714C11.9931 26.7948 11.7634 26.6474 11.698 26.4425C11.6214 26.2038 11.7564 26.0012 11.9081 25.8911C11.9958 25.8275 12.117 25.7767 12.2438 25.7767C12.3332 25.7767 12.4254 25.8021 12.5104 25.8662C12.6411 25.9653 12.7067 26.1605 12.6696 26.3411Z" fill="black"/>
<path d="M11.9511 27.2694C11.699 27.079 11.3542 27.0875 11.0729 27.2916C10.7978 27.491 10.6813 27.8114 10.7763 28.1083C10.8685 28.3967 11.1627 28.6033 11.4659 28.6033C11.4892 28.6033 11.5129 28.6022 11.5365 28.5995C11.8544 28.5651 12.1332 28.3056 12.1994 27.9819C12.2553 27.7102 12.1553 27.4239 11.9511 27.2694ZM11.9706 27.9339C11.9251 28.1559 11.7277 28.3408 11.5116 28.3642C11.2943 28.3875 11.0643 28.2401 10.9988 28.0355C10.9223 27.7965 11.0573 27.594 11.209 27.4839C11.2966 27.4205 11.418 27.3694 11.5446 27.3694C11.6341 27.3694 11.7264 27.3948 11.8112 27.4592C11.9421 27.558 12.0074 27.7533 11.9706 27.9339Z" fill="black"/>
<path d="M13.9996 26.8243C13.6819 26.5842 13.2466 26.5956 12.8905 26.8536C12.5428 27.1056 12.3953 27.51 12.5147 27.8838C12.6312 28.2475 13.0022 28.5077 13.3846 28.5077C13.4142 28.5077 13.4438 28.5061 13.4734 28.5029C13.8752 28.4596 14.2277 28.1312 14.3116 27.722C14.3819 27.3791 14.2565 27.0184 13.9996 26.8243ZM14.0826 27.6739C14.0199 27.9801 13.7475 28.2353 13.4488 28.2676C13.1424 28.3008 12.8299 28.1001 12.7374 27.811C12.6309 27.4784 12.8265 27.191 13.0266 27.0461C13.2329 26.8966 13.5747 26.7987 13.8596 27.014C14.0423 27.152 14.1339 27.4233 14.0826 27.6739Z" fill="black"/>
<path d="M11.2026 22.0542C11.0674 22.5664 11.1714 23.1276 11.4805 23.5556C11.8317 24.0413 12.4415 24.2771 12.7739 24.3741C12.8695 24.4023 12.979 24.4174 13.0911 24.4174C13.3378 24.4174 13.5974 24.3437 13.7523 24.1697C13.8375 24.0741 13.9607 23.8649 13.8294 23.5371C13.6815 23.1677 13.3109 23.0873 12.9839 23.0162C12.7449 22.9644 12.5191 22.9155 12.4128 22.771C12.2513 22.552 12.437 22.1743 12.6934 21.9301C12.747 21.8791 12.8033 21.8285 12.86 21.7779C13.1354 21.5312 13.4475 21.2517 13.5173 20.8381C13.587 20.4264 13.3932 20.0798 13.206 19.745C13.0635 19.49 12.929 19.2492 12.9242 19.003C12.9229 18.919 12.9346 18.8249 12.9471 18.7251C12.9796 18.4651 13.0201 18.1412 12.7888 17.905C12.6568 17.7702 12.4657 17.7137 12.2647 17.7501C12.0232 17.7933 11.8036 17.9622 11.7051 18.1801C11.5748 18.4678 11.594 18.8164 11.7639 19.2451C11.7899 19.3108 11.8177 19.376 11.8457 19.4415C11.9368 19.6546 12.0227 19.8558 12.0374 20.0613C12.0644 20.438 11.855 20.7862 11.6332 21.1549C11.464 21.4357 11.289 21.7264 11.2026 22.0542ZM12.4456 20.0313C12.4259 19.7557 12.3219 19.5124 12.2213 19.2769C12.1946 19.2149 12.1681 19.1531 12.1435 19.0908C12.0178 18.7732 11.9958 18.5315 12.077 18.3525C12.12 18.2575 12.2265 18.1774 12.3364 18.1577C12.3841 18.149 12.4512 18.1488 12.498 18.1966C12.5828 18.2831 12.5708 18.4344 12.541 18.6731C12.5272 18.783 12.513 18.8965 12.5152 19.0107C12.5215 19.3616 12.6884 19.6603 12.8499 19.9489C13.0088 20.2332 13.159 20.5019 13.114 20.7683C13.0683 21.0382 12.8354 21.2467 12.5887 21.4676C12.529 21.5211 12.4695 21.5744 12.4128 21.6285C12.0302 21.9928 11.7641 22.5836 12.0847 23.0187C12.283 23.2878 12.6097 23.3588 12.898 23.4213C13.2001 23.487 13.3882 23.5378 13.4502 23.6927C13.5047 23.8292 13.4637 23.8752 13.4484 23.8926C13.3584 23.9935 13.0857 24.0342 12.8874 23.9763C12.4074 23.8358 12.0148 23.5934 11.8109 23.3112C11.5775 22.9882 11.4959 22.5476 11.5979 22.1611C11.6691 21.8908 11.8213 21.6378 11.9825 21.3703C12.2281 20.9622 12.4818 20.5404 12.4456 20.0313Z" fill="black"/>
<path d="M18.3397 6.81704L18.7162 6.84474C18.7166 6.88708 18.7171 6.92965 18.7189 6.97245C18.7232 7.07637 18.732 7.18005 18.7444 7.28305L18.3313 7.33203C18.2192 7.3453 18.1389 7.44807 18.152 7.56183C18.1642 7.66711 18.2526 7.74493 18.3548 7.74493C18.3628 7.74493 18.3709 7.74447 18.379 7.74333L18.815 7.6916C18.8408 7.80536 18.8717 7.91774 18.9068 8.02897L18.614 8.16951C18.512 8.21849 18.4684 8.34185 18.5167 8.44531C18.5518 8.51992 18.6253 8.56364 18.7019 8.56364C18.7311 8.56364 18.7609 8.55723 18.7892 8.54373L19.051 8.4183C19.1089 8.5538 19.1736 8.68655 19.245 8.81564L18.9093 9.01294C18.8116 9.07039 18.7784 9.19719 18.8351 9.29606C18.8731 9.36221 18.9416 9.39929 19.0122 9.39929C19.0472 9.39929 19.0825 9.39013 19.1148 9.37114L19.4617 9.16766C19.5397 9.2821 19.6231 9.39288 19.7117 9.49931L19.475 9.74788C19.3965 9.83004 19.3988 9.96119 19.4802 10.0406C19.5198 10.0795 19.5711 10.0988 19.6222 10.0988C19.6758 10.0988 19.7294 10.0775 19.7694 10.0354L19.9903 9.80372C20.0936 9.90649 20.2022 10.0035 20.3155 10.0944L20.1185 10.4851C20.0672 10.587 20.107 10.7117 20.2076 10.7637C20.2374 10.7792 20.2693 10.7865 20.3005 10.7865C20.3749 10.7865 20.4468 10.7451 20.483 10.6735L20.6521 10.3379C20.8014 10.4343 20.9567 10.5213 21.1179 10.5963C21.1292 10.6016 21.1414 10.6062 21.153 10.6114L21.023 11.0601C20.9913 11.1697 21.0535 11.2848 21.1618 11.3169C21.181 11.3226 21.2004 11.3253 21.2194 11.3253C21.3081 11.3253 21.3897 11.2667 21.4157 11.1766L21.5358 10.7623C21.7917 10.8488 22.0603 10.9127 22.3394 10.9534L22.2738 11.4009C22.2573 11.5142 22.3344 11.6194 22.4463 11.6362C22.4565 11.6378 22.4664 11.6384 22.4766 11.6384C22.5763 11.6384 22.6636 11.5645 22.6788 11.4617L22.7468 10.9953C22.8642 11.0028 22.982 11.0081 23.1018 11.0081C23.2651 11.0081 23.431 11.0001 23.5984 10.9859L23.6381 11.51C23.6465 11.6185 23.7361 11.7012 23.8419 11.7012C23.8473 11.7012 23.8525 11.7009 23.8579 11.7007C23.9705 11.6918 24.0549 11.5922 24.0463 11.4782L24.0051 10.9383C24.2181 10.906 24.4332 10.863 24.6495 10.8085L24.8193 11.3375C24.8474 11.4251 24.9277 11.4807 25.0138 11.4807C25.0348 11.4807 25.0561 11.4775 25.0769 11.4707C25.1845 11.4352 25.2433 11.3185 25.2085 11.2097L25.0441 10.6968C25.2078 10.6449 25.3645 10.5874 25.5151 10.5252C25.5151 10.5254 25.5153 10.5254 25.5153 10.5256L25.8841 10.9827C25.9246 11.0326 25.9834 11.0587 26.0426 11.0587C26.0883 11.0587 26.134 11.0433 26.1719 11.012C26.2594 10.9397 26.2726 10.8092 26.2011 10.7206L25.8997 10.3473C26.0944 10.2473 26.2748 10.1377 26.4403 10.0189L26.8317 10.3054C26.8681 10.3318 26.91 10.3446 26.9516 10.3446C27.0149 10.3446 27.0775 10.3148 27.1175 10.2587C27.1838 10.166 27.1632 10.0367 27.0714 9.96966L26.7723 9.75062C26.9231 9.61283 27.0563 9.46498 27.1718 9.30842L27.6681 9.39929C27.6803 9.40135 27.6928 9.40249 27.7047 9.40249C27.8017 9.40249 27.8879 9.33245 27.9058 9.2322C27.9259 9.11982 27.8522 9.01202 27.7409 8.99165L27.4074 8.93054C27.4924 8.7662 27.5618 8.59179 27.6163 8.40915L28.2128 8.42471C28.2146 8.42471 28.2164 8.42471 28.2182 8.42471C28.3288 8.42471 28.4199 8.33545 28.4226 8.22284C28.4256 8.10862 28.3363 8.01364 28.2234 8.01066L27.7113 7.99716C27.7477 7.77743 27.764 7.54969 27.7601 7.31624L28.176 7.23246C28.2868 7.21026 28.3587 7.10109 28.3367 6.98893C28.3146 6.87678 28.2067 6.804 28.0961 6.8262L27.7319 6.89967C27.7041 6.66209 27.657 6.42154 27.5881 6.18029C27.5842 6.16656 27.5797 6.15283 27.5756 6.13887L28.0294 6.00474C28.138 5.9727 28.2004 5.8578 28.1687 5.74794C28.1371 5.6383 28.0231 5.5749 27.915 5.60717L27.442 5.74679C27.3945 5.62434 27.3423 5.50372 27.2853 5.38516L27.7328 5.14392C27.8325 5.09013 27.8703 4.9647 27.8171 4.86377C27.764 4.7626 27.6401 4.72461 27.5404 4.77839L27.0918 5.02032C27.0264 4.90794 26.9568 4.79808 26.8833 4.69096L27.3224 4.39204C27.4162 4.32818 27.4411 4.19955 27.378 4.10479C27.3152 4.00981 27.1881 3.98463 27.0942 4.04826L26.6359 4.36C26.5387 4.23983 26.4363 4.12425 26.3291 4.01347L26.7365 3.6999C26.8265 3.63055 26.8439 3.50055 26.7754 3.40968C26.7071 3.31859 26.5787 3.30073 26.4887 3.37008L26.0272 3.72531C25.914 3.62574 25.7966 3.53099 25.6754 3.44195L25.98 3.04782C26.0496 2.95764 26.034 2.82763 25.9449 2.75714C25.8561 2.68664 25.7274 2.70244 25.6578 2.79261L25.3335 3.21193C25.2046 3.13273 25.0719 3.05949 24.9362 2.99266L25.1829 2.5072C25.2345 2.40558 25.1949 2.28061 25.0945 2.22819C24.9939 2.17601 24.8707 2.21606 24.8189 2.31768L24.5598 2.82786C24.3703 2.75462 24.1611 2.68687 23.9396 2.62942L24.1331 2.16708C24.1772 2.0618 24.1286 1.94026 24.0246 1.89563C23.9206 1.85099 23.8005 1.9002 23.7564 2.00549L23.533 2.53856C23.3824 2.5104 23.2284 2.48752 23.0731 2.47172L23.2495 1.91989C23.2843 1.81094 23.2253 1.69421 23.1179 1.65896C23.0105 1.62394 22.8949 1.68345 22.8601 1.7924L22.6512 2.44609C22.461 2.44288 22.272 2.45158 22.0864 2.47401L22.0974 2.05356C22.1006 1.93911 22.0115 1.8439 21.8985 1.84092C21.7861 1.83703 21.6916 1.92813 21.6884 2.04234L21.6751 2.55C21.496 2.59555 21.3237 2.65712 21.1618 2.73745L21.0239 2.28061C20.9908 2.1712 20.8764 2.10986 20.7684 2.14305C20.6603 2.17646 20.5994 2.29228 20.6325 2.40168L20.8016 2.96199C20.7381 3.0112 20.6766 3.06338 20.6184 3.12083C20.5493 3.18927 20.4801 3.25908 20.4109 3.33026L20.2092 2.96679C20.1538 2.867 20.029 2.83152 19.9306 2.8876C19.832 2.94368 19.797 3.07002 19.8524 3.16958L20.1162 3.64497C20.0211 3.75117 19.9274 3.86012 19.8368 3.97204L19.489 3.58935C19.4126 3.50535 19.2833 3.49986 19.2 3.57722C19.1168 3.65458 19.1114 3.78573 19.1878 3.86996L19.5831 4.30484C19.4786 4.45132 19.38 4.60284 19.2896 4.75985C19.1946 4.70355 19.1123 4.62596 19.0517 4.53303C18.9893 4.43759 18.8622 4.4115 18.7682 4.47467C18.6739 4.53784 18.6481 4.66624 18.7105 4.76169C18.8089 4.91229 18.9432 5.03749 19.0983 5.12629C19.0425 5.24577 18.9916 5.36845 18.9466 5.49411L18.6967 5.35632C18.5975 5.30185 18.4731 5.33893 18.4191 5.4394C18.365 5.53988 18.4017 5.66554 18.5011 5.72024L18.8249 5.89877C18.7831 6.07043 18.7526 6.24781 18.7347 6.43092L18.3693 6.40391C18.2567 6.39544 18.1588 6.48127 18.1504 6.59549C18.1423 6.70947 18.2269 6.80858 18.3397 6.81704ZM20.9042 3.41723C21.7926 2.53901 23.6601 2.84228 24.7025 3.33804C25.8968 3.90612 26.8286 5.01162 27.1949 6.29519C27.4696 7.25741 27.383 8.20521 26.9572 8.89529C26.4415 9.73094 25.4638 10.1519 24.7343 10.3576C23.4692 10.7149 22.2458 10.6659 21.2889 10.2201C20.0525 9.64373 19.1842 8.33178 19.1277 6.95529C19.0931 6.10843 19.2769 5.02559 20.9042 3.41723Z" fill="black"/>
</svg>
