<svg width="28" height="28" viewBox="0 0 28 28" fill="none" xmlns="http://www.w3.org/2000/svg">
<path d="M25.0273 8.91071C25.0273 8.50311 25.3576 8.17285 25.7652 8.17285H27.2623C27.6699 8.17285 28.0001 8.50311 28.0001 8.91071C28.0001 9.3183 27.6699 9.64856 27.2623 9.64856H25.7652C25.3576 9.64856 25.0273 9.3183 25.0273 8.91071Z" fill="#F1E34E"/>
<path d="M24.4936 10.7816C24.7818 10.4934 25.249 10.4934 25.5372 10.7816L26.5957 11.8401C26.8839 12.1282 26.8839 12.5954 26.5957 12.8836C26.3075 13.1718 25.8403 13.1718 25.5521 12.8836L24.4936 11.8251C24.2052 11.5369 24.2052 11.0697 24.4936 10.7816Z" fill="#F1E34E"/>
<path d="M22.6224 11.3154C22.2148 11.3154 21.8845 11.6457 21.8845 12.0533V13.5501C21.8845 13.9577 22.2148 14.2882 22.6224 14.2882C23.03 14.2882 23.3602 13.9577 23.3602 13.5501V12.0533C23.3602 11.6457 23.03 11.3154 22.6224 11.3154Z" fill="#F1E34E"/>
<path d="M19.0892 2.97278C19.4968 2.97278 19.827 2.64252 19.827 2.23492V0.737854C19.827 0.330261 19.4968 0 19.0892 0C18.6816 0 18.3513 0.330261 18.3513 0.737854V2.23492C18.3513 2.64252 18.6816 2.97278 19.0892 2.97278Z" fill="#F1E34E"/>
<path d="M17.2183 3.50617C17.5065 3.21799 17.5065 2.7508 17.2183 2.46262L16.1598 1.40412C15.8717 1.11594 15.4045 1.11594 15.1163 1.40412C14.8281 1.6923 14.8281 2.15949 15.1163 2.44767L16.1748 3.50617C16.463 3.79456 16.9302 3.79456 17.2183 3.50617Z" fill="#F1E34E"/>
<path d="M23.6439 6.89045C23.3557 6.60227 23.3557 6.13508 23.6439 5.8469L24.7024 4.7884C24.9903 4.50022 25.4577 4.50022 25.7459 4.7884C26.0341 5.07658 26.0341 5.54398 25.7459 5.83195L24.6874 6.89045C24.3992 7.17884 23.932 7.17884 23.6439 6.89045Z" fill="#F1E34E"/>
<path d="M20.6024 9.93195C20.3142 9.64378 19.8468 9.64378 19.5587 9.93195L18.5002 10.9905C18.2122 11.2786 18.2122 11.746 18.5002 12.0342C18.7883 12.3222 19.2557 12.3222 19.5439 12.0342L20.6024 10.9757C20.8906 10.6873 20.8906 10.2201 20.6024 9.93195Z" fill="#F1E34E"/>
<path d="M21.1094 4.35627C21.3975 4.64445 21.8647 4.64445 22.1529 4.35627L23.2114 3.29777C23.4996 3.0098 23.4996 2.5424 23.2114 2.25422C22.9232 1.96604 22.4558 1.96604 22.1679 2.25422L21.1094 3.31272C20.821 3.6009 20.821 4.06809 21.1094 4.35627Z" fill="#F1E34E"/>
<path d="M18.068 7.39777C18.3562 7.68595 18.3562 8.15336 18.068 8.44154L17.0095 9.50004C16.7213 9.788 16.2539 9.788 15.9657 9.50004C15.6778 9.21186 15.6778 8.74445 15.9657 8.45628L17.0242 7.39777C17.3126 7.1096 17.7798 7.1096 18.068 7.39777Z" fill="#F1E34E"/>
<path d="M16.6844 5.3775C16.6844 5.7851 16.3542 6.11536 15.9466 6.11536H14.4497C14.0421 6.11536 13.7117 5.7851 13.7117 5.3775C13.7117 4.96991 14.0421 4.63965 14.4497 4.63965H15.9466C16.3542 4.63965 16.6844 4.96991 16.6844 5.3775Z" fill="#F1E34E"/>
<path d="M11.5755 13.3006C11.0461 13.3006 10.6169 12.8715 10.6169 12.3421V10.3975C10.6169 9.86813 11.0461 9.43896 11.5755 9.43896C12.1048 9.43896 12.534 9.86813 12.534 10.3975V12.3421C12.534 12.8715 12.1048 13.3006 11.5755 13.3006Z" fill="#F1E34E"/>
<path d="M14.0058 13.994C13.6315 13.6195 13.6315 13.0126 14.0058 12.6384L15.3809 11.2633C15.7554 10.8888 16.3623 10.8888 16.7365 11.2633C17.111 11.6376 17.111 12.2445 16.7365 12.6189L15.3615 13.994C14.9872 14.3683 14.3803 14.3683 14.0058 13.994Z" fill="#F1E34E"/>
<path d="M14.6992 16.4248C14.6992 16.9542 15.1284 17.3834 15.6577 17.3834H17.6024C18.1317 17.3834 18.5609 16.9542 18.5609 16.4248C18.5609 15.8955 18.1317 15.4663 17.6024 15.4663H15.6577C15.1284 15.4663 14.6992 15.8955 14.6992 16.4248Z" fill="#F1E34E"/>
<path d="M3.86166 21.0144C3.86166 20.485 3.4325 20.0557 2.90314 20.0557H0.958527C0.429169 20.0557 0 20.485 0 21.0144C0 21.5438 0.429169 21.9729 0.958527 21.9729H2.90314C3.4325 21.9729 3.86166 21.5438 3.86166 21.0144Z" fill="#F1E34E"/>
<path d="M4.55515 23.4448C4.18066 23.0705 3.57376 23.0705 3.19949 23.4448L1.8244 24.8199C1.45013 25.1941 1.45013 25.8012 1.8244 26.1755C2.19867 26.5498 2.80579 26.5498 3.18005 26.1755L4.55515 24.8004C4.92941 24.4261 4.92941 23.8192 4.55515 23.4448Z" fill="#F1E34E"/>
<path d="M8.95114 15.0979C8.57666 15.4721 7.96976 15.4721 7.59549 15.0979L6.2204 13.7228C5.84613 13.3485 5.84613 12.7416 6.2204 12.3671C6.59488 11.9929 7.20178 11.9929 7.57605 12.3671L8.95114 13.7422C9.32541 14.1165 9.32541 14.7236 8.95114 15.0979Z" fill="#F1E34E"/>
<path d="M12.902 19.0488C12.5278 19.4232 12.5278 20.0302 12.902 20.4044L14.2771 21.7795C14.6514 22.1538 15.2583 22.1538 15.6328 21.7795C16.007 21.405 16.007 20.7981 15.6328 20.4239L14.2577 19.0488C13.8834 18.6745 13.2763 18.6745 12.902 19.0488Z" fill="#F1E34E"/>
<path d="M5.65891 18.3905C6.03339 18.016 6.03339 17.4091 5.65891 17.0349L4.28381 15.6598C3.90955 15.2853 3.30264 15.2853 2.92816 15.6598C2.55389 16.034 2.55389 16.6409 2.92816 17.0154L4.30325 18.3905C4.67773 18.7648 5.28464 18.7648 5.65891 18.3905Z" fill="#F1E34E"/>
<path d="M9.60956 22.3409C9.98404 21.9664 10.5909 21.9664 10.9652 22.3409L12.3403 23.716C12.7148 24.0903 12.7148 24.6972 12.3403 25.0717C11.966 25.4459 11.3591 25.4459 10.9846 25.0717L9.60956 23.6966C9.23529 23.3221 9.23529 22.7152 9.60956 22.3409Z" fill="#F1E34E"/>
<path d="M6.98538 24.1382C7.51474 24.1382 7.94412 24.5674 7.94412 25.0967V27.0413C7.94412 27.5707 7.51474 27.9998 6.98538 27.9998C6.45602 27.9998 6.02686 27.5707 6.02686 27.0413V25.0967C6.02686 24.5674 6.45602 24.1382 6.98538 24.1382Z" fill="#F1E34E"/>
<path d="M15.9843 12.0155C15.7547 11.7856 15.5077 11.5795 15.2467 11.3975L14.006 12.6384C13.6315 13.0127 13.6315 13.6196 14.006 13.994C14.3802 14.3683 14.9871 14.3683 15.3616 13.994L16.6023 12.7531C16.4203 12.4921 16.2142 12.2451 15.9843 12.0155Z" fill="#EFBE3B"/>
<path d="M14.6992 16.4248C14.6992 16.9542 15.1284 17.3834 15.6577 17.3834H17.3347C17.4846 16.8846 17.5624 16.3607 17.5624 15.8252C17.5624 15.7049 17.5581 15.5851 17.5504 15.4663H15.6577C15.1284 15.4663 14.6992 15.8955 14.6992 16.4248Z" fill="#EFBE3B"/>
<path d="M14.2577 19.0488C13.8834 18.6745 13.2763 18.6745 12.902 19.0488C12.5278 19.4232 12.5278 20.0302 12.902 20.4044L14.0582 21.5605L15.4138 20.2049L14.2577 19.0488Z" fill="#EFBE3B"/>
<path d="M12.1216 23.497L10.9652 22.3409C10.5909 21.9664 9.98404 21.9664 9.60956 22.3409C9.23529 22.7152 9.23529 23.3221 9.60956 23.6966L10.7659 24.8527L12.1216 23.497Z" fill="#EFBE3B"/>
<path d="M6.38574 27.0014C6.9213 27.0014 7.4451 26.9236 7.94412 26.7734V25.0967C7.94412 24.5674 7.51474 24.1382 6.98538 24.1382C6.45602 24.1382 6.02686 24.5674 6.02686 25.0967V26.9894C6.14584 26.9971 6.26547 27.0014 6.38574 27.0014Z" fill="#EFBE3B"/>
<path d="M3.19943 23.4448L1.9585 24.6857C2.1405 24.9467 2.34665 25.1937 2.57651 25.4233C2.80615 25.6532 3.0531 25.8593 3.31415 26.0414L4.55508 24.8004C4.92935 24.4261 4.92935 23.8192 4.55508 23.4448C4.1806 23.0705 3.5737 23.0705 3.19943 23.4448Z" fill="#EFBE3B"/>
<path d="M2.9032 20.0557H1.22647C1.07629 20.5547 0.998535 21.0783 0.998535 21.614C0.998535 21.7343 1.00281 21.8539 1.01071 21.9729H2.9032C3.43256 21.9729 3.86172 21.5438 3.86172 21.0144C3.86172 20.4848 3.43256 20.0557 2.9032 20.0557Z" fill="#EFBE3B"/>
<path d="M4.3031 18.3904C4.67758 18.7647 5.28448 18.7647 5.65875 18.3904C6.03323 18.0159 6.03323 17.409 5.65875 17.0348L4.50262 15.8784L3.14697 17.2341L4.3031 18.3904Z" fill="#EFBE3B"/>
<path d="M7.7951 12.5864L6.43945 13.9421L7.59558 15.0982C7.96985 15.4725 8.57675 15.4725 8.95123 15.0982C9.3255 14.7239 9.3255 14.1168 8.95123 13.7426L7.7951 12.5864Z" fill="#EFBE3B"/>
<path d="M12.1751 10.4375C11.6396 10.4375 11.1158 10.5153 10.6169 10.6652V12.3422C10.6169 12.8715 11.0461 13.3007 11.5755 13.3007C12.1048 13.3007 12.534 12.8715 12.534 12.3422V10.4495C12.415 10.4418 12.2954 10.4375 12.1751 10.4375Z" fill="#EFBE3B"/>
<path d="M8.96313 12.6132L3.17395 18.4023C1.40002 20.1763 1.40002 23.0521 3.17395 24.826C4.94788 26.5999 7.82367 26.5999 9.5976 24.826L15.3868 19.0368C17.1607 17.2629 17.1607 14.3869 15.3868 12.6132C13.6131 10.8392 10.7371 10.8392 8.96313 12.6132Z" fill="#00C67F"/>
<path d="M8.20972 23.4381C7.20398 24.4438 5.56763 24.4438 4.56168 23.4381C3.55594 22.4324 3.55594 20.796 4.56168 19.7901L10.3511 14.0009C11.3568 12.9951 12.9932 12.9951 13.9991 14.0009C15.0049 15.0066 15.0049 16.6432 13.9991 17.6489L8.20972 23.4381Z" fill="#B0EBCE"/>
<path d="M5.68854 22.3116C4.6828 21.3058 4.6828 19.6693 5.68854 18.6635L10.3511 14.001L4.56168 19.7904C3.55594 20.7961 3.55594 22.4327 4.56168 23.4384C5.56741 24.4442 7.20398 24.4442 8.20972 23.4384L9.33658 22.3116C8.33084 23.3173 6.69427 23.3173 5.68854 22.3116Z" fill="#60D9A7"/>
<path d="M15.082 2.41052C15.0931 2.42334 15.104 2.43616 15.1162 2.44812L16.1747 3.50684C16.4629 3.79501 16.9301 3.79501 17.2183 3.50684C17.5064 3.21866 17.5064 2.75125 17.2183 2.46307L16.1598 1.40457C16.1476 1.39261 16.1348 1.38171 16.1222 1.37061C15.9231 1.51181 15.7338 1.66989 15.5576 1.84613C15.3813 2.02216 15.2234 2.21143 15.082 2.41052Z" fill="#EFBE3B"/>
<path d="M18.6275 0.574219C18.5406 0.574219 18.4541 0.577423 18.368 0.58255C18.3573 0.632751 18.3513 0.684662 18.3513 0.737854V2.23492C18.3513 2.64252 18.6816 2.97278 19.0892 2.97278C19.4968 2.97278 19.827 2.64252 19.827 2.23492V0.74234C19.4419 0.632111 19.0394 0.574219 18.6275 0.574219Z" fill="#EFBE3B"/>
<path d="M22.137 2.28516L21.1094 3.31268C20.8213 3.60086 20.8213 4.06805 21.1094 4.35623C21.3976 4.64441 21.8648 4.64441 22.153 4.35623L23.1805 3.3287L22.137 2.28516Z" fill="#EFBE3B"/>
<path d="M24.6714 4.81934L23.6439 5.84686C23.3557 6.13504 23.3557 6.60245 23.6439 6.89062C23.932 7.1788 24.3992 7.1788 24.6874 6.89062L25.7149 5.86288L24.6714 4.81934Z" fill="#EFBE3B"/>
<path d="M25.7652 8.17285C25.3576 8.17285 25.0273 8.50311 25.0273 8.91071C25.0273 9.3183 25.3576 9.64856 25.7652 9.64856H27.2623C27.3155 9.64856 27.3674 9.64279 27.4176 9.6319C27.4227 9.54581 27.4259 9.4595 27.4259 9.37234C27.4259 8.96069 27.368 8.55801 27.2578 8.17285H25.7652Z" fill="#EFBE3B"/>
<path d="M26.6297 11.8779C26.6186 11.8651 26.6077 11.8522 26.5957 11.8401L25.5372 10.7816C25.2491 10.4934 24.7817 10.4934 24.4935 10.7816C24.2053 11.0697 24.2053 11.5369 24.4935 11.8251L25.552 12.8838C25.5642 12.8958 25.577 12.9067 25.5898 12.9178C25.7889 12.7764 25.9782 12.6185 26.1542 12.4423C26.3304 12.2662 26.4885 12.077 26.6297 11.8779Z" fill="#EFBE3B"/>
<path d="M22.6224 11.3154C22.2148 11.3154 21.8845 11.6459 21.8845 12.0535V13.5461C22.2697 13.6561 22.6724 13.7142 23.084 13.7142C23.171 13.7142 23.2575 13.7108 23.3436 13.7059C23.3545 13.6557 23.3602 13.6038 23.3602 13.5506V12.0535C23.3602 11.6459 23.03 11.3154 22.6224 11.3154Z" fill="#EFBE3B"/>
<path d="M19.575 12.0032L20.6025 10.9755C20.8907 10.6873 20.8907 10.2201 20.6025 9.93195C20.3144 9.64378 19.8472 9.64378 19.559 9.93195L18.5312 10.9595L19.575 12.0032Z" fill="#EFBE3B"/>
<path d="M17.0404 9.46906L18.0681 8.44132C18.3563 8.15314 18.3563 7.68595 18.0681 7.39777C17.7799 7.1096 17.3125 7.1096 17.0244 7.39777L15.9968 8.4253L17.0404 9.46906Z" fill="#EFBE3B"/>
<path d="M15.9466 6.11536C16.3542 6.11536 16.6844 5.7851 16.6844 5.3775C16.6844 4.96991 16.3542 4.63965 15.9466 4.63965H14.4497C14.3963 4.63965 14.3444 4.64542 14.2942 4.65631C14.2891 4.7424 14.2859 4.82892 14.2859 4.91586C14.2859 5.32751 14.3438 5.73019 14.454 6.11536H15.9466Z" fill="#EFBE3B"/>
<path d="M25.5565 6.90015L21.0999 2.44354C19.7344 1.07806 17.5204 1.07806 16.155 2.44354C14.7895 3.80902 14.7895 6.02301 16.155 7.38849L20.6116 11.8451C21.9771 13.2106 24.191 13.2106 25.5565 11.8451C26.922 10.4796 26.922 8.26562 25.5565 6.90015Z" fill="#00C67F"/>
<path d="M17.2234 6.32007C16.4493 5.54568 16.4493 4.28595 17.2234 3.51178C17.9976 2.73761 19.2576 2.73761 20.0317 3.51178L24.4883 7.96838C25.2625 8.74277 25.2625 10.0025 24.4883 10.7767C23.714 11.5508 22.4542 11.5508 21.6801 10.7767L17.2234 6.32007Z" fill="#B0EBCE"/>
<path d="M24.4882 7.96817L23.3615 6.84131C24.1357 7.61569 24.1357 8.87543 23.3615 9.6496C22.5871 10.424 21.3274 10.424 20.5532 9.6496L21.6799 10.7765C22.4543 11.5506 23.714 11.5506 24.4882 10.7765C25.2625 10.0023 25.2623 8.74234 24.4882 7.96817Z" fill="#60D9A7"/>
<path d="M7.04859 21.5704C6.94049 21.5704 6.8324 21.5292 6.74994 21.4468L6.32803 21.0251C6.16312 20.8599 6.16312 20.5925 6.32803 20.4276C6.49316 20.2624 6.76062 20.2624 6.92554 20.4276L7.34744 20.8493C7.51236 21.0142 7.51236 21.2816 7.34744 21.4468C7.26499 21.5292 7.15668 21.5704 7.04859 21.5704Z" fill="#334151"/>
<path d="M11.709 16.9103C11.6009 16.9103 11.4926 16.8691 11.4101 16.7864L10.9884 16.3647C10.8235 16.1998 10.8235 15.9322 10.9884 15.7672C11.1534 15.6023 11.421 15.6023 11.5859 15.7672L12.0076 16.1889C12.1728 16.3541 12.1728 16.6215 12.0076 16.7864C11.9252 16.8689 11.8171 16.9103 11.709 16.9103Z" fill="#334151"/>
<path d="M8.84239 19.7887C8.81035 19.7887 8.77809 19.7876 8.74605 19.7855C8.5132 19.7697 8.33717 19.5682 8.35277 19.3354C8.36836 19.1026 8.5696 18.9267 8.80266 18.9423C8.98381 18.9545 9.16731 18.8823 9.30531 18.7443C9.4431 18.6065 9.5153 18.4232 9.50313 18.2419C9.48753 18.009 9.66356 17.8076 9.89641 17.792C10.1295 17.7764 10.3307 17.9524 10.3463 18.1853C10.3747 18.6099 10.2132 19.0316 9.90282 19.3418C9.61592 19.6287 9.23396 19.7887 8.84239 19.7887Z" fill="#334151"/>
<path d="M18.9864 5.84851C18.8783 5.84851 18.77 5.80728 18.6876 5.72461C18.5224 5.55969 18.5224 5.29224 18.6876 5.12711L19.0123 4.8024C19.1772 4.63748 19.4449 4.63748 19.6098 4.8024C19.7747 4.96753 19.7747 5.23499 19.6098 5.3999L19.2851 5.72461C19.2026 5.80728 19.0945 5.84851 18.9864 5.84851Z" fill="#334151"/>
<path d="M22.5739 9.43619C22.4658 9.43619 22.3577 9.39496 22.2751 9.3125C22.1101 9.14737 22.1101 8.87991 22.2751 8.715L22.5998 8.39029C22.7649 8.22537 23.0323 8.22537 23.1975 8.39029C23.3624 8.55521 23.3624 8.82288 23.1975 8.98779L22.8728 9.3125C22.7901 9.39496 22.682 9.43619 22.5739 9.43619Z" fill="#334151"/>
<path d="M21.1933 8.06443C20.866 8.06443 20.547 7.93113 20.308 7.69209C20.0493 7.43339 19.9145 7.08134 19.9382 6.7263C19.9538 6.49345 20.1557 6.31721 20.3881 6.33302C20.621 6.34861 20.7972 6.55006 20.7814 6.78291C20.7739 6.89463 20.8192 7.00828 20.9055 7.09458C20.9918 7.18089 21.1057 7.22618 21.217 7.21849C21.4498 7.2031 21.6513 7.37913 21.6669 7.61198C21.6824 7.84483 21.5064 8.04606 21.2736 8.06166C21.2469 8.06358 21.22 8.06443 21.1933 8.06443Z" fill="#334151"/>
</svg>
