<svg width="28" height="28" viewBox="0 0 28 28" fill="none" xmlns="http://www.w3.org/2000/svg">
<g clip-path="url(#clip0)">
<path d="M3.92704 27.1269C6.57132 23.1605 13.182 23.1605 13.182 23.1605C13.182 23.1605 21.1149 23.1605 21.7761 14.5664C22.3843 6.65684 27.0646 3.98929 27.0646 3.98929L24.0729 0.997559C21.4286 4.96398 14.8179 4.96398 14.8179 4.96398C14.8179 4.96398 6.88507 4.96398 6.22386 13.558C5.61562 21.4673 0.935303 24.1351 0.935303 24.1351L3.92704 27.1269Z" fill="#FE4F17"/>
<path d="M0.936215 25.0701C0.61123 25.0701 0.29534 24.9005 0.122549 24.5982C-0.132089 24.1508 0.023048 23.5821 0.467863 23.3253C0.645735 23.2213 4.73332 20.7471 5.29208 13.4862C6.01133 4.13704 14.7306 4.02951 14.818 4.02951C14.8785 4.02951 20.9644 3.97548 23.2952 0.478753C23.5808 0.0486494 24.1597 -0.0663658 24.5916 0.219567C25.0217 0.506036 25.1378 1.08593 24.8511 1.51603C21.9623 5.84889 15.1085 5.89918 14.818 5.89918C14.5324 5.90105 7.74084 6.02891 7.1564 13.6303C6.51633 21.9387 1.60732 24.8283 1.39815 24.9478C1.25211 25.031 1.09322 25.0701 0.936215 25.0701Z" fill="#223942"/>
<path d="M3.92618 28.062C3.74831 28.062 3.56857 28.0106 3.40862 27.9047C2.97851 27.6182 2.86269 27.0383 3.14916 26.6082C6.03792 22.2754 12.8918 22.2251 13.1822 22.2251C13.4679 22.2232 20.2597 22.0954 20.8439 14.4939C21.4839 6.18553 26.3929 3.29598 26.6021 3.17642C27.0493 2.92071 27.6209 3.07772 27.8774 3.52601C28.1323 3.9735 27.9772 4.54215 27.5324 4.79893C27.3545 4.90298 23.2669 7.37715 22.7082 14.6381C21.9889 23.9872 13.2697 24.0947 13.182 24.0947C13.1218 24.0947 7.03587 24.1488 4.70508 27.6455C4.52533 27.9157 4.22843 28.062 3.92618 28.062Z" fill="#223942"/>
<path d="M11.6116 10.3518C9.65524 12.3084 8.84318 14.9043 9.25108 17.142L18.4018 7.99132C16.1643 7.58341 13.5679 8.39547 11.6116 10.3518Z" fill="#223942"/>
<path d="M16.0411 17.4257C14.0848 19.382 11.4887 20.194 9.25122 19.7861L18.4016 10.6357C18.8095 12.8732 17.9975 15.4693 16.0411 17.4257Z" fill="#223942"/>
</g>
<defs>
<clipPath id="clip0">
<rect width="28" height="28" fill="white"/>
</clipPath>
</defs>
</svg>
