<svg width="28" height="28" viewBox="0 0 28 28" fill="none" xmlns="http://www.w3.org/2000/svg">
<path d="M14 28C21.732 28 28 21.732 28 14C28 6.26801 21.732 0 14 0C6.26801 0 0 6.26801 0 14C0 21.732 6.26801 28 14 28Z" fill="#FFCCCF"/>
<path d="M18.742 23.2577C11.01 23.2577 4.74195 16.9897 4.74195 9.25767C4.74195 6.60718 5.47887 4.12902 6.75845 2.01611C2.70752 4.46929 0 8.91811 0 13.9996C0 21.7316 6.26801 27.9996 14 27.9996C19.0815 27.9996 23.5303 25.292 25.9835 21.2412C23.8706 22.5208 21.3924 23.2577 18.742 23.2577Z" fill="#FFB3B7"/>
<path d="M14 25.7417C20.4849 25.7417 25.742 20.4847 25.742 13.9998C25.742 7.51486 20.4849 2.25781 14 2.25781C7.51511 2.25781 2.25806 7.51486 2.25806 13.9998C2.25806 20.4847 7.51511 25.7417 14 25.7417Z" fill="#FF979D"/>
<path d="M2.25806 14.0001C2.25806 20.485 7.51511 25.7421 14 25.7421C16.8875 25.7421 19.5298 24.6979 21.5748 22.9691C20.6597 23.1573 19.7128 23.2582 18.742 23.2582C11.01 23.2582 4.74196 16.9901 4.74196 9.25816C4.74196 8.28735 4.84286 7.34038 5.03104 6.42529C3.30221 8.47022 2.25806 11.1126 2.25806 14.0001Z" fill="#F57E85"/>
<path d="M11.6182 11.6183C8.64017 8.64032 3.59432 11.1499 4.15257 15.3243C4.43142 17.4095 5.37205 19.423 6.9745 21.0255C8.6399 22.6909 10.7495 23.6415 12.9219 23.8772C16.9893 24.3186 19.2818 19.2818 16.3887 16.3889L11.6182 11.6183Z" fill="#E6646E"/>
<path d="M11.6111 11.6113C8.71809 8.71823 11.0105 3.68151 15.078 4.1229C17.2504 4.35865 19.36 5.30923 21.0253 6.97463C22.6907 8.64003 23.6413 10.7496 23.8771 12.922C24.3185 16.9894 19.2817 19.2819 16.3887 16.3889L11.6111 11.6113Z" fill="#E6646E"/>
<path d="M11.445 18.3607C12.4426 18.3607 13.2513 17.552 13.2513 16.5544C13.2513 15.5568 12.4426 14.748 11.445 14.748C10.4474 14.748 9.63867 15.5568 9.63867 16.5544C9.63867 17.552 10.4474 18.3607 11.445 18.3607Z" fill="#DC4655"/>
<path d="M16.5544 13.2513C17.552 13.2513 18.3607 12.4426 18.3607 11.445C18.3607 10.4474 17.552 9.63867 16.5544 9.63867C15.5568 9.63867 14.748 10.4474 14.748 11.445C14.748 12.4426 15.5568 13.2513 16.5544 13.2513Z" fill="#DC4655"/>
<path d="M5.01909 12.0396C4.34496 12.8994 3.97964 14.0318 4.15251 15.3244C4.43136 17.4096 5.37199 19.4232 6.97444 21.0256C8.63984 22.691 10.7494 23.6416 12.9218 23.8774C14.1469 24.0103 15.209 23.6441 16.0189 22.9914C10.4909 21.9015 6.13176 17.5593 5.01909 12.0396Z" fill="#DC4655"/>
</svg>
