<svg width="28" height="28" viewBox="0 0 28 28" fill="none" xmlns="http://www.w3.org/2000/svg">
<g clip-path="url(#clip0)">
<path d="M19.695 10.4411C19.4329 10.4411 19.2205 10.2286 19.2205 9.9665V6.16989C19.2205 5.90779 19.4329 5.69531 19.695 5.69531C19.9571 5.69531 20.1696 5.90779 20.1696 6.16989V9.9665C20.1696 10.2286 19.9571 10.4411 19.695 10.4411Z" fill="#3F5C6C"/>
<path d="M15.2293 14.4699C15.0165 14.4678 14.8311 14.3241 14.7758 14.1186C14.7206 13.913 14.8089 13.6958 14.992 13.5872L18.2286 11.6889C18.3751 11.5824 18.5695 11.5685 18.7296 11.6532C18.8898 11.7379 18.9877 11.9064 18.9821 12.0874C18.9765 12.2685 18.8683 12.4306 18.7032 12.5052C15.2198 14.5506 15.4239 14.4699 15.2293 14.4699Z" fill="#3F5C6C"/>
<path d="M9.53423 4.50387C9.32138 4.5017 9.13602 4.35807 9.08076 4.15252C9.02551 3.94696 9.11387 3.72976 9.29694 3.62116L12.5336 1.72285C12.7553 1.62263 13.017 1.70639 13.1393 1.91678C13.2616 2.12717 13.2049 2.39599 13.0081 2.53912C9.49626 4.60353 9.7288 4.50387 9.53423 4.50387Z" fill="#3F5C6C"/>
<path d="M12.7711 14.4655C12.586 14.4655 12.8186 14.5651 9.2972 12.515C9.13212 12.4403 9.02392 12.2783 9.0183 12.0972C9.01268 11.9161 9.11062 11.7477 9.27076 11.663C9.43089 11.5783 9.62527 11.5921 9.77177 11.6987L13.0084 13.597C13.1782 13.7104 13.2564 13.9197 13.2026 14.1167C13.1488 14.3137 12.975 14.4541 12.7711 14.4655Z" fill="#3F5C6C"/>
<path d="M8.30539 10.4411C8.04329 10.4411 7.83081 10.2286 7.83081 9.9665V6.16989C7.83081 5.90779 8.04329 5.69531 8.30539 5.69531C8.56749 5.69531 8.77997 5.90779 8.77997 6.16989V9.9665C8.77997 10.2286 8.56749 10.4411 8.30539 10.4411Z" fill="#3F5C6C"/>
<path d="M18.466 4.4994C18.2857 4.4994 18.504 4.59431 14.9921 2.54889C14.7953 2.40575 14.7387 2.13693 14.861 1.92655C14.9833 1.71616 15.2449 1.63239 15.4667 1.73262L18.7033 3.63092C18.8731 3.74435 18.9513 3.95366 18.8975 4.15063C18.8437 4.34761 18.6699 4.48807 18.466 4.4994Z" fill="#3F5C6C"/>
<path d="M7.07603 24.436C6.89569 24.436 7.12823 24.5404 3.60213 22.4808C3.43705 22.4062 3.32885 22.2441 3.32323 22.063C3.31761 21.882 3.41556 21.7135 3.57569 21.6288C3.73582 21.5441 3.9302 21.558 4.0767 21.6645L7.31331 23.5628C7.4873 23.6748 7.56867 23.8866 7.51441 24.0863C7.46015 24.286 7.28277 24.4275 7.07603 24.436Z" fill="#3F5C6C"/>
<path d="M3.8394 14.4702C3.62656 14.468 3.4412 14.3244 3.38594 14.1188C3.33068 13.9133 3.41905 13.6961 3.60211 13.5875L6.83873 11.6892C7.0605 11.5889 7.32213 11.6727 7.44445 11.8831C7.56677 12.0935 7.51013 12.3623 7.31331 12.5054C3.80144 14.5698 4.03398 14.4702 3.8394 14.4702Z" fill="#3F5C6C"/>
<path d="M12.7711 14.4654C12.5908 14.4654 12.8091 14.5604 9.2972 12.5149C9.13212 12.4403 9.02392 12.2783 9.0183 12.0972C9.01268 11.9161 9.11062 11.7477 9.27076 11.663C9.43089 11.5783 9.62527 11.5921 9.77177 11.6987L13.0084 13.597C13.1782 13.7104 13.2564 13.9197 13.2026 14.1167C13.1488 14.3137 12.975 14.4541 12.7711 14.4654Z" fill="#3F5C6C"/>
<path d="M2.61032 20.4069C2.34822 20.4069 2.13574 20.1944 2.13574 19.9323V16.1357C2.13574 15.8736 2.34822 15.6611 2.61032 15.6611C2.87242 15.6611 3.08489 15.8736 3.08489 16.1357V19.9323C3.08489 20.1944 2.87242 20.4069 2.61032 20.4069Z" fill="#3F5C6C"/>
<path d="M25.3899 20.4069C25.1278 20.4069 24.9153 20.1944 24.9153 19.9323V16.1357C24.9153 15.8736 25.1278 15.6611 25.3899 15.6611C25.652 15.6611 25.8644 15.8736 25.8644 16.1357V19.9323C25.8644 20.1944 25.652 20.4069 25.3899 20.4069Z" fill="#3F5C6C"/>
<path d="M15.2293 14.4698C15.0165 14.4677 14.8311 14.324 14.7758 14.1185C14.7206 13.9129 14.8089 13.6957 14.992 13.5871C18.5371 11.5227 18.2903 11.6319 18.4659 11.6319C18.682 11.6303 18.8719 11.775 18.9277 11.9838C18.9835 12.1926 18.8912 12.4128 18.7032 12.5193C15.2198 14.5505 15.4239 14.4698 15.2293 14.4698Z" fill="#3F5C6C"/>
<path d="M24.1607 14.4654C23.9804 14.4654 24.1987 14.5604 20.6868 12.5149C20.5218 12.4403 20.4136 12.2783 20.4079 12.0972C20.4023 11.9161 20.5003 11.7477 20.6604 11.663C20.8205 11.5783 21.0149 11.5921 21.1614 11.6987L24.398 13.597C24.5678 13.7104 24.646 13.9197 24.5922 14.1167C24.5384 14.3137 24.3646 14.4541 24.1607 14.4654Z" fill="#3F5C6C"/>
<path d="M20.9244 24.4358C20.7115 24.4336 20.5262 24.29 20.4709 24.0844C20.4156 23.8788 20.504 23.6616 20.6871 23.553L23.9237 21.6547C24.0702 21.5482 24.2646 21.5343 24.4247 21.619C24.5848 21.7037 24.6828 21.8722 24.6772 22.0533C24.6715 22.2343 24.5633 22.3964 24.3983 22.471C20.9149 24.5164 21.1189 24.4358 20.9244 24.4358Z" fill="#3F5C6C"/>
<path d="M14.0001 2.84746C14.7864 2.84746 15.4239 2.21003 15.4239 1.42373C15.4239 0.637425 14.7864 0 14.0001 0C13.2138 0 12.5764 0.637425 12.5764 1.42373C12.5764 2.21003 13.2138 2.84746 14.0001 2.84746Z" fill="#FE4F17"/>
<path d="M8.30532 6.16972C9.09162 6.16972 9.72905 5.5323 9.72905 4.74599C9.72905 3.95969 9.09162 3.32227 8.30532 3.32227C7.51902 3.32227 6.88159 3.95969 6.88159 4.74599C6.88159 5.5323 7.51902 6.16972 8.30532 6.16972Z" fill="#FE4F17"/>
<path d="M19.695 6.16972C20.4813 6.16972 21.1187 5.5323 21.1187 4.74599C21.1187 3.95969 20.4813 3.32227 19.695 3.32227C18.9087 3.32227 18.2712 3.95969 18.2712 4.74599C18.2712 5.5323 18.9087 6.16972 19.695 6.16972Z" fill="#FE4F17"/>
<path d="M19.695 12.8138C20.4813 12.8138 21.1187 12.1763 21.1187 11.39C21.1187 10.6037 20.4813 9.96631 19.695 9.96631C18.9087 9.96631 18.2712 10.6037 18.2712 11.39C18.2712 12.1763 18.9087 12.8138 19.695 12.8138Z" fill="#FE4F17"/>
<path d="M8.30532 12.8138C9.09162 12.8138 9.72905 12.1763 9.72905 11.39C9.72905 10.6037 9.09162 9.96631 8.30532 9.96631C7.51902 9.96631 6.88159 10.6037 6.88159 11.39C6.88159 12.1763 7.51902 12.8138 8.30532 12.8138Z" fill="#FE4F17"/>
<path d="M14.0001 16.1355C14.7864 16.1355 15.4239 15.4981 15.4239 14.7118C15.4239 13.9255 14.7864 13.2881 14.0001 13.2881C13.2138 13.2881 12.5764 13.9255 12.5764 14.7118C12.5764 15.4981 13.2138 16.1355 14.0001 16.1355Z" fill="#FE4F17"/>
<path d="M2.61025 16.1355C3.39656 16.1355 4.03398 15.4981 4.03398 14.7118C4.03398 13.9255 3.39656 13.2881 2.61025 13.2881C1.82395 13.2881 1.18652 13.9255 1.18652 14.7118C1.18652 15.4981 1.82395 16.1355 2.61025 16.1355Z" fill="#FE4F17"/>
<path d="M2.61025 22.7796C3.39656 22.7796 4.03398 22.1421 4.03398 21.3559C4.03398 20.5696 3.39656 19.9321 2.61025 19.9321C1.82395 19.9321 1.18652 20.5696 1.18652 21.3559C1.18652 22.1421 1.82395 22.7796 2.61025 22.7796Z" fill="#FE4F17"/>
<path d="M8.30532 26.1018C9.09162 26.1018 9.72905 25.4644 9.72905 24.6781C9.72905 23.8918 9.09162 23.2544 8.30532 23.2544C7.51902 23.2544 6.88159 23.8918 6.88159 24.6781C6.88159 25.4644 7.51902 26.1018 8.30532 26.1018Z" fill="#FE4F17"/>
<path d="M25.3898 16.1355C26.1761 16.1355 26.8135 15.4981 26.8135 14.7118C26.8135 13.9255 26.1761 13.2881 25.3898 13.2881C24.6035 13.2881 23.9661 13.9255 23.9661 14.7118C23.9661 15.4981 24.6035 16.1355 25.3898 16.1355Z" fill="#FE4F17"/>
<path d="M25.3898 22.7796C26.1761 22.7796 26.8135 22.1421 26.8135 21.3559C26.8135 20.5696 26.1761 19.9321 25.3898 19.9321C24.6035 19.9321 23.9661 20.5696 23.9661 21.3559C23.9661 22.1421 24.6035 22.7796 25.3898 22.7796Z" fill="#FE4F17"/>
<path d="M19.695 26.1018C20.4813 26.1018 21.1187 25.4644 21.1187 24.6781C21.1187 23.8918 20.4813 23.2544 19.695 23.2544C18.9087 23.2544 18.2712 23.8918 18.2712 24.6781C18.2712 25.4644 18.9087 26.1018 19.695 26.1018Z" fill="#FE4F17"/>
<path d="M22.5425 16.0692C22.3811 17.7112 21.5933 19.7994 20.1269 20.7343C18.5845 21.7309 16.5106 21.4272 15.495 21.2089C15.1154 21.1187 14.8828 21.038 14.8828 21.038C14.8828 21.038 14.9065 20.796 14.9777 20.4116C15.177 19.3865 15.756 17.3695 17.2937 16.3729C18.8313 15.3763 20.9099 15.6801 21.9255 15.8984C22.3099 15.9885 22.5425 16.0692 22.5425 16.0692Z" fill="#4FBA6F"/>
<path d="M13.1172 21.019C13.1172 21.019 12.8846 21.0997 12.5097 21.1898C11.4941 21.4271 9.41549 21.7309 7.87311 20.7153C6.41142 19.7661 5.61413 17.6685 5.45752 16.0502C5.45752 16.0502 5.69006 15.9695 6.06972 15.8793C7.08532 15.642 9.15921 15.3383 10.7016 16.3539C12.244 17.3695 12.8182 19.3627 13.0175 20.3878C13.0935 20.7722 13.1172 21.019 13.1172 21.019Z" fill="#4FBA6F"/>
<path d="M22.5423 16.0693C22.5423 16.0693 22.5423 16.3113 22.4473 16.6957L15.4948 21.19C15.1911 21.3845 14.9063 21.2991 14.484 23.7716V27.5255C14.484 27.7876 14.2715 28.0001 14.0094 28.0001C13.7473 28.0001 13.5348 27.7876 13.5348 27.5255V23.8381C13.5111 23.7859 13.1979 21.6693 12.8562 21.413L5.55243 16.6957C5.48125 16.3113 5.45752 16.0693 5.45752 16.0693C5.45752 16.0693 5.69006 15.9886 6.06972 15.8984L13.3735 20.6157C13.6895 20.8831 13.9095 21.2464 13.9999 21.6503C14.0941 21.3216 14.2557 21.0161 14.4745 20.7533C14.5457 20.6394 13.9619 21.0428 21.9158 15.8984C22.3097 15.9886 22.5423 16.0693 22.5423 16.0693Z" fill="#4C8056"/>
</g>
<defs>
<clipPath id="clip0">
<rect width="28" height="28" fill="white"/>
</clipPath>
</defs>
</svg>
