<svg width="28" height="28" viewBox="0 0 28 28" fill="none" xmlns="http://www.w3.org/2000/svg">
<g clip-path="url(#clip0)">
<path d="M0.911009 26.2821C0.862943 26.2821 0.814877 26.2746 0.766345 26.2592C0.617014 26.2102 0.46675 26.1603 0.315552 26.1085C0.0719565 26.0245 -0.0582414 25.7594 0.0252906 25.5154C0.109289 25.2718 0.373885 25.1425 0.618414 25.2251C0.764945 25.2751 0.910543 25.3245 1.05567 25.3712C1.3002 25.451 1.43507 25.7142 1.35527 25.9596C1.2904 26.1566 1.10747 26.2821 0.911009 26.2821Z" fill="#7383BF"/>
<path d="M8.33448 27.4816C8.08762 27.4816 7.88182 27.2856 7.86782 27.0383C7.86782 27.029 7.86782 27.0196 7.86782 27.015C7.86782 26.763 8.06429 26.5581 8.31581 26.5483C8.64248 26.5296 8.93647 26.5063 9.21693 26.469C9.4736 26.441 9.70692 26.623 9.73959 26.875C9.77179 27.1316 9.59026 27.365 9.33826 27.3976C9.01627 27.435 8.68961 27.463 8.35828 27.4816C8.35315 27.4816 8.34381 27.4816 8.33448 27.4816ZM6.44918 27.449C6.43565 27.449 6.42585 27.449 6.41231 27.449C6.09919 27.4256 5.77766 27.3934 5.45053 27.351C5.2172 27.3188 5.03987 27.1228 5.03987 26.8894C5.03987 26.8656 5.03987 26.8474 5.04454 26.8288C5.0772 26.5768 5.31053 26.3943 5.56719 26.4228L5.57186 26.4461L5.57699 26.4228C5.87566 26.4648 6.18365 26.4923 6.48185 26.5156C6.73851 26.5343 6.92984 26.763 6.91117 27.0196C6.89251 27.2623 6.69184 27.449 6.44918 27.449ZM3.64456 27.029C3.61236 27.029 3.57923 27.0243 3.54656 27.0192C3.25723 26.9538 2.94924 26.8838 2.64171 26.8045L2.60904 26.7998C2.48771 26.7672 2.38971 26.6878 2.32438 26.5805C2.25905 26.4732 2.24505 26.3472 2.27352 26.2305C2.33885 25.9832 2.59504 25.8292 2.84284 25.8945C3.13683 25.9687 3.44016 26.0392 3.74349 26.1041C3.86436 26.133 3.97122 26.2077 4.03655 26.3103C4.10655 26.413 4.12522 26.539 4.10235 26.6603C4.05522 26.875 3.86436 27.029 3.64456 27.029ZM11.1204 26.9916C10.9151 26.9916 10.7378 26.8652 10.6771 26.6743C10.6584 26.623 10.6538 26.5712 10.6538 26.525C10.6538 26.3243 10.7798 26.147 10.9711 26.0817C11.2558 25.9883 11.5358 25.881 11.7976 25.755C12.0258 25.6481 12.3151 25.755 12.4177 25.979C12.5297 26.2123 12.4275 26.4876 12.1942 26.5996C11.9142 26.7303 11.6109 26.8516 11.2936 26.959L11.2651 26.9683C11.2184 26.987 11.1718 26.9916 11.1204 26.9916ZM13.5704 25.6103C13.4351 25.6103 13.3086 25.5543 13.2251 25.4563C13.1457 25.3677 13.1037 25.2557 13.1037 25.1437C13.1037 25.0083 13.1597 24.8819 13.2577 24.7983C13.4724 24.6023 13.6731 24.3924 13.8546 24.1684C14.0086 23.9724 14.3166 23.9397 14.5079 24.0984C14.6059 24.173 14.6666 24.285 14.6806 24.411C14.6946 24.5323 14.6572 24.6541 14.5826 24.7517C14.3814 24.9985 14.1626 25.2319 13.9246 25.4517L13.8826 25.4937C13.7991 25.5683 13.6871 25.6103 13.5704 25.6103ZM15.1477 23.291C15.0917 23.291 15.0357 23.2812 14.9839 23.2626C14.8019 23.193 14.6852 23.0246 14.681 22.8286C14.681 22.7726 14.6904 22.7119 14.7137 22.6606C14.8164 22.3899 14.8999 22.1099 14.9704 21.8159C15.031 21.5686 15.283 21.4099 15.5304 21.4706C15.7819 21.5266 15.9359 21.7786 15.8804 22.0306C15.8006 22.3619 15.7026 22.6834 15.5859 22.9919C15.5164 23.1697 15.3437 23.291 15.1477 23.291ZM15.6424 20.5144H15.6377C15.381 20.5144 15.1808 20.3091 15.1757 20.0571V20.0478C15.1757 20.0244 15.1757 20.0058 15.1757 19.9871C15.1757 19.9684 15.1757 19.9451 15.1757 19.9264C15.1757 19.6744 15.1664 19.4084 15.1477 19.142C15.1379 19.016 15.1757 18.8951 15.2546 18.8018C15.339 18.7084 15.4506 18.6478 15.5766 18.638C15.8426 18.6193 16.0572 18.8153 16.0759 19.0724C16.0992 19.3618 16.1081 19.646 16.1081 19.9264C16.1081 19.9684 16.1081 20.0146 16.1081 20.0566C16.1044 20.3091 15.8944 20.5144 15.6424 20.5144ZM15.3395 17.7051C15.1248 17.7051 14.9382 17.5563 14.8864 17.3551L14.8817 17.3365C14.877 17.3271 14.877 17.3178 14.877 17.3085C14.8117 17.0145 14.7417 16.7205 14.6624 16.4405C14.597 16.1936 14.7417 15.9365 14.9937 15.867C15.2317 15.8012 15.4977 15.9552 15.563 16.1983C15.6517 16.5109 15.7268 16.8283 15.7964 17.1409L15.801 17.1694H15.7964C15.801 17.1927 15.8062 17.2114 15.8062 17.2347C15.8062 17.4541 15.6522 17.6454 15.4375 17.6921C15.4044 17.7005 15.3717 17.7051 15.3395 17.7051ZM14.5364 14.9892C14.3404 14.9892 14.1631 14.8627 14.0982 14.6812C14.0282 14.5038 13.9675 14.3405 13.9022 14.1725C13.8509 14.0461 13.8042 13.9252 13.7571 13.8039C13.7104 13.6872 13.7151 13.5607 13.7669 13.4487C13.8177 13.3321 13.9115 13.2481 14.0282 13.2019C14.2615 13.1132 14.542 13.2392 14.6302 13.4725C14.6722 13.5892 14.7188 13.7059 14.7655 13.8272C14.8355 13.9905 14.9008 14.1674 14.9708 14.3592C14.9895 14.4105 14.9988 14.4623 15.003 14.5178C15.003 14.7143 14.877 14.8916 14.6955 14.9565C14.6437 14.9798 14.5877 14.9892 14.5364 14.9892ZM13.5895 12.3152C13.3842 12.3152 13.1975 12.1752 13.1415 11.9792C13.0482 11.6526 12.9642 11.3352 12.8942 11.0412C12.8382 10.7892 12.9922 10.5372 13.2442 10.4812C13.4915 10.4206 13.7482 10.5792 13.8042 10.8266C13.8695 11.1019 13.9489 11.3959 14.0375 11.7174C14.0511 11.7599 14.0562 11.8019 14.0562 11.8439C14.0609 12.0539 13.9209 12.2359 13.7197 12.2966C13.6777 12.3106 13.6357 12.3152 13.5895 12.3152ZM13.0197 9.5386C12.7817 9.5386 12.5857 9.36127 12.5582 9.12794C12.5209 8.79661 12.4975 8.46995 12.4835 8.14795C12.4737 7.89129 12.6749 7.67663 12.9315 7.6673C13.1882 7.6393 13.4075 7.85863 13.4169 8.11529C13.4262 8.39995 13.4491 8.69861 13.4864 9.02061C13.4864 9.03414 13.4864 9.05281 13.4864 9.06727C13.4915 9.3104 13.3142 9.5106 13.0757 9.5386C13.0571 9.5386 13.0384 9.5386 13.0197 9.5386ZM13.0524 6.71531C13.0244 6.71531 13.0011 6.71065 12.9777 6.71065C12.7542 6.67331 12.5857 6.47265 12.5857 6.24865C12.5857 6.22532 12.5857 6.19779 12.5904 6.17399C12.6464 5.83379 12.7169 5.50667 12.8004 5.19867C12.8704 4.95601 13.1364 4.80668 13.3744 4.87714C13.6264 4.94667 13.7711 5.20334 13.7006 5.45067C13.6213 5.72133 13.5606 6.00599 13.5186 6.29065L13.5139 6.31912C13.4771 6.54778 13.2811 6.71531 13.0524 6.71531ZM14.0044 4.06936C13.9157 4.06936 13.8317 4.04136 13.7571 3.99469C13.6217 3.91069 13.5424 3.76136 13.5424 3.6027C13.5424 3.5145 13.5657 3.43003 13.6124 3.3507C13.7944 3.06604 13.9997 2.79071 14.2237 2.53871C14.387 2.35205 14.6997 2.33338 14.8864 2.49672C15.0777 2.66938 15.0917 2.96337 14.9237 3.15937C14.7324 3.37403 14.555 3.60736 14.401 3.85003C14.317 3.98536 14.1677 4.06936 14.0044 4.06936ZM27.0895 2.18405C27.0428 2.18405 26.9915 2.17939 26.9448 2.16072C26.935 2.16072 26.9262 2.15605 26.9122 2.15092C26.7255 2.09026 26.5948 1.91293 26.5902 1.71273C26.5902 1.6614 26.6 1.61473 26.614 1.5634C26.6933 1.3254 26.9588 1.19007 27.202 1.26474C27.2155 1.2694 27.23 1.27407 27.2393 1.27874C27.356 1.3156 27.4488 1.3954 27.5048 1.50693C27.5608 1.6194 27.5748 1.74539 27.5328 1.86206C27.4726 2.05806 27.2953 2.18405 27.0895 2.18405ZM16.0297 2.12339C15.8664 2.12339 15.7124 2.03472 15.6288 1.89473C15.5864 1.82473 15.563 1.74539 15.563 1.6614C15.563 1.49387 15.6517 1.33987 15.7964 1.2554C16.081 1.09207 16.3843 0.938075 16.6975 0.80741C16.9308 0.714545 17.2108 0.83121 17.3088 1.05941C17.4068 1.29787 17.2948 1.5732 17.0568 1.6712C16.7815 1.78273 16.5155 1.91806 16.2681 2.06319C16.1977 2.10472 16.1142 2.12339 16.0297 2.12339ZM25.2462 1.64786C25.2042 1.64786 25.1669 1.64273 25.1295 1.63806C24.8029 1.55406 24.5089 1.48873 24.2289 1.42807C24.0096 1.3814 23.8556 1.19007 23.8556 0.971208C23.8556 0.938542 23.8602 0.905409 23.8649 0.873209C23.9162 0.63008 24.1682 0.462549 24.4202 0.513415C24.7231 0.579214 25.0409 0.653413 25.3582 0.732745C25.6055 0.793877 25.7595 1.04587 25.6942 1.29787C25.6433 1.50273 25.4562 1.64786 25.2462 1.64786ZM18.6896 1.19007C18.461 1.19007 18.2696 1.02674 18.2323 0.802744C18.2276 0.774744 18.223 0.746745 18.223 0.718745C18.223 0.494749 18.3863 0.302952 18.6103 0.265619C18.9183 0.210087 19.245 0.167621 19.5903 0.139621C19.8521 0.116289 20.071 0.312285 20.0943 0.564281C20.113 0.820943 19.9216 1.04961 19.665 1.06827C19.3621 1.09627 19.0583 1.13361 18.769 1.18494C18.7414 1.19007 18.713 1.19007 18.6896 1.19007ZM22.456 1.13407C22.442 1.13407 22.4234 1.13407 22.4047 1.12941C22.0967 1.09674 21.7887 1.06874 21.4901 1.05007C21.2427 1.04027 21.0467 0.830743 21.0514 0.583414C21.0514 0.573614 21.0514 0.569414 21.0514 0.560081C21.0654 0.302952 21.2899 0.112089 21.5419 0.121422C21.8447 0.135422 22.1719 0.163421 22.5125 0.200754C22.6338 0.214754 22.7458 0.275419 22.82 0.373418C22.8994 0.471416 22.9367 0.592747 22.9232 0.718745C22.8942 0.956741 22.6936 1.13407 22.456 1.13407Z" fill="#7383BF"/>
<path d="M27.5331 2.33327C27.4831 2.33327 27.4318 2.32487 27.3819 2.30807C27.2353 2.25813 27.0893 2.20867 26.9441 2.162C26.6996 2.0822 26.5648 1.81901 26.6446 1.57354C26.7244 1.32902 26.9852 1.19415 27.233 1.27395C27.3823 1.32248 27.5331 1.37288 27.6843 1.42468C27.9279 1.50868 28.0581 1.77374 27.9745 2.0178C27.9083 2.21147 27.7272 2.33327 27.5331 2.33327Z" fill="#7383BF"/>
<path d="M2.33335 27.9997C2.13922 27.9997 1.95815 27.8779 1.89189 27.6843C-0.184277 21.6228 0.176451 16.6683 2.88261 14.091C5.34283 11.7483 9.46996 11.5612 14.5066 13.5664C19.1419 15.4111 22.8701 15.3085 25.0046 13.2752C27.4116 10.9835 27.6617 6.36962 25.6915 0.618051C25.608 0.374455 25.7382 0.108926 25.9818 0.0249279C26.2253 -0.0576708 26.4909 0.0715938 26.5749 0.31519C28.6683 6.42702 28.3309 11.3969 25.649 13.951C23.2355 16.2507 19.1564 16.4215 14.1618 14.433C9.48536 12.572 5.70729 12.691 3.52659 14.7671C1.09577 17.0822 0.82184 21.6798 2.77527 27.3819C2.85881 27.6255 2.72861 27.891 2.48501 27.975C2.43461 27.9918 2.38375 27.9997 2.33335 27.9997Z" fill="#D75A4A"/>
<path d="M11.5807 26.8206C11.4612 26.8206 11.3418 26.7748 11.2508 26.6838L1.43738 16.8709C1.25492 16.6885 1.25492 16.3935 1.43738 16.2111C1.61985 16.0286 1.91478 16.0286 2.09724 16.2111L11.9101 26.024C12.0926 26.2064 12.0926 26.5014 11.9101 26.6838C11.8196 26.7748 11.7001 26.8206 11.5807 26.8206Z" fill="#57ABC1"/>
<path d="M6.9534 27.4726C6.83393 27.4726 6.71447 27.4268 6.62347 27.3358L0.702033 21.4149C0.51957 21.2324 0.51957 20.9375 0.702033 20.755C0.884497 20.5725 1.17943 20.5725 1.36189 20.755L7.28286 26.676C7.46532 26.8584 7.46532 27.1534 7.28286 27.3358C7.19233 27.4273 7.07286 27.4726 6.9534 27.4726Z" fill="#EB7937"/>
<path d="M27.4677 7.41482C27.3482 7.41482 27.2288 7.36909 27.1378 7.27809L20.7609 0.901196C20.5784 0.718732 20.5784 0.423804 20.7609 0.24134C20.9433 0.0588763 21.2383 0.0588763 21.4207 0.24134L27.7976 6.61823C27.9801 6.8007 27.9801 7.09563 27.7976 7.27809C27.7066 7.36909 27.5872 7.41482 27.4677 7.41482Z" fill="#EBBA16"/>
<path d="M26.7523 11.979C26.6328 11.979 26.5134 11.9333 26.4224 11.8423L16.2767 1.69758C16.0943 1.51512 16.0943 1.22019 16.2767 1.03773C16.4592 0.855263 16.7541 0.855263 16.9366 1.03773L27.0818 11.1824C27.2642 11.3649 27.2642 11.6598 27.0818 11.8423C26.9908 11.9337 26.8713 11.979 26.7523 11.979Z" fill="#1081E0"/>
<path d="M24.3285 14.8352C24.209 14.8352 24.0895 14.7894 23.9985 14.6984L13.5211 4.22053C13.3387 4.03807 13.3387 3.74314 13.5211 3.56068C13.7036 3.37821 13.9985 3.37821 14.181 3.56068L24.6584 14.0386C24.8409 14.221 24.8409 14.516 24.6584 14.6984C24.5674 14.7899 24.4479 14.8352 24.3285 14.8352Z" fill="#659C35"/>
<path d="M20.0179 15.8042C19.8984 15.8042 19.779 15.7584 19.688 15.6674L12.64 8.61995C12.4576 8.43748 12.4576 8.14255 12.64 7.96009C12.8225 7.77763 13.1174 7.77763 13.2999 7.96009L20.3478 15.008C20.5303 15.1905 20.5303 15.4854 20.3478 15.6679C20.2568 15.7589 20.1374 15.8042 20.0179 15.8042Z" fill="#FC3952"/>
<path d="M15.6407 20.321C15.5212 20.321 15.4017 20.2752 15.3107 20.1842L8.12 12.9935C7.93754 12.811 7.93754 12.5161 8.12 12.3336C8.30247 12.1512 8.59739 12.1512 8.77986 12.3336L15.9706 19.5244C16.1531 19.7068 16.1531 20.0018 15.9706 20.1842C15.8796 20.2757 15.7601 20.321 15.6407 20.321Z" fill="#23A24D"/>
<path d="M14.5301 24.4904C14.4106 24.4904 14.2912 24.4447 14.2002 24.3537L3.85902 14.0125C3.67655 13.8301 3.67655 13.5351 3.85902 13.3527C4.04148 13.1702 4.33641 13.1702 4.51887 13.3527L14.86 23.6938C15.0425 23.8763 15.0425 24.1712 14.86 24.3537C14.769 24.4447 14.6496 24.4904 14.5301 24.4904Z" fill="#BF4D90"/>
</g>
<defs>
<clipPath id="clip0">
<rect width="28" height="28" fill="white"/>
</clipPath>
</defs>
</svg>
